<?xml version="1.0" standalone="no"?>
<!DOCTYPE svg PUBLIC "-//W3C//DTD SVG 1.1//EN" "http://www.w3.org/Graphics/SVG/1.1/DTD/svg11.dtd" >
<svg xmlns="http://www.w3.org/2000/svg">
<metadata></metadata>
<defs>
<font id="tondo_corpregular" horiz-adv-x="1249" >
<font-face units-per-em="2048" ascent="1638" descent="-410" />
<missing-glyph horiz-adv-x="501" />
<glyph unicode="&#xd;" horiz-adv-x="501" />
<glyph horiz-adv-x="0" />
<glyph horiz-adv-x="0" />
<glyph unicode=" " horiz-adv-x="501" d="M0 0z" />
<glyph unicode="!" horiz-adv-x="557" d="M164 96q0 47 33.5 81t78.5 34q47 0 81 -34t34 -81q0 -45 -33.5 -78.5t-81.5 -33.5q-45 0 -78.5 33.5t-33.5 78.5zM184 1094v258q0 47 23.5 65.5t71.5 18.5q47 0 70.5 -18.5t23.5 -65.5v-258l-21 -611q-2 -41 -20.5 -55t-55.5 -14t-53 14t-18 55z" />
<glyph unicode="&#x22;" horiz-adv-x="753" d="M109 1272v80q0 47 23.5 65.5t70.5 18.5t70.5 -18.5t23.5 -65.5v-80l-18 -260q-4 -41 -22.5 -54.5t-55.5 -13.5q-39 0 -54.5 13.5t-19.5 54.5zM457 1272v80q0 47 23.5 65.5t70.5 18.5t70.5 -18.5t23.5 -65.5v-80l-18 -260q-4 -41 -22.5 -54.5t-55.5 -13.5 q-39 0 -54.5 13.5t-19.5 54.5z" />
<glyph unicode="#" horiz-adv-x="1314" d="M76 494q0 35 14 53t55 18h197l39 285h-236q-41 0 -55 19.5t-14 54.5t14 53t55 18h256l50 346q6 43 22 58.5t57 15.5q39 0 60.5 -14.5t15.5 -59.5l-49 -346h281l49 346q6 43 22.5 58.5t57.5 15.5q39 0 60.5 -14.5t14.5 -59.5l-49 -346h178q41 0 55.5 -18.5t14.5 -52.5 q0 -35 -14.5 -54.5t-55.5 -19.5h-198l-39 -285h237q41 0 55.5 -18.5t14.5 -52.5q0 -35 -14.5 -54.5t-55.5 -19.5h-258l-49 -346q-6 -43 -22.5 -58.5t-57.5 -15.5q-39 0 -60.5 14.5t-14.5 59.5l49 346h-281l-49 -346q-6 -43 -22.5 -58.5t-57.5 -15.5q-39 0 -60.5 14.5 t-15.5 59.5l50 346h-177q-41 0 -55 19.5t-14 54.5zM498 565h280l39 285h-280z" />
<glyph unicode="$" d="M98 236q0 31 28 55t60 24q16 0 33 -8t29 -18q14 -16 37.5 -40t60.5 -46.5t88 -43t123 -28.5v504l-22 6q-100 25 -179.5 58.5t-133.5 79.5t-82.5 106.5t-28.5 138.5q0 74 27.5 140.5t82.5 116.5t139 81t197 37v117q0 41 18.5 55t53.5 14t54 -14.5t19 -54.5v-121 q86 -10 152 -33t114 -48.5t79.5 -52t48.5 -44.5q16 -18 22 -36t6 -32q0 -29 -27.5 -54.5t-60.5 -25.5t-69 43l-33 31q-18 20 -50 40.5t-77 39t-105 28.5v-483l97 -25q176 -45 264 -133t88 -237q0 -90 -33 -160t-93 -119t-142 -76.5t-181 -31.5v-105q0 -41 -19 -55t-54 -14 t-53.5 14t-18.5 55v107q-92 8 -162.5 28.5t-122 46t-85 51t-50.5 44.5q-29 29 -34 45t-5 33zM281 1032q0 -33 9 -63.5t35.5 -58t76 -52t128.5 -45.5l27 -8v452q-86 -6 -139 -29.5t-84 -56t-42 -69.5t-11 -70zM702 125q129 10 202 66t73 165q0 92 -66.5 150.5t-208.5 93.5 v-475z" />
<glyph unicode="%" horiz-adv-x="1943" d="M90 967q0 219 92 336.5t252 117.5t252 -117.5t92 -336.5t-92 -337t-252 -118t-252 118t-92 337zM246 967q0 -150 48 -233t140 -83q90 0 139.5 83t49.5 233q0 147 -49.5 232t-139.5 85q-92 0 -140 -85t-48 -232zM569 25q0 10 2 20t11 27l643 1302q20 43 59 43 q37 0 62.5 -19.5t25.5 -41.5q0 -10 -2 -20.5t-10 -26.5l-641 -1297q-10 -23 -24.5 -35t-43.5 -12q-35 0 -58.5 18.5t-23.5 41.5zM1165 420q0 219 92.5 336.5t251.5 117.5q160 0 252 -117.5t92 -336.5t-92 -337t-252 -118t-252 118t-92 337zM1321 420q0 -150 48 -233t140 -83 q90 0 139.5 83t49.5 233q0 147 -49.5 232t-139.5 85q-92 0 -140 -85t-48 -232z" />
<glyph unicode="&#x26;" horiz-adv-x="1388" d="M94 383q0 78 23.5 141.5t65.5 115.5t100.5 95t128.5 80q-66 86 -95.5 155.5t-29.5 145.5q0 74 25.5 133.5t71.5 101.5t108.5 63.5t138.5 21.5q94 0 158.5 -26t104.5 -66.5t58.5 -91t18.5 -99.5q0 -74 -25.5 -128t-70 -98t-103.5 -80t-127 -69q78 -92 158 -180t188 -188 q14 23 26.5 50t22 55t16.5 51.5t11 35.5q12 55 70 55q27 0 55.5 -14t28.5 -45q0 -14 -3.5 -27.5t-7.5 -29.5q-6 -29 -33.5 -98.5t-70.5 -141.5q45 -39 94 -82t123 -102q23 -18 29 -30.5t6 -27.5q0 -37 -29 -64.5t-61 -27.5q-16 0 -30.5 8.5t-23.5 14.5q-33 27 -59.5 48 t-51 41.5t-48 42t-51.5 46.5q-86 -92 -198 -146.5t-249 -54.5q-115 0 -201 33t-144 89t-88 132t-30 162zM270 385q0 -63 22.5 -113.5t61.5 -84t93.5 -51t117.5 -17.5q104 0 187.5 45t136.5 110q-94 92 -196.5 203.5t-194.5 222.5q-100 -59 -164 -130.5t-64 -184.5zM451 1126 q0 -59 32.5 -119.5t77.5 -119.5q53 27 99.5 54.5t81 58t55 66.5t20.5 79q0 27 -9 55.5t-30.5 53t-56.5 40t-86 15.5q-92 0 -138 -52.5t-46 -130.5z" />
<glyph unicode="'" horiz-adv-x="405" d="M109 1272v80q0 47 23.5 65.5t70.5 18.5t70.5 -18.5t23.5 -65.5v-80l-18 -260q-4 -41 -22.5 -54.5t-55.5 -13.5q-39 0 -54.5 13.5t-19.5 54.5z" />
<glyph unicode="(" horiz-adv-x="774" d="M131 637q0 158 38 297t104.5 255t153.5 207t185 156q18 10 34 17.5t32 7.5q29 0 49.5 -22.5t20.5 -51.5q0 -10 -5.5 -22.5t-25.5 -28.5q-115 -96 -191.5 -196.5t-123 -203t-67 -207t-20.5 -208.5t20.5 -207.5t67 -206t123 -203t191.5 -194.5q20 -16 25.5 -28.5t5.5 -22.5 q0 -29 -20.5 -51.5t-49.5 -22.5q-16 0 -31.5 7t-34.5 18q-98 63 -185 154t-153.5 207t-104.5 254t-38 296z" />
<glyph unicode=")" horiz-adv-x="774" d="M27 -225q0 10 5 22.5t25 28.5q113 94 191 194.5t124 203t66.5 206t20.5 207.5t-20.5 208.5t-66.5 207t-124 203t-191 196.5q-20 16 -25 28.5t-5 22.5q0 29 20.5 51.5t48.5 22.5q16 0 31.5 -7t34.5 -18q98 -66 185 -156.5t153.5 -206.5t104.5 -255t38 -297t-38 -296 t-104.5 -254t-153.5 -207t-185 -154q-18 -10 -33.5 -17.5t-32.5 -7.5q-29 0 -49 22.5t-20 51.5z" />
<glyph unicode="*" horiz-adv-x="794" d="M45 1171q0 14 10 39q18 45 47 45q14 0 31 -8l201 -71v219q0 35 16.5 46t46.5 11q33 0 48.5 -11t15.5 -46v-219l201 71q16 8 30 8q29 0 47 -45q10 -25 11 -39q0 -29 -41 -41l-215 -71l139 -180q16 -23 16 -35q0 -14 -11 -24.5t-28 -22.5q-23 -16 -41 -17q-25 0 -45 31 l-127 176l-127 -176q-23 -31 -45 -31q-18 0 -41 17q-16 12 -27.5 22t-11.5 25q0 12 17 35l139 180l-215 71q-41 12 -41 41z" />
<glyph unicode="+" d="M160 696q0 37 16.5 57.5t56.5 20.5h310v330q0 45 20.5 61.5t59.5 16.5q41 0 61.5 -16.5t20.5 -61.5v-330h311q41 0 57.5 -20.5t16.5 -57.5t-16.5 -58.5t-57.5 -21.5h-311v-327q0 -45 -20.5 -61.5t-61.5 -16.5q-39 0 -59.5 16.5t-20.5 61.5v327h-310q-41 0 -57 21.5 t-16 58.5z" />
<glyph unicode="," horiz-adv-x="419" d="M98 111q0 57 33 88.5t86 31.5t89 -36.5t36 -110.5q0 -61 -17.5 -113.5t-40 -92.5t-43 -65.5t-26.5 -31.5q-14 -16 -25.5 -19.5t-19.5 -3.5q-27 0 -46.5 14.5t-19.5 37.5q0 10 3.5 21t19.5 32q23 29 45.5 63.5t26.5 77.5q-45 4 -73 34t-28 73z" />
<glyph unicode="-" horiz-adv-x="581" d="M49 528q0 41 17.5 62.5t60.5 21.5h328q43 0 60 -21.5t17 -62.5t-17 -64.5t-60 -23.5h-328q-43 0 -60.5 23.5t-17.5 64.5z" />
<glyph unicode="." horiz-adv-x="436" d="M94 106q0 49 37 87t86 38t87 -37.5t38 -87.5q0 -49 -38 -85.5t-87 -36.5t-86 36.5t-37 85.5z" />
<glyph unicode="/" horiz-adv-x="929" d="M29 51q0 27 22 66l694 1272q12 23 26.5 35t39.5 12q41 0 65.5 -19.5t24.5 -48.5q0 -27 -22 -65l-695 -1272q-12 -23 -26.5 -35t-38.5 -12q-41 0 -65.5 19.5t-24.5 47.5z" />
<glyph unicode="0" d="M96 705q0 346 139.5 531t389.5 185q252 0 390 -185t138 -531q0 -172 -36 -308.5t-103.5 -229.5t-165.5 -142.5t-223 -49.5t-223.5 49.5t-166 142.5t-103.5 229t-36 309zM274 705q0 -129 22.5 -236t67 -182.5t110 -116.5t151.5 -41t151.5 41t109.5 116.5t66.5 182.5 t22.5 236q0 127 -22.5 231t-66.5 178t-109.5 115t-151.5 41t-151.5 -41t-110 -115t-67 -178.5t-22.5 -230.5z" />
<glyph unicode="1" d="M246 74q0 35 14 54t55 19h265v1033q-57 -43 -111.5 -75t-77.5 -42t-36 -14.5t-29 -4.5q-35 0 -52.5 31t-17.5 60q0 20 11.5 34.5t43.5 30.5q25 12 56.5 29.5t65.5 39t66.5 45t59.5 48.5q23 18 41 28.5t57 10.5h9q41 0 64.5 -17.5t23.5 -64.5v-1172h264q41 0 55 -19 t14 -54t-14 -54.5t-55 -19.5h-703q-41 0 -55 19.5t-14 54.5z" />
<glyph unicode="2" d="M162 90q0 35 12 56.5t41 43.5q33 27 88 75t114.5 102.5t114 105.5t84.5 84q57 59 107.5 113.5t87.5 109t58.5 109.5t21.5 119q0 135 -74 201.5t-196 66.5q-74 0 -125.5 -24.5t-86 -58.5t-54 -70.5t-31.5 -61.5q-16 -33 -33 -41t-39 -8q-31 0 -59.5 18.5t-28.5 52.5 q0 16 4 37t18 47q14 27 45 70t84.5 84t132 70.5t187.5 29.5q98 0 177 -26.5t136.5 -77.5t88 -127t30.5 -176q0 -70 -22.5 -136.5t-62.5 -131t-93 -128t-117 -126.5q-43 -43 -91 -90.5t-97 -92.5t-96.5 -87t-88.5 -75h629q41 0 55.5 -19t14.5 -54t-14.5 -54.5t-55.5 -19.5 h-772q-53 0 -73.5 22.5t-20.5 67.5z" />
<glyph unicode="3" d="M100 289q0 37 32 59.5t63 22.5q23 0 39 -11.5t34 -42.5q14 -25 39 -58.5t62 -63t91 -50t130 -20.5q154 0 235.5 73.5t81.5 209.5q0 250 -332 249h-20q-41 0 -55.5 19.5t-14.5 54.5t14.5 54.5t55.5 19.5h23q152 0 221 70.5t69 175.5q0 111 -67.5 167t-190.5 56 q-70 0 -120 -19.5t-86.5 -49t-62.5 -62.5t-44 -58q-16 -23 -30.5 -32t-33.5 -9q-39 0 -64.5 21.5t-25.5 52.5q0 27 11.5 47.5t21.5 36.5q14 18 46 55t85 73t129 63.5t178 27.5q209 0 319.5 -94t110.5 -262q0 -106 -52 -191.5t-148 -128.5q100 -39 171.5 -121.5t71.5 -222.5 q0 -104 -37.5 -184t-104 -133t-156 -81t-191.5 -28q-117 0 -198 26t-134 60.5t-85 72.5t-46 61t-24.5 44t-10.5 50z" />
<glyph unicode="4" d="M115 401q0 27 10 48.5t31 50.5l587 846q20 29 46 42t71 13q41 0 64.5 -17.5t23.5 -64.5v-866h111q41 0 55 -16.5t14 -51.5t-14 -55.5t-55 -20.5h-111v-241q0 -47 -22.5 -64.5t-63.5 -17.5t-59.5 17t-18.5 65v241h-571q-53 0 -75.5 25.5t-22.5 66.5zM293 453h491v710z" />
<glyph unicode="5" d="M152 279q0 37 30.5 56t61.5 19q23 0 40 -10t33 -43q8 -18 23.5 -48t47.5 -59.5t83 -51t129 -21.5q160 0 236.5 97t76.5 253q0 170 -82.5 254t-214.5 84q-49 0 -91 -12.5t-73.5 -28.5t-52.5 -33l-28 -20q-16 -12 -37 -24.5t-51 -12.5q-94 0 -95 78v10l37 539 q4 47 27.5 67.5t66.5 20.5h633q41 0 55.5 -20.5t14.5 -55.5t-14.5 -56.5t-55.5 -21.5h-581l-25 -397q8 10 32.5 28.5t61.5 37t87.5 31.5t109.5 13q117 0 202 -36.5t141 -101t83 -153t27 -188.5q0 -123 -36 -216t-100.5 -155.5t-151.5 -94.5t-192 -32q-106 0 -180 24 t-124 56.5t-78.5 67.5t-43.5 57q-14 23 -23 46.5t-9 52.5z" />
<glyph unicode="6" d="M145 623q0 154 22.5 298t83 255.5t165 178t270.5 66.5q80 0 140.5 -16t103.5 -36.5t67.5 -42t30.5 -30.5q16 -23 23.5 -37t7.5 -32q0 -33 -20.5 -52.5t-55.5 -19.5q-27 0 -48.5 15.5t-47.5 31.5q-43 29 -88 51.5t-121 22.5q-154 0 -247 -122t-101 -380q41 70 130 120 t204 50q106 0 191 -35t144.5 -97t91 -151.5t31.5 -197.5q0 -106 -32.5 -195.5t-94 -154t-149.5 -101.5t-199 -37q-258 0 -380 163t-122 485zM330 455q0 -66 18.5 -126.5t57 -107.5t97 -75.5t138.5 -28.5t138.5 28.5t96 76.5t55 109.5t17.5 129.5q0 70 -16.5 132t-53 108.5 t-95 73t-142.5 26.5q-82 0 -141.5 -29t-97 -77t-55 -110.5t-17.5 -129.5z" />
<glyph unicode="7" d="M139 1114v191q0 47 25.5 67.5t68.5 20.5h814q94 0 94 -93q0 -25 -8.5 -50t-30.5 -64q-68 -125 -138.5 -264.5t-141 -287t-137.5 -299.5t-124 -306q-8 -18 -21.5 -30.5t-37.5 -12.5q-35 0 -68 15t-33 48q0 16 5.5 34.5t11.5 35.5q111 285 244 557t290 559h-657v-121 q0 -41 -20.5 -55.5t-57.5 -14.5t-57.5 14.5t-20.5 55.5z" />
<glyph unicode="8" d="M115 385q0 68 20.5 125t56 101t84 77t103.5 51q-84 39 -146.5 116t-62.5 187q0 104 42 177t107.5 117t147.5 64.5t160 20.5q80 0 160.5 -20.5t146 -64.5t107.5 -116.5t42 -177.5q0 -109 -62.5 -186.5t-146.5 -116.5q111 -37 187 -126t76 -228q0 -74 -27 -146.5t-86 -131 t-156.5 -95.5t-240.5 -37q-145 0 -242.5 37t-158 95.5t-86 131t-25.5 146.5zM295 391q0 -74 28.5 -126t75.5 -85t106.5 -47t121.5 -14q59 0 117.5 14t105.5 47t76.5 85t29.5 126t-28.5 125t-74.5 85t-105.5 49.5t-120.5 15.5t-121 -15.5t-107 -49.5t-75.5 -85t-28.5 -125z M342 1042q0 -59 25.5 -104t66.5 -74.5t92.5 -44t100.5 -14.5t100 14.5t92 44t66.5 74.5t25.5 104q0 41 -14 84t-48 77t-88 55.5t-134 21.5t-135.5 -21.5t-88 -55.5t-47 -77t-14.5 -84z" />
<glyph unicode="9" d="M125 932q0 106 32.5 195.5t95 155t153 102t202.5 36.5q252 0 373 -162.5t121 -484.5q0 -154 -22.5 -298t-83 -255.5t-165 -178.5t-270.5 -67q-80 0 -139.5 13.5t-100 31t-64.5 35t-32 23.5q-37 35 -37 69q0 33 26 58.5t54 25.5q33 0 55.5 -17t51 -37.5t73.5 -38 t123 -17.5q154 0 246 120.5t101 379.5q-41 -70 -130.5 -120t-203.5 -50q-106 0 -191.5 33.5t-145 97t-91 152.5t-31.5 198zM299 934q0 -70 16.5 -132.5t53.5 -108.5t95 -72.5t142 -26.5q82 0 141.5 28.5t97.5 77t56.5 110.5t18.5 130q0 66 -18.5 127t-57.5 108.5t-98.5 76 t-139.5 28.5t-138 -28.5t-96 -77t-55.5 -110.5t-17.5 -130z" />
<glyph unicode=":" horiz-adv-x="436" d="M94 106q0 49 37 87t86 38t87 -37.5t38 -87.5q0 -49 -38 -85.5t-87 -36.5t-86 36.5t-37 85.5zM94 901q0 49 37 87t86 38t87 -37.5t38 -87.5q0 -49 -38 -85.5t-87 -36.5t-86 36.5t-37 85.5z" />
<glyph unicode=";" horiz-adv-x="423" d="M98 901q0 49 37 87t86 38t87 -37.5t38 -87.5q0 -49 -38 -85.5t-87 -36.5t-86 36.5t-37 85.5zM102 111q0 57 33 88.5t86 31.5t89 -36.5t36 -110.5q0 -61 -17.5 -113.5t-40 -92.5t-43 -65.5t-26.5 -31.5q-14 -16 -25.5 -19.5t-19.5 -3.5q-27 0 -46.5 14.5t-19.5 37.5 q0 10 3.5 21t19.5 32q23 29 45.5 63.5t26.5 77.5q-45 4 -73 34t-28 73z" />
<glyph unicode="&#x3c;" d="M147 696q0 29 9.5 48.5t40.5 35.5l778 387q18 10 28.5 12.5t22.5 2.5q29 0 51.5 -28t22.5 -64q0 -35 -45 -58l-688 -338l688 -334q45 -23 45 -57q0 -37 -22.5 -64.5t-51.5 -27.5q-12 0 -22.5 2t-28.5 12l-778 385q-31 16 -40.5 37t-9.5 49z" />
<glyph unicode="=" d="M160 487q0 37 16.5 57.5t56.5 20.5h783q41 0 57.5 -20.5t16.5 -57.5t-16.5 -58t-57.5 -21h-783q-41 0 -57 21.5t-16 57.5zM160 905q0 37 16.5 57.5t56.5 20.5h783q41 0 57.5 -20.5t16.5 -57.5t-16.5 -58.5t-57.5 -21.5h-783q-41 0 -57 21.5t-16 58.5z" />
<glyph unicode="&#x3e;" d="M147 303q0 35 46 57l688 334l-688 338q-45 23 -46 58q0 37 23 64.5t51 27.5q12 0 22.5 -2t28.5 -13l779 -387q31 -16 40 -35.5t9 -48.5t-9.5 -49t-39.5 -37l-779 -385q-18 -10 -28.5 -12t-22.5 -2q-29 0 -51.5 27.5t-22.5 64.5z" />
<glyph unicode="?" horiz-adv-x="1087" d="M82 1108q0 16 5.5 38.5t21.5 53.5q12 23 39.5 66t77.5 85t128 72.5t191 30.5q98 0 179 -26.5t139.5 -77t91 -124t32.5 -167.5q0 -76 -20.5 -134.5t-54 -103.5t-75.5 -80.5t-85 -66.5q-47 -35 -77 -62.5t-46.5 -52t-22.5 -50.5t-6 -58q0 -45 -20.5 -61.5t-61.5 -16.5 q-39 0 -59.5 16.5t-20.5 61.5v22q0 59 16.5 104.5t43 80t60.5 63.5t71 55q33 25 64.5 51.5t56 58.5t39 72.5t14.5 96.5q0 121 -70.5 184.5t-197.5 63.5q-80 0 -132.5 -25t-85 -58.5t-48 -69.5t-23.5 -58q-12 -37 -30.5 -46.5t-45.5 -9.5q-35 0 -61.5 18.5t-26.5 53.5z M406 96q0 47 33.5 81t78.5 34q47 0 81 -34t34 -81q0 -45 -34 -78.5t-81 -33.5q-45 0 -78.5 33.5t-33.5 78.5z" />
<glyph unicode="@" horiz-adv-x="1878" d="M100 422q0 186 63.5 345t176.5 274.5t266.5 180t333.5 64.5q190 0 345 -64.5t264.5 -173t169 -251t59.5 -295.5q0 -168 -41 -272.5t-102.5 -162t-132 -78t-128.5 -20.5q-92 0 -142 38t-67 106q-39 -66 -111.5 -105t-158.5 -39q-92 0 -166 35t-127 98.5t-81.5 150.5 t-28.5 189t28.5 187.5t81.5 147t127 96t166 34.5q53 0 95 -13t74 -34.5t53.5 -47.5t33.5 -48v37q0 43 20.5 59.5t59.5 16.5q41 0 61.5 -16.5t20.5 -59.5v-598q0 -35 15 -60.5t63 -25.5q39 0 77.5 17.5t69.5 61.5t50.5 119.5t19.5 190.5q0 119 -46 232.5t-132.5 200.5 t-210 140.5t-279.5 53.5q-145 0 -268 -52.5t-212 -146.5t-139.5 -226.5t-50.5 -289.5q0 -158 55.5 -285t155 -217t236.5 -139t301 -49q141 0 218 20.5t103 28.5q20 6 29.5 7t22.5 1q35 -2 51 -33t16 -53q0 -29 -12 -44.5t-41 -25.5t-125 -34.5t-276 -24.5q-193 0 -358 61.5 t-286.5 173t-190.5 269t-69 348.5zM666 442q0 -63 14 -122.5t44 -104.5t76 -72.5t111 -27.5q57 0 103.5 23.5t77 66.5t47 102t16.5 129q0 63 -16.5 122.5t-47 104t-76.5 71t-104 26.5q-66 0 -111.5 -25.5t-75.5 -68.5t-44 -101.5t-14 -122.5z" />
<glyph unicode="A" horiz-adv-x="1376" d="M41 59q0 6 2 16.5t10 26.5l539 1278q12 25 33.5 40.5t64.5 15.5q47 0 68.5 -15.5t32.5 -40.5l534 -1274q8 -16 9 -25t1 -18q0 -37 -33.5 -57t-72.5 -20q-29 0 -45.5 15t-26.5 38l-158 369h-626l-160 -371q-23 -51 -68 -51q-37 0 -70.5 19.5t-33.5 53.5zM436 559h500 l-248 639z" />
<glyph unicode="B" horiz-adv-x="1314" d="M170 88v1245q0 47 25.5 67.5t68.5 20.5h363q283 0 415 -89t132 -288q0 -106 -52.5 -184t-150.5 -123q129 -45 190.5 -136t61.5 -202q0 -205 -132.5 -302t-406.5 -97h-420q-43 0 -68.5 20.5t-25.5 67.5zM346 158h330q195 0 276.5 59t81.5 182q0 61 -18.5 107.5t-63.5 78 t-117.5 47t-183.5 15.5h-305v-489zM346 797h258q109 0 182.5 14t118.5 43t64.5 73t19.5 103q0 61 -18.5 105.5t-61.5 73t-113.5 42t-174.5 13.5h-275v-467z" />
<glyph unicode="C" horiz-adv-x="1425" d="M104 709q0 170 48.5 308t136.5 235.5t212 150.5t275 53q100 0 178 -22.5t133.5 -52t90 -61.5t51.5 -50q37 -43 70.5 -99.5t33.5 -97.5q0 -45 -33.5 -61.5t-62.5 -16.5q-27 0 -44 15.5t-32 42.5q-23 41 -55.5 83t-77.5 76.5t-106.5 57t-143.5 22.5q-117 0 -206 -43 t-150.5 -119.5t-92 -184t-30.5 -236.5q0 -127 30.5 -234.5t92 -184.5t151 -120t205.5 -43q92 0 157.5 25.5t111 63.5t74 81t48.5 78q18 33 36 48t44 15q29 0 61.5 -16t32.5 -62q0 -41 -31.5 -97t-68.5 -99q-14 -16 -50 -50t-94.5 -67t-138 -57.5t-184.5 -24.5 q-152 0 -275.5 53.5t-211.5 149.5t-136.5 233.5t-48.5 307.5z" />
<glyph unicode="D" horiz-adv-x="1462" d="M170 88v1245q0 47 25.5 67.5t70.5 20.5h381q160 0 291 -43t225 -130t145.5 -221t51.5 -318q0 -182 -51.5 -315.5t-145.5 -220.5t-225 -130t-291 -43h-381q-45 0 -70.5 20.5t-25.5 67.5zM352 158h283q119 0 217 33.5t168 101t107.5 171.5t37.5 245t-39 245.5t-108.5 173 t-167.5 102.5t-215 34h-283v-1106z" />
<glyph unicode="E" horiz-adv-x="1234" d="M170 88v1245q0 47 25.5 67.5t68.5 20.5h811q41 0 58.5 -19.5t17.5 -58.5t-17.5 -59t-58.5 -20h-725v-459h686q41 0 58.5 -19.5t17.5 -58.5t-17.5 -59.5t-58.5 -20.5h-686v-489h725q41 0 58.5 -19.5t17.5 -58.5t-17.5 -59.5t-58.5 -20.5h-811q-43 0 -68.5 20.5t-25.5 67.5 z" />
<glyph unicode="F" horiz-adv-x="1159" d="M170 70v1263q0 47 25.5 67.5t68.5 20.5h770q41 0 58.5 -19.5t17.5 -58.5t-17.5 -59t-58.5 -20h-684v-461h625q41 0 58.5 -19.5t17.5 -58.5t-17.5 -59.5t-58.5 -20.5h-625v-575q0 -47 -23.5 -65.5t-66.5 -18.5t-66.5 18.5t-23.5 65.5z" />
<glyph unicode="G" horiz-adv-x="1495" d="M104 698q0 145 38 282.5t121 243t213 169t315 63.5q137 0 256.5 -46t197.5 -136q37 -43 63.5 -88t26.5 -86q0 -23 -10 -37t-24.5 -23.5t-31 -12.5t-30.5 -3q-27 0 -42 13.5t-36 45.5q-66 111 -156 161t-214 50q-111 0 -201 -36.5t-154.5 -111.5t-100.5 -186.5t-36 -261.5 q0 -279 115.5 -425t345.5 -146q61 0 139 16.5t148.5 65.5t118.5 141t48 244h-354q-41 0 -58.5 20.5t-17.5 59.5t17.5 58.5t58.5 19.5h418q43 0 68.5 -20.5t25.5 -67.5v-607q0 -41 -20.5 -56t-57.5 -15q-39 0 -58 15t-19 56v142q-27 -35 -65 -76t-95.5 -76t-136 -58.5 t-189.5 -23.5q-150 0 -266.5 51.5t-196.5 146.5t-122 230t-42 305z" />
<glyph unicode="H" horiz-adv-x="1476" d="M170 70v1282q0 47 24.5 65.5t67.5 18.5t66.5 -18.5t23.5 -65.5v-518h772v518q0 47 23.5 65.5t66.5 18.5t68 -18.5t25 -65.5v-1282q0 -47 -25 -65.5t-68 -18.5t-66.5 18.5t-23.5 65.5v606h-772v-606q0 -47 -23.5 -65.5t-66.5 -18.5t-67.5 18.5t-24.5 65.5z" />
<glyph unicode="I" horiz-adv-x="520" d="M170 70v1282q0 47 23.5 65.5t66.5 18.5t66.5 -18.5t23.5 -65.5v-1282q0 -47 -23.5 -65.5t-66.5 -18.5t-66.5 18.5t-23.5 65.5z" />
<glyph unicode="J" horiz-adv-x="1099" d="M57 297q0 45 34 64.5t67 19.5t49 -20.5t33 -53.5q18 -37 41.5 -70.5t54.5 -59t71 -41t95 -15.5q145 0 203.5 83t58.5 259v889q0 47 23.5 65.5t66.5 18.5t66.5 -18.5t23.5 -65.5v-887q0 -260 -115.5 -380t-347.5 -120q-100 0 -169.5 26.5t-115.5 64.5t-75 82t-45 81 q-18 43 -19 78z" />
<glyph unicode="K" horiz-adv-x="1302" d="M150 70v1282q0 47 23.5 65.5t68.5 18.5q43 0 66.5 -18.5t23.5 -65.5v-609l692 660q33 33 66 33q37 0 62.5 -27t25.5 -55q0 -10 -7.5 -26.5t-29.5 -39.5l-463 -444l563 -719q14 -18 17.5 -32.5t3.5 -22.5q0 -16 -9.5 -31.5t-24 -27t-30.5 -18.5t-31 -7q-47 0 -86 49 l-536 690l-213 -201v-454q0 -47 -23.5 -65.5t-66.5 -18.5q-45 0 -68.5 18.5t-23.5 65.5z" />
<glyph unicode="L" horiz-adv-x="1153" d="M170 88v1264q0 47 23.5 65.5t66.5 18.5t66.5 -18.5t23.5 -65.5v-1194h684q41 0 58.5 -19.5t17.5 -58.5t-17.5 -59.5t-58.5 -20.5h-770q-43 0 -68.5 20.5t-25.5 67.5z" />
<glyph unicode="M" horiz-adv-x="1781" d="M170 66v1263q0 59 31.5 83t87.5 24q57 0 83.5 -19.5t43.5 -58.5l479 -1145l479 1145q16 39 42 58.5t81 19.5t85 -23.5t30 -83.5v-1263q0 -45 -22.5 -62.5t-63.5 -17.5t-64.5 17t-23.5 63v1050l-443 -1044q-12 -29 -36.5 -49.5t-67.5 -20.5t-67.5 20.5t-37.5 49.5 l-442 1042v-1048q0 -45 -23.5 -62.5t-64.5 -17.5t-63.5 17t-22.5 63z" />
<glyph unicode="N" horiz-adv-x="1472" d="M170 66v1282q0 49 27.5 68.5t78.5 19.5q49 0 75 -21.5t48 -56.5l727 -1084v1082q0 45 24 62.5t64 17.5q41 0 65 -17.5t24 -62.5v-1282q0 -49 -28 -68.5t-79 -19.5q-49 0 -74.5 21.5t-48.5 55.5l-727 1080v-1077q0 -45 -23.5 -62.5t-64.5 -17.5t-64.5 17t-23.5 63z" />
<glyph unicode="O" horiz-adv-x="1564" d="M104 711q0 172 49.5 310t138.5 235.5t214 148.5t276 51q152 0 277 -51t214 -148.5t138 -235.5t49 -310t-49 -310.5t-138 -235.5t-214 -148.5t-277 -51.5t-276.5 51.5t-213.5 148.5t-138.5 235.5t-49.5 310.5zM299 711q0 -133 30.5 -241t92 -183.5t152 -117.5t208.5 -42 q119 0 209 42t151.5 117.5t92.5 183.5t31 241q0 131 -31 239.5t-92.5 184t-151.5 117.5t-209 42t-209 -42t-151.5 -117.5t-92 -184t-30.5 -239.5z" />
<glyph unicode="P" horiz-adv-x="1255" d="M170 70v1263q0 47 25.5 67.5t68.5 20.5h367q281 0 412 -110.5t131 -317.5q0 -57 -19.5 -131t-77 -139.5t-159 -110.5t-265.5 -45h-305v-497q0 -47 -23.5 -65.5t-66.5 -18.5t-65.5 18.5t-22.5 65.5zM348 721h258q109 0 182.5 19.5t117.5 55t63.5 86t19.5 111.5 q0 59 -18.5 109.5t-61.5 87.5t-112.5 57.5t-171.5 20.5h-277v-547z" />
<glyph unicode="Q" horiz-adv-x="1564" d="M104 711q0 172 49.5 310t138.5 235.5t214 148.5t276 51q152 0 277 -51t214 -148.5t138 -235.5t49 -310q0 -211 -71.5 -368t-198.5 -253l104 -164q14 -23 18.5 -38t4.5 -25q0 -35 -31 -56.5t-59 -21.5q-14 0 -30.5 7t-39.5 42l-113 176q-125 -45 -262 -45 q-152 0 -276.5 51.5t-213.5 148.5t-138.5 235.5t-49.5 310.5zM299 711q0 -133 30.5 -241t92 -183.5t152 -117.5t208.5 -42q96 0 170 27l-88 139q-16 25 -19 39t-3 24q0 33 30.5 54.5t59.5 21.5q14 0 31.5 -7t40.5 -40l92 -147q170 158 170 473q0 131 -31 239.5t-92.5 184 t-151.5 117.5t-209 42t-209 -42t-151.5 -117.5t-92 -184t-30.5 -239.5z" />
<glyph unicode="R" horiz-adv-x="1288" d="M170 70v1263q0 47 25.5 67.5t68.5 20.5h365q283 0 414 -102t131 -307q0 -45 -11.5 -97.5t-40 -102.5t-82 -94t-135.5 -75l281 -522q12 -25 14 -37t2 -21q0 -37 -31.5 -57t-70.5 -20q-29 0 -47.5 15t-36.5 52l-293 557q-16 -2 -33.5 -3t-36.5 -1h-305v-536 q0 -47 -23.5 -65.5t-66.5 -18.5t-65.5 18.5t-22.5 65.5zM348 760h266q109 0 180.5 16.5t114.5 48t60.5 78.5t17.5 109q0 59 -17.5 107t-60.5 81t-112.5 50.5t-173.5 17.5h-275v-508z" />
<glyph unicode="S" horiz-adv-x="1236" d="M86 240q0 33 30.5 59.5t63.5 26.5q18 -2 32.5 -12.5t27.5 -22.5q98 -100 194 -136t217 -36q131 0 216 60.5t85 176.5q0 102 -61.5 162t-202.5 100l-178 52q-190 53 -283.5 143t-93.5 252q0 102 44 176t114.5 122t155.5 70.5t169 22.5q141 0 265.5 -47t210.5 -156 q16 -23 22 -39t6 -32q0 -35 -26.5 -57.5t-57.5 -22.5q-20 0 -37.5 9t-40.5 32q-78 86 -157.5 123t-186.5 37q-57 0 -110 -14.5t-95 -43t-68 -73t-26 -101.5q0 -39 11.5 -70.5t39 -60.5t77 -53.5t122.5 -46.5l226 -70q178 -53 261 -144t83 -247q0 -109 -40 -186.5 t-106.5 -129t-153.5 -75t-180 -23.5q-154 0 -294 43t-238 148q-27 29 -32 48t-5 36z" />
<glyph unicode="T" horiz-adv-x="1232" d="M20 1343q0 39 17.5 58.5t60.5 19.5h1037q43 0 60 -19.5t17 -58.5t-17 -59t-60 -20h-428v-1194q0 -47 -24 -65.5t-67 -18.5t-66.5 18.5t-23.5 65.5v1194h-428q-43 0 -60.5 20.5t-17.5 58.5z" />
<glyph unicode="U" horiz-adv-x="1456" d="M160 518v834q0 47 24.5 65.5t67.5 18.5t66.5 -18.5t23.5 -65.5v-820q0 -205 102.5 -306t282.5 -101q184 0 285.5 101.5t101.5 305.5v820q0 47 23.5 65.5t66.5 18.5t67.5 -18.5t24.5 -65.5v-834q0 -123 -36.5 -224t-108.5 -174t-178.5 -114t-245.5 -41t-244.5 41 t-177.5 114t-108.5 174t-36.5 224z" />
<glyph unicode="V" horiz-adv-x="1318" d="M51 1358q0 37 34 57.5t73 20.5q53 0 69 -47l432 -1149l441 1151q10 23 23.5 34t41.5 11q37 0 70 -19.5t33 -54.5q0 -14 -6.5 -31.5t-16.5 -38.5l-489 -1251q-10 -25 -32 -40t-67 -15q-47 0 -68.5 15t-31.5 40l-483 1243q-10 23 -16.5 40t-6.5 34z" />
<glyph unicode="W" horiz-adv-x="1912" d="M61 1362q0 37 33 55.5t74 18.5q55 0 70 -54l307 -1110l315 1096q10 33 32.5 50.5t65.5 17.5q80 0 99 -68l315 -1096l307 1110q14 53 68 54q39 0 71.5 -17.5t32.5 -54.5q0 -16 -6 -37.5t-12 -42.5l-360 -1231q-18 -67 -101 -67h-2q-82 0 -100 67l-316 1059l-313 -1059 q-18 -67 -98 -67h-2q-84 0 -103 67l-360 1231q-4 18 -10.5 41t-6.5 37z" />
<glyph unicode="X" horiz-adv-x="1280" d="M41 57q0 29 25 64l469 610l-426 563q-12 16 -20.5 32.5t-8.5 33.5q0 35 31.5 55.5t60.5 20.5q23 0 40 -7.5t36 -29.5l397 -529l404 529q18 23 33.5 30t37.5 7q29 0 56.5 -20.5t27.5 -55.5q0 -16 -8 -32.5t-20 -33.5l-428 -557l456 -602q35 -49 35 -76q0 -33 -30.5 -53 t-63.5 -20q-23 0 -40.5 9t-39.5 38l-426 561l-440 -571q-16 -23 -32.5 -30t-37.5 -7q-31 0 -59.5 19.5t-28.5 51.5z" />
<glyph unicode="Y" horiz-adv-x="1239" d="M35 1356q0 35 31.5 57.5t62.5 22.5q43 0 68 -37l428 -598l422 592q29 43 69 43q29 0 58.5 -20.5t29.5 -55.5q0 -16 -8 -32.5t-18 -33.5l-465 -643v-581q0 -47 -23.5 -65.5t-66.5 -18.5t-68 18.5t-25 65.5v583q-111 150 -234.5 318t-234.5 319q-10 16 -18 32.5t-8 33.5z " />
<glyph unicode="Z" horiz-adv-x="1222" d="M53 90q0 25 9.5 46.5t35.5 56.5l840 1071h-762q-41 0 -58.5 20.5t-17.5 58.5q0 39 17.5 58.5t58.5 19.5h885q96 0 96 -90q0 -25 -10 -46t-35 -56l-842 -1071h822q43 0 60 -19.5t17 -58.5t-17 -59.5t-60 -20.5h-942q-96 0 -97 90z" />
<glyph unicode="[" horiz-adv-x="604" d="M170 -190v1613q0 47 25.5 67.5t68.5 20.5h236q39 0 52 -16t13 -51t-13 -51.5t-52 -16.5h-164v-1519h164q39 0 52 -16.5t13 -51.5t-13 -51.5t-52 -16.5h-236q-43 0 -68.5 20.5t-25.5 68.5z" />
<glyph unicode="\" horiz-adv-x="929" d="M29 1368q0 29 24.5 48.5t65.5 19.5q25 0 39 -12.5t26 -34.5l695 -1272q23 -39 22 -66q0 -29 -24.5 -48t-65.5 -19q-25 0 -39 12t-27 35l-694 1272q-23 39 -22 65z" />
<glyph unicode="]" horiz-adv-x="604" d="M39 -211q0 35 13.5 51.5t51.5 16.5h164v1519h-164q-39 0 -52 16.5t-13 51.5t13.5 51t51.5 16h236q43 0 68.5 -20.5t25.5 -67.5v-1613q0 -47 -25.5 -68t-68.5 -21h-236q-39 0 -52 16.5t-13 51.5z" />
<glyph unicode="^" horiz-adv-x="978" d="M86 733q0 12 3 24.5t15 35.5l285 569q16 31 38 45t62 14q43 0 64.5 -14t38.5 -45l285 -569q12 -23 15 -35.5t3 -24.5q0 -29 -26.5 -48t-61.5 -19t-49.5 13t-24.5 36l-241 493l-244 -493q-10 -23 -24.5 -36t-49.5 -13t-61.5 19.5t-26.5 47.5z" />
<glyph unicode="_" horiz-adv-x="1011" d="M6 -362q0 35 14.5 54t55.5 19h860q41 0 55.5 -19.5t14.5 -53.5q0 -35 -14.5 -54.5t-55.5 -19.5h-860q-41 0 -55.5 19.5t-14.5 54.5z" />
<glyph unicode="`" horiz-adv-x="802" d="M184 1446q0 35 30 65.5t73 30.5q31 0 55.5 -20.5t56.5 -59.5l136 -168q27 -29 26 -61q0 -27 -18.5 -44.5t-46.5 -17.5q-29 0 -49.5 12.5t-40.5 30.5l-175 156q-47 43 -47 76z" />
<glyph unicode="a" horiz-adv-x="1144" d="M104 268q0 80 29 147.5t98.5 116t185 76t292.5 31.5l106 2v41q0 117 -60.5 174t-195.5 57q-53 0 -92 -12t-66.5 -28.5t-45 -35t-29.5 -32.5q-20 -25 -35 -33t-37 -8q-33 0 -60.5 19.5t-27.5 50.5q0 16 3 26t9 23q2 6 24.5 34.5t68.5 61.5t119 58.5t177 25.5 q117 0 198 -29.5t130 -79t71.5 -114t22.5 -133.5v-654q0 -67 -85 -67h-3q-59 0 -72.5 26.5t-13.5 73.5v61q-20 -29 -49 -59.5t-71 -56t-100 -42t-134 -16.5q-92 0 -158.5 22.5t-111 62.5t-66 94.5t-21.5 115.5zM279 285q0 -70 48 -120t158 -50q96 0 175 44t120 109 q35 55 35 150v86l-113 -2q-131 -2 -212.5 -18.5t-129 -44t-64.5 -66.5t-17 -88z" />
<glyph unicode="b" horiz-adv-x="1218" d="M156 63v1291q0 47 22.5 64.5t63.5 17.5t64.5 -17.5t23.5 -64.5v-467q16 31 47 62.5t73 56t95 41t119 16.5q106 0 190 -40t142.5 -111.5t88 -171t29.5 -220.5t-29.5 -222t-88 -175t-142.5 -115t-190 -41q-125 0 -212 55.5t-130 135.5v-95q0 -45 -21.5 -61t-62.5 -16 t-61.5 16t-20.5 61zM324 518q0 -86 19 -158.5t58 -126t96.5 -83t131.5 -29.5q72 0 128 28.5t94 81t58.5 125t20.5 158.5q0 88 -18.5 159.5t-55.5 124t-92 81t-129 28.5q-147 0 -229 -103.5t-82 -285.5z" />
<glyph unicode="c" horiz-adv-x="1075" d="M100 516q0 121 33 221.5t94.5 173t151.5 112.5t207 40q88 0 154.5 -21.5t114.5 -54.5t78 -71.5t46 -71.5q8 -16 12 -30.5t4 -31.5q0 -37 -26.5 -58.5t-57.5 -21.5q-23 0 -38 9.5t-37 42.5q-12 16 -31 42.5t-47.5 51t-70.5 42t-101 17.5q-154 0 -227.5 -104.5 t-73.5 -284.5q0 -184 73.5 -290.5t227.5 -106.5q55 0 94 13t66.5 33.5t46 44t34.5 46.5q25 35 40.5 47t41.5 12q29 0 56.5 -20.5t27.5 -50.5q0 -29 -14 -56q-10 -23 -38 -60.5t-76 -74.5t-116.5 -63.5t-162.5 -26.5q-117 0 -207 41t-151.5 114t-94.5 174t-33 222z" />
<glyph unicode="d" horiz-adv-x="1218" d="M104 518q0 121 30 221.5t88.5 172t141 111.5t191.5 40q63 0 117.5 -16.5t96.5 -41t72.5 -56t47.5 -62.5v467q0 47 23.5 64.5t64.5 17.5t63.5 -17.5t22.5 -64.5v-1291q0 -45 -20.5 -61t-61.5 -16t-62.5 16t-21.5 61v95q-43 -80 -130 -135.5t-212 -55.5q-109 0 -191.5 41 t-141 114t-88.5 174t-30 222zM289 512q0 -178 77.5 -284.5t223.5 -106.5q74 0 131 29.5t96 83t58.5 126t19.5 158.5q0 182 -82 285.5t-229 103.5q-74 0 -129.5 -28.5t-92 -81t-55 -125t-18.5 -160.5z" />
<glyph unicode="e" horiz-adv-x="1159" d="M100 514q0 123 35 223.5t99.5 173t155.5 112.5t204 40q115 0 203 -40t147.5 -110.5t90 -166.5t30.5 -207q0 -74 -84 -74h-696q0 -166 83 -256t234 -90q59 0 103.5 15.5t75 37t50 44t31.5 38.5q14 20 27.5 30.5t40.5 10.5q29 0 56.5 -18.5t27.5 -49.5q0 -27 -23 -63 q-18 -29 -48 -62.5t-76 -64.5t-111.5 -51.5t-153.5 -20.5q-115 0 -208 40t-158.5 112.5t-100.5 174t-35 222.5zM293 618h596q-6 57 -25.5 111.5t-55.5 94.5t-89 64.5t-125 24.5t-125 -23.5t-90 -63.5t-58.5 -94t-27.5 -114z" />
<glyph unicode="f" horiz-adv-x="636" d="M31 954q0 35 14 54.5t55 19.5h95v143q0 127 78.5 206t230.5 79q43 0 85 -9t73.5 -24.5t52 -36t20.5 -45.5q0 -35 -21.5 -59.5t-49.5 -24.5q-18 0 -34 9.5t-33 19.5t-38.5 19.5t-52.5 9.5q-59 0 -98 -33t-39 -123v-131h180q41 0 55 -19.5t14 -54.5t-14 -54t-55 -19h-180 v-813q0 -47 -23.5 -64.5t-64.5 -17.5t-63.5 17t-22.5 65v813h-95q-41 0 -55 19.5t-14 53.5z" />
<glyph unicode="g" horiz-adv-x="1218" d="M104 530q0 117 30 214.5t88.5 168t141 110.5t191.5 40q63 0 118.5 -16.5t98.5 -43t75 -60.5t50 -69v91q0 45 21.5 61t62.5 16t61.5 -16t20.5 -61v-934q0 -135 -36 -228.5t-98.5 -151t-149.5 -83t-191 -25.5q-86 0 -159 15.5t-124 38.5q-53 25 -87 50t-34 64 q0 18 9.5 35.5t19.5 30.5q8 10 22.5 19t32.5 9t35 -10l14 -8q59 -35 127 -63.5t158 -28.5q125 0 206 73.5t81 243.5v152q-41 -70 -125 -122t-209 -52q-109 0 -191.5 39t-141 109.5t-88.5 171t-30 220.5zM289 524q0 -180 76.5 -280.5t224.5 -100.5q150 0 227.5 106.5 t77.5 278.5q0 184 -82 281.5t-229 97.5t-221 -102.5t-74 -280.5z" />
<glyph unicode="h" horiz-adv-x="1191" d="M156 68v1286q0 47 22.5 64.5t63.5 17.5t64.5 -17.5t23.5 -64.5v-473q29 53 76 90q55 47 125.5 69.5t142.5 22.5q162 0 262 -90t100 -277v-639q0 -71 -82 -71h-2q-90 0 -90 71v596q0 123 -50 185.5t-181 62.5q-80 0 -137.5 -36t-93 -93t-53 -129t-17.5 -141v-434 q0 -47 -23.5 -64.5t-64.5 -17.5t-63.5 17t-22.5 65z" />
<glyph unicode="i" horiz-adv-x="485" d="M131 1325q0 53 32 83t79 30t78.5 -30t31.5 -83t-31.5 -83t-78.5 -30t-79 30t-32 83zM156 68v893q0 47 22.5 64t63.5 17t64.5 -17t23.5 -64v-893q0 -47 -23.5 -64.5t-64.5 -17.5t-63.5 17t-22.5 65z" />
<glyph unicode="j" horiz-adv-x="485" d="M-211 -342q0 35 21.5 59.5t50.5 24.5q18 0 33.5 -7t34 -16.5t41 -16.5t53.5 -7q59 0 96 32.5t37 122.5v1111q0 47 22.5 64t63.5 17t64.5 -17t23.5 -64v-1133q0 -127 -78 -206t-219 -79q-47 0 -91 8.5t-78 23.5t-54.5 36.5t-20.5 46.5zM131 1325q0 53 32 83t79 30 t78.5 -30t31.5 -83t-31.5 -83t-78.5 -30t-79 30t-32 83z" />
<glyph unicode="k" horiz-adv-x="1075" d="M156 68v1286q0 47 22.5 64.5t63.5 17.5t64.5 -17.5t23.5 -64.5v-740l491 402q14 10 27.5 18t30.5 8q35 0 58.5 -23.5t23.5 -51.5q0 -10 -5.5 -25.5t-27.5 -34.5l-289 -239l367 -553q10 -16 14 -31.5t4 -22.5q-2 -35 -35 -55t-67 -20q-18 0 -33 7t-33 36l-352 536 l-174 -147v-350q0 -47 -23.5 -64.5t-64.5 -17.5t-63.5 17t-22.5 65z" />
<glyph unicode="l" horiz-adv-x="485" d="M156 68v1286q0 47 22.5 64.5t63.5 17.5t64.5 -17.5t23.5 -64.5v-1286q0 -47 -23.5 -64.5t-64.5 -17.5t-63.5 17t-22.5 65z" />
<glyph unicode="m" horiz-adv-x="1816" d="M156 68v897q0 45 20.5 61t61.5 16t62.5 -16t21.5 -61v-97q2 8 16 37q16 33 53 68t99.5 62.5t156.5 27.5q125 0 204 -50t114 -136q43 84 133 135t213 51q162 0 256 -87t94 -267v-652q0 -71 -82 -71h-2q-90 0 -90 71v596q0 57 -9.5 104.5t-34 79t-66.5 49t-107 17.5 q-80 0 -133.5 -37t-84 -94t-44 -129t-13.5 -141v-445q0 -71 -82 -71h-2q-90 0 -90 71v596q0 57 -9 104.5t-33.5 79t-66.5 49t-108 17.5q-80 0 -133 -36t-84 -93t-44 -129t-13 -141v-436q0 -47 -23.5 -64.5t-64.5 -17.5t-63.5 17t-22.5 65z" />
<glyph unicode="n" horiz-adv-x="1191" d="M156 68v897q0 45 20.5 61t61.5 16t62.5 -16t21.5 -61v-97q29 53 77 97q41 37 107.5 67.5t167.5 30.5q162 0 262 -90t100 -277v-639q0 -71 -82 -71h-2q-90 0 -90 71v596q0 121 -50 184.5t-181 63.5q-80 0 -137.5 -36t-93 -93t-53 -128t-17.5 -140v-436q0 -47 -23.5 -64.5 t-64.5 -17.5t-63.5 17t-22.5 65z" />
<glyph unicode="o" horiz-adv-x="1204" d="M100 516q0 129 36 230.5t102.5 172t158.5 107.5t205 37t205 -37t158.5 -107.5t102.5 -172t36 -230.5t-36 -231.5t-102.5 -173t-158.5 -108.5t-205 -38t-205 38t-158.5 108.5t-102.5 173t-36 231.5zM285 516q0 -186 82 -292.5t235 -106.5q154 0 236 106.5t82 292.5 t-82 290.5t-236 104.5t-235.5 -104.5t-81.5 -290.5z" />
<glyph unicode="p" horiz-adv-x="1218" d="M156 -354v1319q0 45 20.5 61t61.5 16t62.5 -16t21.5 -61v-101q43 84 130 141.5t212 57.5q106 0 190 -40t142.5 -111.5t88 -172t29.5 -223.5q0 -121 -29.5 -222t-88 -174t-142.5 -114t-190 -41q-129 0 -211 49t-123 115v-483q0 -47 -23.5 -64.5t-64.5 -17.5t-63.5 17.5 t-22.5 64.5zM324 504q0 -182 81.5 -284.5t229.5 -102.5q74 0 129 28.5t92 81t55.5 125t18.5 160.5q0 180 -74 286.5t-219 106.5q-74 0 -132.5 -31.5t-98 -87t-61 -128t-21.5 -154.5z" />
<glyph unicode="q" horiz-adv-x="1218" d="M104 516q0 123 30 223.5t88.5 172t141 111.5t191.5 40q63 0 118.5 -16.5t98.5 -43t75 -60.5t50 -69v91q0 45 21.5 61t62.5 16t61.5 -16t20.5 -61v-1319q0 -47 -23.5 -64.5t-64.5 -17.5t-63.5 17.5t-22.5 64.5v499q-41 -72 -125 -126t-209 -54q-109 0 -191.5 41t-141 115 t-88.5 174t-30 221zM289 510q0 -174 77.5 -282.5t223.5 -108.5q74 0 131 29.5t96 84t58.5 127t19.5 158.5q0 182 -82 285.5t-229 103.5t-221 -108.5t-74 -288.5z" />
<glyph unicode="r" horiz-adv-x="743" d="M156 68v897q0 45 20.5 61t61.5 16t62.5 -16t21.5 -61v-117q55 102 138 148t177 46q47 0 67.5 -20.5t20.5 -65.5q0 -47 -20.5 -69.5t-67.5 -22.5q-307 0 -307 -383v-413q0 -47 -23.5 -64.5t-64.5 -17.5t-63.5 17t-22.5 65z" />
<glyph unicode="s" horiz-adv-x="1048" d="M106 135q0 35 25 64.5t59 29.5q20 0 38 -8t40 -24q35 -25 100.5 -55.5t163.5 -30.5q109 0 167.5 43t58.5 116q0 27 -6.5 51.5t-28 47t-62 40t-110.5 27.5l-125 21q-133 20 -218 94t-85 207q0 145 107.5 225t291.5 80q82 0 142.5 -11.5t101.5 -27.5t67.5 -33.5t40.5 -29.5 q39 -33 39 -66t-19.5 -58.5t-55.5 -25.5q-23 0 -42.5 9t-45.5 26q-39 23 -93.5 47.5t-142.5 24.5q-111 0 -163 -41t-52 -105q0 -27 6 -51.5t25.5 -46t57.5 -37.5t101 -25l127 -20q158 -23 237 -97.5t79 -209.5q0 -150 -104.5 -235t-299.5 -85q-78 0 -140 10.5t-110.5 25.5 t-80.5 33t-50 32q-23 18 -32 35.5t-9 33.5z" />
<glyph unicode="t" horiz-adv-x="720" d="M31 954q0 35 14 54.5t55 19.5h93v211q0 39 7 57.5t29 32.5q37 23 80 23q57 0 58 -60v-264h192q41 0 55.5 -19.5t14.5 -54.5t-14.5 -54t-55.5 -19h-192v-607q0 -90 27.5 -122.5t92.5 -32.5q25 0 42.5 6t31.5 12t27.5 12.5t32.5 6.5q29 0 50 -25t21 -59q0 -49 -63.5 -77 t-159.5 -28q-141 0 -208.5 68.5t-67.5 200.5v645h-93q-41 0 -55 19.5t-14 53.5z" />
<glyph unicode="u" horiz-adv-x="1191" d="M156 332v639q0 71 82 71h2q90 0 90 -71v-596q0 -121 49 -184.5t182 -63.5q80 0 137.5 36t93 93t53 129t17.5 141v435q0 47 23.5 64t64.5 17t63.5 -17t22.5 -64v-898q0 -45 -20.5 -61t-61.5 -16t-62.5 16t-21.5 61v99q-29 -55 -77 -99q-41 -37 -109 -67.5t-166 -30.5 q-80 0 -147.5 22.5t-114.5 67.5t-73.5 114t-26.5 163z" />
<glyph unicode="v" horiz-adv-x="1046" d="M39 967q0 35 31.5 55t70.5 20q47 0 70 -57l315 -774l318 778q12 29 26.5 41t38.5 12q37 0 68 -18t31 -53q0 -14 -7.5 -31.5t-15.5 -36.5l-367 -864q-10 -25 -31.5 -39t-66.5 -14t-66.5 14t-31.5 39l-361 856l-15 37.5t-7 34.5z" />
<glyph unicode="w" horiz-adv-x="1536" d="M39 971q0 37 36 54t70 17q29 0 43.5 -14t22.5 -37l242 -772l225 758q12 37 32.5 51t61.5 14t62.5 -13t31.5 -52l230 -758l237 776q6 23 19.5 35t42.5 12q35 0 68.5 -16t33.5 -51q0 -14 -4 -25.5t-8 -25.5l-297 -875q-10 -33 -34 -48t-69 -15t-68.5 14t-33.5 49l-223 727 l-217 -727q-10 -35 -34 -49t-69 -14t-68.5 15t-33.5 48l-287 866q-4 16 -8 27.5t-4 28.5z" />
<glyph unicode="x" horiz-adv-x="1009" d="M41 59q0 29 20 56l345 428l-297 366q-20 29 -21 56q0 31 31 55t59 24q18 0 33.5 -7t36.5 -31l260 -338l268 338q18 23 33.5 29.5t34.5 6.5q29 0 55.5 -23.5t26.5 -53.5q0 -27 -21 -54l-295 -366l338 -428q12 -16 16.5 -28.5t4.5 -29.5q0 -31 -30 -52t-58 -21q-18 0 -35 7 t-37 32l-305 387l-309 -389q-18 -23 -37 -30t-37 -7q-29 0 -54.5 21.5t-25.5 51.5z" />
<glyph unicode="y" horiz-adv-x="1040" d="M39 967q0 35 31.5 55t70.5 20q47 0 70 -57l305 -749l322 753q12 29 26.5 41t38.5 12q37 0 67.5 -18t30.5 -53q0 -14 -7 -31.5t-15 -36.5l-559 -1284q-14 -29 -30.5 -43t-49.5 -14q-35 0 -59.5 19.5t-24.5 53.5q0 10 3 24.5t13 35.5l150 336l-359 864q-8 20 -16 37.5 t-8 34.5z" />
<glyph unicode="z" horiz-adv-x="1028" d="M57 90q0 25 8.5 42.5t34.5 47.5l609 701h-553q-41 0 -55.5 19.5t-14.5 53.5q0 35 14.5 54.5t55.5 19.5h678q100 0 100 -90q0 -25 -8 -42t-35 -48l-606 -701h614q41 0 55.5 -19t14.5 -54t-14.5 -54.5t-55.5 -19.5h-741q-100 0 -101 90z" />
<glyph unicode="{" horiz-adv-x="628" d="M78 618q0 35 13 51.5t48 20.5q33 4 60.5 25.5t27.5 72.5v486q0 47 9.5 90t34 76t68.5 52t112 19h73q39 0 52.5 -16t13.5 -51t-13.5 -51.5t-52.5 -16.5h-43q-59 0 -73.5 -32.5t-14.5 -86.5v-417q0 -86 -18.5 -140.5t-65.5 -81.5q47 -27 65.5 -82t18.5 -141v-420 q0 -53 14.5 -85.5t73.5 -32.5h43q39 0 52.5 -16.5t13.5 -51.5t-13.5 -51.5t-52.5 -16.5h-73q-68 0 -112 19.5t-68.5 52.5t-34 76t-9.5 90v487q0 51 -27.5 73t-60.5 26q-35 4 -48 20.5t-13 52.5z" />
<glyph unicode="|" horiz-adv-x="526" d="M182 -197v1627q0 47 21.5 64t58.5 17q41 0 62.5 -17t21.5 -64v-1627q0 -47 -21.5 -64.5t-62.5 -17.5q-37 0 -58.5 17.5t-21.5 64.5z" />
<glyph unicode="}" horiz-adv-x="628" d="M39 -211q0 35 13.5 51.5t51.5 16.5h43q59 0 74 32.5t15 85.5v420q0 86 18 141t65 82q-47 27 -65 81.5t-18 140.5v417q0 53 -14.5 86t-74.5 33h-43q-39 0 -52 16.5t-13 51.5t13.5 51t51.5 16h74q68 0 112 -19t68.5 -52t33.5 -76t9 -90v-486q0 -51 28 -72.5t60 -25.5 q35 -4 48.5 -20.5t13.5 -51.5q0 -37 -13.5 -53t-48.5 -20q-33 -4 -60.5 -25.5t-27.5 -73.5v-487q0 -47 -9 -90t-33.5 -76t-68.5 -52.5t-112 -19.5h-74q-39 0 -52 16.5t-13 51.5z" />
<glyph unicode="~" horiz-adv-x="1173" d="M43 545q0 16 13.5 40.5t58.5 73.5q37 41 88 70t114 29q66 0 125.5 -20.5t118.5 -49.5l131 -61q39 -18 76 -30.5t78 -12.5q51 0 83.5 30.5t61.5 65.5q18 20 41 20q8 0 23.5 -5t31 -15t27.5 -23.5t12 -31.5q0 -16 -13 -41t-58 -74q-35 -37 -88.5 -67.5t-112.5 -30.5 q-66 0 -126 20.5t-120 48.5l-121 58q-41 20 -78.5 34.5t-82.5 14.5q-53 0 -87 -32t-61 -67q-18 -20 -41 -20q-8 0 -23.5 5t-30.5 15.5t-27.5 23.5t-12.5 32z" />
<glyph unicode="&#xa0;" horiz-adv-x="501" d="M0 0z" />
<glyph unicode="&#xa2;" d="M180 715q0 111 28 206t81 166.5t131 115.5t178 57v141q0 41 18.5 55t53.5 14t54 -14t19 -55v-144q70 -10 122.5 -32.5t90 -53t63 -63.5t40.5 -64q8 -16 12 -30.5t4 -30.5q0 -37 -29.5 -59.5t-60.5 -22.5q-23 0 -40 8.5t-36 42.5q-6 10 -17 29.5t-31.5 41t-49.5 42 t-68 33.5v-770q37 10 64 27.5t45 37t30.5 38t18.5 30.5q23 37 39 48t43 11q29 0 59.5 -22.5t30.5 -53.5q0 -29 -14 -55q-10 -20 -34 -53t-61.5 -65.5t-92 -61.5t-128.5 -39v-152q0 -41 -19 -55t-54 -14t-53.5 14t-18.5 55v150q-100 12 -178 56t-131 116t-81 167t-28 208z M365 717q0 -162 57 -265.5t176 -125.5v776q-119 -25 -176 -126t-57 -259z" />
<glyph unicode="&#xa3;" d="M80 717q0 35 14.5 51t55.5 16h129q-23 51 -36.5 108.5t-13.5 129.5q0 82 29 154.5t85 127t140 86t195 31.5q109 0 188.5 -28.5t135 -68.5t88 -81t47.5 -67q14 -27 18 -47.5t4 -36.5q0 -35 -28.5 -53.5t-59.5 -18.5q-23 0 -39 8t-33 41q-12 25 -33.5 60.5t-57.5 67.5 t-89 55.5t-127 23.5q-84 0 -140 -20.5t-89 -55.5t-46.5 -79t-13.5 -91q0 -68 23 -126t51 -120h391q41 0 55.5 -16t14.5 -51t-14.5 -52.5t-55.5 -17.5h-336q14 -47 24.5 -98t10.5 -111q0 -59 -23.5 -109t-55 -87t-63.5 -61.5t-46 -33.5h721q41 0 55 -19t14 -54t-14 -54.5 t-55 -19.5h-850q-53 0 -73.5 21.5t-20.5 66.5q0 35 11 57.5t42 38.5q41 23 77 45.5t61.5 51t39.5 65.5t14 90q0 59 -16 109.5t-41 101.5h-194q-41 0 -55.5 17.5t-14.5 52.5z" />
<glyph unicode="&#xa5;" d="M104 1325q0 35 29 55.5t55 20.5q43 0 72 -41l367 -563l372 567q16 23 30.5 30t35.5 7q29 0 55.5 -19.5t26.5 -54.5q0 -16 -8.5 -32.5t-18.5 -32.5l-315 -471h182q41 0 55.5 -16.5t14.5 -51.5t-14.5 -52.5t-55.5 -17.5h-272v-184h272q41 0 55.5 -16.5t14.5 -51.5 t-14.5 -52t-55.5 -17h-272v-262q0 -47 -23.5 -65.5t-66.5 -18.5t-66.5 18.5t-23.5 65.5v262h-267q-41 0 -55 17.5t-14 51.5q0 35 14 51.5t55 16.5h267v184h-267q-41 0 -55 17.5t-14 52.5t14 51.5t55 16.5h176l-313 469q-10 16 -18.5 32.5t-8.5 32.5z" />
<glyph unicode="&#xa8;" horiz-adv-x="1024" d="M195 1341q0 47 30.5 77t79.5 30q41 0 78 -26.5t37 -80.5q0 -49 -32 -77.5t-83 -28.5t-80.5 28.5t-29.5 77.5zM627 1341q0 47 31.5 77t80.5 30q43 0 78 -26.5t35 -80.5q0 -49 -30.5 -77.5t-82.5 -28.5q-51 0 -81.5 28.5t-30.5 77.5z" />
<glyph unicode="&#xa9;" horiz-adv-x="1765" d="M86 727q0 158 62.5 297t171 243.5t253 165t310.5 60.5t310 -60.5t252.5 -165t171 -243.5t62.5 -297t-62.5 -297t-171 -243.5t-252.5 -165t-310 -60.5t-310.5 60.5t-253 165t-171 243.5t-62.5 297zM252 727q0 -129 50 -243.5t136 -199.5t201 -135.5t244 -50.5t243.5 50.5 t200.5 135.5t136 199.5t50 243.5t-50 243.5t-136 199.5t-200.5 135.5t-243.5 50.5t-244 -50.5t-201 -135.5t-136 -199.5t-50 -243.5zM483 729q0 98 30 180t85 142.5t132 93.5t171 33q117 0 208 -52.5t138 -130.5q29 -47 29 -90q0 -27 -26.5 -45t-55.5 -18q-25 0 -42 8 t-32 35q-16 27 -32.5 51.5t-41 42.5t-61.5 29.5t-90 11.5q-121 0 -178.5 -81t-57.5 -210q0 -133 59.5 -213t186.5 -80q74 0 122 23.5t77 79.5q14 29 27.5 39t31.5 10q31 0 62.5 -19.5t31.5 -52.5q0 -37 -20 -71.5t-47 -63.5q-47 -49 -124 -73.5t-169 -24.5q-98 0 -175 31.5 t-130 90t-81 141.5t-28 183z" />
<glyph unicode="&#xab;" horiz-adv-x="1110" d="M82 543q0 18 8 32.5t19 24.5l292 332q33 37 66 37q35 0 62.5 -27t27.5 -59q0 -16 -8 -31.5t-31 -40.5l-233 -262l227 -266q20 -23 27.5 -37.5t7.5 -30.5q0 -33 -27.5 -57.5t-60.5 -24.5q-39 0 -72 39l-274 307q-10 12 -20.5 29.5t-10.5 34.5zM543 543q0 18 8 32.5 t19 24.5l292 332q33 37 66 37q35 0 62.5 -27t27.5 -59q0 -16 -8 -31.5t-31 -40.5l-233 -262l227 -266q20 -23 27.5 -37.5t7.5 -30.5q0 -33 -27.5 -57.5t-60.5 -24.5q-39 0 -72 39l-274 307q-10 12 -20.5 29.5t-10.5 34.5z" />
<glyph unicode="&#xad;" horiz-adv-x="581" d="M49 528q0 41 17.5 62.5t60.5 21.5h328q43 0 60 -21.5t17 -62.5t-17 -64.5t-60 -23.5h-328q-43 0 -60.5 23.5t-17.5 64.5z" />
<glyph unicode="&#xae;" horiz-adv-x="1765" d="M86 727q0 158 62.5 297t171 243.5t253 165t310.5 60.5t310 -60.5t252.5 -165t171 -243.5t62.5 -297t-62.5 -297t-171 -243.5t-252.5 -165t-310 -60.5t-310.5 60.5t-253 165t-171 243.5t-62.5 297zM252 727q0 -129 50 -243.5t136 -199.5t201 -135.5t244 -50.5t243.5 50.5 t200.5 135.5t136 199.5t50 243.5t-50 243.5t-136 199.5t-200.5 135.5t-243.5 50.5t-244 -50.5t-201 -135.5t-136 -199.5t-50 -243.5zM588 367v733q0 27 13 45t48 18h225q176 0 266.5 -66.5t90.5 -215.5q0 -66 -27.5 -127.5t-103.5 -102.5l96 -248q6 -16 6 -38q0 -63 -78 -64 q-41 0 -57 17.5t-31 52.5l-82 245h-206v-249q0 -66 -76 -66q-39 0 -61.5 15.5t-22.5 50.5zM748 758h178q72 0 105.5 35t33.5 98q0 59 -38 96t-109 37h-170v-266z" />
<glyph unicode="&#xb4;" horiz-adv-x="802" d="M178 1231q0 33 27 61l135 164q33 39 59.5 58.5t57.5 19.5q47 0 71.5 -26.5t24.5 -61.5q0 -33 -47 -76l-174 -156q-20 -18 -41 -30.5t-49 -12.5q-29 0 -46.5 16.5t-17.5 43.5z" />
<glyph unicode="&#xb8;" horiz-adv-x="958" d="M240 -367q0 25 16 47.5t45 22.5q18 0 34.5 -7t33 -16.5t37 -16.5t47.5 -7q43 0 69.5 18.5t26.5 55.5q0 27 -12.5 43t-32 23t-46 9t-55.5 2q-45 0 -55 16.5t-4 39.5l43 137h121l-23 -84q111 -10 161 -56t50 -128t-56 -140.5t-183 -58.5q-70 0 -110 13.5t-62 23.5 q-45 25 -45 63z" />
<glyph unicode="&#xbb;" horiz-adv-x="1110" d="M92 883q0 33 27.5 59.5t62.5 26.5q33 0 66 -37l293 -332q10 -10 18 -24.5t8 -32.5q0 -16 -10 -33.5t-20 -30.5l-275 -307q-33 -39 -72 -39q-33 0 -60.5 24.5t-27.5 57.5q0 16 7.5 30.5t27.5 37.5l228 266l-234 262q-23 25 -31 40t-8 32zM553 883q0 33 27.5 59.5 t62.5 26.5q33 0 66 -37l293 -332q10 -10 18 -24.5t8 -32.5q0 -16 -10 -33.5t-20 -30.5l-275 -307q-33 -39 -72 -39q-33 0 -60.5 24.5t-27.5 57.5q0 16 7.5 30.5t27.5 37.5l228 266l-234 262q-23 25 -31 40t-8 32z" />
<glyph unicode="&#x2c6;" horiz-adv-x="958" d="M55 1235q0 35 27 61l151 162q35 37 66 53.5t61 16.5q35 0 67 -16.5t67 -53.5l149 -162q14 -16 19.5 -32.5t5.5 -28.5q0 -29 -20.5 -46.5t-49.5 -17.5q-27 0 -46.5 11.5t-35.5 31.5l-154 160l-151 -160q-20 -20 -39.5 -31.5t-48.5 -11.5t-48.5 17.5t-19.5 46.5z" />
<glyph unicode="&#x2da;" horiz-adv-x="958" d="M256 1391q0 45 17.5 85t47 69.5t70.5 47t88 17.5t88 -17.5t71 -47t47 -69.5t17 -85t-17 -85t-47 -70t-71 -47.5t-88 -17.5t-88 17.5t-70.5 47.5t-47 70t-17.5 85zM365 1391q0 -47 33.5 -83t80.5 -36t81 36t34 83t-34 82.5t-81 35.5t-80.5 -35.5t-33.5 -82.5z" />
<glyph unicode="&#x2dc;" horiz-adv-x="958" d="M121 1276q0 29 13 53.5t30 46.5q33 39 75 63.5t87 24.5q37 0 67.5 -9t65.5 -23l76 -29q23 -10 51 -18.5t51 -8.5q41 0 57.5 13.5t32.5 42.5q8 14 19.5 24t27.5 10t38 -12t22 -35q0 -12 -5 -33q-16 -72 -71 -118.5t-123 -46.5q-37 0 -66.5 7t-60.5 19l-78 31 q-31 12 -56.5 20.5t-47.5 8.5q-37 0 -56.5 -14.5t-42.5 -41.5q-8 -10 -19 -19t-28 -9q-23 0 -41 13t-18 40z" />
<glyph unicode="&#x400;" horiz-adv-x="1234" d="M170 88v1245q0 47 25.5 67.5t68.5 20.5h811q41 0 58.5 -19.5t17.5 -58.5t-17.5 -59t-58.5 -20h-725v-459h686q41 0 58.5 -19.5t17.5 -58.5t-17.5 -59.5t-58.5 -20.5h-686v-489h725q41 0 58.5 -19.5t17.5 -58.5t-17.5 -59.5t-58.5 -20.5h-811q-43 0 -68.5 20.5t-25.5 67.5 zM389 1745q0 35 25.5 65.5t66.5 30.5q29 0 56.5 -16.5t60.5 -40.5l174 -127q23 -16 33 -29.5t10 -36.5q0 -29 -19.5 -48t-48.5 -19q-27 0 -49.5 8t-40.5 18l-203 109q-35 18 -50 37.5t-15 48.5z" />
<glyph unicode="&#x401;" horiz-adv-x="1234" d="M170 88v1245q0 47 25.5 67.5t68.5 20.5h811q41 0 58.5 -19.5t17.5 -58.5t-17.5 -59t-58.5 -20h-725v-459h686q41 0 58.5 -19.5t17.5 -58.5t-17.5 -59.5t-58.5 -20.5h-686v-489h725q41 0 58.5 -19.5t17.5 -58.5t-17.5 -59.5t-58.5 -20.5h-811q-43 0 -68.5 20.5t-25.5 67.5 zM338 1651q0 45 28.5 72.5t75.5 27.5q41 0 75 -24.5t34 -75.5q0 -47 -30.5 -74t-78.5 -27q-47 0 -75.5 27t-28.5 74zM746 1651q0 45 29.5 72.5t76.5 27.5q41 0 74 -24.5t33 -75.5q0 -47 -30 -74t-77 -27t-76.5 27t-29.5 74z" />
<glyph unicode="&#x402;" horiz-adv-x="1484" d="M20 1341q0 35 16.5 57.5t51.5 22.5h905q35 0 51.5 -22.5t16.5 -57.5t-14.5 -57t-53.5 -22h-403v-549q18 33 49 72.5t77 73.5t109.5 57.5t145.5 23.5q199 0 307 -123t108 -362q0 -123 -29.5 -214t-83.5 -152.5t-129 -92.5t-163 -31q-66 0 -111 9.5t-77 21.5 q-49 18 -67.5 38.5t-18.5 43.5q0 35 22.5 64.5t52.5 29.5q18 0 36 -9t40.5 -20.5t52 -20.5t72.5 -9t83 17t71.5 55t50 101.5t18.5 155.5q0 162 -68.5 250t-209.5 88q-88 0 -151.5 -34.5t-105.5 -91t-61.5 -127t-19.5 -140.5v-324q0 -78 -88 -77q-43 0 -66.5 17t-23.5 60 v1199h-322q-39 0 -54.5 22.5t-15.5 56.5z" />
<glyph unicode="&#x403;" horiz-adv-x="1038" d="M170 66v1277q0 78 82 78h698q68 0 68 -78q0 -35 -15.5 -57t-54.5 -22h-600v-1198q0 -80 -88 -80q-45 0 -67.5 17t-22.5 63zM445 1585q0 23 8 36t31 30l174 127q33 25 62.5 40t58.5 15q41 0 64.5 -26.5t23.5 -61.5q0 -29 -15.5 -48.5t-50.5 -37.5l-202 -109 q-18 -10 -40 -18t-49 -8q-29 0 -47 16t-18 45z" />
<glyph unicode="&#x404;" horiz-adv-x="1415" d="M104 705q0 164 45.5 302t131.5 237t210.5 155.5t286.5 56.5q92 0 166 -19.5t130 -48t95 -60.5t62 -56q35 -39 63.5 -87t28.5 -89q0 -23 -10 -38.5t-24.5 -24.5t-31 -13t-26.5 -4q-29 0 -46.5 15.5t-35.5 43.5q-31 51 -66.5 91t-80 69t-101.5 44t-131 15 q-109 0 -191.5 -36.5t-141 -102t-93.5 -157t-43 -199.5h655q68 0 68 -78q0 -35 -15.5 -57.5t-52.5 -22.5h-657q4 -111 37 -205t93 -162.5t145 -107.5t196 -39q139 0 221 52t144 143q23 35 38 57t26 35.5t21.5 18.5t26.5 5q29 0 61.5 -18.5t32.5 -54.5q0 -39 -29.5 -96.5 t-72.5 -104.5q-29 -29 -66.5 -63.5t-93 -64.5t-131.5 -50.5t-180 -20.5q-172 0 -297 56.5t-206 155.5t-121 234.5t-40 293.5z" />
<glyph unicode="&#x405;" horiz-adv-x="1265" d="M92 240q0 33 31 59.5t63 26.5q18 -2 32.5 -12.5t27.5 -22.5q98 -100 194.5 -136t216.5 -36q131 0 216 60.5t85 176.5q0 102 -61 162t-203 100l-178 52q-190 53 -283.5 143t-93.5 252q0 102 44 176t115 122t156 70.5t169 22.5q141 0 265 -47t210 -156q16 -23 22 -39t6 -32 q0 -35 -26.5 -57.5t-57.5 -22.5q-20 0 -37.5 9t-39.5 32q-78 86 -158 123t-186 37q-57 0 -110.5 -14.5t-95.5 -43t-67.5 -73t-25.5 -101.5q0 -39 11 -70.5t38.5 -60.5t77 -53.5t122.5 -46.5l226 -70q178 -53 261 -144t83 -247q0 -109 -40 -186.5t-106.5 -129t-153.5 -75 t-179 -23.5q-154 0 -294.5 43t-238.5 148q-27 29 -32 48t-5 36z" />
<glyph unicode="&#x406;" horiz-adv-x="520" d="M170 70v1282q0 47 23.5 65.5t66.5 18.5t66.5 -18.5t23.5 -65.5v-1282q0 -47 -23.5 -65.5t-66.5 -18.5t-66.5 18.5t-23.5 65.5z" />
<glyph unicode="&#x407;" horiz-adv-x="520" d="M-49 1651q0 45 28.5 72.5t75.5 27.5q41 0 75 -24.5t34 -75.5q0 -47 -30.5 -74t-78.5 -27q-47 0 -75.5 27t-28.5 74zM170 70v1282q0 47 23.5 65.5t66.5 18.5t66.5 -18.5t23.5 -65.5v-1282q0 -47 -23.5 -65.5t-66.5 -18.5t-66.5 18.5t-23.5 65.5zM359 1651q0 45 29.5 72.5 t76.5 27.5q41 0 74 -24.5t33 -75.5q0 -47 -30 -74t-77 -27t-76.5 27t-29.5 74z" />
<glyph unicode="&#x408;" horiz-adv-x="1110" d="M72 297q0 45 33.5 64.5t66.5 19.5t51.5 -19.5t30.5 -54.5q12 -37 28.5 -70.5t45 -59t72.5 -41t112 -15.5q145 0 203.5 83t58.5 259v889q0 47 23.5 65.5t66.5 18.5t66.5 -18.5t23.5 -65.5v-887q0 -260 -114.5 -380t-345.5 -120q-102 0 -174 25.5t-119 63.5t-74 83t-41 82 q-14 41 -14 78z" />
<glyph unicode="&#x409;" horiz-adv-x="2048" d="M20 55q0 35 16.5 57.5t65.5 26.5q39 0 66 12.5t45 39t31.5 68.5t25.5 101q27 127 42.5 247t29.5 255q14 129 19.5 239.5t13.5 237.5q4 43 23.5 62.5t62.5 19.5h626q39 0 60.5 -16t21.5 -59v-521h254q113 0 210.5 -17t169 -62.5t112.5 -122t41 -193.5 q0 -217 -136.5 -323.5t-402.5 -106.5h-344q-37 0 -58.5 19.5t-21.5 60.5v1180h-446q-8 -100 -15.5 -192.5t-17.5 -193.5q-6 -74 -16.5 -158.5t-22.5 -170.5t-27.5 -167t-33.5 -145q-35 -121 -103.5 -184t-195.5 -63q-53 0 -74 17t-21 52zM1169 154h254q184 0 263 70.5 t79 191.5q0 61 -17 107t-58 79t-107.5 49.5t-167.5 16.5h-246v-514z" />
<glyph unicode="&#x40a;" horiz-adv-x="2123" d="M170 68v1288q0 45 24.5 62.5t67.5 17.5q41 0 64.5 -17.5t23.5 -62.5v-533h717v537q0 41 23.5 58.5t64.5 17.5q43 0 66.5 -16.5t23.5 -59.5v-535h254q113 0 210 -17t169 -62.5t113 -122t41 -193.5q0 -217 -137.5 -323.5t-401.5 -106.5h-344q-37 0 -59.5 19.5t-22.5 60.5 v586h-717v-598q0 -82 -88 -82q-47 0 -69.5 18.5t-22.5 63.5zM1245 154h254q184 0 263 70.5t79 191.5q0 61 -17.5 107t-58.5 79t-107.5 49.5t-166.5 16.5h-246v-514z" />
<glyph unicode="&#x40b;" horiz-adv-x="1482" d="M20 1341q0 35 16.5 57.5t51.5 22.5h905q35 0 51.5 -22.5t16.5 -57.5t-14.5 -57t-53.5 -22h-403v-498q16 29 45 66.5t74 71.5t105 57.5t140 23.5q211 0 303 -147q39 -63 47.5 -139t8.5 -169v-475q0 -37 -21.5 -52t-64.5 -15q-41 0 -65.5 15t-24.5 52v508 q0 135 -54.5 197.5t-171.5 62.5q-98 0 -160.5 -40t-98.5 -99t-49 -127t-13 -123v-369q0 -78 -88 -77q-39 0 -64.5 18.5t-25.5 58.5v1199h-322q-39 0 -54.5 22.5t-15.5 56.5z" />
<glyph unicode="&#x40c;" horiz-adv-x="1257" d="M170 66v1290q0 43 24.5 61.5t67.5 18.5q41 0 64.5 -18.5t23.5 -61.5v-559h228l413 596q14 20 29.5 31.5t40.5 11.5q29 0 60.5 -22.5t31.5 -55.5q0 -25 -11.5 -46.5t-37.5 -58.5l-359 -514l443 -622q18 -27 18 -54q0 -35 -29.5 -56t-70.5 -21q-33 0 -49.5 13t-38.5 46 l-430 596h-238v-575q0 -39 -20.5 -59.5t-67.5 -20.5t-69.5 17t-22.5 63zM494 1585q0 23 8 36t31 30l174 127q33 25 62.5 40t58.5 15q41 0 64.5 -26.5t23.5 -61.5q0 -29 -15.5 -48.5t-50.5 -37.5l-202 -109q-18 -10 -40 -18t-49 -8q-29 0 -47 16t-18 45z" />
<glyph unicode="&#x40d;" horiz-adv-x="1433" d="M170 76v1280q0 43 23.5 61.5t64.5 18.5t61.5 -18.5t20.5 -61.5v-1112l696 1114q31 47 57.5 62.5t67.5 15.5q45 0 74 -21.5t29 -68.5v-1283q0 -43 -21.5 -60t-68.5 -17t-65.5 20.5t-18.5 56.5v1094l-695 -1096q-23 -37 -52.5 -56t-72.5 -19q-57 0 -78.5 24.5t-21.5 65.5z M477 1745q0 35 25.5 65.5t66.5 30.5q29 0 56.5 -16.5t60.5 -40.5l174 -127q23 -16 33 -29.5t10 -36.5q0 -29 -19.5 -48t-48.5 -19q-27 0 -49.5 8t-40.5 18l-203 109q-35 18 -50 37.5t-15 48.5z" />
<glyph unicode="&#x40e;" horiz-adv-x="1138" d="M20 1358q0 35 32 56.5t71 21.5q29 0 44 -12.5t28 -34.5l401 -789l350 776q14 31 30.5 45.5t47.5 14.5q37 0 63.5 -18.5t26.5 -53.5q0 -27 -20 -72l-365 -784q-72 -156 -128 -257t-112.5 -159.5t-120 -82t-149.5 -23.5q-96 0 -96 67q0 35 18.5 61.5t67.5 26.5 q72 0 115 22.5t82 90.5l90 162l-453 868q-10 18 -16.5 37.5t-6.5 36.5zM274 1780q0 72 86 72q47 0 57 -41q10 -31 22.5 -56.5t32 -46t48 -32t73.5 -11.5q43 0 72 12.5t48.5 33t30.5 46t19 49.5q14 47 64 48q82 0 82 -72q0 -39 -18.5 -81t-56.5 -78t-98.5 -59.5t-144.5 -23.5 q-88 0 -148 23.5t-98 58.5t-54.5 78t-16.5 80z" />
<glyph unicode="&#x40f;" horiz-adv-x="1382" d="M170 78v1276q0 45 22.5 63.5t69.5 18.5t67.5 -20.5t20.5 -61.5v-1196h682v1196q0 45 22.5 63.5t67.5 18.5q90 0 90 -82v-1274q0 -45 -24.5 -62.5t-65.5 -17.5h-321v-264q0 -45 -24.5 -62.5t-65.5 -17.5q-45 0 -67.5 17.5t-22.5 60.5v266h-359q-43 0 -67.5 17.5 t-24.5 60.5z" />
<glyph unicode="&#x410;" horiz-adv-x="1376" d="M41 59q0 6 2 16.5t10 26.5l539 1278q12 25 33.5 40.5t64.5 15.5q47 0 68.5 -15.5t32.5 -40.5l534 -1274q8 -16 9 -25t1 -18q0 -37 -33.5 -57t-72.5 -20q-29 0 -45.5 15t-26.5 38l-158 369h-626l-160 -371q-23 -51 -68 -51q-37 0 -70.5 19.5t-33.5 53.5zM436 559h500 l-248 639z" />
<glyph unicode="&#x411;" horiz-adv-x="1265" d="M170 80v1263q0 78 84 78h733q72 0 72 -75q0 -37 -14.5 -59.5t-55.5 -22.5h-643v-430h291q113 0 210 -19.5t170 -66t115 -124t42 -194.5q0 -217 -135.5 -323.5t-399.5 -106.5h-387q-82 0 -82 80zM346 154h299q182 0 261 71.5t79 190.5q0 61 -17.5 110t-57.5 83 t-107.5 52.5t-165.5 18.5h-291v-526z" />
<glyph unicode="&#x412;" horiz-adv-x="1314" d="M170 88v1245q0 47 25.5 67.5t68.5 20.5h363q283 0 415 -89t132 -288q0 -106 -52.5 -184t-150.5 -123q129 -45 190.5 -136t61.5 -202q0 -205 -132.5 -302t-406.5 -97h-420q-43 0 -68.5 20.5t-25.5 67.5zM346 158h330q195 0 276.5 59t81.5 182q0 61 -18.5 107.5t-63.5 78 t-117.5 47t-183.5 15.5h-305v-489zM346 797h258q109 0 182.5 14t118.5 43t64.5 73t19.5 103q0 61 -18.5 105.5t-61.5 73t-113.5 42t-174.5 13.5h-275v-467z" />
<glyph unicode="&#x413;" horiz-adv-x="1038" d="M170 66v1277q0 78 82 78h698q68 0 68 -78q0 -35 -15.5 -57t-54.5 -22h-600v-1198q0 -80 -88 -80q-45 0 -67.5 17t-22.5 63z" />
<glyph unicode="&#x414;" horiz-adv-x="1482" d="M31 78q0 45 20.5 63.5t63.5 18.5h112q35 76 59.5 165t40 182t25.5 185t19 172q12 127 18 237.5t14 237.5q2 82 89 82h655q41 0 65.5 -18.5t24.5 -63.5v-1179h109q43 0 64.5 -18.5t21.5 -63.5v-342q0 -45 -25 -62.5t-66 -17.5q-45 0 -67.5 17.5t-22.5 60.5v266h-1042v-266 q0 -43 -22.5 -60.5t-67.5 -17.5q-41 0 -64.5 17.5t-23.5 62.5v342zM418 160h639v1100h-479q-6 -100 -12.5 -196.5t-18.5 -219.5q-8 -80 -19.5 -169t-27 -180.5t-36 -177.5t-46.5 -157z" />
<glyph unicode="&#x415;" horiz-adv-x="1234" d="M170 88v1245q0 47 25.5 67.5t68.5 20.5h811q41 0 58.5 -19.5t17.5 -58.5t-17.5 -59t-58.5 -20h-725v-459h686q41 0 58.5 -19.5t17.5 -58.5t-17.5 -59.5t-58.5 -20.5h-686v-489h725q41 0 58.5 -19.5t17.5 -58.5t-17.5 -59.5t-58.5 -20.5h-811q-43 0 -68.5 20.5t-25.5 67.5 z" />
<glyph unicode="&#x416;" horiz-adv-x="1839" d="M53 63q0 16 16.5 46t34.5 61l334 563l-311 547q-10 20 -19.5 39.5t-9.5 36.5q0 35 34 57.5t69 22.5q25 0 39 -11.5t28 -33.5l334 -594h225v559q0 43 25 61.5t68 18.5q37 0 62.5 -19.5t25.5 -60.5v-559h231l334 594q25 45 65 45q31 0 64 -23.5t33 -52.5q0 -23 -13.5 -51.5 t-33.5 -63.5l-283 -506l364 -622q16 -27 17 -54q0 -35 -27.5 -56t-70.5 -21q-31 0 -48.5 12t-37.5 47l-351 596h-243v-516q0 -68 -13.5 -103.5t-74.5 -35.5q-43 0 -68 18.5t-25 61.5v575h-243l-351 -596q-20 -35 -37.5 -47t-48.5 -12q-41 0 -67.5 20.5t-26.5 56.5z" />
<glyph unicode="&#x417;" horiz-adv-x="1206" d="M51 223q0 37 31 62.5t65 25.5q27 0 50 -20l67 -58q25 -20 54.5 -40.5t69.5 -38t89 -28.5t113 -11q164 0 251 69.5t87 202.5q0 141 -103.5 202.5t-281.5 61.5h-181q-35 0 -48 22.5t-13 55.5q0 31 13.5 53.5t47.5 22.5h203q152 0 239 73.5t87 192.5q0 49 -14.5 91t-49 73 t-92 49.5t-141.5 18.5q-104 0 -185 -42t-147 -104q-35 -31 -51 -42t-43 -11q-29 0 -55.5 24.5t-26.5 51.5t18.5 50.5t34.5 39.5q35 31 79 64.5t101.5 60t131 44t167.5 17.5q125 0 211 -28.5t139.5 -78t78 -115t24.5 -140.5q0 -129 -68.5 -219.5t-191.5 -135.5 q139 -23 221 -110.5t82 -233.5q0 -203 -133 -316.5t-399 -113.5q-158 0 -261.5 40t-164.5 83q-66 45 -85.5 77t-19.5 58z" />
<glyph unicode="&#x418;" horiz-adv-x="1433" d="M170 76v1280q0 43 23.5 61.5t64.5 18.5t61.5 -18.5t20.5 -61.5v-1112l696 1114q31 47 57.5 62.5t67.5 15.5q45 0 74 -21.5t29 -68.5v-1283q0 -43 -21.5 -60t-68.5 -17t-65.5 20.5t-18.5 56.5v1094l-695 -1096q-23 -37 -52.5 -56t-72.5 -19q-57 0 -78.5 24.5t-21.5 65.5z " />
<glyph unicode="&#x419;" horiz-adv-x="1433" d="M170 76v1280q0 43 23.5 61.5t64.5 18.5t61.5 -18.5t20.5 -61.5v-1112l696 1114q31 47 57.5 62.5t67.5 15.5q45 0 74 -21.5t29 -68.5v-1283q0 -43 -21.5 -60t-68.5 -17t-65.5 20.5t-18.5 56.5v1094l-695 -1096q-23 -37 -52.5 -56t-72.5 -19q-57 0 -78.5 24.5t-21.5 65.5z M422 1761q0 72 86 72q47 0 57 -41q10 -31 22.5 -56.5t32 -46t48 -32t73.5 -11.5q43 0 72 12.5t48.5 33t30.5 46t19 49.5q14 47 64 48q82 0 82 -72q0 -39 -18.5 -81t-56.5 -78t-98.5 -59.5t-144.5 -23.5q-88 0 -148 23.5t-98 58.5t-54.5 78t-16.5 80z" />
<glyph unicode="&#x41a;" horiz-adv-x="1257" d="M170 66v1290q0 43 24.5 61.5t67.5 18.5q41 0 64.5 -18.5t23.5 -61.5v-559h228l413 596q14 20 29.5 31.5t40.5 11.5q29 0 60.5 -22.5t31.5 -55.5q0 -25 -11.5 -46.5t-37.5 -58.5l-359 -514l443 -622q18 -27 18 -54q0 -35 -29.5 -56t-70.5 -21q-33 0 -49.5 13t-38.5 46 l-430 596h-238v-575q0 -39 -20.5 -59.5t-67.5 -20.5t-69.5 17t-22.5 63z" />
<glyph unicode="&#x41b;" horiz-adv-x="1388" d="M20 55q0 35 16.5 57.5t65.5 26.5q39 2 66 15.5t45 39t31.5 67.5t25.5 101q27 127 43.5 246t28.5 254q12 129 19.5 239.5t13.5 237.5q4 43 23.5 62.5t62.5 19.5h667q41 0 66 -17.5t25 -62.5v-1273q0 -82 -91 -82q-47 0 -68.5 18.5t-21.5 63.5v1192h-491 q-8 -100 -14.5 -192.5t-16.5 -193.5q-6 -74 -16.5 -158.5t-22.5 -169.5t-27.5 -163t-31.5 -139q-37 -129 -105.5 -193.5t-197.5 -64.5q-53 0 -74 17t-21 52z" />
<glyph unicode="&#x41c;" horiz-adv-x="1781" d="M170 66v1263q0 59 31.5 83t87.5 24q57 0 83.5 -19.5t43.5 -58.5l479 -1145l479 1145q16 39 42 58.5t81 19.5t85 -23.5t30 -83.5v-1263q0 -45 -22.5 -62.5t-63.5 -17.5t-64.5 17t-23.5 63v1050l-443 -1044q-12 -29 -36.5 -49.5t-67.5 -20.5t-67.5 20.5t-37.5 49.5 l-442 1042v-1048q0 -45 -23.5 -62.5t-64.5 -17.5t-63.5 17t-22.5 63z" />
<glyph unicode="&#x41d;" horiz-adv-x="1476" d="M170 70v1282q0 47 24.5 65.5t67.5 18.5t66.5 -18.5t23.5 -65.5v-518h772v518q0 47 23.5 65.5t66.5 18.5t68 -18.5t25 -65.5v-1282q0 -47 -25 -65.5t-68 -18.5t-66.5 18.5t-23.5 65.5v606h-772v-606q0 -47 -23.5 -65.5t-66.5 -18.5t-67.5 18.5t-24.5 65.5z" />
<glyph unicode="&#x41e;" horiz-adv-x="1564" d="M104 711q0 172 49.5 310t138.5 235.5t214 148.5t276 51q152 0 277 -51t214 -148.5t138 -235.5t49 -310t-49 -310.5t-138 -235.5t-214 -148.5t-277 -51.5t-276.5 51.5t-213.5 148.5t-138.5 235.5t-49.5 310.5zM299 711q0 -133 30.5 -241t92 -183.5t152 -117.5t208.5 -42 q119 0 209 42t151.5 117.5t92.5 183.5t31 241q0 131 -31 239.5t-92.5 184t-151.5 117.5t-209 42t-209 -42t-151.5 -117.5t-92 -184t-30.5 -239.5z" />
<glyph unicode="&#x41f;" horiz-adv-x="1421" d="M170 68v1273q0 45 24.5 62.5t67.5 17.5h899q41 0 65.5 -17.5t24.5 -62.5v-1273q0 -82 -90 -82q-45 0 -67.5 18.5t-22.5 63.5v1192h-721v-1192q0 -82 -88 -82q-47 0 -69.5 18.5t-22.5 63.5z" />
<glyph unicode="&#x420;" horiz-adv-x="1255" d="M170 70v1263q0 47 25.5 67.5t68.5 20.5h367q281 0 412 -110.5t131 -317.5q0 -57 -19.5 -131t-77 -139.5t-159 -110.5t-265.5 -45h-305v-497q0 -47 -23.5 -65.5t-66.5 -18.5t-65.5 18.5t-22.5 65.5zM348 721h258q109 0 182.5 19.5t117.5 55t63.5 86t19.5 111.5 q0 59 -18.5 109.5t-61.5 87.5t-112.5 57.5t-171.5 20.5h-277v-547z" />
<glyph unicode="&#x421;" horiz-adv-x="1425" d="M104 709q0 170 48.5 308t136.5 235.5t212 150.5t275 53q100 0 178 -22.5t133.5 -52t90 -61.5t51.5 -50q37 -43 70.5 -99.5t33.5 -97.5q0 -45 -33.5 -61.5t-62.5 -16.5q-27 0 -44 15.5t-32 42.5q-23 41 -55.5 83t-77.5 76.5t-106.5 57t-143.5 22.5q-117 0 -206 -43 t-150.5 -119.5t-92 -184t-30.5 -236.5q0 -127 30.5 -234.5t92 -184.5t151 -120t205.5 -43q92 0 157.5 25.5t111 63.5t74 81t48.5 78q18 33 36 48t44 15q29 0 61.5 -16t32.5 -62q0 -41 -31.5 -97t-68.5 -99q-14 -16 -50 -50t-94.5 -67t-138 -57.5t-184.5 -24.5 q-152 0 -275.5 53.5t-211.5 149.5t-136.5 233.5t-48.5 307.5z" />
<glyph unicode="&#x422;" horiz-adv-x="1232" d="M20 1343q0 39 17.5 58.5t60.5 19.5h1037q43 0 60 -19.5t17 -58.5t-17 -59t-60 -20h-428v-1194q0 -47 -24 -65.5t-67 -18.5t-66.5 18.5t-23.5 65.5v1194h-428q-43 0 -60.5 20.5t-17.5 58.5z" />
<glyph unicode="&#x423;" horiz-adv-x="1138" d="M20 1358q0 35 32 56.5t71 21.5q29 0 44 -12.5t28 -34.5l401 -789l350 776q14 31 30.5 45.5t47.5 14.5q37 0 63.5 -18.5t26.5 -53.5q0 -27 -20 -72l-365 -784q-72 -156 -128 -257t-112.5 -159.5t-120 -82t-149.5 -23.5q-96 0 -96 67q0 35 18.5 61.5t67.5 26.5 q72 0 115 22.5t82 90.5l90 162l-453 868q-10 18 -16.5 37.5t-6.5 36.5z" />
<glyph unicode="&#x424;" horiz-adv-x="1544" d="M102 717q0 139 45.5 242.5t122 174t181 110.5t221.5 50v109q0 45 24.5 62.5t65.5 17.5t64.5 -17.5t23.5 -62.5v-109q121 -8 228.5 -44t188.5 -104.5t128 -172t47 -248.5q0 -141 -47 -246.5t-128 -177.5t-188.5 -110.5t-228.5 -49.5v-125q0 -39 -20.5 -59t-67.5 -20 q-45 0 -67.5 18t-22.5 61v127q-119 8 -223.5 46t-181.5 107t-121 173t-44 248zM285 719q0 -102 28.5 -177t79.5 -126t123 -81t156 -40v846q-86 -10 -158 -40t-122 -81t-78.5 -126t-28.5 -175zM850 295q88 8 162.5 36.5t130 81t86.5 129.5t31 179t-31 178t-86.5 127t-130 80 t-162.5 37v-848z" />
<glyph unicode="&#x425;" horiz-adv-x="1280" d="M41 57q0 29 25 64l469 610l-426 563q-12 16 -20.5 32.5t-8.5 33.5q0 35 31.5 55.5t60.5 20.5q23 0 40 -7.5t36 -29.5l397 -529l404 529q18 23 33.5 30t37.5 7q29 0 56.5 -20.5t27.5 -55.5q0 -16 -8 -32.5t-20 -33.5l-428 -557l456 -602q35 -49 35 -76q0 -33 -30.5 -53 t-63.5 -20q-23 0 -40.5 9t-39.5 38l-426 561l-440 -571q-16 -23 -32.5 -30t-37.5 -7q-31 0 -59.5 19.5t-28.5 51.5z" />
<glyph unicode="&#x426;" horiz-adv-x="1466" d="M170 78v1276q0 45 22.5 63.5t69.5 18.5t67.5 -21.5t20.5 -60.5v-1196h680v1196q0 45 22.5 63.5t67.5 18.5q90 0 90 -82v-1194h119q43 0 64.5 -18.5t21.5 -63.5v-342q0 -45 -23.5 -62.5t-66.5 -17.5t-66.5 17.5t-23.5 60.5v266h-973q-43 0 -67.5 17.5t-24.5 60.5z" />
<glyph unicode="&#x427;" horiz-adv-x="1261" d="M113 965v389q0 47 24.5 64.5t65.5 17.5t64.5 -17.5t23.5 -62.5v-328q0 -70 7 -125t38 -93t90 -58.5t164 -20.5q80 0 165 11.5t156 25.5v588q0 45 25 62.5t65 17.5q41 0 66 -17.5t25 -62.5v-1288q0 -41 -20.5 -61.5t-67.5 -20.5q-43 0 -68 18.5t-25 63.5v542 q-74 -14 -165 -24.5t-168 -10.5q-115 0 -201 17.5t-145.5 61.5t-89 119t-29.5 192z" />
<glyph unicode="&#x428;" horiz-adv-x="1724" d="M170 80v1274q0 45 22.5 63.5t69.5 18.5q88 0 88 -82v-1194h424v1194q0 45 22.5 63.5t67.5 18.5q90 0 90 -82v-1194h420v1194q0 45 22.5 63.5t67.5 18.5q90 0 90 -82l-2 -1274q0 -45 -23.5 -62.5t-64.5 -17.5h-1202q-43 0 -67.5 17.5t-24.5 62.5z" />
<glyph unicode="&#x429;" horiz-adv-x="1804" d="M170 78v1276q0 45 22.5 63.5t69.5 18.5t67.5 -21.5t20.5 -60.5v-1196h422v1196q0 45 21.5 63.5t68.5 18.5t67.5 -21.5t20.5 -60.5v-1196h418v1196q0 45 22.5 63.5t67.5 18.5q90 0 90 -82v-1194h119q43 0 64.5 -18.5t21.5 -63.5v-342q0 -45 -24.5 -62.5t-65.5 -17.5 q-45 0 -67.5 17.5t-22.5 60.5v266h-1311q-43 0 -67.5 17.5t-24.5 60.5z" />
<glyph unicode="&#x42a;" horiz-adv-x="1431" d="M20 1343q0 78 72 78h332q84 0 84 -78v-477h299q113 0 210 -20.5t168.5 -69.5t112.5 -128t41 -195q0 -217 -136 -335t-400 -118h-391q-37 0 -58.5 19.5t-21.5 60.5v1184h-242q-39 0 -54.5 21.5t-15.5 57.5zM508 154h301q92 0 156.5 21.5t105.5 59t59.5 89t18.5 112.5 t-17.5 112.5t-57.5 88.5t-107.5 57.5t-165.5 20.5h-293v-561z" />
<glyph unicode="&#x42b;" horiz-adv-x="1742" d="M170 80v1278q0 41 23.5 59.5t64.5 18.5q43 0 66.5 -17.5t23.5 -58.5v-494h281q113 0 210 -20.5t168.5 -69.5t112.5 -128t41 -195q0 -217 -136 -335t-402 -118h-371q-37 0 -59.5 19.5t-22.5 60.5zM348 154h283q182 0 261 79.5t79 202.5q0 63 -18.5 115.5t-62.5 88.5 t-117 55.5t-181 19.5h-244v-561zM1393 66v1290q0 43 24.5 61.5t65.5 18.5t65.5 -18.5t24.5 -61.5v-1290q0 -80 -90 -80q-43 0 -66.5 17t-23.5 63z" />
<glyph unicode="&#x42c;" horiz-adv-x="1239" d="M170 80v1280q0 41 22.5 58.5t63.5 17.5q43 0 66.5 -16.5t23.5 -59.5v-494h268q113 0 210.5 -20.5t169 -69.5t112.5 -128t41 -195q0 -217 -137.5 -335t-401.5 -118h-356q-82 0 -82 80zM346 154h268q92 0 157 21.5t107 59t60 89t18 112.5t-17 112.5t-58 88.5t-107.5 57.5 t-167.5 20.5h-260v-561z" />
<glyph unicode="&#x42d;" horiz-adv-x="1427" d="M92 317q0 47 36 71t71 24q29 0 44 -18.5t36 -49.5q27 -41 62.5 -81t82.5 -70.5t106.5 -50t135.5 -19.5q113 0 196.5 39t140 107.5t87 163.5t36.5 208h-655q-37 0 -52.5 22.5t-15.5 57.5q0 78 68 78h655q-14 227 -126.5 361t-329.5 134q-78 0 -138.5 -17t-108.5 -47 t-82 -68t-58 -81q-16 -29 -34 -45t-46 -16q-33 0 -69 18.5t-36 61.5q0 29 17.5 63.5t48.5 70.5t73 70.5t91 63.5q78 45 167 66.5t205 21.5q152 0 268.5 -52t195.5 -146.5t119 -226.5t40 -292q0 -170 -40 -312t-123 -244.5t-208 -160t-297 -57.5q-104 0 -185 23.5 t-140.5 56.5t-98 67.5t-59.5 57.5q-27 29 -53.5 71t-26.5 76z" />
<glyph unicode="&#x42e;" horiz-adv-x="2031" d="M170 68v1288q0 45 24.5 62.5t65.5 17.5t64.5 -17.5t23.5 -62.5v-533h291q14 147 66.5 264t136.5 199t195.5 126t244.5 44q147 0 266 -51t203 -147.5t130 -233.5t46 -309t-47 -310.5t-132 -235.5t-204 -150.5t-264 -53.5q-141 0 -258 49t-201 139.5t-132 220.5t-54 292 h-287v-598q0 -41 -20.5 -61.5t-67.5 -20.5q-45 0 -67.5 18.5t-22.5 63.5zM827 711q0 -133 29 -241t85 -184.5t141 -117.5t198 -41t198 42t142 119t86 184.5t29 240.5q0 131 -29 238.5t-86 183t-142 117.5t-198 42t-198 -42t-141 -117.5t-85 -184t-29 -239.5z" />
<glyph unicode="&#x42f;" horiz-adv-x="1286" d="M70 59q0 18 18 54l291 524q-84 31 -136.5 72t-82 89t-40.5 101t-11 109q0 199 122.5 306t389.5 107h413q35 0 58.5 -20.5t23.5 -59.5v-1275q0 -45 -22.5 -62.5t-67.5 -17.5q-90 0 -90 80v528h-379l-303 -545q-18 -33 -36.5 -48t-49.5 -15q-41 0 -69.5 19.5t-28.5 53.5z M303 1014q0 -123 79 -196t265 -73h289v523h-326q-172 0 -239.5 -67.5t-67.5 -186.5z" />
<glyph unicode="&#x430;" horiz-adv-x="1132" d="M102 268q0 80 27 148.5t94.5 120t182 80t290.5 32.5l107 2v51q0 117 -60.5 174.5t-195.5 57.5q-53 0 -92 -12.5t-67 -28.5t-45 -34.5t-30 -33.5q-20 -25 -34.5 -33t-36.5 -8q-33 0 -60.5 19.5t-27.5 50.5q0 16 3 26.5t9 22.5q2 6 24.5 35t68.5 61.5t119 58t177 25.5 q117 0 198 -29.5t130 -78.5t71.5 -113.5t22.5 -134.5v-674q0 -68 -88 -67q-59 0 -72.5 26.5t-13.5 73.5v61q-20 -29 -49 -59.5t-71 -56t-100.5 -42t-133.5 -16.5q-92 0 -158 22.5t-108 62.5t-61.5 94.5t-19.5 115.5zM276 285q0 -70 43 -120t154 -50q96 0 175 44t120 109 q35 55 35 150v96l-113 -2q-131 -2 -212 -19.5t-126 -48t-60.5 -70.5t-15.5 -89z" />
<glyph unicode="&#x431;" horiz-adv-x="1159" d="M100 569q0 139 16.5 266.5t63.5 231.5t132 182t223 121l137 43q45 14 73.5 33.5t49 38t36 31t33.5 12.5q29 0 60.5 -22.5t31.5 -53.5q0 -59 -61 -102t-145 -68l-156 -47q-74 -23 -124 -57.5t-84 -81.5t-52.5 -108.5t-26.5 -137.5q51 100 139.5 156.5t194.5 56.5 q86 0 162 -31t133 -95.5t90 -163.5t33 -234q0 -127 -33 -231.5t-95.5 -181.5t-151.5 -119t-201 -42q-117 0 -207 43t-149.5 121t-90.5 189.5t-31 250.5zM287 514q0 -82 17.5 -155.5t53 -129t91 -87t131.5 -31.5q78 0 133 31.5t91 87t53 131t17 163.5q0 188 -73.5 288.5 t-212.5 100.5q-63 0 -117.5 -30.5t-95.5 -84t-64.5 -126t-23.5 -158.5z" />
<glyph unicode="&#x432;" horiz-adv-x="1075" d="M156 68v927q0 33 22.5 50.5t59.5 17.5h329q195 0 292 -61.5t97 -208.5q0 -84 -41 -145.5t-108 -92.5q102 -29 144 -101.5t42 -150.5q0 -303 -401 -303h-356q-35 0 -57.5 16.5t-22.5 51.5zM328 133h266q121 0 171 44t50 122q0 86 -53 131t-199 45h-235v-342zM328 608h207 q129 0 186 39t57 129q0 78 -51 115t-184 37h-215v-320z" />
<glyph unicode="&#x433;" horiz-adv-x="845" d="M156 63v926q0 37 21.5 55.5t55.5 18.5h527q41 0 58.5 -16.5t17.5 -57.5q0 -35 -16.5 -55.5t-59.5 -20.5h-430v-850q0 -76 -86 -75q-43 0 -65.5 17.5t-22.5 57.5z" />
<glyph unicode="&#x434;" horiz-adv-x="1234" d="M31 76q0 41 21.5 57.5t64.5 16.5h73q25 41 43.5 100t30.5 125.5t20.5 131t14.5 118.5q8 80 12 157.5t8 159.5q0 25 2.5 47.5t10.5 38.5t24.5 25.5t46.5 9.5h496q47 0 79 -13.5t32 -70.5v-829h98q41 0 63.5 -17.5t22.5 -56.5v-324q0 -43 -23.5 -59.5t-64.5 -16.5 q-43 0 -63.5 18.5t-20.5 61.5v244h-819v-244q0 -80 -84 -80q-41 0 -64.5 16.5t-23.5 59.5v324zM375 150h461v765h-344q-4 -84 -11.5 -185t-19.5 -204.5t-32.5 -202t-53.5 -173.5z" />
<glyph unicode="&#x435;" horiz-adv-x="1148" d="M100 514q0 125 35 229.5t99.5 180t155.5 117.5t204 42q115 0 203 -41t147.5 -114.5t90 -172.5t30.5 -216q0 -74 -84 -74h-696q4 -166 84 -258t227 -92q61 0 106.5 15t77 37.5t51 46.5t31.5 40q14 20 27.5 30.5t40.5 10.5q29 0 56.5 -18.5t27.5 -49.5q0 -27 -23 -63 q-18 -29 -49 -62.5t-79 -64.5t-114.5 -51.5t-154.5 -20.5q-231 0 -362.5 141.5t-131.5 407.5zM293 618h596q-6 63 -26.5 121t-56.5 102t-89 69.5t-125 25.5t-125 -26.5t-90 -70.5t-57.5 -101.5t-26.5 -119.5z" />
<glyph unicode="&#x436;" horiz-adv-x="1431" d="M35 55q0 18 13 44t28 48l233 402l-192 340q-16 29 -31.5 60.5t-15.5 47.5q0 29 28.5 51.5t65.5 22.5q41 0 63 -43l230 -422h176v393q0 72 84 72q82 0 82 -72v-393h176l235 422q25 43 64 43q41 0 64.5 -19.5t23.5 -45.5q0 -23 -14.5 -52.5t-30.5 -58.5l-193 -340l260 -459 q10 -18 11 -37q0 -33 -28 -53t-60 -20q-31 0 -46.5 12t-31.5 39l-244 430h-186v-401q0 -35 -14.5 -57.5t-67.5 -22.5q-41 0 -62.5 17t-21.5 58v406h-189l-245 -430q-16 -27 -31.5 -39t-46.5 -12q-37 0 -61.5 21.5t-24.5 47.5z" />
<glyph unicode="&#x437;" horiz-adv-x="942" d="M41 156q0 33 26.5 56.5t55.5 23.5q20 0 35.5 -11.5t31.5 -25.5q47 -41 106.5 -71t145.5 -30q111 0 170.5 49.5t59.5 135.5q0 94 -65.5 142t-170.5 48h-149q-41 0 -54.5 21.5t-13.5 50.5q0 27 13.5 48t54.5 21h145q100 0 155.5 46.5t55.5 130.5q0 66 -40 110.5t-142 44.5 q-78 0 -132.5 -27.5t-105.5 -70.5q-16 -14 -33.5 -27.5t-42.5 -13.5q-29 0 -54 19.5t-25 52.5q0 20 12 38.5t29 34.5q23 20 56.5 44t77.5 43.5t101 31.5t125 12q98 0 165.5 -22.5t108.5 -60t58.5 -87t17.5 -104.5q0 -92 -45 -153.5t-125 -100.5q92 -23 146.5 -93.5 t54.5 -168.5q0 -154 -101.5 -241t-304.5 -87q-72 0 -129 11.5t-101 27.5t-76 37t-50 37q-27 23 -37 41t-10 37z" />
<glyph unicode="&#x438;" horiz-adv-x="1183" d="M156 63v932q0 41 22.5 58.5t63.5 17.5t63.5 -17.5t22.5 -58.5v-741l516 758q23 35 44 47t52 12q41 0 64.5 -17.5t23.5 -62.5v-930q0 -41 -21.5 -58t-66.5 -17q-47 0 -65.5 19.5t-18.5 55.5v723l-508 -737q-43 -61 -108 -61q-51 0 -67.5 21.5t-16.5 55.5z" />
<glyph unicode="&#x439;" horiz-adv-x="1183" d="M156 63v932q0 41 22.5 58.5t63.5 17.5t63.5 -17.5t22.5 -58.5v-741l516 758q23 35 44 47t52 12q41 0 64.5 -17.5t23.5 -62.5v-930q0 -41 -21.5 -58t-66.5 -17q-47 0 -65.5 19.5t-18.5 55.5v723l-508 -737q-43 -61 -108 -61q-51 0 -67.5 21.5t-16.5 55.5zM303 1444 q0 72 86 72q47 0 57 -41q10 -31 22.5 -56.5t32 -46t48 -32t73.5 -11.5q43 0 72 12.5t48.5 33t30.5 46t19 49.5q14 47 64 48q82 0 82 -72q0 -39 -18.5 -81t-56.5 -78t-98.5 -59.5t-144.5 -23.5q-88 0 -148 23.5t-98 58.5t-54.5 78t-16.5 80z" />
<glyph unicode="&#x43a;" horiz-adv-x="1007" d="M156 61v938q0 39 24.5 55.5t65.5 16.5q84 0 84 -72v-389h159l287 420q14 20 27.5 30.5t34.5 10.5q39 0 64.5 -25.5t25.5 -52.5q0 -10 -2 -20t-11 -21l-274 -397l309 -449q16 -25 17 -43q0 -31 -23.5 -54t-64.5 -23q-29 0 -47.5 12t-34.5 37l-301 434h-166v-379 q0 -16 -1 -34.5t-9.5 -34t-26 -25.5t-49.5 -10q-88 0 -88 75z" />
<glyph unicode="&#x43b;" horiz-adv-x="1107" d="M10 51q0 29 12.5 52.5t57.5 27.5q25 2 45 10.5t37.5 30t30 59t22.5 97.5q12 76 17.5 150.5t9.5 146.5l18 366q2 72 80 72h528q37 0 60.5 -15.5t23.5 -54.5v-938q0 -68 -84 -67q-45 0 -66.5 15t-21.5 54v856h-356q-4 -78 -7 -149.5t-7 -149.5q-6 -109 -16.5 -220 t-41 -202.5t-92 -148.5t-168.5 -57q-49 0 -65.5 16t-16.5 49z" />
<glyph unicode="&#x43c;" horiz-adv-x="1392" d="M156 53v930q0 49 28.5 68.5t81.5 19.5q47 0 76 -19.5t41 -52.5l313 -811l314 803q16 41 42.5 60.5t80.5 19.5q53 0 78.5 -18.5t25.5 -65.5v-936q0 -33 -18.5 -49t-61.5 -16q-45 0 -63.5 16t-18.5 51v717l-289 -713q-23 -57 -92 -57q-43 0 -65.5 16.5t-32.5 42.5l-277 701 v-709q0 -66 -83 -65q-43 0 -61.5 15t-18.5 52z" />
<glyph unicode="&#x43d;" horiz-adv-x="1189" d="M156 61v936q0 41 22.5 57.5t63.5 16.5t63.5 -16.5t22.5 -57.5v-374h532v374q0 41 23.5 57.5t64.5 16.5t63.5 -16.5t22.5 -57.5v-938q0 -35 -19.5 -54t-66.5 -19q-45 0 -66.5 17t-21.5 58v414h-532v-414q0 -37 -19.5 -56t-66.5 -19q-45 0 -65.5 17t-20.5 58z" />
<glyph unicode="&#x43e;" horiz-adv-x="1204" d="M100 528q0 129 36 231.5t102.5 175.5t158.5 110.5t205 37.5t205 -37.5t158.5 -110.5t102.5 -175.5t36 -231.5t-36 -233.5t-102.5 -177t-158.5 -112.5t-205 -40t-205 40t-158.5 112.5t-102.5 177t-36 233.5zM285 528q0 -186 82 -298.5t235 -112.5q154 0 236 112.5 t82 298.5t-82 295t-236 109t-235.5 -109t-81.5 -295z" />
<glyph unicode="&#x43f;" horiz-adv-x="1181" d="M156 61v932q0 41 21.5 55.5t60.5 14.5h710q39 0 58.5 -15.5t19.5 -56.5v-932q0 -35 -19.5 -54t-66.5 -19q-45 0 -66.5 17t-21.5 58v852h-522v-852q0 -76 -86 -75q-45 0 -66.5 17t-21.5 58z" />
<glyph unicode="&#x440;" horiz-adv-x="1214" d="M156 -354v1339q0 45 20.5 61.5t61.5 16.5t62.5 -16.5t21.5 -61.5v-100q43 84 130 141t212 57q215 0 332.5 -149.5t117.5 -407.5q0 -121 -29.5 -223t-88 -178t-142.5 -118t-190 -42q-129 0 -211 49t-123 115v-483q0 -47 -23.5 -64.5t-64.5 -17.5t-63.5 17.5t-22.5 64.5z M324 514q0 -182 81.5 -289.5t229.5 -107.5q74 0 129 30.5t92 85t55.5 128t18.5 161.5q0 184 -74 294t-219 110q-74 0 -132.5 -34t-98 -91.5t-61 -131t-21.5 -155.5z" />
<glyph unicode="&#x441;" horiz-adv-x="1075" d="M100 522q0 123 33 225.5t94.5 177t151.5 116.5t207 42q88 0 154.5 -21.5t114.5 -54t78 -71.5t46 -72q8 -16 12 -30.5t4 -30.5q0 -37 -26.5 -58.5t-57.5 -21.5q-23 0 -38 9t-37 42q-12 16 -31 43t-47.5 51.5t-70.5 42t-101 17.5q-152 0 -226.5 -110.5t-74.5 -289.5 q0 -92 18.5 -166.5t56 -128t94 -83t132.5 -29.5q55 0 94 13t66.5 33.5t46 44t34.5 46.5q25 35 40.5 47t41.5 12q29 0 56.5 -20.5t27.5 -50.5q0 -29 -14 -56q-10 -23 -38 -60.5t-76 -74.5t-116.5 -63.5t-162.5 -26.5q-117 0 -207 40t-151.5 112.5t-94.5 175t-33 229.5z" />
<glyph unicode="&#x442;" horiz-adv-x="903" d="M20 989q0 35 17.5 54.5t58.5 19.5h711q76 0 76 -74q0 -35 -16.5 -55.5t-61.5 -20.5h-277v-852q0 -76 -88 -75q-43 0 -65.5 17t-22.5 58v852h-254q-45 0 -61.5 20.5t-16.5 55.5z" />
<glyph unicode="&#x443;" horiz-adv-x="1040" d="M39 995q0 35 31.5 55.5t70.5 20.5q47 0 70 -57l305 -778l322 782q12 29 26.5 41t38.5 12q37 0 67.5 -18.5t30.5 -53.5q0 -14 -7 -31.5t-15 -35.5l-559 -1313q-14 -29 -30.5 -43t-49.5 -14q-35 0 -59.5 19.5t-24.5 53.5q0 10 3 24.5t13 35.5l150 336l-359 893 q-8 20 -16 37.5t-8 33.5z" />
<glyph unicode="&#x444;" horiz-adv-x="1693" d="M100 526q0 123 23.5 225.5t71 176t118 114.5t162.5 41q113 0 177.5 -50t109.5 -126v447q0 82 88 82q37 0 61.5 -18.5t24.5 -61.5v-449q18 33 47 65t65.5 56.5t84 39.5t104.5 15q92 0 159.5 -41t110.5 -114.5t64.5 -176t21.5 -225.5q0 -121 -22.5 -223t-68.5 -177 t-114.5 -118t-162.5 -43q-115 0 -179.5 45t-109.5 127v-495q0 -43 -23.5 -60.5t-64.5 -17.5q-86 0 -86 78v495q-49 -78 -113.5 -125t-177.5 -47q-94 0 -163.5 43t-116 118t-69 177.5t-22.5 222.5zM289 520q0 -90 11 -164.5t38 -129t70 -85t104 -30.5q129 0 188.5 103 t59.5 312q0 213 -67.5 309.5t-184.5 96.5q-61 0 -103.5 -31t-68 -86t-36.5 -131t-11 -164zM936 526q0 -209 60.5 -312t189.5 -103q61 0 105 30.5t71 85t39 129t12 164.5q0 88 -11 164t-38 131t-69 86t-105 31q-113 0 -183.5 -96.5t-70.5 -309.5z" />
<glyph unicode="&#x445;" horiz-adv-x="1009" d="M41 59q0 29 20 56l342 438l-299 383q-12 16 -16 27.5t-4 27.5q0 31 30.5 55.5t59.5 24.5q18 0 34.5 -6t35.5 -33l264 -356l268 358q18 23 33.5 30t34.5 7q29 0 55.5 -23.5t26.5 -54.5q0 -27 -21 -53l-295 -387l340 -434q12 -16 16.5 -28.5t4.5 -29.5q0 -31 -29 -53 t-57 -22q-18 0 -34.5 7t-37.5 32l-309 397l-314 -399q-18 -23 -34.5 -30t-34.5 -7q-29 0 -54.5 21.5t-25.5 51.5z" />
<glyph unicode="&#x446;" horiz-adv-x="1228" d="M156 72v925q0 41 21.5 57.5t66.5 16.5q86 0 86 -74v-847h501v847q0 41 21.5 57.5t67.5 16.5q47 0 66.5 -18.5t19.5 -55.5v-847h96q43 0 64.5 -15.5t21.5 -56.5v-326q0 -43 -22.5 -60.5t-63.5 -17.5q-84 0 -84 80v246h-782q-39 0 -59.5 15.5t-20.5 56.5z" />
<glyph unicode="&#x447;" horiz-adv-x="1064" d="M92 723v281q0 35 22.5 51t61.5 16q88 0 88 -67v-234q0 -61 7.5 -104t29 -70t63.5 -39t113 -12q66 0 131.5 8t126.5 22v420q0 41 22.5 58.5t63.5 17.5t64.5 -17.5t23.5 -58.5v-938q0 -72 -86 -71q-37 0 -62.5 16t-25.5 55v377q-152 -31 -293 -31q-182 0 -266 71t-84 249z " />
<glyph unicode="&#x448;" horiz-adv-x="1456" d="M156 72v925q0 41 21.5 57.5t66.5 16.5q86 0 86 -74v-847h309v847q0 41 21.5 57.5t64.5 16.5q47 0 66.5 -19.5t19.5 -54.5v-847h315v847q0 41 21.5 57.5t66.5 16.5q47 0 66.5 -18.5t19.5 -55.5v-925q0 -41 -21.5 -56.5t-59.5 -15.5h-983q-39 0 -59.5 15.5t-20.5 56.5z" />
<glyph unicode="&#x449;" horiz-adv-x="1517" d="M156 72v925q0 41 21.5 57.5t66.5 16.5q86 0 86 -74v-847h305v847q0 41 21.5 57.5t64.5 16.5q88 0 88 -74v-847h309v847q0 41 22.5 57.5t65.5 16.5q88 0 88 -74v-847h97q43 0 64.5 -15.5t21.5 -56.5v-326q0 -43 -23.5 -60.5t-64.5 -17.5q-84 0 -84 80v246h-1069 q-39 0 -59.5 15.5t-20.5 56.5z" />
<glyph unicode="&#x44a;" horiz-adv-x="1083" d="M20 989q0 35 17.5 54.5t58.5 19.5h209q41 0 57.5 -16.5t16.5 -55.5v-336h205q82 0 157.5 -13t133 -49t92 -97.5t34.5 -159.5q0 -158 -101 -247t-302 -89h-309q-37 0 -58.5 16.5t-21.5 53.5v843h-111q-45 0 -61.5 20.5t-16.5 55.5zM379 135h221q123 0 173 54.5t50 138.5 q0 41 -11 76.5t-37.5 61.5t-71 40t-111.5 14h-213v-385z" />
<glyph unicode="&#x44b;" horiz-adv-x="1447" d="M156 68v929q0 74 84 74q47 0 66.5 -16.5t19.5 -55.5v-346h200q86 0 162 -14t132.5 -49t90 -97.5t33.5 -156.5q0 -158 -102.5 -247t-300.5 -89h-305q-35 0 -57.5 16.5t-22.5 51.5zM326 133h204q129 0 182.5 51.5t53.5 143.5q0 88 -52 139t-196 51h-192v-385zM1118 61v928 q0 82 88 82q41 0 63.5 -17.5t22.5 -60.5v-930q0 -43 -22.5 -60t-63.5 -17q-45 0 -66.5 17t-21.5 58z" />
<glyph unicode="&#x44c;" horiz-adv-x="1024" d="M156 70v929q0 72 84 72q45 0 65.5 -15.5t20.5 -56.5v-344h198q82 0 158 -13t133 -49t92 -98.5t35 -158.5q0 -156 -101.5 -246t-301.5 -90h-303q-37 0 -58.5 16.5t-21.5 53.5zM326 133h219q119 0 169 56.5t50 140.5q0 41 -11.5 75.5t-38 59t-72.5 39t-114 14.5h-202v-385z " />
<glyph unicode="&#x44d;" horiz-adv-x="1095" d="M80 225q0 35 26.5 60.5t67.5 25.5q23 0 36 -13t36 -42q16 -23 38.5 -48.5t53.5 -47t73 -35.5t101 -14q76 0 129 26.5t89 72.5t56.5 109.5t26.5 135.5h-444q-74 0 -74 77q0 76 74 76h444q-6 74 -25.5 133.5t-53.5 102.5t-86 65.5t-124 22.5q-98 0 -161.5 -41t-122.5 -107 q-16 -20 -30.5 -30.5t-37.5 -10.5q-37 0 -63.5 21.5t-26.5 52.5q0 25 17.5 54.5t41.5 54.5q68 72 164 114.5t227 42.5q236 0 349.5 -139t113.5 -401q0 -121 -27.5 -226.5t-88 -183.5t-154.5 -123t-225 -45q-127 0 -213 42t-137 97q-29 31 -49.5 65t-20.5 56z" />
<glyph unicode="&#x44e;" horiz-adv-x="1630" d="M156 61v926q0 84 88 84q41 0 63.5 -18.5t22.5 -61.5v-381h241q23 219 149 346t337 127q115 0 203 -38.5t148 -110.5t91 -174.5t31 -229.5q0 -129 -32 -233t-93.5 -178t-151.5 -114t-204 -40q-225 0 -344 132t-134 366h-241v-400q0 -43 -22.5 -60t-63.5 -17 q-43 0 -65.5 17t-22.5 58zM752 526q0 -193 70.5 -301t226.5 -108q158 0 228.5 109.5t70.5 299.5q0 188 -70 297t-227 109q-158 0 -228.5 -107.5t-70.5 -298.5z" />
<glyph unicode="&#x44f;" horiz-adv-x="1028" d="M68 53q0 16 18 47l31 54q45 78 89 156.5t91 156.5q-55 23 -93 54.5t-60.5 68.5t-32 78t-9.5 80q0 147 91.5 231t289.5 84h310q35 0 57 -17.5t22 -50.5v-940q0 -39 -20.5 -54t-63.5 -15q-47 0 -66.5 17t-19.5 50v375h-245l-219 -391q-14 -25 -32 -38t-48 -13 q-41 0 -65.5 19.5t-24.5 47.5zM287 750q0 -82 51 -136.5t172 -54.5h192v373h-204q-117 0 -164 -48t-47 -134z" />
<glyph unicode="&#x450;" horiz-adv-x="1148" d="M100 514q0 125 35 229.5t99.5 180t155.5 117.5t204 42q115 0 203 -41t147.5 -114.5t90 -172.5t30.5 -216q0 -74 -84 -74h-696q4 -166 84 -258t227 -92q61 0 106.5 15t77 37.5t51 46.5t31.5 40q14 20 27.5 30.5t40.5 10.5q29 0 56.5 -18.5t27.5 -49.5q0 -27 -23 -63 q-18 -29 -49 -62.5t-79 -64.5t-114.5 -51.5t-154.5 -20.5q-231 0 -362.5 141.5t-131.5 407.5zM293 618h596q-6 63 -26.5 121t-56.5 102t-89 69.5t-125 25.5t-125 -26.5t-90 -70.5t-57.5 -101.5t-26.5 -119.5zM342 1446q0 35 30 65.5t73 30.5q31 0 55.5 -20.5t56.5 -59.5 l136 -168q27 -29 26 -61q0 -27 -18.5 -44.5t-46.5 -17.5q-29 0 -49.5 12.5t-40.5 30.5l-175 156q-47 43 -47 76z" />
<glyph unicode="&#x451;" horiz-adv-x="1148" d="M100 514q0 125 35 229.5t99.5 180t155.5 117.5t204 42q115 0 203 -41t147.5 -114.5t90 -172.5t30.5 -216q0 -74 -84 -74h-696q4 -166 84 -258t227 -92q61 0 106.5 15t77 37.5t51 46.5t31.5 40q14 20 27.5 30.5t40.5 10.5q29 0 56.5 -18.5t27.5 -49.5q0 -27 -23 -63 q-18 -29 -49 -62.5t-79 -64.5t-114.5 -51.5t-154.5 -20.5q-231 0 -362.5 141.5t-131.5 407.5zM254 1341q0 47 30.5 77t79.5 30q41 0 78 -26.5t37 -80.5q0 -49 -32 -77.5t-83 -28.5t-80.5 28.5t-29.5 77.5zM293 618h596q-6 63 -26.5 121t-56.5 102t-89 69.5t-125 25.5 t-125 -26.5t-90 -70.5t-57.5 -101.5t-26.5 -119.5zM686 1341q0 47 31.5 77t80.5 30q43 0 78 -26.5t35 -80.5q0 -49 -30.5 -77.5t-82.5 -28.5q-51 0 -81.5 28.5t-30.5 77.5z" />
<glyph unicode="&#x452;" horiz-adv-x="1206" d="M10 1214q0 29 10.5 49.5t38.5 20.5h97v74q0 78 88 78q35 0 61.5 -18.5t26.5 -59.5v-74h323q29 0 40.5 -19.5t11.5 -50.5q0 -70 -54 -69h-321v-385q14 27 41.5 65.5t70.5 72.5t104.5 58.5t143.5 24.5q172 0 265.5 -94t93.5 -269v-786q0 -135 -74 -212t-221 -77 q-47 0 -94.5 7.5t-81.5 19.5q-37 14 -58.5 31.5t-21.5 44.5q0 31 20.5 60.5t44.5 29.5q18 0 34.5 -7.5t36 -14.5t47.5 -14t71 -7q57 0 90 37t33 120v711q0 135 -50.5 196.5t-177.5 61.5q-102 0 -164.5 -42t-96.5 -103.5t-46 -132t-12 -127.5v-355q0 -43 -21.5 -60t-66.5 -17 q-39 0 -62.5 17t-23.5 58v1088h-97q-29 0 -39 20.5t-10 48.5z" />
<glyph unicode="&#x453;" horiz-adv-x="845" d="M156 63v926q0 37 21.5 55.5t55.5 18.5h527q41 0 58.5 -16.5t17.5 -57.5q0 -35 -16.5 -55.5t-59.5 -20.5h-430v-850q0 -76 -86 -75q-43 0 -65.5 17.5t-22.5 57.5zM377 1231q0 33 27 61l135 164q33 39 59.5 58.5t57.5 19.5q47 0 71.5 -26.5t24.5 -61.5q0 -33 -47 -76 l-174 -156q-20 -18 -41 -30.5t-49 -12.5q-29 0 -46.5 16.5t-17.5 43.5z" />
<glyph unicode="&#x454;" horiz-adv-x="1093" d="M100 524q0 125 34 228.5t98.5 177.5t156.5 113.5t209 39.5q96 0 167 -24.5t120 -61t77.5 -77.5t41.5 -74q8 -18 8 -39q0 -35 -27 -56.5t-61 -21.5q-41 0 -70 49q-10 18 -28.5 44t-48 49.5t-75 40t-108.5 16.5q-74 0 -128 -23.5t-91 -66.5t-58.5 -101.5t-27.5 -128.5h436 q74 0 74 -76q0 -78 -76 -77h-434q12 -150 86 -243t221 -93q53 0 92 11t68.5 29.5t51 42t40.5 46.5q23 29 38 44t38 15q27 0 56.5 -22.5t29.5 -57.5q0 -23 -11.5 -46t-27.5 -42q-23 -29 -57.5 -59.5t-82 -56t-107.5 -42t-134 -16.5q-129 0 -222.5 44t-152.5 119t-87 177.5 t-28 218.5z" />
<glyph unicode="&#x455;" horiz-adv-x="1017" d="M94 135q0 35 24.5 64.5t59.5 29.5q20 0 37.5 -8t40.5 -24q35 -25 100.5 -55.5t163.5 -30.5q109 0 167 43t58 116q0 27 -6 53.5t-27.5 49t-62.5 42t-110 29.5l-125 21q-133 20 -218 95t-85 208q0 145 107.5 230t291.5 85q82 0 142.5 -11t101.5 -27.5t67.5 -34t40.5 -29.5 q39 -33 39 -66t-19.5 -58.5t-56.5 -25.5q-23 0 -42 9.5t-46 25.5q-39 23 -93 47.5t-142 24.5q-111 0 -163 -46t-52 -110q0 -27 6 -51t25.5 -45.5t57.5 -39t101 -25.5l127 -21q315 -47 316 -315q0 -150 -104.5 -235t-299.5 -85q-78 0 -140.5 10.5t-110.5 25.5t-80 33t-50 32 q-23 18 -32 35.5t-9 33.5z" />
<glyph unicode="&#x456;" horiz-adv-x="485" d="M131 1325q0 53 32 83t79 30t78.5 -30t31.5 -83t-31.5 -83t-78.5 -30t-79 30t-32 83zM156 68v913q0 47 22.5 64.5t63.5 17.5t64.5 -17.5t23.5 -64.5v-913q0 -47 -23.5 -64.5t-64.5 -17.5t-63.5 17t-22.5 65z" />
<glyph unicode="&#x457;" horiz-adv-x="475" d="M-55 1341q0 47 30.5 77t79.5 30q41 0 78 -26.5t37 -80.5q0 -49 -32 -77.5t-83 -28.5t-80.5 28.5t-29.5 77.5zM150 61v918q0 84 88 84q41 0 63.5 -18.5t22.5 -61.5v-920q0 -43 -22.5 -60t-63.5 -17q-43 0 -65.5 17t-22.5 58zM307 1341q0 47 32 77t81 30q43 0 77.5 -26.5 t34.5 -80.5q0 -49 -30.5 -77.5t-81.5 -28.5t-82 28.5t-31 77.5z" />
<glyph unicode="&#x458;" horiz-adv-x="464" d="M-236 -342q0 35 21.5 59.5t50.5 24.5q18 0 33.5 -7t34 -16.5t41 -16.5t53.5 -7q59 0 96 32.5t37 122.5v1131q0 47 22.5 64.5t63.5 17.5t64.5 -17.5t23.5 -64.5v-1153q0 -127 -77.5 -206t-219.5 -79q-47 0 -91 8.5t-78 23.5t-54.5 36.5t-20.5 46.5zM106 1325q0 53 32 83 t79 30t79 -30t32 -83t-32 -83t-79 -30t-79 30t-32 83z" />
<glyph unicode="&#x459;" horiz-adv-x="1622" d="M10 51q0 29 12.5 52.5t57.5 27.5q25 2 45 10.5t37.5 30t30 59t22.5 97.5q12 76 17.5 150.5t9.5 146.5l18 366q2 72 80 72h496q47 0 66.5 -16.5t19.5 -55.5v-344h198q82 0 158 -12t134 -47t93 -96.5t35 -157.5q0 -156 -102.5 -245t-302.5 -89h-304q-35 0 -57 16.5 t-22 51.5v845h-328q-4 -78 -7 -149.5t-7 -149.5q-6 -109 -16.5 -220t-41 -202.5t-92 -148.5t-168.5 -57q-49 0 -65.5 16t-16.5 49zM922 131h202q129 0 182.5 53.5t53.5 141.5q0 45 -11.5 79.5t-40 59t-76.5 37t-120 12.5h-190v-383z" />
<glyph unicode="&#x45a;" horiz-adv-x="1699" d="M156 59v930q0 41 22.5 57.5t63.5 16.5t64.5 -16.5t23.5 -57.5v-358h499v358q0 74 84 74q47 0 66.5 -16.5t19.5 -55.5v-360h199q82 0 158 -11.5t134 -44t93 -92t35 -155.5q0 -156 -102.5 -242t-303.5 -86h-303q-35 0 -57.5 16.5t-22.5 51.5v415h-499v-424q0 -35 -20.5 -54 t-67.5 -19q-43 0 -64.5 16t-21.5 57zM999 131h203q129 0 182.5 49t53.5 137q0 86 -52.5 126t-195.5 40h-191v-352z" />
<glyph unicode="&#x45b;" horiz-adv-x="1206" d="M10 1214q0 29 10.5 49.5t38.5 20.5h97v74q0 78 88 78q35 0 61.5 -18.5t26.5 -59.5v-74h330q29 0 40 -19.5t11 -50.5q0 -70 -51 -69h-330v-385q14 27 41.5 65.5t70.5 72.5t104.5 58.5t143.5 24.5q172 0 265.5 -96.5t93.5 -270.5v-563q0 -39 -21.5 -54t-62.5 -15 q-90 0 -90 69v510q0 135 -52.5 196.5t-175.5 61.5q-102 0 -164.5 -41t-96.5 -102.5t-46 -132t-12 -129.5v-355q0 -43 -21.5 -60t-66.5 -17q-39 0 -62.5 17t-23.5 58v1088h-97q-29 0 -39 20.5t-10 48.5z" />
<glyph unicode="&#x45c;" horiz-adv-x="1007" d="M156 61v938q0 39 24.5 55.5t65.5 16.5q84 0 84 -72v-389h159l287 420q14 20 27.5 30.5t34.5 10.5q39 0 64.5 -25.5t25.5 -52.5q0 -10 -2 -20t-11 -21l-274 -397l309 -449q16 -25 17 -43q0 -31 -23.5 -54t-64.5 -23q-29 0 -47.5 12t-34.5 37l-301 434h-166v-379 q0 -16 -1 -34.5t-9.5 -34t-26 -25.5t-49.5 -10q-88 0 -88 75zM399 1231q0 33 27 61l135 164q33 39 59.5 58.5t57.5 19.5q47 0 71.5 -26.5t24.5 -61.5q0 -33 -47 -76l-174 -156q-20 -18 -41 -30.5t-49 -12.5q-29 0 -46.5 16.5t-17.5 43.5z" />
<glyph unicode="&#x45d;" horiz-adv-x="1183" d="M156 63v932q0 41 22.5 58.5t63.5 17.5t63.5 -17.5t22.5 -58.5v-741l516 758q23 35 44 47t52 12q41 0 64.5 -17.5t23.5 -62.5v-930q0 -41 -21.5 -58t-66.5 -17q-47 0 -65.5 19.5t-18.5 55.5v723l-508 -737q-43 -61 -108 -61q-51 0 -67.5 21.5t-16.5 55.5zM307 1446 q0 35 30 65.5t73 30.5q31 0 55.5 -20.5t56.5 -59.5l136 -168q27 -29 26 -61q0 -27 -18.5 -44.5t-46.5 -17.5q-29 0 -49.5 12.5t-40.5 30.5l-175 156q-47 43 -47 76z" />
<glyph unicode="&#x45e;" horiz-adv-x="1040" d="M39 995q0 35 31.5 55.5t70.5 20.5q47 0 70 -57l305 -778l322 782q12 29 26.5 41t38.5 12q37 0 67.5 -18.5t30.5 -53.5q0 -14 -7 -31.5t-15 -35.5l-559 -1313q-14 -29 -30.5 -43t-49.5 -14q-35 0 -59.5 19.5t-24.5 53.5q0 10 3 24.5t13 35.5l150 336l-359 893 q-8 20 -16 37.5t-8 33.5zM229 1399q0 35 24.5 52t65.5 17q43 0 66 -41q10 -18 21 -39.5t28.5 -40t43 -30.5t64.5 -12q35 0 59.5 12t42 28.5t29 36t19.5 35.5q14 27 30.5 39t45.5 12q39 0 61.5 -17t22.5 -48q0 -37 -19.5 -77t-59.5 -74.5t-98.5 -57.5t-138.5 -23t-138 24 t-95 58.5t-55.5 73.5t-18.5 72z" />
<glyph unicode="&#x45f;" horiz-adv-x="1165" d="M156 70v917q0 41 22.5 58.5t65.5 17.5q47 0 66.5 -19.5t19.5 -56.5v-837h506v837q0 41 21.5 58.5t66.5 17.5q47 0 66.5 -19.5t19.5 -56.5v-917q0 -39 -20.5 -54.5t-59.5 -15.5h-250v-248q0 -43 -21.5 -59.5t-62.5 -16.5q-86 0 -86 80v244h-272q-39 0 -60.5 14.5 t-21.5 55.5z" />
<glyph unicode="&#x462;" horiz-adv-x="1474" d="M31 1219q0 35 16 57t51 22h310v181q0 45 24.5 62.5t67.5 17.5q39 0 62.5 -17.5t23.5 -62.5v-181h403q37 0 53.5 -22.5t16.5 -56.5q0 -35 -14.5 -57.5t-55.5 -22.5h-403v-287h266q111 0 209 -19.5t170 -66.5t113.5 -125t41.5 -195q0 -217 -139 -331.5t-399 -114.5h-359 q-82 0 -81 80v1059h-310q-35 0 -51 22.5t-16 57.5zM586 156h268q178 0 259 75.5t81 198.5q0 61 -18.5 110.5t-59.5 85.5t-107.5 55t-162.5 19h-260v-544z" />
<glyph unicode="&#x463;" horiz-adv-x="1136" d="M20 965q0 29 11.5 49t40.5 20h196v244q0 47 22.5 64.5t63.5 17.5t63.5 -17.5t22.5 -64.5v-244h252q31 0 42 -19.5t11 -49.5q0 -72 -53 -72h-252v-240h244q76 0 144.5 -16t118.5 -53t80 -98.5t30 -149.5q0 -158 -101.5 -247t-302.5 -89h-305q-35 0 -57.5 16.5t-22.5 53.5 v823h-196q-29 0 -40.5 21.5t-11.5 50.5zM440 133h217q117 0 168.5 55.5t51.5 141.5q0 45 -11.5 79.5t-40 58.5t-78 36t-124.5 12h-183v-383z" />
<glyph unicode="&#x472;" horiz-adv-x="1564" d="M104 711q0 172 49.5 310t138.5 235.5t214 148.5t276 51q152 0 277 -51t214 -148.5t138 -235.5t49 -310t-49 -310.5t-138 -235.5t-214 -148.5t-277 -51.5t-276.5 51.5t-213.5 148.5t-138.5 235.5t-49.5 310.5zM301 639q6 -92 29 -170q31 -106 92 -182t151.5 -118 t208.5 -42q119 0 209 42t151.5 117.5t92.5 182.5q23 78 29 170h-963zM301 799h961q-7 79 -27 151q-31 109 -92.5 184.5t-151.5 117.5t-209 42t-209 -42t-151.5 -117.5t-91.5 -184.5q-20 -72 -29 -151z" />
<glyph unicode="&#x473;" horiz-adv-x="1204" d="M100 528q0 129 36 231.5t102.5 175.5t158.5 110.5t205 37.5t205 -37.5t158.5 -110.5t102.5 -175.5t36 -231.5t-36 -233.5t-102.5 -177t-158.5 -112.5t-205 -40t-205 40t-158.5 112.5t-102.5 177t-36 233.5zM287 467q12 -146 80 -238q82 -113 235 -112q154 0 236 112 q68 92 80 238h-631zM289 606h626q-14 131 -77 217q-82 109 -236 109t-235 -109q-63 -86 -78 -217z" />
<glyph unicode="&#x474;" horiz-adv-x="1394" d="M45 1358q0 35 29.5 56.5t77.5 21.5q55 0 75 -52l430 -1167q80 266 156 503t162 456q47 123 117.5 191.5t189.5 68.5q55 0 75.5 -17.5t20.5 -52.5t-16 -58.5t-68 -25.5q-59 -2 -97 -57.5t-83 -167.5q-90 -229 -172 -487.5t-172 -522.5q-27 -61 -115 -61q-51 0 -78.5 17 t-37.5 48l-476 1235q-18 43 -18 72z" />
<glyph unicode="&#x475;" horiz-adv-x="1120" d="M33 1012q0 35 29.5 55t74.5 20q33 0 50.5 -15t27.5 -44q78 -209 161 -419t148 -414q45 162 99.5 315.5t95.5 261.5q23 57 48.5 112.5t61 98.5t85 69.5t116.5 26.5q49 0 66.5 -18.5t17.5 -52.5q0 -25 -13.5 -48.5t-53.5 -27.5q-43 -6 -75 -41t-61 -96l-37 -82 q-33 -80 -61.5 -158t-58 -160t-60 -169t-65.5 -183q-16 -29 -40 -43t-71 -14q-41 0 -63.5 12t-34.5 30.5t-18.5 40t-12.5 40.5l-334 827q-10 23 -16 41t-6 35z" />
<glyph unicode="&#x48a;" horiz-adv-x="1458" d="M166 74v1284q0 43 22.5 60.5t63.5 17.5t63.5 -17.5t22.5 -60.5v-742q0 -94 -1 -188t-3 -184q168 283 346 558t352 556q29 47 56.5 62.5t66.5 15.5q45 0 72.5 -20.5t27.5 -67.5v-1190h113q39 0 63.5 -22.5t24.5 -63.5q-12 -84 -38.5 -170t-49.5 -168q-12 -43 -31.5 -60.5 t-54.5 -17.5q-41 0 -62.5 23.5t-21.5 56.5q0 6 1 11t1 11l62 242h-93q-47 0 -66.5 19.5t-19.5 56.5v903q0 92 2 182l-196 -315q-127 -199 -252 -393.5t-250 -393.5q-23 -35 -51.5 -54t-71.5 -19q-55 0 -76.5 24.5t-21.5 63.5zM424 1763q0 72 84 72q47 0 57 -41 q8 -31 20.5 -57.5t32 -46t49 -30.5t74.5 -11q70 0 100.5 29.5t48 64.5t33 64.5t52.5 29.5q82 0 82 -72q0 -39 -18.5 -81t-57.5 -77.5t-99.5 -58t-142.5 -22.5q-90 0 -150.5 22.5t-97 58t-52 77.5t-15.5 79z" />
<glyph unicode="&#x48b;" horiz-adv-x="1191" d="M152 63v938q0 43 21.5 59.5t62.5 16.5t62 -16.5t21 -59.5v-749q129 193 259.5 383t261.5 383q23 35 42 47t54 12q39 0 61.5 -17.5t22.5 -62.5v-850h100q37 0 60.5 -18t23.5 -59l-18 -78l-68 -244q-10 -41 -28.5 -57.5t-51.5 -16.5q-37 0 -56 20.5t-19 51.5v10 q10 49 21 97.5t24 97.5q-18 10 -36 22.5t-34 22.5q-51 0 -68.5 17.5t-17.5 56.5v723q-129 -186 -256 -373t-256 -373q-43 -61 -107 -61q-51 0 -66 19.5t-15 57.5zM297 1444q0 70 86 69q23 0 36 -8t21 -32q8 -31 20.5 -57.5t32 -46t49 -31t74.5 -11.5q68 0 98.5 29.5t48 64.5 t33 65t52.5 30q84 0 84 -70q0 -39 -18.5 -82t-57.5 -78t-99.5 -58.5t-144.5 -23.5q-88 0 -148.5 22.5t-97 58.5t-53 78t-16.5 81z" />
<glyph unicode="&#x48c;" horiz-adv-x="1253" d="M6 1139q0 35 16.5 56.5t49.5 21.5h118v141q0 43 24 60.5t65 17.5q39 0 62.5 -16.5t23.5 -61.5v-141h174q37 0 52 -21.5t15 -56.5t-14 -56.5t-53 -21.5h-174v-215h268q111 0 208 -19.5t168.5 -66.5t113.5 -125t42 -193q0 -213 -139 -327.5t-399 -114.5h-357q-80 0 -80 80 v981h-116q-35 0 -51.5 21.5t-16.5 56.5zM365 152h268q180 0 262 75.5t82 198.5q0 59 -18.5 109.5t-59.5 86t-108.5 55t-165.5 19.5h-260v-544z" />
<glyph unicode="&#x48d;" horiz-adv-x="1054" d="M23 842q0 29 10 48t39 19h114v121q0 72 84 72q45 0 65.5 -15.5t20.5 -54.5v-123h160q29 0 40 -19.5t11 -47.5q0 -70 -53 -70h-160v-133h181q88 0 167.5 -12.5t139 -46t95.5 -94t36 -156.5q0 -154 -101.5 -242t-302.5 -88h-303q-49 0 -63.5 26.5t-14.5 82.5v663h-116 q-29 0 -39 20.5t-10 49.5zM354 131h205q129 0 183.5 51t54.5 137t-52.5 135.5t-199.5 49.5h-191v-373z" />
<glyph unicode="&#x48e;" horiz-adv-x="1255" d="M170 70v1263q0 47 25.5 67.5t68.5 20.5h367q281 0 412 -110.5t131 -317.5q0 -57 -19.5 -131t-77.5 -139q-41 -47 -104 -84l100 -156q14 -23 18.5 -38t4.5 -25q0 -35 -31 -56.5t-59 -21.5q-14 0 -31 7t-39 42l-121 189q-72 -12 -162 -13h-305v-497q0 -47 -23.5 -65.5 t-66.5 -18.5t-65.5 18.5t-22.5 65.5zM348 721h258q63 0 115 6l-78 123q-16 25 -19 39t-3 24q0 33 30.5 54.5t59.5 21.5q14 0 31.5 -7t39.5 -40l103 -164l20 17q45 37 64.5 87t19.5 111q0 59 -18.5 109.5t-61.5 87.5t-112.5 57.5t-171.5 20.5h-277v-547z" />
<glyph unicode="&#x48f;" horiz-adv-x="1214" d="M156 -354v1339q0 45 20.5 61.5t61.5 16.5t62.5 -16.5t21.5 -61.5v-100q43 84 130 141t212 57q215 0 332.5 -149.5t117.5 -407.5q0 -121 -29.5 -223t-89.5 -178q-10 -14 -22 -29l84 -133q14 -23 18 -38t4 -25q0 -35 -30.5 -56.5t-59.5 -21.5q-14 0 -30.5 7t-38.5 42 l-82 129q-78 -35 -174 -35q-129 0 -211 49t-123 115v-483q0 -47 -23.5 -64.5t-64.5 -17.5t-63.5 17.5t-22.5 64.5zM324 514q0 -182 81.5 -289.5t229.5 -107.5q63 0 113 22l-121 191q-16 25 -19.5 39t-3.5 24q0 33 31 54.5t59 21.5q14 0 31.5 -7t40.5 -40l104 -166 q27 45 41 104q19 74 19 162q0 184 -74 294t-219 110q-74 0 -132.5 -34t-98 -91.5t-61 -131t-21.5 -155.5z" />
<glyph unicode="&#x490;" horiz-adv-x="1042" d="M170 63v1278q0 39 22.5 59.5t59.5 20.5h592v197q0 43 22.5 60.5t67.5 17.5q41 0 64.5 -17.5t23.5 -62.5v-273q0 -45 -21.5 -63t-62.5 -18h-590v-1199q0 -78 -88 -77q-43 0 -66.5 17t-23.5 60z" />
<glyph unicode="&#x491;" horiz-adv-x="858" d="M156 61v932q0 37 21.5 55.5t55.5 18.5h443v127q0 39 19.5 54.5t62.5 15.5q41 0 60.5 -15.5t19.5 -56.5v-205q0 -35 -17.5 -52t-58.5 -17h-432v-857q0 -76 -86 -75q-43 0 -65.5 17t-22.5 58z" />
<glyph unicode="&#x492;" horiz-adv-x="1052" d="M-2 721q0 80 65 80h123v540q0 37 20.5 58.5t61.5 21.5h699q37 0 52 -21.5t15 -56.5q0 -37 -15 -59t-54 -22h-598v-461h362q68 0 68 -80t-68 -80h-362v-518q0 -68 -14.5 -102.5t-76.5 -34.5q-41 0 -65.5 18.5t-24.5 61.5v575h-123q-35 0 -50 21.5t-15 58.5z" />
<glyph unicode="&#x493;" horiz-adv-x="839" d="M-12 535q0 29 10 50t39 21h115v387q0 78 77 78h529q41 0 58.5 -17.5t17.5 -58.5q0 -37 -16.5 -57t-61.5 -20h-428v-312h211q31 0 41 -20.5t10 -50.5q0 -70 -53 -70h-209v-402q0 -76 -88 -75q-45 0 -66.5 17.5t-21.5 57.5v402h-115q-29 0 -39 21.5t-10 48.5z" />
<glyph unicode="&#x494;" horiz-adv-x="1165" d="M166 63v1280q0 35 19.5 56.5t60.5 21.5h698q37 0 52.5 -20.5t15.5 -57.5q0 -35 -14.5 -57t-55.5 -22h-602v-433q86 27 158.5 38.5t138.5 11.5q127 0 221 -31t156.5 -103.5t93.5 -193.5t31 -299q0 -143 -27 -272t-89 -225.5t-163.5 -154t-249.5 -57.5q-80 0 -138 11.5 t-100 27t-69 30.5t-39 26q-31 25 -31 61q0 35 20.5 61.5t55.5 26.5q27 0 50.5 -15.5t55 -34t79 -33.5t122.5 -15q78 0 142.5 31.5t112 99t73 173t25.5 255.5q0 254 -76 367.5t-256 113.5q-72 0 -140.5 -11t-156.5 -46v-611q0 -78 -86 -77q-45 0 -66.5 17t-21.5 60z" />
<glyph unicode="&#x495;" horiz-adv-x="1083" d="M150 63v930q0 39 21.5 57.5t57.5 18.5h527q41 0 58 -16.5t17 -57.5q0 -37 -15 -57t-60 -20h-430v-388q66 29 124 40.5t115 11.5q113 0 197 -38t138 -104.5t81 -156t27 -191.5q0 -262 -120 -405.5t-329 -143.5q-78 0 -145.5 12.5t-116.5 34t-78 50t-29 59.5 q0 35 21.5 64.5t56.5 29.5q20 0 49 -15.5t65 -33.5t81 -33.5t100 -15.5q115 0 190.5 97t75.5 284q0 176 -78.5 264t-205.5 88q-66 0 -116 -17.5t-103 -45.5v-302q0 -41 -20.5 -58t-67.5 -17q-43 0 -65.5 16t-22.5 59z" />
<glyph unicode="&#x496;" horiz-adv-x="1832" d="M47 66q0 10 4 24t15 29l366 616l-272 479q-20 35 -38 74t-20 68q0 27 25 53.5t70 26.5q23 0 38 -11.5t27 -33.5l336 -592h225v555q0 45 24.5 63.5t67.5 18.5q41 0 66 -18.5t25 -63.5v-555h231l332 592q12 23 27.5 34t39.5 11q35 0 65 -26t30 -52q0 -16 -8.5 -34.5 t-20.5 -41.5l-299 -543l369 -633q8 -20 10 -38.5t2 -34.5v-297q0 -45 -24.5 -62.5t-65.5 -17.5q-90 0 -90 78v301l-357 606h-241v-508q0 -31 -1 -58.5t-10.5 -47t-28 -30.5t-51.5 -11q-43 0 -67.5 20.5t-24.5 61.5v573h-243q-86 -150 -174.5 -298t-174.5 -298 q-20 -35 -37.5 -47t-50.5 -12q-39 0 -67.5 21.5t-28.5 58.5z" />
<glyph unicode="&#x497;" horiz-adv-x="1427" d="M31 57q0 18 18 47l127 222q63 111 127 223l-188 346q-16 29 -31.5 60.5t-15.5 48.5q0 29 26.5 51t67.5 22q18 0 28.5 -6t19.5 -18.5t18.5 -29.5t23.5 -38l201 -377h172v398q0 72 88 71q86 0 86 -71v-398h172l233 426q20 43 64 43q29 0 59.5 -19.5t30.5 -47.5 q0 -14 -4 -29.5t-19 -40.5l-26 -45q-47 -86 -93.5 -170t-93.5 -170q63 -113 126 -224.5t128 -224.5q16 -25 17 -47v-307q0 -41 -23.5 -58.5t-64.5 -17.5q-84 0 -84 80v289q-59 106 -120 210.5t-120 211.5h-182v-406q0 -76 -86 -75q-88 0 -88 75v406h-185 q-59 -109 -121.5 -215.5t-121.5 -214.5q-16 -29 -33 -40t-45 -11q-41 0 -64.5 21.5t-23.5 49.5z" />
<glyph unicode="&#x498;" horiz-adv-x="1206" d="M51 223q0 37 31 62.5t65 25.5q27 0 50 -20l67 -58q25 -20 54.5 -40.5t69.5 -38t89 -28.5t113 -11q164 0 251 69.5t87 202.5q0 141 -103.5 202.5t-281.5 61.5h-181q-35 0 -48 22.5t-13 55.5q0 31 13.5 53.5t47.5 22.5h203q152 0 239 73.5t87 192.5q0 49 -14.5 91t-49 73 t-92 49.5t-141.5 18.5q-104 0 -185 -42t-147 -104q-35 -31 -51 -42t-43 -11q-29 0 -55.5 24.5t-26.5 51.5t18.5 50t34.5 40q35 31 79 64.5t101.5 60t131 44t167.5 17.5q125 0 211 -28.5t139.5 -78t78 -115t24.5 -140.5q0 -129 -68.5 -219.5t-191.5 -135.5 q139 -23 221 -110.5t82 -233.5q0 -203 -133 -317q-123 -104 -360 -111l-13 -51q111 -10 161 -56t50 -128t-56 -140.5t-183 -58.5q-70 0 -110 13.5t-62 23.5q-45 25 -46 63q0 25 16.5 47.5t45.5 22.5q18 0 34.5 -7t33 -16.5t37 -16.5t46.5 -7q43 0 70 18.5t27 55.5 q0 27 -12.5 43t-32 23t-46 9t-55.5 2q-45 0 -55 16.5t-4 39.5l33 106q-104 8 -181 35q-102 41 -163 84q-66 45 -85.5 77t-19.5 58z" />
<glyph unicode="&#x499;" horiz-adv-x="942" d="M41 156q0 33 26.5 56.5t55.5 23.5q20 0 35.5 -11.5t31.5 -25.5q47 -41 106.5 -71t145.5 -30q111 0 170.5 49.5t59.5 135.5q0 94 -65.5 142t-170.5 48h-149q-41 0 -54.5 21.5t-13.5 50.5q0 27 13.5 48t54.5 21h145q100 0 155.5 46.5t55.5 130.5q0 66 -40 110.5t-142 44.5 q-78 0 -132.5 -27.5t-105.5 -70.5q-16 -14 -33.5 -27.5t-42.5 -13.5q-29 0 -54 19.5t-25 52.5q0 20 12 38.5t29 34.5q23 20 56.5 44t77.5 43.5t101 31.5t125 12q98 0 165.5 -22.5t108.5 -60t58.5 -87t17.5 -104.5q0 -92 -45 -153.5t-125 -100.5q92 -23 146.5 -93.5 t54.5 -168.5q0 -154 -102 -242q-86 -74 -250 -84l-13 -51q111 -10 161 -56t50 -128t-56 -140.5t-183 -58.5q-70 0 -110 13.5t-62 23.5q-45 25 -45 63q0 25 16 47.5t45 22.5q18 0 34.5 -7t33 -16.5t37 -16.5t47.5 -7q43 0 69.5 18.5t26.5 55.5q0 27 -12.5 43t-32 23t-46 9 t-55.5 2q-45 0 -55 16.5t-4 39.5l33 104q-33 4 -62 10q-57 10 -101 26.5t-76 37t-50 37.5q-27 23 -37 41t-10 37z" />
<glyph unicode="&#x49a;" horiz-adv-x="1257" d="M170 68v1286q0 45 24.5 63.5t67.5 18.5q41 0 65.5 -18.5t24.5 -63.5v-555h228l411 592q16 23 30.5 34t39.5 11q29 0 61.5 -22.5t32.5 -55.5q0 -29 -33 -74l-374 -545l442 -620q10 -16 13 -29.5t5 -23.5v-330q0 -45 -24.5 -62.5t-65.5 -17.5q-92 0 -92 78v299l-438 608 h-236v-573q0 -41 -20.5 -61.5t-69.5 -20.5q-45 0 -68.5 18.5t-23.5 63.5z" />
<glyph unicode="&#x49b;" horiz-adv-x="1007" d="M156 61v945q0 37 24.5 54t65.5 17t63.5 -17.5t22.5 -53.5v-396h157l289 426q29 41 62 41q43 0 67.5 -27.5t24.5 -58.5q-4 -8 -6 -15t-8 -18l-275 -403l311 -451q18 -27 19 -45v-307q0 -41 -23.5 -58.5t-64.5 -17.5q-84 0 -84 80v275q-78 111 -154 219t-151 219h-164v-350 q0 -27 -1 -50.5t-9.5 -42t-27 -29.5t-50.5 -11q-88 0 -88 75z" />
<glyph unicode="&#x49c;" horiz-adv-x="1273" d="M170 68v1286q0 45 23.5 63.5t66.5 18.5q41 0 65.5 -18.5t24.5 -63.5v-559h101v249q0 45 20.5 62.5t56.5 17.5q78 0 78 -77v-252h27q20 49 49 99t71 117.5t103.5 159t149.5 220.5q16 23 30.5 34t38.5 11q29 0 61.5 -22.5t32.5 -55.5q0 -14 -9 -32.5t-23 -41.5 q-92 -137 -181.5 -272t-181.5 -273l430 -620q10 -16 14.5 -29.5t4.5 -23.5q0 -35 -29 -57.5t-70 -22.5q-33 0 -51 13t-41 46q-109 147 -212 299t-189 299h-25v-256q0 -45 -20.5 -62.5t-57.5 -17.5q-39 0 -58 17.5t-19 60.5v258h-101v-575q0 -41 -20.5 -61.5t-69.5 -20.5 q-45 0 -67.5 18.5t-22.5 63.5z" />
<glyph unicode="&#x49d;" horiz-adv-x="1069" d="M156 61v945q0 37 24.5 54t65.5 17q86 0 86 -71v-402h76v182q0 45 19 62.5t56 17.5q74 0 74 -82v-180h27q57 111 118.5 218.5t133.5 215.5q27 39 67 39q35 0 59.5 -24.5t24.5 -46.5q0 -16 -4 -27.5t-20 -38.5l-246 -385l295 -451q10 -16 13 -25t3 -20q0 -31 -27.5 -52 t-70.5 -21q-27 0 -44.5 11t-33.5 38q-68 106 -136.5 214.5t-131.5 225.5h-27v-182q0 -45 -19.5 -62.5t-56.5 -17.5q-74 0 -73 82v180h-76v-356q0 -27 -1 -50.5t-9.5 -42t-27 -29.5t-50.5 -11q-88 0 -88 75z" />
<glyph unicode="&#x49e;" horiz-adv-x="1265" d="M2 1098q0 76 66 76h116v182q0 45 24.5 62.5t65.5 17.5q39 0 63.5 -19.5t24.5 -60.5v-182h166q35 0 51.5 -22t16.5 -54q0 -80 -70 -80h-164v-221h228q104 150 207.5 298t208.5 298q16 23 30.5 33t38.5 10q35 0 58.5 -23.5t23.5 -48.5q0 -31 -26.5 -74t-53.5 -82l-321 -469 l444 -624q18 -27 19 -52q0 -35 -28 -56t-69 -21q-23 0 -35 5t-23 16t-24.5 30.5t-38.5 48.5l-401 555h-238v-522q0 -72 -14 -102.5t-74 -30.5q-90 0 -90 80v952h-114q-35 0 -51.5 21.5t-16.5 58.5z" />
<glyph unicode="&#x49f;" horiz-adv-x="1038" d="M23 831q0 29 10 49.5t39 20.5h116v105q0 72 88 71q84 0 84 -71v-105h144q29 0 40 -19.5t11 -50.5q0 -70 -53 -69h-142v-152h187l278 428q27 39 60 39t61.5 -21.5t28.5 -49.5q0 -12 -4 -26.5t-21 -37.5l-252 -387l299 -453q10 -14 13.5 -23t3.5 -20q0 -31 -26.5 -52 t-67.5 -21q-29 0 -43.5 12t-34.5 39l-289 434h-193v-410q0 -35 -19 -55t-67 -20q-86 0 -86 75v701h-116q-29 0 -39 21.5t-10 47.5z" />
<glyph unicode="&#x4a0;" horiz-adv-x="1558" d="M14 1341q0 37 16.5 58.5t57.5 21.5h477q41 0 65.5 -20.5t24.5 -63.5v-538h228l411 592q16 23 30.5 34t41.5 11q37 0 60.5 -26t23.5 -50q0 -29 -20.5 -62.5t-49.5 -78.5q-80 -123 -162.5 -241t-166.5 -239l442 -620q10 -16 13 -29.5t5 -23.5q0 -35 -28.5 -57.5 t-69.5 -22.5q-33 0 -51.5 13t-40.5 46l-430 596h-236v-573q0 -41 -20.5 -61.5t-67.5 -20.5t-69.5 18.5t-22.5 63.5v1194h-389q-41 0 -56.5 20.5t-15.5 58.5z" />
<glyph unicode="&#x4a1;" horiz-adv-x="1196" d="M14 995q0 74 78 74h344q82 0 82 -76v-383h158q72 109 144.5 213.5t146.5 212.5q14 20 26.5 30.5t34.5 10.5q39 0 64.5 -25.5t25.5 -52.5q0 -20 -17.5 -49.5t-37.5 -54.5l-232 -340q78 -115 155 -226.5t155 -224.5q18 -27 18 -45q0 -31 -27.5 -52t-70.5 -21 q-35 0 -55.5 22.5t-53.5 69.5l-270 391h-164v-350q0 -27 -1 -50.5t-9 -42t-25.5 -29.5t-50.5 -11q-88 0 -88 75v857h-250q-47 0 -63.5 20t-16.5 57z" />
<glyph unicode="&#x4a2;" horiz-adv-x="1546" d="M170 68v1288q0 45 24.5 62.5t67.5 17.5q41 0 65.5 -17.5t24.5 -62.5v-531h758v531q0 45 24.5 62.5t67.5 17.5q41 0 65.5 -17.5t24.5 -62.5v-1194h117q43 0 64.5 -18.5t21.5 -63.5v-344q0 -45 -24.5 -63.5t-65.5 -18.5q-45 0 -68.5 18.5t-23.5 61.5v266h-111q-92 0 -92 82 v584h-758v-598q0 -41 -20.5 -61.5t-69.5 -20.5q-92 0 -92 82z" />
<glyph unicode="&#x4a3;" horiz-adv-x="1259" d="M156 61v943q0 41 22.5 57t65.5 16q41 0 63.5 -16.5t22.5 -56.5v-381h532v378q0 43 20.5 59.5t65.5 16.5q47 0 67.5 -18.5t20.5 -57.5v-851h97q45 0 65.5 -15.5t20.5 -58.5v-324q0 -41 -22.5 -58.5t-66.5 -17.5q-84 0 -83 80v244h-105q-41 0 -60.5 15.5t-19.5 58.5v401 h-532v-414q0 -39 -19.5 -57t-66.5 -18t-67.5 16t-20.5 59z" />
<glyph unicode="&#x4a4;" horiz-adv-x="1722" d="M164 68v1286q0 45 24.5 63.5t67.5 18.5q41 0 65.5 -18.5t24.5 -63.5v-531h719v514q0 43 24.5 63.5t67.5 20.5h477q39 0 55.5 -21.5t16.5 -58.5q0 -39 -14.5 -59t-55.5 -20h-389v-1194q0 -45 -23.5 -63.5t-68.5 -18.5q-49 0 -69.5 20.5t-20.5 61.5v596h-719v-596 q0 -41 -20.5 -61.5t-69.5 -20.5q-45 0 -68.5 18.5t-23.5 63.5z" />
<glyph unicode="&#x4a5;" horiz-adv-x="1323" d="M152 59v945q0 43 21.5 58t62.5 15t63.5 -15t22.5 -58v-383h495v374q0 39 21.5 56.5t58.5 17.5h344q43 0 59.5 -18.5t16.5 -55.5q0 -35 -15.5 -54t-62.5 -19h-252v-861q0 -76 -86 -75q-47 0 -65.5 20.5t-18.5 54.5v416h-495v-418q0 -37 -19.5 -55t-66.5 -18 q-43 0 -63.5 16t-20.5 57z" />
<glyph unicode="&#x4a6;" horiz-adv-x="2117" d="M166 66v1275q0 45 23.5 62.5t66.5 17.5h874q41 0 65 -17.5t24 -62.5v-510q84 27 156.5 38.5t137.5 11.5q127 0 221.5 -31t157 -103.5t93 -193.5t30.5 -299q0 -143 -26.5 -272t-89 -225.5t-164 -154t-248.5 -57.5q-78 0 -136.5 11.5t-101.5 27t-69.5 30.5t-38.5 26 q-31 25 -31 61q0 35 20.5 61.5t55.5 26.5q29 0 51.5 -15.5t54 -34t77.5 -33.5t124 -15t142.5 31.5t110.5 99t71.5 174t25.5 256.5q0 127 -17.5 217t-57 148.5t-102 86t-155.5 27.5q-68 0 -137 -10t-155 -45v-610q0 -80 -89 -80q-43 0 -66.5 18.5t-23.5 61.5v1194h-698v-1194 q0 -41 -19.5 -60.5t-66.5 -19.5q-45 0 -67.5 18.5t-22.5 61.5z" />
<glyph unicode="&#x4a7;" horiz-adv-x="1779" d="M150 61v936q0 41 21.5 56.5t61.5 15.5h711q39 0 58.5 -15.5t19.5 -56.5v-467q66 29 123 40.5t117 11.5q113 0 196.5 -38t137 -104.5t80 -156t26.5 -191.5q0 -262 -120 -405.5t-327 -143.5q-86 0 -154.5 15.5t-116.5 38t-73.5 50t-25.5 52.5q0 35 21.5 64.5t56.5 29.5 q23 0 51 -15.5t64 -33.5t81 -33.5t98 -15.5q117 0 192 97t75 284q0 176 -79 264t-206 88q-66 0 -115 -16.5t-102 -44.5v-308q0 -37 -19.5 -55t-66.5 -18t-68.5 16t-21.5 59v857h-520v-857q0 -39 -20.5 -57t-67.5 -18q-45 0 -66.5 16t-21.5 59z" />
<glyph unicode="&#x4a8;" horiz-adv-x="1529" d="M106 670q0 276 106.5 457.5t311.5 287.5q25 12 51.5 20.5t49.5 8.5q41 0 60.5 -22.5t19.5 -57.5q0 -16 -7.5 -32.5t-31.5 -28.5q-106 -53 -178 -123t-115 -151t-60.5 -170t-17.5 -181q0 -111 31.5 -208t89 -172t139.5 -121t180 -54q-74 129 -109.5 242.5t-35.5 242.5 q0 125 36 223.5t97 164t143 100t174 34.5q76 0 148 -28.5t128 -88t90 -150.5t34 -216q0 -115 -32 -212t-86 -176t-127 -138.5t-155 -93.5q16 -14 49 -39t56 -43q41 -31 64.5 -54.5t23.5 -50.5q0 -29 -18.5 -50t-47.5 -21q-59 0 -142 60t-173 146q-37 -6 -74 -6 q-145 0 -268 53.5t-213 147.5t-140.5 222t-50.5 278zM766 616q0 -145 37 -255t123 -216q63 25 124.5 69t107.5 108.5t75 147.5t29 183q0 84 -20.5 144.5t-52.5 99.5t-73 57.5t-84 18.5q-117 0 -191.5 -86t-74.5 -271z" />
<glyph unicode="&#x4a9;" horiz-adv-x="1329" d="M88 543q0 100 23.5 180t63.5 143.5t94.5 109.5t117.5 79q20 10 45 17t43 7q35 0 55.5 -21.5t20.5 -51.5q0 -16 -6 -35t-35 -33q-125 -63 -181.5 -150.5t-56.5 -236.5q0 -68 21.5 -134.5t62.5 -121.5t99.5 -96t134.5 -60q-29 68 -44.5 132.5t-15.5 154.5q0 98 31 180 t83 139.5t121 89t144 31.5q86 0 149.5 -30.5t105.5 -83t62.5 -121t20.5 -142.5q0 -84 -25.5 -164.5t-72.5 -148t-114.5 -116t-151.5 -64.5q41 -39 106 -84t139 -80q55 -27 79 -49.5t24 -48.5q0 -18 -17.5 -41t-52.5 -23q-41 0 -102.5 25.5t-129 67.5t-134 96.5t-115.5 113.5 q-139 6 -248.5 53.5t-185.5 123t-117 177t-41 216.5zM705 424q0 -92 19 -161.5t56 -143.5q143 29 218 129t75 237q0 100 -39 167t-129 67q-37 0 -73.5 -17.5t-64.5 -54.5t-45 -92t-17 -131z" />
<glyph unicode="&#x4aa;" horiz-adv-x="1425" d="M104 709q0 170 48.5 308t136.5 235.5t212 150.5t275 53q100 0 178 -22.5t133.5 -52t90 -61.5t51.5 -50q37 -43 70.5 -99.5t33.5 -97.5q0 -45 -33.5 -61.5t-62.5 -16.5q-27 0 -44 15.5t-32 42.5q-23 41 -55.5 83t-77.5 76.5t-106.5 57t-143.5 22.5q-117 0 -206 -43 t-150.5 -119.5t-92 -184t-30.5 -236.5q0 -127 30.5 -234.5t92 -184.5t151 -120t205.5 -43q92 0 157.5 25.5t111 63.5t74 81t48.5 78q18 33 36 48t44 15q29 0 61.5 -16t32.5 -62q0 -41 -31.5 -97t-68.5 -99q-14 -16 -50 -50t-94.5 -67t-137.5 -57q-55 -16 -121 -23 q-43 -39 -72 -80q-43 -61 -43 -127q0 -61 30.5 -84.5t67.5 -23.5q23 0 38.5 4t27.5 9t23.5 9t25.5 4q18 0 31.5 -19t13.5 -46t-27 -51q-23 -20 -63.5 -32.5t-85.5 -12.5q-68 0 -115 18.5t-74.5 49t-40 67.5t-12.5 74q0 45 16.5 88t43 78.5t59.5 64.5q6 6 14 12 q-106 10 -198 49q-123 53 -211 149.5t-136.5 234t-48.5 307.5z" />
<glyph unicode="&#x4ab;" horiz-adv-x="1075" d="M100 522q0 123 33 225.5t94.5 177t151.5 116.5t207 42q88 0 154.5 -21.5t114.5 -54t78 -71.5t46 -72q8 -16 12 -30.5t4 -30.5q0 -37 -26.5 -58.5t-57.5 -21.5q-23 0 -38 9t-37 42q-12 16 -31 43t-47.5 51.5t-70.5 42t-101 17.5q-152 0 -226.5 -110.5t-74.5 -289.5 q0 -92 18.5 -166.5t56 -128t94 -83t132.5 -29.5q55 0 94 13t66.5 33.5t46 44t34.5 46.5q25 35 40.5 47t41.5 12q29 0 56.5 -20.5t27.5 -50.5q0 -29 -14 -56q-10 -23 -38 -60.5t-76 -74.5t-117 -63q-39 -14 -91 -23q-43 -39 -73 -82q-43 -61 -43 -127q0 -61 30.5 -84.5 t67.5 -23.5q23 0 38 4t27.5 9t23.5 9t26 4q18 0 31.5 -19t13.5 -46t-27 -51q-23 -20 -63.5 -32.5t-85.5 -12.5q-68 0 -115 18.5t-74.5 49t-40 67.5t-12.5 74q0 45 16.5 88t43 78.5t59.5 64.5l14 12q-74 8 -135 35q-90 41 -151.5 113.5t-94.5 175t-33 229.5z" />
<glyph unicode="&#x4ac;" horiz-adv-x="1232" d="M20 1341q0 35 16.5 57.5t51.5 22.5h1053q37 0 52 -22.5t15 -57.5t-14 -57t-55 -22h-437v-1100h119q43 0 64.5 -18.5t21.5 -63.5v-344q0 -45 -23.5 -63.5t-66.5 -18.5t-66.5 18.5t-23.5 61.5v266h-113q-45 0 -68.5 18.5t-23.5 61.5v1182h-434q-35 0 -51.5 22.5t-16.5 56.5 z" />
<glyph unicode="&#x4ad;" horiz-adv-x="903" d="M20 995q0 37 16.5 56.5t61.5 19.5h709q78 0 78 -76q0 -37 -16.5 -57t-61.5 -20h-279v-766h97q45 0 66.5 -16.5t21.5 -57.5v-326q0 -43 -23.5 -59.5t-64.5 -16.5q-86 0 -86 80v244h-99q-43 0 -65.5 17.5t-22.5 58.5v842h-254q-47 0 -62.5 20t-15.5 57z" />
<glyph unicode="&#x4ae;" horiz-adv-x="1239" d="M35 1356q0 35 31.5 57.5t62.5 22.5q43 0 68 -37l428 -598l422 592q29 43 69 43q29 0 58.5 -20.5t29.5 -55.5q0 -16 -8 -32.5t-18 -33.5l-465 -643v-581q0 -47 -23.5 -65.5t-66.5 -18.5t-68 18.5t-25 65.5v583q-111 150 -234.5 318t-234.5 319q-10 16 -18 32.5t-8 33.5z " />
<glyph unicode="&#x4af;" horiz-adv-x="1056" d="M33 1012q0 35 29.5 55t74.5 20q25 0 42.5 -12t28.5 -31.5t19.5 -43t16.5 -46.5l280 -757l322 831q25 59 78 59q41 0 68.5 -20t27.5 -53q0 -12 -4 -28.5t-15 -39.5l-395 -940v-364q0 -41 -26.5 -59.5t-61.5 -18.5q-84 0 -84 76v366l-379 930q-10 23 -16 41t-6 35z" />
<glyph unicode="&#x4b0;" horiz-adv-x="1239" d="M41 1352q0 41 28.5 62.5t61.5 21.5q29 0 46.5 -13.5t33.5 -33.5l418 -584l360 512q14 18 27.5 38.5t29 39t33 30t41.5 11.5q31 0 59.5 -19.5t28.5 -58.5q0 -33 -21.5 -63.5t-37.5 -53.5l-381 -526h281q31 0 47 -21.5t16 -56.5q0 -76 -70 -76h-329v-495q0 -43 -23.5 -61.5 t-64.5 -18.5q-43 0 -68 19.5t-25 60.5v495h-331q-35 0 -49.5 19.5t-14.5 56.5q0 35 14.5 56.5t49.5 21.5h280l-418 575q-23 29 -22 62z" />
<glyph unicode="&#x4b1;" horiz-adv-x="1056" d="M37 1012q0 37 27.5 56t72.5 19q33 0 50.5 -15t27.5 -44l309 -831l322 831q27 59 78 59q45 0 69.5 -22.5t24.5 -56.5q0 -20 -12 -47q-80 -209 -168 -411t-174 -409h241q33 0 49.5 -21.5t16.5 -56.5q0 -76 -72 -75h-293v-285q0 -66 -15.5 -102.5t-72.5 -36.5q-84 0 -84 76 v348h-293q-37 0 -51 19.5t-14 55.5q0 35 15 56.5t50 21.5h238l-324 795q-10 14 -14 36.5t-4 39.5z" />
<glyph unicode="&#x4b2;" horiz-adv-x="1280" d="M41 57q0 29 25 64l469 610l-426 563q-12 16 -20.5 32.5t-8.5 33.5q0 35 31.5 55.5t60.5 20.5q23 0 40 -7.5t36 -29.5l397 -529l404 529q18 23 33.5 30t37.5 7q29 0 56.5 -20.5t27.5 -55.5q0 -16 -8 -32.5t-20 -33.5l-428 -557l456 -602q35 -49 35 -76v-323 q0 -45 -24.5 -63.5t-65.5 -18.5q-45 0 -67.5 18.5t-22.5 61.5v305l-420 555l-440 -571q-16 -23 -32.5 -30t-37.5 -7q-31 0 -59.5 19.5t-28.5 51.5z" />
<glyph unicode="&#x4b3;" horiz-adv-x="1009" d="M41 59q0 29 20 56l342 438l-299 383q-12 16 -16 27.5t-4 27.5q0 31 30.5 55.5t59.5 24.5q18 0 34.5 -6t35.5 -33l264 -356l268 358q18 23 33.5 30t34.5 7q29 0 55.5 -23.5t26.5 -54.5q0 -27 -21 -53l-295 -387l340 -434q12 -16 16.5 -28.5t4.5 -29.5v-309 q0 -41 -22.5 -58.5t-63.5 -17.5q-43 0 -64.5 18.5t-21.5 61.5v287l-295 379l-314 -399q-18 -23 -34.5 -30t-34.5 -7q-29 0 -54.5 21.5t-25.5 51.5z" />
<glyph unicode="&#x4b4;" horiz-adv-x="1593" d="M-33 1341q0 35 16.5 57.5t49.5 22.5h721q37 0 52 -22.5t15 -57.5q0 -37 -14 -58t-55 -21h-273v-1102h678v1192q0 84 92 84q90 0 90 -82v-1194h119q43 0 64.5 -18.5t21.5 -61.5v-344q0 -45 -24.5 -62.5t-65.5 -17.5q-90 0 -90 78v266h-973q-43 0 -67.5 17.5t-24.5 62.5 v1182h-266q-35 0 -50.5 21.5t-15.5 57.5z" />
<glyph unicode="&#x4b5;" horiz-adv-x="1320" d="M-12 995q0 35 16 54.5t59 19.5h572q41 0 58.5 -18.5t17.5 -55.5t-15.5 -57t-62.5 -20h-207v-766h498v849q0 43 21.5 59.5t68.5 16.5t66.5 -18.5t19.5 -57.5v-851h96q45 0 66.5 -15.5t21.5 -58.5v-324q0 -41 -23.5 -58.5t-64.5 -17.5q-86 0 -86 80v244h-778 q-41 0 -61.5 15.5t-20.5 56.5v846h-184q-47 0 -62.5 20t-15.5 57z" />
<glyph unicode="&#x4b6;" horiz-adv-x="1341" d="M109 965v389q0 47 24.5 64.5t65.5 17.5t65.5 -17.5t24.5 -62.5v-326q0 -70 7 -125t36.5 -93t89 -58.5t164.5 -20.5q82 0 166 10.5t155 26.5v586q0 45 24.5 62.5t67.5 17.5q41 0 64.5 -17.5t23.5 -62.5v-1194h119q43 0 64.5 -18.5t21.5 -63.5v-344q0 -45 -23.5 -63.5 t-66.5 -18.5t-66.5 18.5t-23.5 61.5v266h-113q-92 0 -92 82v528q-76 -14 -165 -24.5t-167 -10.5q-115 0 -201.5 17.5t-146 61.5t-89 120t-29.5 191z" />
<glyph unicode="&#x4b7;" horiz-adv-x="1126" d="M88 723v287q0 68 86 67q45 0 66.5 -18.5t21.5 -48.5v-240q0 -61 6 -104t28.5 -70t64.5 -38t114 -11q63 0 129 8t125 25v421q0 43 21.5 59.5t68.5 16.5q86 0 86 -76v-851h96q45 0 67 -15.5t22 -58.5v-324q0 -41 -24 -58.5t-65 -17.5q-43 0 -64.5 18.5t-21.5 61.5v244h-102 q-35 0 -59.5 15.5t-24.5 56.5v362q-59 -12 -120.5 -19t-116.5 -12h-89q-166 6 -240.5 78t-74.5 242z" />
<glyph unicode="&#x4b8;" horiz-adv-x="1261" d="M113 1020v334q0 45 24.5 63.5t67.5 18.5q41 0 64.5 -19.5t23.5 -62.5v-326q0 -70 7 -121t30.5 -87t68.5 -57.5t121 -27.5v201q0 45 22.5 62.5t63.5 17.5t63.5 -18.5t22.5 -61.5v-201q23 2 44.5 4t43.5 6l131 25v584q0 45 26 63.5t67 18.5q39 0 64.5 -18.5t25.5 -63.5 v-1278q0 -41 -20.5 -60.5t-67.5 -19.5q-43 0 -69 18.5t-26 61.5v534q-31 -6 -64.5 -12t-72.5 -10l-82 -8v-218q0 -45 -22.5 -62t-63.5 -17t-63.5 18t-22.5 59v215q-113 4 -190.5 28t-125.5 75t-69.5 134t-21.5 208z" />
<glyph unicode="&#x4b9;" horiz-adv-x="1081" d="M88 723v287q0 68 84 67q86 0 86 -67v-240q0 -53 5 -93t21.5 -67.5t47 -43t84.5 -17.5v186q0 45 20.5 62.5t61.5 17.5q82 0 82 -82v-186q47 4 92 12t86 19v426q0 41 22.5 57t63.5 16t63.5 -17.5t22.5 -55.5v-900q0 -63 -14.5 -90.5t-69.5 -27.5q-37 0 -62.5 15t-25.5 56 v379q-49 -10 -94.5 -18t-83.5 -8v-152q0 -43 -21.5 -60.5t-62.5 -17.5q-80 0 -80 82v141q-174 2 -251 73t-77 247z" />
<glyph unicode="&#x4ba;" horiz-adv-x="1261" d="M170 66v1288q0 41 20.5 61.5t67.5 20.5q43 0 67.5 -18.5t24.5 -63.5v-482q74 14 165 24.5t169 10.5q115 0 201 -17.5t145.5 -61.5t89 -118.5t29.5 -191.5v-450q0 -47 -24.5 -64.5t-65.5 -17.5t-64.5 17t-23.5 63v389q0 70 -7.5 125t-38 93t-90 58.5t-163.5 20.5 q-80 0 -165 -11.5t-157 -25.5v-649q0 -45 -24.5 -62.5t-65.5 -17.5t-65.5 17t-24.5 63z" />
<glyph unicode="&#x4bb;" horiz-adv-x="1191" d="M156 68v1286q0 47 22.5 64.5t63.5 17.5t64.5 -17.5t23.5 -64.5v-473q29 53 76 90q55 47 125.5 69.5t142.5 22.5q162 0 262 -90t100 -277v-639q0 -72 -84 -71q-90 0 -90 71v596q0 123 -50 185.5t-181 62.5q-80 0 -137.5 -36t-93 -93t-53 -129t-17.5 -141v-434 q0 -47 -23.5 -64.5t-64.5 -17.5t-63.5 17t-22.5 65z" />
<glyph unicode="&#x4bc;" horiz-adv-x="1880" d="M20 952q0 49 7.5 93.5t20.5 78t32.5 53t46.5 19.5t57.5 -14.5t30.5 -40.5q0 -18 -8 -36t-17.5 -37t-16.5 -44t-7 -55q0 -68 42 -108t130 -40h88q12 145 67.5 262t142.5 200t205 128t257 45q160 -2 284.5 -57.5t212.5 -152.5t134.5 -229t46.5 -286q0 -39 -22.5 -53 t-61.5 -14h-1076q6 -246 130 -390.5t360 -144.5q90 0 151.5 21.5t105.5 52t72.5 68.5t51 69t43 52.5t47.5 21.5q31 0 62.5 -21.5t31.5 -58.5q0 -41 -26.5 -89t-63.5 -89q-23 -23 -61.5 -55.5t-97 -62.5t-137.5 -51.5t-179 -21.5q-156 0 -280 48t-212 139.5t-137 220.5 t-55 291h-98q-135 0 -219.5 70.5t-84.5 217.5zM621 821h954q-29 217 -145.5 343t-331.5 126t-332 -125t-145 -344z" />
<glyph unicode="&#x4bd;" horiz-adv-x="1415" d="M14 727q0 35 5.5 69.5t17.5 61.5t32.5 43.5t49.5 16.5q31 0 53.5 -15.5t22.5 -38.5t-14.5 -51.5t-14.5 -67.5q0 -47 22.5 -80.5t85.5 -37.5h105q14 96 52 181t99.5 147.5t146 98.5t193.5 36q113 0 200 -39t146.5 -109t90 -168t30.5 -217q0 -37 -22.5 -52.5t-61.5 -15.5 h-698q8 -180 91 -277t243 -97q84 0 134 25.5t82 55t55.5 55t56.5 25.5q29 0 54 -22.5t25 -54.5q0 -39 -47 -78l-22 -31q-53 -49 -138 -87t-204 -38q-242 0 -371 139.5t-141 387.5h-84v-3q-150 0 -212.5 68t-62.5 170zM561 627h598q-4 63 -22.5 120.5t-53 101.5t-89 69.5 t-130.5 25.5q-70 0 -124 -25.5t-92 -68.5t-59.5 -101.5t-27.5 -121.5z" />
<glyph unicode="&#x4be;" horiz-adv-x="1878" d="M20 954q0 104 29 173t78 69q27 0 56.5 -16.5t29.5 -38.5q0 -16 -8 -32.5t-17.5 -37t-16.5 -45.5t-7 -57q0 -70 40 -109t132 -39h86q16 147 70.5 264t141.5 200t204 127t258 44q158 -2 282.5 -57.5t212.5 -152.5t134.5 -228t46.5 -285q0 -29 -13.5 -43t-35 -19t-48.5 -5 h-1065q8 -260 135 -400.5t357 -140.5q90 0 152.5 21.5t106.5 53t72.5 69.5t52 70t44 53.5t47.5 21.5q25 0 53.5 -34t28.5 -71q0 -35 -25.5 -78t-54.5 -73q-18 -20 -52 -49t-82 -56.5t-111.5 -50t-145.5 -31.5v-235q0 -45 -23.5 -62.5t-64.5 -17.5q-88 0 -88 78v237 q-131 12 -238.5 65.5t-185.5 142.5t-122 212t-46 275h-98q-133 0 -217.5 70.5t-84.5 217.5zM614 821h961q-18 219 -143 346t-336 127t-337 -127t-145 -346z" />
<glyph unicode="&#x4bf;" horiz-adv-x="1413" d="M14 725q0 78 29 135.5t74 57.5q25 0 50.5 -15.5t25.5 -38.5t-14.5 -51.5t-14.5 -67.5q0 -45 23.5 -80.5t84.5 -39.5h105q14 98 53 183t100.5 147.5t145 98.5t192.5 36q113 0 199 -39t145.5 -110t90 -168t30.5 -216q0 -27 -12 -41t-32.5 -20.5t-45.5 -6.5h-692 q6 -180 89 -279t245 -99q86 0 138 25.5t86 56t55.5 56t49.5 25.5q10 0 23.5 -8t25 -21.5t19.5 -28.5t8 -30q0 -18 -11 -32.5t-30 -28.5l-24 -33q-41 -41 -104.5 -73.5t-162.5 -47.5v-221q0 -41 -23.5 -57.5t-64.5 -16.5t-62.5 16.5t-21.5 57.5v223q-39 4 -74.5 13.5 t-70.5 25.5q-129 63 -195.5 185t-74.5 295h-84q-145 0 -209 65.5t-64 167.5zM557 625h604q-4 66 -22.5 124t-55 103t-91 70.5t-130.5 25.5q-72 0 -126 -25.5t-92 -70.5t-59.5 -103.5t-27.5 -123.5z" />
<glyph unicode="&#x4c0;" horiz-adv-x="520" d="M170 70v1282q0 47 23.5 65.5t66.5 18.5t66.5 -18.5t23.5 -65.5v-1282q0 -47 -23.5 -65.5t-66.5 -18.5t-66.5 18.5t-23.5 65.5z" />
<glyph unicode="&#x4c1;" horiz-adv-x="1839" d="M53 63q0 16 16.5 46t34.5 61l334 563l-311 547q-10 20 -19.5 39.5t-9.5 36.5q0 35 34 57.5t69 22.5q25 0 39 -11.5t28 -33.5l334 -594h225v559q0 43 25 61.5t68 18.5q37 0 62.5 -19.5t25.5 -60.5v-559h231l334 594q25 45 65 45q31 0 64 -23.5t33 -52.5q0 -23 -13.5 -51.5 t-33.5 -63.5l-283 -506l364 -622q16 -27 17 -54q0 -35 -27.5 -56t-70.5 -21q-31 0 -48.5 12t-37.5 47l-351 596h-243v-516q0 -68 -13.5 -103.5t-74.5 -35.5q-43 0 -68 18.5t-25 61.5v575h-243l-351 -596q-20 -35 -37.5 -47t-48.5 -12q-41 0 -67.5 20.5t-26.5 56.5zM594 1763 q0 72 86 72q47 0 57 -41q10 -31 22.5 -56.5t32 -46t48 -32t73.5 -11.5q43 0 72 12.5t48.5 33t30.5 46t19 49.5q14 47 64 48q82 0 82 -72q0 -39 -18.5 -81t-56.5 -78t-98.5 -59.5t-144.5 -23.5q-88 0 -148 23.5t-98 58.5t-54.5 78t-16.5 80z" />
<glyph unicode="&#x4c2;" horiz-adv-x="1431" d="M35 55q0 18 13 44t28 48l233 402l-192 340q-16 29 -31.5 60.5t-15.5 47.5q0 29 28.5 51.5t65.5 22.5q41 0 63 -43l230 -422h176v393q0 72 84 72q82 0 82 -72v-393h176l235 422q25 43 64 43q41 0 64.5 -19.5t23.5 -45.5q0 -23 -14.5 -52.5t-30.5 -58.5l-193 -340l260 -459 q10 -18 11 -37q0 -33 -28 -53t-60 -20q-31 0 -46.5 12t-31.5 39l-244 430h-186v-401q0 -35 -14.5 -57.5t-67.5 -22.5q-41 0 -62.5 17t-21.5 58v406h-189l-245 -430q-16 -27 -31.5 -39t-46.5 -12q-37 0 -61.5 21.5t-24.5 47.5zM395 1444q0 72 86 72q47 0 57 -41 q10 -31 22.5 -56.5t32 -46t48 -32t73.5 -11.5q43 0 72 12.5t48.5 33t30.5 46t19 49.5q14 47 64 48q82 0 82 -72q0 -39 -18.5 -81t-56.5 -78t-98.5 -59.5t-144.5 -23.5q-88 0 -148 23.5t-98 58.5t-54.5 78t-16.5 80z" />
<glyph unicode="&#x4c3;" horiz-adv-x="1257" d="M170 68v1286q0 45 24.5 63.5t67.5 18.5q41 0 65.5 -18.5t24.5 -63.5v-555h228l411 592q16 23 30.5 34t39.5 11q29 0 61.5 -22.5t32.5 -55.5q0 -29 -33 -74l-374 -545l442 -620q10 -16 13 -29.5t5 -23.5v-246q0 -135 -72.5 -205t-220.5 -70q-41 0 -78.5 8.5t-68.5 22.5 t-49.5 33.5t-18.5 44.5q0 31 19.5 57.5t48.5 26.5q18 0 30.5 -7t28 -14.5t38 -14.5t59.5 -7q53 0 80.5 32.5t27.5 122.5v175q-111 156 -221.5 308t-222.5 308h-236v-508q0 -31 -1 -58.5t-9 -47t-26.5 -30.5t-53.5 -11q-92 0 -92 82z" />
<glyph unicode="&#x4c4;" horiz-adv-x="1007" d="M156 61v945q0 37 24.5 54t65.5 17q86 0 86 -71v-396h157l289 426q29 41 62 41q43 0 67.5 -27.5t24.5 -58.5q-8 -20 -21.5 -42.5t-29.5 -47.5l-238 -346q72 -104 142.5 -205.5t140.5 -206.5l37 -59q10 -16 10 -27v-237q0 -123 -64.5 -200t-195.5 -77q-45 0 -88 7.5 t-76 21.5t-53.5 34.5t-20.5 47.5q0 31 18.5 57.5t47.5 26.5q18 0 30.5 -7t29.5 -15.5t41 -15.5t65 -7q49 0 73.5 35.5t24.5 121.5v173q-29 37 -57 81l-252 365h-164v-360q0 -53 -12.5 -88t-75.5 -35q-88 0 -88 75z" />
<glyph unicode="&#x4c5;" horiz-adv-x="1419" d="M14 55q0 33 16.5 57.5t67.5 26.5q74 4 120 67.5t61 223.5q43 217 61 448.5t31 458.5q2 84 86 84h665q41 0 65.5 -18.5t24.5 -63.5v-1179h111q41 0 66.5 -22.5t25.5 -63.5l-18 -78l-72 -262q-12 -43 -32.5 -60.5t-55.5 -17.5q-41 0 -63.5 23.5t-22.5 58.5v8l16 72 q10 47 23.5 91t23.5 91h-92q-45 0 -67.5 18.5t-22.5 63.5v1173h-489l-23 -309q-4 -63 -13 -145t-21.5 -169t-27 -173t-30.5 -156q-37 -160 -107.5 -238.5t-209.5 -78.5q-53 0 -75 17t-22 52z" />
<glyph unicode="&#x4c6;" horiz-adv-x="1183" d="M6 53q0 29 12.5 50.5t57.5 25.5q53 2 80.5 37t42.5 113q16 86 25 178t14 184l14 293q2 27 4 51.5t9 43t24.5 29.5t48.5 11h526q37 0 61.5 -16.5t24.5 -53.5v-849h97q31 0 52 -12.5t27 -43.5q0 -18 -2 -37.5t-6 -38.5l-71 -268q-10 -41 -29 -57.5t-53 -16.5q-78 0 -78 72 q0 57 20.5 123t36.5 125h-61q-29 0 -53.5 5t-39 19.5t-14.5 45.5v854h-354q-4 -72 -8 -145t-8 -144q-8 -111 -16.5 -225.5t-38 -208t-90 -152.5t-171.5 -59q-53 0 -68.5 16t-15.5 51z" />
<glyph unicode="&#x4c7;" horiz-adv-x="1454" d="M164 68v1286q0 45 24.5 63.5t67.5 18.5q41 0 65.5 -18.5t24.5 -63.5v-531h760v531q0 45 24.5 63.5t65.5 18.5t66.5 -18.5t25.5 -63.5v-1516q0 -143 -73.5 -218t-225.5 -75q-90 0 -151.5 32t-61.5 77q0 31 18.5 57.5t47.5 26.5q18 0 33.5 -8.5t34 -17.5t40 -16t49.5 -7 q53 0 80 34.5t27 126.5v814h-760v-596q0 -41 -20.5 -61.5t-69.5 -20.5q-45 0 -68.5 18.5t-23.5 63.5z" />
<glyph unicode="&#x4c8;" horiz-adv-x="1181" d="M150 61v943q0 41 22.5 57t65.5 16q41 0 63.5 -16.5t22.5 -56.5v-381h530v378q2 43 24.5 59.5t63.5 16.5q43 0 65.5 -16.5t22.5 -59.5v-1099q0 -84 -11 -149.5t-42 -112t-85 -71t-140 -24.5q-45 0 -86 8.5t-73 21.5t-51.5 33.5t-19.5 45.5q0 31 19.5 57.5t48.5 26.5 q18 0 30.5 -7t29 -14.5t39 -14.5t59.5 -7q51 0 78.5 33.5t27.5 121.5v625h-530v-414q0 -39 -19.5 -57t-66.5 -18t-67.5 16t-20.5 59z" />
<glyph unicode="&#x4c9;" horiz-adv-x="1492" d="M164 68v1286q0 45 24.5 63.5t67.5 18.5q41 0 65.5 -18.5t24.5 -63.5v-531h760v531q0 45 24.5 63.5t65.5 18.5t66.5 -18.5t25.5 -63.5v-1194h111q41 0 65.5 -22.5t24.5 -63.5q-4 -20 -9 -40t-10 -38l-71 -262q-12 -43 -32.5 -60.5t-55.5 -17.5q-41 0 -62.5 23.5 t-21.5 56.5v10l14 72l49 182h-92q-45 0 -68.5 18.5t-23.5 63.5v582h-760v-596q0 -41 -20.5 -61.5t-69.5 -20.5q-45 0 -68.5 18.5t-23.5 63.5z" />
<glyph unicode="&#x4ca;" horiz-adv-x="1263" d="M150 61v943q0 41 22.5 57t65.5 16q41 0 63.5 -16.5t22.5 -56.5v-381h532v378q0 43 20.5 59.5t65.5 16.5q88 0 88 -76v-851h96q33 0 53.5 -12.5t26.5 -43.5q0 -14 -1 -45t-7 -37q-18 -66 -35.5 -131t-34.5 -131q-10 -41 -29.5 -57.5t-54.5 -16.5q-78 0 -77 74v8l59 242 h-90q-41 0 -60.5 15.5t-19.5 58.5v401h-532v-414q0 -39 -19.5 -57t-66.5 -18t-67.5 17t-20.5 58z" />
<glyph unicode="&#x4cb;" horiz-adv-x="1261" d="M113 965v389q0 47 24.5 64.5t65.5 17.5t65.5 -17.5t24.5 -62.5v-326q0 -70 7 -125t37 -93t89 -58.5t164 -20.5q82 0 166 10.5t155 26.5v586q0 45 25 62.5t68 17.5q41 0 64.5 -17.5t23.5 -62.5v-1274q0 -41 -19.5 -61.5t-68.5 -20.5h-117v-266q0 -43 -23.5 -61.5 t-66.5 -18.5t-66.5 18.5t-23.5 63.5v344q0 45 21.5 63.5t64.5 18.5h118v448q-76 -14 -165 -24.5t-166 -10.5q-115 0 -202 17.5t-146.5 61.5t-89 120t-29.5 191z" />
<glyph unicode="&#x4cc;" horiz-adv-x="1064" d="M92 723v287q0 68 86 67q45 0 66.5 -18.5t21.5 -48.5v-240q0 -61 6.5 -104t29 -70t64.5 -38t113 -11q63 0 129 8t125 25v421q0 37 20.5 56.5t67.5 19.5q45 0 66.5 -17.5t21.5 -58.5v-931q0 -29 -9 -43.5t-25.5 -20.5t-38.5 -6h-113v-244q0 -80 -84 -80q-41 0 -64.5 17.5 t-23.5 58.5v324q0 41 21.5 57.5t64.5 16.5h96v284q-152 -31 -291 -31q-184 0 -267 71t-83 249z" />
<glyph unicode="&#x4cd;" horiz-adv-x="1822" d="M164 63v1268q0 57 33.5 81t93.5 24q59 0 89 -21.5t48 -66.5q117 -287 232.5 -570.5t232.5 -570.5q115 283 226.5 564.5t223.5 563.5q20 49 54.5 75t97.5 26q57 0 90 -23.5t33 -77.5v-1175h111q41 0 65.5 -22.5t24.5 -63.5l-27 -113q-16 -57 -31.5 -113.5t-31.5 -113.5 q-10 -43 -32 -60.5t-57 -17.5q-41 0 -62.5 23.5t-21.5 56.5v24q16 59 32 120t32 120h-88q-47 0 -67.5 18.5t-20.5 61.5v1085q-113 -274 -223.5 -545.5t-223.5 -545.5q-29 -70 -106 -70q-47 0 -71.5 20.5t-39.5 55.5q-111 266 -222.5 527t-221.5 526v-1072q0 -37 -19.5 -56 t-66.5 -19t-66.5 17t-19.5 60z" />
<glyph unicode="&#x4ce;" horiz-adv-x="1464" d="M150 53v936q0 49 28.5 68.5t81.5 19.5q39 0 62.5 -11t39 -31.5t25.5 -46t21 -54.5l282 -744l283 738q10 29 21.5 56.5t27.5 48t40.5 32.5t63.5 12q53 0 79 -18.5t26 -65.5v-843h96q39 0 62.5 -18.5t23.5 -59.5q-10 -76 -35.5 -160t-48.5 -162q-10 -41 -29.5 -57.5 t-54.5 -16.5q-78 0 -78 74v8l17 72q10 41 21.5 83t19.5 83h-58q-27 0 -49 6t-35.5 20.5t-13.5 40.5v709q-72 -180 -144.5 -357t-144.5 -358q-23 -57 -90 -57q-45 0 -67.5 16.5t-32.5 44.5l-275 703v-713q0 -29 -18 -47t-66 -18q-45 0 -63 16t-18 51z" />
<glyph unicode="&#x4cf;" horiz-adv-x="520" d="M170 70v1282q0 47 23.5 65.5t66.5 18.5t66.5 -18.5t23.5 -65.5v-1282q0 -47 -23.5 -65.5t-66.5 -18.5t-66.5 18.5t-23.5 65.5z" />
<glyph unicode="&#x4d0;" horiz-adv-x="1376" d="M41 59q0 6 2 16.5t10 26.5l539 1278q12 25 33.5 40.5t64.5 15.5q47 0 68.5 -15.5t32.5 -40.5l534 -1274q8 -16 9 -25t1 -18q0 -37 -33.5 -57t-72.5 -20q-29 0 -45.5 15t-26.5 38l-158 369h-626l-160 -371q-23 -51 -68 -51q-37 0 -70.5 19.5t-33.5 53.5zM379 1763 q0 72 86 72q47 0 57 -41q10 -31 22.5 -56.5t32 -46t48 -32t73.5 -11.5q43 0 72 12.5t48.5 33t30.5 46t19 49.5q14 47 64 48q82 0 82 -72q0 -39 -18.5 -81t-56.5 -78t-98.5 -59.5t-144.5 -23.5q-88 0 -148 23.5t-98 58.5t-54.5 78t-16.5 80zM436 559h500l-248 639z" />
<glyph unicode="&#x4d1;" horiz-adv-x="1132" d="M102 268q0 80 27 148.5t94.5 120t182 80t290.5 32.5l107 2v51q0 117 -60.5 174.5t-195.5 57.5q-53 0 -92 -12.5t-67 -28.5t-45 -34.5t-30 -33.5q-20 -25 -34.5 -33t-36.5 -8q-33 0 -60.5 19.5t-27.5 50.5q0 16 3 26.5t9 22.5q2 6 24.5 35t68.5 61.5t119 58t177 25.5 q117 0 198 -29.5t130 -78.5t71.5 -113.5t22.5 -134.5v-674q0 -68 -88 -67q-59 0 -72.5 26.5t-13.5 73.5v61q-20 -29 -49 -59.5t-71 -56t-100.5 -42t-133.5 -16.5q-92 0 -158 22.5t-108 62.5t-61.5 94.5t-19.5 115.5zM231 1444q0 72 86 72q47 0 57 -41q10 -31 22.5 -56.5 t32 -46t48 -32t73.5 -11.5q43 0 72 12.5t48.5 33t30.5 46t19 49.5q14 47 64 48q82 0 82 -72q0 -39 -18.5 -81t-56.5 -78t-98.5 -59.5t-144.5 -23.5q-88 0 -148 23.5t-98 58.5t-54.5 78t-16.5 80zM276 285q0 -70 43 -120t154 -50q96 0 175 44t120 109q35 55 35 150v96 l-113 -2q-131 -2 -212 -19.5t-126 -48t-60.5 -70.5t-15.5 -89z" />
<glyph unicode="&#x4d2;" horiz-adv-x="1376" d="M41 59q0 6 2 16.5t10 26.5l539 1278q12 25 33.5 40.5t64.5 15.5q47 0 68.5 -15.5t32.5 -40.5l534 -1274q8 -16 9 -25t1 -18q0 -37 -33.5 -57t-72.5 -20q-29 0 -45.5 15t-26.5 38l-158 369h-626l-160 -371q-23 -51 -68 -51q-37 0 -70.5 19.5t-33.5 53.5zM351 1660 q0 47 30.5 77t79.5 30q41 0 78 -26.5t37 -80.5q0 -49 -32 -77.5t-83 -28.5t-80.5 28.5t-29.5 77.5zM436 559h500l-248 639zM783 1660q0 47 31.5 77t80.5 30q43 0 78 -26.5t35 -80.5q0 -49 -30.5 -77.5t-82.5 -28.5q-51 0 -81.5 28.5t-30.5 77.5z" />
<glyph unicode="&#x4d3;" horiz-adv-x="1132" d="M102 268q0 80 27 148.5t94.5 120t182 80t290.5 32.5l107 2v51q0 117 -60.5 174.5t-195.5 57.5q-53 0 -92 -12.5t-67 -28.5t-45 -34.5t-30 -33.5q-20 -25 -34.5 -33t-36.5 -8q-33 0 -60.5 19.5t-27.5 50.5q0 16 3 26.5t9 22.5q2 6 24.5 35t68.5 61.5t119 58t177 25.5 q117 0 198 -29.5t130 -78.5t71.5 -113.5t22.5 -134.5v-674q0 -68 -88 -67q-59 0 -72.5 26.5t-13.5 73.5v61q-20 -29 -49 -59.5t-71 -56t-100.5 -42t-133.5 -16.5q-92 0 -158 22.5t-108 62.5t-61.5 94.5t-19.5 115.5zM234 1341q0 47 30.5 77t79.5 30q41 0 78 -26.5t37 -80.5 q0 -49 -32 -77.5t-83 -28.5t-80.5 28.5t-29.5 77.5zM276 285q0 -70 43 -120t154 -50q96 0 175 44t120 109q35 55 35 150v96l-113 -2q-131 -2 -212 -19.5t-126 -48t-60.5 -70.5t-15.5 -89zM666 1341q0 47 31.5 77t80.5 30q43 0 78 -26.5t35 -80.5q0 -49 -30.5 -77.5 t-82.5 -28.5q-51 0 -81.5 28.5t-30.5 77.5z" />
<glyph unicode="&#x4d4;" horiz-adv-x="1923" d="M41 55q0 6 1 16.5t11 26.5l742 1260q39 63 104 63h913q41 0 58.5 -19.5t17.5 -58.5t-17.5 -59t-58.5 -20h-725v-459h687q41 0 58 -19.5t17 -58.5t-17 -59.5t-58 -20.5h-687v-489h725q41 0 58.5 -19.5t17.5 -58.5t-17.5 -59.5t-58.5 -20.5h-811q-43 0 -68.5 20.5 t-25.5 67.5v320h-473l-221 -375q-10 -16 -29.5 -33.5t-42.5 -17.5q-37 0 -68.5 19t-31.5 54zM520 559h387v676z" />
<glyph unicode="&#x4d5;" horiz-adv-x="1859" d="M104 279q0 76 28 143t97.5 117.5t185 79t294.5 28.5h106v49q0 117 -60.5 178.5t-195.5 61.5q-53 0 -92 -12.5t-66.5 -28.5t-45 -34.5t-29.5 -33.5q-20 -25 -35 -33t-37 -8q-33 0 -60.5 19.5t-27.5 50.5q0 16 3 26.5t9 22.5q2 6 24.5 35t68.5 61.5t119 58t177 25.5 q147 0 232.5 -47t132.5 -135q57 80 150.5 131t211.5 51q115 0 203 -38.5t147.5 -106.5t90 -162t30.5 -205q0 -72 -84 -71h-696q4 -180 84 -279.5t234 -99.5q59 0 103 15.5t74.5 37t50 44t32.5 38.5q14 20 27.5 30.5t39.5 10.5q29 0 56.5 -18.5t27.5 -49.5q0 -25 -22 -63 q-18 -29 -48 -62.5t-76 -64.5t-111.5 -51.5t-153.5 -20.5q-141 0 -248 57.5t-160 161.5q-18 -29 -49 -66.5t-81 -71.5t-121 -57.5t-169 -23.5q-100 0 -171 23.5t-115 64.5t-64.5 98.5t-20.5 123.5zM279 289q0 -78 48 -128t158 -50q98 0 176 44t119 109q18 29 26.5 69t8.5 85 v94h-113q-131 0 -212.5 -17.5t-129 -48t-64.5 -71.5t-17 -86zM993 643h596q-6 61 -25.5 114.5t-55 93.5t-89 62.5t-125.5 22.5t-125 -24.5t-90 -64.5t-58.5 -93.5t-27.5 -110.5z" />
<glyph unicode="&#x4d6;" horiz-adv-x="1234" d="M170 88v1245q0 47 25.5 67.5t68.5 20.5h811q41 0 58.5 -19.5t17.5 -58.5t-17.5 -59t-58.5 -20h-725v-459h686q41 0 58.5 -19.5t17.5 -58.5t-17.5 -59.5t-58.5 -20.5h-686v-489h725q41 0 58.5 -19.5t17.5 -58.5t-17.5 -59.5t-58.5 -20.5h-811q-43 0 -68.5 20.5t-25.5 67.5 zM338 1763q0 72 86 72q47 0 57 -41q10 -31 22.5 -56.5t32 -46t48 -32t73.5 -11.5q43 0 72 12.5t48.5 33t30.5 46t19 49.5q14 47 64 48q82 0 82 -72q0 -39 -18.5 -81t-56.5 -78t-98.5 -59.5t-144.5 -23.5q-88 0 -148 23.5t-98 58.5t-54.5 78t-16.5 80z" />
<glyph unicode="&#x4d7;" horiz-adv-x="1148" d="M100 514q0 125 35 229.5t99.5 180t155.5 117.5t204 42q115 0 203 -41t147.5 -114.5t90 -172.5t30.5 -216q0 -74 -84 -74h-696q4 -166 84 -258t227 -92q61 0 106.5 15t77 37.5t51 46.5t31.5 40q14 20 27.5 30.5t40.5 10.5q29 0 56.5 -18.5t27.5 -49.5q0 -27 -23 -63 q-18 -29 -49 -62.5t-79 -64.5t-114.5 -51.5t-154.5 -20.5q-231 0 -362.5 141.5t-131.5 407.5zM244 1444q0 72 86 72q47 0 57 -41q10 -31 22.5 -56.5t32 -46t48 -32t73.5 -11.5q43 0 72 12.5t48.5 33t30.5 46t19 49.5q14 47 64 48q82 0 82 -72q0 -39 -18.5 -81t-56.5 -78 t-98.5 -59.5t-144.5 -23.5q-88 0 -148 23.5t-98 58.5t-54.5 78t-16.5 80zM293 618h596q-6 63 -26.5 121t-56.5 102t-89 69.5t-125 25.5t-125 -26.5t-90 -70.5t-57.5 -101.5t-26.5 -119.5z" />
<glyph unicode="&#x4d8;" horiz-adv-x="1564" d="M104 729q0 39 23 54.5t61 15.5h1072q-18 227 -140.5 359t-337.5 132q-59 0 -105 -6t-83 -18.5t-68.5 -32t-62.5 -43.5q-33 -25 -54.5 -54.5t-39 -55t-37 -43t-49.5 -17.5q-27 0 -60 19.5t-33 56.5q0 55 42 118.5t120 116.5t187.5 89t242.5 36q154 0 279 -52t213 -148.5 t136 -233.5t48 -307q0 -172 -48 -310.5t-137 -236.5t-214 -150.5t-277 -52.5q-156 2 -281.5 52.5t-213.5 146.5t-135.5 237.5t-47.5 327.5zM301 639q8 -125 53 -223q51 -135 157.5 -211t270.5 -76q223 0 341 136t139 374h-961z" />
<glyph unicode="&#x4d9;" horiz-adv-x="1148" d="M84 510q0 74 84 74h696q-4 166 -84 258t-227 92q-61 0 -106.5 -15.5t-77 -38t-51 -46t-31.5 -39.5q-14 -20 -27.5 -30.5t-40.5 -10.5q-29 0 -56.5 18.5t-27.5 48.5q0 27 23 64q18 29 49 62.5t79 64t114.5 51t154.5 20.5q231 0 362.5 -141t131.5 -407q0 -125 -35 -229.5 t-99.5 -180.5t-155.5 -118t-204 -42q-115 0 -203 41t-147.5 115t-90 173t-30.5 216zM260 430q6 -63 26.5 -120.5t56.5 -101.5t89 -69.5t125 -25.5t125 26.5t90 70.5t57.5 101.5t26.5 118.5h-596z" />
<glyph unicode="&#x4da;" horiz-adv-x="1564" d="M104 729q0 39 23 54.5t61 15.5h1072q-18 227 -140.5 359t-337.5 132q-59 0 -105 -6t-83 -18.5t-68.5 -32t-62.5 -43.5q-33 -25 -54.5 -54.5t-39 -55t-37 -43t-49.5 -17.5q-27 0 -60 19.5t-33 56.5q0 55 42 118.5t120 116.5t187.5 89t242.5 36q154 0 279 -52t213 -148.5 t136 -233.5t48 -307q0 -172 -48 -310.5t-137 -236.5t-214 -150.5t-277 -52.5q-156 2 -281.5 52.5t-213.5 146.5t-135.5 237.5t-47.5 327.5zM301 639q8 -125 53 -223q51 -135 157.5 -211t270.5 -76q223 0 341 136t139 374h-961zM479 1651q0 45 28.5 72.5t75.5 27.5 q41 0 75 -24.5t34 -75.5q0 -47 -30.5 -74t-78.5 -27q-47 0 -75.5 27t-28.5 74zM887 1651q0 45 29.5 72.5t76.5 27.5q41 0 74 -24.5t33 -75.5q0 -47 -30 -74t-77 -27t-76.5 27t-29.5 74z" />
<glyph unicode="&#x4db;" horiz-adv-x="1148" d="M84 510q0 74 84 74h696q-4 166 -84 258t-227 92q-61 0 -106.5 -15.5t-77 -38t-51 -46t-31.5 -39.5q-14 -20 -27.5 -30.5t-40.5 -10.5q-29 0 -56.5 18.5t-27.5 48.5q0 27 23 64q18 29 49 62.5t79 64t114.5 51t154.5 20.5q231 0 362.5 -141t131.5 -407q0 -125 -35 -229.5 t-99.5 -180.5t-155.5 -118t-204 -42q-115 0 -203 41t-147.5 115t-90 173t-30.5 216zM248 1341q0 47 30.5 77t79.5 30q41 0 78 -26.5t37 -80.5q0 -49 -32 -77.5t-83 -28.5t-80.5 28.5t-29.5 77.5zM260 430q6 -63 26.5 -120.5t56.5 -101.5t89 -69.5t125 -25.5t125 26.5 t90 70.5t57.5 101.5t26.5 118.5h-596zM680 1341q0 47 31.5 77t80.5 30q43 0 78 -26.5t35 -80.5q0 -49 -30.5 -77.5t-82.5 -28.5q-51 0 -81.5 28.5t-30.5 77.5z" />
<glyph unicode="&#x4dc;" horiz-adv-x="1839" d="M53 63q0 16 16.5 46t34.5 61l334 563l-311 547q-10 20 -19.5 39.5t-9.5 36.5q0 35 34 57.5t69 22.5q25 0 39 -11.5t28 -33.5l334 -594h225v559q0 43 25 61.5t68 18.5q37 0 62.5 -19.5t25.5 -60.5v-559h231l334 594q25 45 65 45q31 0 64 -23.5t33 -52.5q0 -23 -13.5 -51.5 t-33.5 -63.5l-283 -506l364 -622q16 -27 17 -54q0 -35 -27.5 -56t-70.5 -21q-31 0 -48.5 12t-37.5 47l-351 596h-243v-516q0 -68 -13.5 -103.5t-74.5 -35.5q-43 0 -68 18.5t-25 61.5v575h-243l-351 -596q-20 -35 -37.5 -47t-48.5 -12q-41 0 -67.5 20.5t-26.5 56.5zM600 1651 q0 45 28.5 72.5t75.5 27.5q41 0 75 -24.5t34 -75.5q0 -47 -30.5 -74t-78.5 -27q-47 0 -75.5 27t-28.5 74zM1008 1651q0 45 29.5 72.5t76.5 27.5q41 0 74 -24.5t33 -75.5q0 -47 -30 -74t-77 -27t-76.5 27t-29.5 74z" />
<glyph unicode="&#x4dd;" horiz-adv-x="1431" d="M35 55q0 18 13 44t28 48l233 402l-192 340q-16 29 -31.5 60.5t-15.5 47.5q0 29 28.5 51.5t65.5 22.5q41 0 63 -43l230 -422h176v393q0 72 84 72q82 0 82 -72v-393h176l235 422q25 43 64 43q41 0 64.5 -19.5t23.5 -45.5q0 -23 -14.5 -52.5t-30.5 -58.5l-193 -340l260 -459 q10 -18 11 -37q0 -33 -28 -53t-60 -20q-31 0 -46.5 12t-31.5 39l-244 430h-186v-401q0 -35 -14.5 -57.5t-67.5 -22.5q-41 0 -62.5 17t-21.5 58v406h-189l-245 -430q-16 -27 -31.5 -39t-46.5 -12q-37 0 -61.5 21.5t-24.5 47.5zM394 1341q0 47 30.5 77t79.5 30q41 0 78 -26.5 t37 -80.5q0 -49 -32 -77.5t-83 -28.5t-80.5 28.5t-29.5 77.5zM826 1341q0 47 31.5 77t80.5 30q43 0 78 -26.5t35 -80.5q0 -49 -30.5 -77.5t-82.5 -28.5q-51 0 -81.5 28.5t-30.5 77.5z" />
<glyph unicode="&#x4de;" horiz-adv-x="1206" d="M51 223q0 37 31 62.5t65 25.5q27 0 50 -20l67 -58q25 -20 54.5 -40.5t69.5 -38t89 -28.5t113 -11q164 0 251 69.5t87 202.5q0 141 -103.5 202.5t-281.5 61.5h-181q-35 0 -48 22.5t-13 55.5q0 31 13.5 53.5t47.5 22.5h203q152 0 239 73.5t87 192.5q0 49 -14.5 91t-49 73 t-92 49.5t-141.5 18.5q-104 0 -185 -42t-147 -104q-35 -31 -51 -42t-43 -11q-29 0 -55.5 24.5t-26.5 51.5t18.5 50.5t34.5 39.5q35 31 79 64.5t101.5 60t131 44t167.5 17.5q125 0 211 -28.5t139.5 -78t78 -115t24.5 -140.5q0 -129 -68.5 -219.5t-191.5 -135.5 q139 -23 221 -110.5t82 -233.5q0 -203 -133 -316.5t-399 -113.5q-158 0 -261.5 40t-164.5 83q-66 45 -85.5 77t-19.5 58zM295 1651q0 45 28.5 72.5t75.5 27.5q41 0 75 -24.5t34 -75.5q0 -47 -30.5 -74t-78.5 -27q-47 0 -75.5 27t-28.5 74zM703 1651q0 45 29.5 72.5 t76.5 27.5q41 0 74 -24.5t33 -75.5q0 -47 -30 -74t-77 -27t-76.5 27t-29.5 74z" />
<glyph unicode="&#x4df;" horiz-adv-x="942" d="M41 156q0 33 26.5 56.5t55.5 23.5q20 0 35.5 -11.5t31.5 -25.5q47 -41 106.5 -71t145.5 -30q111 0 170.5 49.5t59.5 135.5q0 94 -65.5 142t-170.5 48h-149q-41 0 -54.5 21.5t-13.5 50.5q0 27 13.5 48t54.5 21h145q100 0 155.5 46.5t55.5 130.5q0 66 -40 110.5t-142 44.5 q-78 0 -132.5 -27.5t-105.5 -70.5q-16 -14 -33.5 -27.5t-42.5 -13.5q-29 0 -54 19.5t-25 52.5q0 20 12 38.5t29 34.5q23 20 56.5 44t77.5 43.5t101 31.5t125 12q98 0 165.5 -22.5t108.5 -60t58.5 -87t17.5 -104.5q0 -92 -45 -153.5t-125 -100.5q92 -23 146.5 -93.5 t54.5 -168.5q0 -154 -101.5 -241t-304.5 -87q-72 0 -129 11.5t-101 27.5t-76 37t-50 37q-27 23 -37 41t-10 37zM142 1341q0 47 30.5 77t79.5 30q41 0 78 -26.5t37 -80.5q0 -49 -32 -77.5t-83 -28.5t-80.5 28.5t-29.5 77.5zM574 1341q0 47 31.5 77t80.5 30q43 0 78 -26.5 t35 -80.5q0 -49 -30.5 -77.5t-82.5 -28.5q-51 0 -81.5 28.5t-30.5 77.5z" />
<glyph unicode="&#x4e0;" horiz-adv-x="1167" d="M47 213q0 35 28.5 59.5t63.5 24.5q39 0 82 -53q12 -16 33.5 -37t57.5 -40.5t86.5 -32.5t121.5 -13q174 0 266.5 82t92.5 217q0 63 -31 113.5t-84 85t-125 54t-152 19.5h-73q-37 0 -53.5 23.5t-16.5 58.5q0 29 15.5 53.5t37.5 46.5l398 392h-652q-35 0 -51 21.5t-16 53.5 q0 35 17.5 57.5t49.5 22.5h815q37 0 61.5 -18.5t24.5 -59.5q0 -29 -15 -55t-40 -51l-409 -401q98 -8 186 -41t154.5 -86.5t104.5 -128t38 -164.5q0 -102 -39 -185.5t-109.5 -142.5t-170 -91t-218.5 -32q-102 0 -177 18.5t-127 43t-84 51t-48 43.5q-18 18 -30.5 41.5 t-12.5 50.5z" />
<glyph unicode="&#x4e1;" horiz-adv-x="1075" d="M0 -162q0 18 10 34.5t24.5 28t31 18.5t30.5 7q27 0 42.5 -17.5t37.5 -45.5q10 -23 33.5 -53.5t61.5 -59.5t93.5 -49t127.5 -20q137 0 216.5 79.5t79.5 221.5q0 59 -23.5 111t-66.5 90t-104.5 59.5t-136.5 21.5h-109q-35 2 -51 22.5t-16 49.5q0 37 14 69.5t49 71.5 l381 436h-571q-35 0 -47.5 22.5t-12.5 55.5t13.5 52.5t44.5 19.5h718q84 0 84 -82q0 -31 -10 -53.5t-33 -46.5l-415 -469q123 -6 212 -43t147 -96.5t86 -136.5t28 -161q0 -104 -38 -186t-102.5 -138.5t-149.5 -87t-179 -30.5q-111 0 -190 23.5t-132 56.5t-86 67.5t-49 57.5 q-18 25 -30.5 49.5t-12.5 50.5z" />
<glyph unicode="&#x4e2;" horiz-adv-x="1433" d="M170 76v1280q0 43 23.5 61.5t64.5 18.5t61.5 -18.5t20.5 -61.5v-1112l696 1114q31 47 57.5 62.5t67.5 15.5q45 0 74 -21.5t29 -68.5v-1283q0 -43 -21.5 -60t-68.5 -17t-65.5 20.5t-18.5 56.5v1094l-695 -1096q-23 -37 -52.5 -56t-72.5 -19q-57 0 -78.5 24.5t-21.5 65.5z M416 1653q0 43 15.5 62.5t56.5 19.5h454q41 0 56.5 -19.5t15.5 -62.5q0 -47 -18.5 -63.5t-59.5 -16.5h-450q-35 0 -52.5 16.5t-17.5 63.5z" />
<glyph unicode="&#x4e3;" horiz-adv-x="1183" d="M156 63v932q0 41 22.5 58.5t63.5 17.5t63.5 -17.5t22.5 -58.5v-741l516 758q23 35 44 47t52 12q41 0 64.5 -17.5t23.5 -62.5v-930q0 -41 -21.5 -58t-66.5 -17q-47 0 -65.5 19.5t-18.5 55.5v723l-508 -737q-43 -61 -108 -61q-51 0 -67.5 21.5t-16.5 55.5zM309 1339 q0 43 15.5 62.5t56.5 19.5h454q41 0 56.5 -19.5t15.5 -62.5q0 -47 -18.5 -63t-59.5 -16h-450q-35 0 -52.5 16t-17.5 63z" />
<glyph unicode="&#x4e4;" horiz-adv-x="1433" d="M170 76v1280q0 43 23.5 61.5t64.5 18.5t61.5 -18.5t20.5 -61.5v-1112l696 1114q31 47 57.5 62.5t67.5 15.5q45 0 74 -21.5t29 -68.5v-1283q0 -43 -21.5 -60t-68.5 -17t-65.5 20.5t-18.5 56.5v1094l-695 -1096q-23 -37 -52.5 -56t-72.5 -19q-57 0 -78.5 24.5t-21.5 65.5z M403 1651q0 45 28.5 72.5t75.5 27.5q41 0 75 -24.5t34 -75.5q0 -47 -30.5 -74t-78.5 -27q-47 0 -75.5 27t-28.5 74zM811 1651q0 45 29.5 72.5t76.5 27.5q41 0 74 -24.5t33 -75.5q0 -47 -30 -74t-77 -27t-76.5 27t-29.5 74z" />
<glyph unicode="&#x4e5;" horiz-adv-x="1183" d="M156 63v932q0 41 22.5 58.5t63.5 17.5t63.5 -17.5t22.5 -58.5v-741l516 758q23 35 44 47t52 12q41 0 64.5 -17.5t23.5 -62.5v-930q0 -41 -21.5 -58t-66.5 -17q-47 0 -65.5 19.5t-18.5 55.5v723l-508 -737q-43 -61 -108 -61q-51 0 -67.5 21.5t-16.5 55.5zM271 1341 q0 47 30.5 77t79.5 30q41 0 78 -26.5t37 -80.5q0 -49 -32 -77.5t-83 -28.5t-80.5 28.5t-29.5 77.5zM703 1341q0 47 31.5 77t80.5 30q43 0 78 -26.5t35 -80.5q0 -49 -30.5 -77.5t-82.5 -28.5q-51 0 -81.5 28.5t-30.5 77.5z" />
<glyph unicode="&#x4e6;" horiz-adv-x="1564" d="M104 711q0 172 49.5 310t138.5 235.5t214 148.5t276 51q152 0 277 -51t214 -148.5t138 -235.5t49 -310t-49 -310.5t-138 -235.5t-214 -148.5t-277 -51.5t-276.5 51.5t-213.5 148.5t-138.5 235.5t-49.5 310.5zM299 711q0 -133 30.5 -241t92 -183.5t152 -117.5t208.5 -42 q119 0 209 42t151.5 117.5t92.5 183.5t31 241q0 131 -31 239.5t-92.5 184t-151.5 117.5t-209 42t-209 -42t-151.5 -117.5t-92 -184t-30.5 -239.5zM465 1651q0 45 28.5 72.5t75.5 27.5q41 0 75 -24.5t34 -75.5q0 -47 -30.5 -74t-78.5 -27q-47 0 -75.5 27t-28.5 74zM873 1651 q0 45 29.5 72.5t76.5 27.5q41 0 74 -24.5t33 -75.5q0 -47 -30 -74t-77 -27t-76.5 27t-29.5 74z" />
<glyph unicode="&#x4e7;" horiz-adv-x="1204" d="M100 528q0 129 36 231.5t102.5 175.5t158.5 110.5t205 37.5t205 -37.5t158.5 -110.5t102.5 -175.5t36 -231.5t-36 -233.5t-102.5 -177t-158.5 -112.5t-205 -40t-205 40t-158.5 112.5t-102.5 177t-36 233.5zM279 1341q0 47 30.5 77t79.5 30q41 0 78 -26.5t37 -80.5 q0 -49 -32 -77.5t-83 -28.5t-80.5 28.5t-29.5 77.5zM285 528q0 -186 82 -298.5t235 -112.5q154 0 236 112.5t82 298.5t-82 295t-236 109t-235.5 -109t-81.5 -295zM711 1341q0 47 31.5 77t80.5 30q43 0 78 -26.5t35 -80.5q0 -49 -30.5 -77.5t-82.5 -28.5q-51 0 -81.5 28.5 t-30.5 77.5z" />
<glyph unicode="&#x4e8;" horiz-adv-x="1564" d="M104 711q0 172 49.5 310t138.5 235.5t214 148.5t276 51q152 0 277 -51t214 -148.5t138 -235.5t49 -310t-49 -310.5t-138 -235.5t-214 -148.5t-277 -51.5t-276.5 51.5t-213.5 148.5t-138.5 235.5t-49.5 310.5zM301 639q6 -92 29 -170q31 -106 92 -182t151.5 -118 t208.5 -42q119 0 209 42t151.5 117.5t92.5 182.5q23 78 29 170h-963zM301 799h961q-7 79 -27 151q-31 109 -92.5 184.5t-151.5 117.5t-209 42t-209 -42t-151.5 -117.5t-91.5 -184.5q-20 -72 -29 -151z" />
<glyph unicode="&#x4e9;" horiz-adv-x="1204" d="M100 528q0 129 36 231.5t102.5 175.5t158.5 110.5t205 37.5t205 -37.5t158.5 -110.5t102.5 -175.5t36 -231.5t-36 -233.5t-102.5 -177t-158.5 -112.5t-205 -40t-205 40t-158.5 112.5t-102.5 177t-36 233.5zM287 467q12 -146 80 -238q82 -113 235 -112q154 0 236 112 q68 92 80 238h-631zM289 606h626q-14 131 -77 217q-82 109 -236 109t-235 -109q-63 -86 -78 -217z" />
<glyph unicode="&#x4ea;" horiz-adv-x="1564" d="M104 711q0 172 49.5 310t138.5 235.5t214 148.5t276 51q152 0 277 -51t214 -148.5t138 -235.5t49 -310t-49 -310.5t-138 -235.5t-214 -148.5t-277 -51.5t-276.5 51.5t-213.5 148.5t-138.5 235.5t-49.5 310.5zM301 639q6 -92 29 -170q31 -106 92 -182t151.5 -118 t208.5 -42q119 0 209 42t151.5 117.5t92.5 182.5q23 78 29 170h-963zM301 799h961q-7 79 -27 151q-31 109 -92.5 184.5t-151.5 117.5t-209 42t-209 -42t-151.5 -117.5t-91.5 -184.5q-20 -72 -29 -151zM465 1651q0 45 28.5 72.5t75.5 27.5q41 0 75 -24.5t34 -75.5 q0 -47 -30.5 -74t-78.5 -27q-47 0 -75.5 27t-28.5 74zM873 1651q0 45 29.5 72.5t76.5 27.5q41 0 74 -24.5t33 -75.5q0 -47 -30 -74t-77 -27t-76.5 27t-29.5 74z" />
<glyph unicode="&#x4eb;" horiz-adv-x="1204" d="M100 528q0 129 36 231.5t102.5 175.5t158.5 110.5t205 37.5t205 -37.5t158.5 -110.5t102.5 -175.5t36 -231.5t-36 -233.5t-102.5 -177t-158.5 -112.5t-205 -40t-205 40t-158.5 112.5t-102.5 177t-36 233.5zM279 1341q0 47 30.5 77t79.5 30q41 0 78 -26.5t37 -80.5 q0 -49 -32 -77.5t-83 -28.5t-80.5 28.5t-29.5 77.5zM287 467q12 -146 80 -238q82 -113 235 -112q154 0 236 112q68 92 80 238h-631zM289 606h626q-14 131 -77 217q-82 109 -236 109t-235 -109q-63 -86 -78 -217zM711 1341q0 47 31.5 77t80.5 30q43 0 78 -26.5t35 -80.5 q0 -49 -30.5 -77.5t-82.5 -28.5q-51 0 -81.5 28.5t-30.5 77.5z" />
<glyph unicode="&#x4ec;" horiz-adv-x="1427" d="M92 317q0 47 36 71t71 24q29 0 44 -18.5t36 -49.5q27 -41 62.5 -81t82.5 -70.5t106.5 -50t135.5 -19.5q113 0 196.5 39t140 107.5t87 163.5t36.5 208h-655q-37 0 -52.5 22.5t-15.5 57.5q0 78 68 78h655q-14 227 -126.5 361t-329.5 134q-78 0 -138.5 -17t-108.5 -47 t-82 -68t-58 -81q-16 -29 -34 -45t-46 -16q-33 0 -69 18.5t-36 61.5q0 29 17.5 63.5t48.5 70.5t73 70.5t91 63.5q78 45 167 66.5t205 21.5q152 0 268.5 -52t195.5 -146.5t119 -226.5t40 -292q0 -170 -40 -312t-123 -244.5t-208 -160t-297 -57.5q-104 0 -185 23.5 t-140.5 56.5t-98 67.5t-59.5 57.5q-27 29 -53.5 71t-26.5 76zM377 1651q0 45 28.5 72.5t75.5 27.5q41 0 75 -24.5t34 -75.5q0 -47 -30.5 -74t-78.5 -27q-47 0 -75.5 27t-28.5 74zM785 1651q0 45 29.5 72.5t76.5 27.5q41 0 74 -24.5t33 -75.5q0 -47 -30 -74t-77 -27t-76.5 27 t-29.5 74z" />
<glyph unicode="&#x4ed;" horiz-adv-x="1095" d="M80 225q0 35 26.5 60.5t67.5 25.5q23 0 36 -13t36 -42q16 -23 38.5 -48.5t53.5 -47t73 -35.5t101 -14q76 0 129 26.5t89 72.5t56.5 109.5t26.5 135.5h-444q-74 0 -74 77q0 76 74 76h444q-6 74 -25.5 133.5t-53.5 102.5t-86 65.5t-124 22.5q-98 0 -161.5 -41t-122.5 -107 q-16 -20 -30.5 -30.5t-37.5 -10.5q-37 0 -63.5 21.5t-26.5 52.5q0 25 17.5 54.5t41.5 54.5q68 72 164 114.5t227 42.5q236 0 349.5 -139t113.5 -401q0 -121 -27.5 -226.5t-88 -183.5t-154.5 -123t-225 -45q-127 0 -213 42t-137 97q-29 31 -49.5 65t-20.5 56zM195 1341 q0 47 30.5 77t79.5 30q41 0 78 -26.5t37 -80.5q0 -49 -32 -77.5t-83 -28.5t-80.5 28.5t-29.5 77.5zM627 1341q0 47 31.5 77t80.5 30q43 0 78 -26.5t35 -80.5q0 -49 -30.5 -77.5t-82.5 -28.5q-51 0 -81.5 28.5t-30.5 77.5z" />
<glyph unicode="&#x4ee;" horiz-adv-x="1138" d="M20 1358q0 35 32 56.5t71 21.5q29 0 44 -12.5t28 -34.5l401 -789l350 776q14 31 30.5 45.5t47.5 14.5q37 0 63.5 -18.5t26.5 -53.5q0 -27 -20 -72l-365 -784q-72 -156 -128 -257t-112.5 -159.5t-120 -82t-149.5 -23.5q-96 0 -96 67q0 35 18.5 61.5t67.5 26.5 q72 0 115 22.5t82 90.5l90 162l-453 868q-10 18 -16.5 37.5t-6.5 36.5zM274 1653q0 43 15.5 62.5t56.5 19.5h454q41 0 56.5 -19.5t15.5 -62.5q0 -47 -18.5 -63.5t-59.5 -16.5h-450q-35 0 -52.5 16.5t-17.5 63.5z" />
<glyph unicode="&#x4ef;" horiz-adv-x="1040" d="M39 995q0 35 31.5 55.5t70.5 20.5q47 0 70 -57l305 -778l322 782q12 29 26.5 41t38.5 12q37 0 67.5 -18.5t30.5 -53.5q0 -14 -7 -31.5t-15 -35.5l-559 -1313q-14 -29 -30.5 -43t-49.5 -14q-35 0 -59.5 19.5t-24.5 53.5q0 10 3 24.5t13 35.5l150 336l-359 893 q-8 20 -16 37.5t-8 33.5zM235 1339q0 43 15.5 62.5t56.5 19.5h454q41 0 56.5 -19.5t15.5 -62.5q0 -47 -18.5 -63t-59.5 -16h-450q-35 0 -52.5 16t-17.5 63z" />
<glyph unicode="&#x4f0;" horiz-adv-x="1138" d="M20 1358q0 35 32 56.5t71 21.5q29 0 44 -12.5t28 -34.5l401 -789l350 776q14 31 30.5 45.5t47.5 14.5q37 0 63.5 -18.5t26.5 -53.5q0 -27 -20 -72l-365 -784q-72 -156 -128 -257t-112.5 -159.5t-120 -82t-149.5 -23.5q-96 0 -96 67q0 35 18.5 61.5t67.5 26.5 q72 0 115 22.5t82 90.5l90 162l-453 868q-10 18 -16.5 37.5t-6.5 36.5zM268 1651q0 45 28.5 72.5t75.5 27.5q41 0 75 -24.5t34 -75.5q0 -47 -30.5 -74t-78.5 -27q-47 0 -75.5 27t-28.5 74zM676 1651q0 45 29.5 72.5t76.5 27.5q41 0 74 -24.5t33 -75.5q0 -47 -30 -74t-77 -27 t-76.5 27t-29.5 74z" />
<glyph unicode="&#x4f1;" horiz-adv-x="1040" d="M39 995q0 35 31.5 55.5t70.5 20.5q47 0 70 -57l305 -778l322 782q12 29 26.5 41t38.5 12q37 0 67.5 -18.5t30.5 -53.5q0 -14 -7 -31.5t-15 -35.5l-559 -1313q-14 -29 -30.5 -43t-49.5 -14q-35 0 -59.5 19.5t-24.5 53.5q0 10 3 24.5t13 35.5l150 336l-359 893 q-8 20 -16 37.5t-8 33.5zM222 1341q0 47 30.5 77t79.5 30q41 0 78 -26.5t37 -80.5q0 -49 -32 -77.5t-83 -28.5t-80.5 28.5t-29.5 77.5zM654 1341q0 47 31.5 77t80.5 30q43 0 78 -26.5t35 -80.5q0 -49 -30.5 -77.5t-82.5 -28.5q-51 0 -81.5 28.5t-30.5 77.5z" />
<glyph unicode="&#x4f2;" horiz-adv-x="1138" d="M20 1358q0 35 32 56.5t71 21.5q29 0 44 -12.5t28 -34.5l401 -789l350 776q14 31 30.5 45.5t47.5 14.5q37 0 63.5 -18.5t26.5 -53.5q0 -27 -20 -72l-365 -784q-72 -156 -128 -257t-112.5 -159.5t-120 -82t-149.5 -23.5q-96 0 -96 67q0 35 18.5 61.5t67.5 26.5 q72 0 115 22.5t82 90.5l90 162l-453 868q-10 18 -16.5 37.5t-6.5 36.5zM256 1585q0 23 8.5 36t30.5 30l174 127q33 25 62.5 40t58.5 15q41 0 64.5 -26.5t23.5 -61.5q0 -29 -15.5 -48.5t-49.5 -37.5l-203 -109q-18 -10 -40 -18t-48 -8q-29 0 -47.5 16t-18.5 45zM744 1585 q0 23 8 36t31 30l174 127q33 25 62.5 40t58.5 15q41 0 64.5 -26.5t23.5 -61.5q0 -29 -15.5 -48.5t-50.5 -37.5l-203 -109q-18 -10 -39.5 -18t-48.5 -8q-29 0 -47 16t-18 45z" />
<glyph unicode="&#x4f3;" horiz-adv-x="1040" d="M39 995q0 35 31.5 55.5t70.5 20.5q47 0 70 -57l305 -778l322 782q12 29 26.5 41t38.5 12q37 0 67.5 -18.5t30.5 -53.5q0 -14 -7 -31.5t-15 -35.5l-559 -1313q-14 -29 -30.5 -43t-49.5 -14q-35 0 -59.5 19.5t-24.5 53.5q0 10 3 24.5t13 35.5l150 336l-359 893 q-8 20 -16 37.5t-8 33.5zM231 1231q0 33 27 61l135 164q33 39 59.5 58.5t57.5 19.5q47 0 71.5 -26.5t24.5 -61.5q0 -33 -47 -76l-174 -156q-20 -18 -41 -30.5t-49 -12.5q-29 0 -46.5 16.5t-17.5 43.5zM633 1231q0 33 26 61l135 164q33 39 59.5 58.5t57.5 19.5 q47 0 71.5 -26.5t24.5 -61.5q0 -33 -47 -76l-174 -156q-20 -18 -40.5 -30.5t-49.5 -12.5t-46 16.5t-17 43.5z" />
<glyph unicode="&#x4f4;" horiz-adv-x="1261" d="M113 965v389q0 47 24.5 64.5t65.5 17.5t64.5 -17.5t23.5 -62.5v-328q0 -70 7 -125t38 -93t90 -58.5t164 -20.5q80 0 165 11.5t156 25.5v588q0 45 25 62.5t65 17.5q41 0 66 -17.5t25 -62.5v-1288q0 -41 -20.5 -61.5t-67.5 -20.5q-43 0 -68 18.5t-25 63.5v542 q-74 -14 -165 -24.5t-168 -10.5q-115 0 -201 17.5t-145.5 61.5t-89 119t-29.5 192zM295 1651q0 45 28.5 72.5t75.5 27.5q41 0 75 -24.5t34 -75.5q0 -47 -30.5 -74t-78.5 -27q-47 0 -75.5 27t-28.5 74zM703 1651q0 45 29.5 72.5t76.5 27.5q41 0 74 -24.5t33 -75.5 q0 -47 -30 -74t-77 -27t-76.5 27t-29.5 74z" />
<glyph unicode="&#x4f5;" horiz-adv-x="1064" d="M92 723v281q0 35 22.5 51t61.5 16q88 0 88 -67v-234q0 -61 7.5 -104t29 -70t63.5 -39t113 -12q66 0 131.5 8t126.5 22v420q0 41 22.5 58.5t63.5 17.5t64.5 -17.5t23.5 -58.5v-938q0 -72 -86 -71q-37 0 -62.5 16t-25.5 55v377q-152 -31 -293 -31q-182 0 -266 71t-84 249z M179 1341q0 47 30.5 77t79.5 30q41 0 78 -26.5t37 -80.5q0 -49 -32 -77.5t-83 -28.5t-80.5 28.5t-29.5 77.5zM611 1341q0 47 31.5 77t80.5 30q43 0 78 -26.5t35 -80.5q0 -49 -30.5 -77.5t-82.5 -28.5q-51 0 -81.5 28.5t-30.5 77.5z" />
<glyph unicode="&#x4f6;" horiz-adv-x="1038" d="M170 80v1263q0 35 20.5 56.5t61.5 21.5h698q37 0 52.5 -20.5t15.5 -57.5q0 -35 -14.5 -58t-55.5 -23h-598v-1100h119q41 0 63.5 -18.5t22.5 -63.5v-344q0 -45 -24.5 -63.5t-65.5 -18.5q-45 0 -68.5 18.5t-23.5 61.5v266h-113q-45 0 -67.5 18.5t-22.5 61.5z" />
<glyph unicode="&#x4f7;" horiz-adv-x="845" d="M156 74v919q0 78 77 78h527q41 0 58.5 -17.5t17.5 -58.5q0 -37 -16.5 -57t-61.5 -20h-426v-766h96q45 0 65.5 -16.5t20.5 -57.5v-326q0 -43 -22.5 -59.5t-65.5 -16.5q-84 0 -84 80v244h-104q-41 0 -61.5 16.5t-20.5 57.5z" />
<glyph unicode="&#x4f8;" horiz-adv-x="1742" d="M170 80v1278q0 41 23.5 59.5t64.5 18.5q43 0 66.5 -17.5t23.5 -58.5v-494h281q113 0 210 -20.5t168.5 -69.5t112.5 -128t41 -195q0 -217 -136 -335t-402 -118h-371q-37 0 -59.5 19.5t-22.5 60.5zM348 154h283q182 0 261 79.5t79 202.5q0 63 -18.5 115.5t-62.5 88.5 t-117 55.5t-181 19.5h-244v-561zM555 1651q0 45 28.5 72.5t75.5 27.5q41 0 75 -24.5t34 -75.5q0 -47 -30.5 -74t-78.5 -27q-47 0 -75.5 27t-28.5 74zM963 1651q0 45 29.5 72.5t76.5 27.5q41 0 74 -24.5t33 -75.5q0 -47 -30 -74t-77 -27t-76.5 27t-29.5 74zM1393 66v1290 q0 43 24.5 61.5t65.5 18.5t65.5 -18.5t24.5 -61.5v-1290q0 -80 -90 -80q-43 0 -66.5 17t-23.5 63z" />
<glyph unicode="&#x4f9;" horiz-adv-x="1447" d="M156 68v929q0 74 84 74q47 0 66.5 -16.5t19.5 -55.5v-346h200q86 0 162 -14t132.5 -49t90 -97.5t33.5 -156.5q0 -158 -102.5 -247t-300.5 -89h-305q-35 0 -57.5 16.5t-22.5 51.5zM326 133h204q129 0 182.5 51.5t53.5 143.5q0 88 -52 139t-196 51h-192v-385zM400 1341 q0 47 30.5 77t79.5 30q41 0 78 -26.5t37 -80.5q0 -49 -32 -77.5t-83 -28.5t-80.5 28.5t-29.5 77.5zM832 1341q0 47 31.5 77t80.5 30q43 0 78 -26.5t35 -80.5q0 -49 -30.5 -77.5t-82.5 -28.5q-51 0 -81.5 28.5t-30.5 77.5zM1118 61v928q0 82 88 82q41 0 63.5 -17.5 t22.5 -60.5v-930q0 -43 -22.5 -60t-63.5 -17q-45 0 -66.5 17t-21.5 58z" />
<glyph unicode="&#x2000;" horiz-adv-x="927" />
<glyph unicode="&#x2001;" horiz-adv-x="1854" />
<glyph unicode="&#x2002;" horiz-adv-x="927" />
<glyph unicode="&#x2003;" horiz-adv-x="1854" />
<glyph unicode="&#x2004;" horiz-adv-x="618" />
<glyph unicode="&#x2005;" horiz-adv-x="463" />
<glyph unicode="&#x2006;" horiz-adv-x="309" />
<glyph unicode="&#x2007;" horiz-adv-x="309" />
<glyph unicode="&#x2008;" horiz-adv-x="231" />
<glyph unicode="&#x2009;" horiz-adv-x="370" />
<glyph unicode="&#x200a;" horiz-adv-x="103" />
<glyph unicode="&#x2010;" horiz-adv-x="581" d="M49 528q0 41 17.5 62.5t60.5 21.5h328q43 0 60 -21.5t17 -62.5t-17 -64.5t-60 -23.5h-328q-43 0 -60.5 23.5t-17.5 64.5z" />
<glyph unicode="&#x2011;" horiz-adv-x="581" d="M49 528q0 41 17.5 62.5t60.5 21.5h328q43 0 60 -21.5t17 -62.5t-17 -64.5t-60 -23.5h-328q-43 0 -60.5 23.5t-17.5 64.5z" />
<glyph unicode="&#x2012;" horiz-adv-x="581" d="M49 528q0 41 17.5 62.5t60.5 21.5h328q43 0 60 -21.5t17 -62.5t-17 -64.5t-60 -23.5h-328q-43 0 -60.5 23.5t-17.5 64.5z" />
<glyph unicode="&#x2013;" horiz-adv-x="1024" d="M0 514q0 39 17.5 58.5t58.5 19.5h872q41 0 58.5 -19.5t17.5 -58.5t-17.5 -59.5t-58.5 -20.5h-872q-41 0 -58.5 20.5t-17.5 59.5z" />
<glyph unicode="&#x2014;" horiz-adv-x="2048" d="M0 514q0 39 17.5 58.5t58.5 19.5h1896q41 0 58.5 -19.5t17.5 -58.5t-17.5 -59.5t-58.5 -20.5h-1896q-41 0 -58.5 20.5t-17.5 59.5z" />
<glyph unicode="&#x2018;" horiz-adv-x="425" d="M94 1112q0 61 17.5 113.5t40 92.5t43 65.5t26.5 31.5q14 16 25.5 19.5t19.5 3.5q27 0 46.5 -14.5t19.5 -37.5q0 -10 -3 -21t-20 -32q-23 -29 -45 -63.5t-26 -77.5q45 -4 72.5 -34t27.5 -73q0 -57 -33 -88.5t-86 -31.5t-89 36.5t-36 110.5z" />
<glyph unicode="&#x2019;" horiz-adv-x="425" d="M88 1315q0 57 33 89t86 32t89 -37t36 -111q0 -61 -17.5 -113.5t-40 -92.5t-43 -65.5t-26.5 -31.5q-14 -16 -25.5 -19t-19.5 -3q-27 0 -46.5 14t-19.5 37q0 10 3 21.5t20 31.5q23 29 45 63.5t26 77.5q-45 4 -72.5 34t-27.5 73z" />
<glyph unicode="&#x201a;" horiz-adv-x="419" d="M98 111q0 57 33 88.5t86 31.5t89 -36.5t36 -110.5q0 -61 -17.5 -113.5t-40 -92.5t-43 -65.5t-26.5 -31.5q-14 -16 -25.5 -19.5t-19.5 -3.5q-27 0 -46.5 14.5t-19.5 37.5q0 10 3.5 21t19.5 32q23 29 45.5 63.5t26.5 77.5q-45 4 -73 34t-28 73z" />
<glyph unicode="&#x201c;" horiz-adv-x="796" d="M94 1110q0 61 17.5 113.5t40 92.5t43 65.5t26.5 31.5q14 16 25.5 19.5t19.5 3.5q25 0 45.5 -16.5t20.5 -39.5q0 -16 -13 -37q-16 -25 -40.5 -60.5t-30.5 -78.5q41 -10 67.5 -43t26.5 -76q0 -49 -35 -85.5t-88 -36.5t-89 39.5t-36 107.5zM461 1110q0 61 17.5 113.5 t40 92.5t43 65.5t26.5 31.5q14 16 25.5 19.5t19.5 3.5q25 0 45 -16.5t20 -39.5q0 -16 -12 -37q-16 -25 -40.5 -60.5t-31.5 -78.5q41 -10 68 -43t27 -76q0 -49 -35 -85.5t-88 -36.5t-89 39.5t-36 107.5z" />
<glyph unicode="&#x201d;" horiz-adv-x="796" d="M88 1313q0 49 35 86t88 37t89 -40t36 -108q0 -61 -17.5 -113.5t-40 -92.5t-43 -65.5t-26.5 -31.5q-14 -16 -25.5 -19t-19.5 -3q-25 0 -45.5 16t-20.5 39q0 16 13 37q16 25 40.5 60.5t30.5 78.5q-41 10 -67.5 43t-26.5 76zM455 1313q0 49 34.5 86t88.5 37q53 0 88.5 -40 t35.5 -108q0 -61 -17 -113.5t-39.5 -92.5t-43.5 -65.5t-27 -31.5q-14 -16 -25 -19t-20 -3q-25 0 -45 16t-20 39q0 16 12 37q16 25 41 60.5t31 78.5q-41 10 -67.5 43t-26.5 76z" />
<glyph unicode="&#x201e;" horiz-adv-x="786" d="M98 111q0 57 33 88.5t86 31.5t89 -36.5t36 -110.5q0 -61 -17.5 -113.5t-40 -92.5t-43 -65.5t-26.5 -31.5q-14 -16 -25.5 -19.5t-19.5 -3.5q-27 0 -46.5 14.5t-19.5 37.5q0 10 3.5 21t19.5 32q23 29 45.5 63.5t26.5 77.5q-45 4 -73 34t-28 73zM465 111q0 57 33 88.5 t86 31.5t89 -36.5t36 -110.5q0 -61 -17.5 -113.5t-40 -92.5t-43 -65.5t-26.5 -31.5q-14 -16 -25.5 -19.5t-19.5 -3.5q-27 0 -46.5 14.5t-19.5 37.5q0 10 3.5 21t19.5 32q23 29 45.5 63.5t26.5 77.5q-45 4 -73 34t-28 73z" />
<glyph unicode="&#x2026;" horiz-adv-x="1761" d="M200 106q0 49 37 87t86 38t87 -37.5t38 -87.5q0 -49 -38 -85.5t-87 -36.5t-86 36.5t-37 85.5zM751 106q0 49 37 87t86 38t87 -37.5t38 -87.5q0 -49 -38 -85.5t-87 -36.5t-86 36.5t-37 85.5zM1313 106q0 49 37 87t86 38t87 -37.5t38 -87.5q0 -49 -38 -85.5t-87 -36.5 t-86 36.5t-37 85.5z" />
<glyph unicode="&#x202f;" horiz-adv-x="370" />
<glyph unicode="&#x2039;" horiz-adv-x="649" d="M82 543q0 18 8 32.5t19 24.5l292 332q33 37 66 37q35 0 62.5 -27t27.5 -59q0 -16 -8 -31.5t-31 -40.5l-233 -262l227 -266q20 -23 27.5 -37.5t7.5 -30.5q0 -33 -27.5 -57.5t-60.5 -24.5q-39 0 -72 39l-274 307q-10 12 -20.5 29.5t-10.5 34.5z" />
<glyph unicode="&#x203a;" horiz-adv-x="649" d="M92 883q0 33 27.5 59.5t62.5 26.5q33 0 66 -37l293 -332q10 -10 18 -24.5t8 -32.5q0 -16 -10 -33.5t-20 -30.5l-275 -307q-33 -39 -72 -39q-33 0 -60.5 24.5t-27.5 57.5q0 16 7.5 30.5t27.5 37.5l228 266l-234 262q-23 25 -31 40t-8 32z" />
<glyph unicode="&#x205f;" horiz-adv-x="463" />
<glyph unicode="&#x20ac;" d="M33 537q0 35 14 51t55 16h117q-2 25 -2 49v99q0 23 2 45h-117q-41 0 -55 17t-14 52t14 51.5t55 16.5h131q16 111 62.5 201t115 153.5t156.5 98t189 34.5q102 0 182 -28.5t149 -89.5q43 -39 73 -79t30 -77q0 -35 -24.5 -54.5t-51.5 -19.5q-33 0 -51.5 15.5t-56.5 58.5 q-68 74 -128.5 99.5t-138.5 25.5q-129 0 -212 -91t-113 -247h407q41 0 55.5 -16.5t14.5 -51.5t-14.5 -52t-55.5 -17h-424q-2 -23 -2 -45v-99q0 -25 2 -49h424q41 0 55.5 -16.5t14.5 -50.5q0 -35 -14.5 -52.5t-55.5 -17.5h-405q29 -152 110.5 -246t227.5 -94q82 0 143 25.5 t121 97.5q20 25 33.5 41t23.5 25.5t20.5 13.5t24.5 4q29 0 53.5 -19.5t24.5 -54.5t-31.5 -81t-83.5 -93q-123 -111 -329 -111q-113 0 -200 35t-151.5 99.5t-106.5 154.5t-60 203h-134q-41 0 -55 17.5t-14 52.5z" />
<glyph unicode="&#x2122;" horiz-adv-x="1753" d="M47 1350q0 29 13.5 50t41.5 21h547q29 0 43.5 -21.5t14.5 -49.5q0 -29 -15.5 -48.5t-50.5 -19.5h-192v-604q0 -27 -15.5 -47.5t-62.5 -20.5q-78 0 -78 68v604h-182q-33 0 -48.5 19.5t-15.5 48.5zM791 682v664q0 43 24.5 66.5t85.5 23.5q57 0 94 -18.5t52 -69.5l151 -539 l148 532q12 45 45.5 70t97.5 25q115 0 115 -80v-678q0 -31 -15.5 -50.5t-52.5 -19.5q-45 0 -63.5 18.5t-18.5 53.5v588q-2 -10 -6 -27.5t-9 -38t-10.5 -40t-9.5 -29.5l-114 -402q-10 -39 -37 -54t-68 -15q-88 0 -113 73l-122 406q-4 16 -15 49q-8 31 -12 59v-22q2 -16 2 -37 v-514q0 -27 -16.5 -47.5t-57.5 -20.5t-58 19.5t-17 54.5z" />
<glyph unicode="&#x25fc;" horiz-adv-x="1044" d="M0 0v1044h1044v-1044h-1044z" />
</font>
</defs>
</svg>
