<?xml version="1.0" standalone="no"?>
<!DOCTYPE svg PUBLIC "-//W3C//DTD SVG 1.1//EN" "http://www.w3.org/Graphics/SVG/1.1/DTD/svg11.dtd" >
<svg xmlns="http://www.w3.org/2000/svg" xmlns:xlink="http://www.w3.org/1999/xlink" version="1.1">
<metadata></metadata>
<defs>
<font id="tondo_corpsignage" horiz-adv-x="974" >
<font-face units-per-em="2048" ascent="1638" descent="-410" />
<missing-glyph horiz-adv-x="430" />
<glyph unicode="&#xd;" horiz-adv-x="430" />
<glyph horiz-adv-x="0" />
<glyph horiz-adv-x="0" />
<glyph unicode=" " horiz-adv-x="430" d="M0 0z" />
<glyph unicode="!" horiz-adv-x="526" d="M117 109q0 68 43 110.5t104 42.5q59 0 103.5 -43t44.5 -110q0 -68 -44 -108t-104 -40q-61 0 -104 40t-43 108zM127 1065v250q0 55 39 83.5t102 28.5q59 0 96 -28.5t37 -85.5v-248l-28 -545q-4 -104 -109 -104q-102 0 -108 106z" />
<glyph unicode="&#x22;" horiz-adv-x="894" d="M88 1141v174q0 55 38 83.5t105 28.5q133 0 134 -114v-172l-29 -219q-6 -53 -29.5 -79t-77.5 -26q-53 0 -77.5 26.5t-30.5 80.5zM520 1141v174q0 55 38 83.5t105 28.5q133 0 134 -114v-172l-29 -219q-6 -53 -29.5 -79t-77.5 -26q-53 0 -77.5 26.5t-30.5 80.5z" />
<glyph unicode="#" horiz-adv-x="1247" d="M59 467q0 53 17.5 84t64.5 31h144l32 249h-147q-84 0 -84 117q0 53 18.5 84t65.5 31h176l33 266q12 98 121 98q45 0 79.5 -15t34.5 -56v-15q0 -6 -2 -14l-34 -264h200l33 268q12 96 119 96q47 0 78.5 -16t35.5 -59q0 -16 -2 -25l-32 -264h112q51 0 70.5 -28.5t19.5 -86.5 q0 -63 -23.5 -90t-70.5 -27h-137l-33 -249h146q53 0 72.5 -29t19.5 -86q0 -63 -23.5 -90t-70.5 -27h-172l-35 -280q-12 -98 -121 -99q-45 0 -80 16.5t-35 59.5q0 16 2 25l37 278h-201l-34 -287q-12 -92 -119 -92q-47 0 -81 16.5t-34 59.5q0 16 2 25l35 278h-115 q-82 0 -82 117zM518 582h199l31 249h-199z" />
<glyph unicode="$" horiz-adv-x="1105" d="M57 219q0 53 33 93t86 40q31 0 56.5 -14t54.5 -43q35 -35 75.5 -63.5t106.5 -38.5v389q-76 25 -147.5 54.5t-127 76.5t-88 117.5t-32.5 177.5q0 80 29.5 150.5t83 125.5t125 91t157.5 46v111q0 45 23.5 62.5t54.5 17.5q29 0 53.5 -16.5t24.5 -69.5v-103q70 -8 138 -27.5 t123.5 -50t90.5 -69.5t35 -86q0 -45 -29 -87t-82 -42q-29 0 -48 7t-44 28q-35 29 -83 54.5t-101 31.5v-367q68 -23 138.5 -48.5t127.5 -69.5t94 -113.5t37 -177.5q0 -104 -30.5 -182.5t-85 -130.5t-127 -81.5t-154.5 -42.5v-116q0 -53 -25 -66.5t-53 -13.5q-31 0 -54.5 17 t-23.5 63v114q-125 10 -209 47t-137 84q-39 33 -52.5 62.5t-13.5 58.5zM338 1028q0 -74 38 -117t93 -61v334q-66 -6 -98.5 -54.5t-32.5 -101.5zM625 197q72 6 107.5 52t35.5 118t-36 111.5t-107 66.5v-348z" />
<glyph unicode="%" horiz-adv-x="1878" d="M41 952q0 106 22.5 194.5t67.5 151t109.5 96t150.5 33.5q170 0 258 -122.5t88 -352.5q0 -217 -88 -347t-258 -130q-86 0 -150.5 34t-109.5 96.5t-67.5 150.5t-22.5 196zM268 952q0 -162 33 -223t90 -61q27 0 50.5 14t40 47t26.5 88t10 135t-10 133.5t-26.5 86t-40 46 t-50.5 13.5q-53 0 -88 -60.5t-35 -218.5zM541 66q0 27 10 47l592 1261q12 27 32.5 44.5t53.5 17.5q20 0 42.5 -7.5t41 -19.5t31 -29.5t12.5 -40.5q0 -16 -6.5 -33.5t-10.5 -27.5l-587 -1260q-27 -57 -86 -57q-20 0 -42 7t-40.5 20.5t-30.5 33t-12 44.5zM1151 438 q0 106 22.5 194.5t67.5 151t109.5 96t150.5 33.5q170 0 258 -122.5t88 -352.5q0 -217 -88 -347t-258 -130q-86 0 -150.5 34t-109.5 96.5t-67.5 150.5t-22.5 196zM1378 438q0 -162 33 -223t90 -61q27 0 50.5 14t40 47t26.5 88t10 135t-10 133.5t-26.5 86t-40 46t-50.5 13.5 q-53 0 -88 -60.5t-35 -218.5z" />
<glyph unicode="&#x26;" horiz-adv-x="1316" d="M63 362q0 90 25 158t65 120t88 90t95 71q-47 68 -71.5 136.5t-24.5 141.5q0 82 29.5 147.5t79.5 109.5t115.5 67.5t139.5 23.5q86 0 150.5 -24.5t106.5 -66.5t63.5 -97t21.5 -117q0 -72 -24.5 -128t-64.5 -100t-91 -79t-102 -65q55 -63 117.5 -126t121.5 -120 q18 49 36.5 107.5t25.5 90.5q10 47 35.5 63.5t54.5 16.5q47 0 88 -22.5t41 -75.5q0 -41 -9.5 -85t-22.5 -87t-30.5 -83t-34.5 -71l170 -168q25 -23 34 -44t9 -46q0 -23 -10 -45t-28.5 -39.5t-42 -29t-50.5 -11.5q-37 0 -64.5 17.5t-55.5 44.5q-18 16 -48 45l-61 61 q-178 -182 -432 -182q-119 0 -203 32t-138 87t-79 128t-25 154zM332 381q0 -90 51 -144.5t143 -54.5q86 0 142.5 36t105.5 89q-88 78 -166.5 156t-152.5 164q-49 -41 -86 -96.5t-37 -149.5zM479 1100q0 -41 15.5 -92.5t50.5 -96.5q76 43 124 91.5t48 113.5q0 55 -24.5 89 t-86.5 34q-53 0 -90 -35t-37 -104z" />
<glyph unicode="'" horiz-adv-x="462" d="M88 1141v174q0 55 38 83.5t105 28.5q133 0 134 -114v-172l-29 -219q-6 -53 -29.5 -79t-77.5 -26q-53 0 -77.5 26.5t-30.5 80.5z" />
<glyph unicode="(" horiz-adv-x="739" d="M98 641q0 289 105.5 518.5t318.5 380.5q35 25 55.5 31t34.5 6q49 0 82 -42t33 -89q0 -25 -13.5 -49.5t-47.5 -53.5q-88 -68 -145.5 -152.5t-92.5 -176.5t-49 -188.5t-14 -188.5t14 -185.5t50 -184.5t94.5 -177t148.5 -164q55 -49 55 -96q0 -23 -9 -45.5t-25.5 -40.5 t-37 -30.5t-43.5 -12.5q-16 0 -35.5 6t-54.5 31q-211 154 -317.5 384t-106.5 519z" />
<glyph unicode=")" horiz-adv-x="739" d="M6 -166q0 25 13.5 49.5t48.5 53.5q88 68 145 151.5t92 175.5t49.5 189.5t14.5 189.5t-14.5 185.5t-50.5 184.5t-95 177t-148 164q-55 49 -55 96q0 20 9.5 44t25.5 42t36.5 30.5t43.5 12.5q16 0 35.5 -6t54.5 -31q211 -154 317.5 -384t106.5 -519t-105.5 -518.5 t-318.5 -380.5q-35 -25 -55.5 -31t-34.5 -6q-49 0 -82 42t-33 89z" />
<glyph unicode="*" horiz-adv-x="673" d="M20 1159q0 20 6.5 42t16.5 39t24.5 28.5t30.5 11.5t31.5 -6t30.5 -14l96 -48l-12 168q0 35 26.5 53.5t67.5 18.5q39 0 67.5 -16.5t28.5 -51.5l-18 -176l102 52q10 4 28.5 11t33.5 7q31 0 51 -39t20 -80q0 -29 -8 -45t-33 -22l-147 -37l108 -137q16 -23 17 -44 q0 -39 -37 -67.5t-76 -28.5t-59 37l-78 127l-84 -127q-25 -37 -59 -37q-37 0 -74 30t-37 66q0 25 18 48l111 131l-152 39q-25 6 -33 22t-8 45z" />
<glyph unicode="+" horiz-adv-x="1097" d="M131 705q0 57 22.5 91.5t75.5 34.5h193v261q0 49 36 73.5t91 24.5q51 0 88 -21.5t37 -78.5v-259h198q53 0 72 -34.5t19 -91.5q0 -125 -95 -125h-194v-254q0 -57 -37 -79t-88 -22q-57 0 -92 25.5t-35 79.5v250h-195q-45 0 -70.5 31.5t-25.5 93.5z" />
<glyph unicode="," horiz-adv-x="450" d="M61 -272q0 35 33 67q31 35 64 81t37 112q-55 4 -92 47t-37 102q0 72 42 116t111 44q74 0 121 -51t47 -154q0 -119 -46 -234.5t-132 -193.5q-29 -25 -55 -24q-35 0 -66 26q-27 25 -27 62z" />
<glyph unicode="-" horiz-adv-x="600" d="M25 520q0 57 18 97t72 40h370q53 0 73 -39.5t20 -97.5q0 -63 -24 -99t-71 -36h-370q-45 2 -66.5 38t-21.5 97z" />
<glyph unicode="." horiz-adv-x="440" d="M63 129q0 72 45.5 118t112.5 46q70 0 112 -46t42 -118t-43 -120t-111 -48t-113 48t-45 120z" />
<glyph unicode="/" horiz-adv-x="880" d="M6 66q0 27 10 47l648 1278q12 27 32.5 44t53.5 17q20 0 41.5 -7t40 -20.5t30.5 -32t12 -40.5q0 -16 -5 -34t-11 -28l-641 -1272q-27 -57 -86 -57q-20 0 -41.5 7t-40 20.5t-31 33t-12.5 44.5z" />
<glyph unicode="0" horiz-adv-x="1105" d="M59 692q0 164 31 299t93.5 230.5t154.5 147.5t215 52q248 0 371 -188.5t123 -540.5q0 -170 -31 -305t-93.5 -228t-154.5 -143.5t-215 -50.5q-254 0 -374 191.5t-120 535.5zM315 692q0 -141 18.5 -235.5t50.5 -151.5t75 -81.5t92 -24.5t92 25.5t75 83t50 151.5t18 233 t-18 233.5t-50 151t-75 81t-92 24.5t-92 -26t-75 -83t-50.5 -150.5t-18.5 -230.5z" />
<glyph unicode="1" horiz-adv-x="937" d="M74 1075q0 45 24.5 75t69.5 54q37 20 64.5 36.5t52 32t49 32t53.5 36.5q37 27 67.5 43.5t82.5 16.5q45 0 75.5 -26.5t30.5 -88.5v-1059h195q84 0 84 -110q0 -53 -22.5 -85t-78.5 -32h-616q-55 0 -78 31.5t-23 85.5q0 111 86 110h201v824q-33 -25 -57.5 -41.5t-61.5 -32.5 q-49 -23 -84 -23q-53 0 -83.5 31t-30.5 90z" />
<glyph unicode="2" horiz-adv-x="1019" d="M37 106q0 35 20.5 69t59.5 71q49 45 101 97t102.5 105.5t97.5 107.5t86 103q66 86 102.5 163t36.5 167q0 98 -39 151.5t-125 53.5q-76 0 -114.5 -34t-63.5 -79q-23 -41 -49.5 -74.5t-73.5 -33.5q-20 0 -40.5 5t-37.5 15q-33 23 -43 44.5t-10 54.5q0 35 13.5 67.5 t33.5 61.5q25 35 58.5 70.5t82 64t112 47t147.5 18.5q88 0 163.5 -25.5t131 -75.5t87 -128t31.5 -182q0 -121 -43 -218.5t-102 -183.5q-74 -104 -164 -199.5t-176 -177.5h426q84 0 84 -108q0 -53 -21.5 -88t-76.5 -35h-701q-51 0 -73.5 33t-22.5 73z" />
<glyph unicode="3" horiz-adv-x="1040" d="M47 283q0 33 12.5 57.5t40.5 44.5q16 10 39 17.5t47 7.5q47 0 70 -34t45 -75q12 -18 28.5 -38.5t39 -36t54.5 -26t73 -10.5q78 0 134 52.5t56 163.5q0 88 -53 137t-144 49h-65q-51 0 -70.5 38t-19.5 83t19.5 81.5t70.5 36.5h47q49 0 83 16.5t55.5 43.5t31.5 60.5t10 70.5 q0 72 -36.5 123t-114.5 51q-72 0 -114 -34t-67 -70q-27 -37 -50 -69t-70 -32q-23 0 -45.5 8.5t-42.5 22.5q-25 18 -35 37.5t-10 46.5q0 37 15 72.5t44 70.5q57 72 148.5 122t238.5 50q186 0 294.5 -100t108.5 -268q0 -111 -45 -196t-108 -124q84 -43 137 -123t53 -213 q0 -106 -33.5 -187t-95 -135.5t-147.5 -82t-189 -27.5q-80 0 -141 15.5t-109.5 41t-83 60.5t-61.5 72q-18 29 -31.5 61.5t-13.5 67.5z" />
<glyph unicode="4" horiz-adv-x="1105" d="M43 406q0 31 12.5 62.5t28.5 57.5l494 779q31 47 63.5 71.5t97.5 24.5q53 0 89 -26.5t36 -88.5v-778h107q68 0 67 -107q0 -47 -16 -79.5t-57 -32.5h-101v-197q0 -47 -23.5 -84t-97.5 -37q-70 0 -100.5 29t-30.5 92v197h-458q-57 0 -84 31.5t-27 85.5zM303 508h309v487z " />
<glyph unicode="5" horiz-adv-x="1062" d="M72 256q0 29 10 51.5t37 44.5q16 12 36.5 21.5t49.5 9.5q41 0 64.5 -27.5t52.5 -68.5q25 -35 67.5 -66t114.5 -31q98 0 145 78t47 199q0 145 -52 204.5t-130 59.5q-53 0 -87 -18.5t-62.5 -42t-59.5 -42t-80 -18.5q-39 0 -71.5 20.5t-32.5 67.5q0 10 1 27.5t2 38t2 38 t1 27.5l23 469q2 41 21 68t60 27h584q102 0 103 -119q0 -53 -23 -85t-76 -32h-454l-15 -297q27 31 83 60.5t145 29.5q94 0 165.5 -35.5t120.5 -98t74 -147.5t25 -184q0 -133 -36 -230t-97.5 -161.5t-145.5 -96.5t-182 -32q-76 0 -133.5 12.5t-102.5 33t-79.5 49t-61.5 63.5 q-23 27 -38 59.5t-15 73.5z" />
<glyph unicode="6" horiz-adv-x="1105" d="M102 627q0 178 28 324.5t89.5 251t158.5 161.5t236 57q70 0 140.5 -16t130.5 -49q45 -25 67.5 -54.5t22.5 -72.5q0 -49 -26.5 -85t-74.5 -36q-31 0 -58.5 11t-43.5 22q-35 23 -68.5 36t-87.5 13q-47 0 -91 -20.5t-77.5 -68.5t-54 -126t-20.5 -193q8 20 29.5 46t54 48.5 t77 38t99.5 15.5q186 0 278.5 -127t92.5 -342q0 -109 -28 -200t-83 -156.5t-137 -102.5t-191 -37q-127 0 -215 43t-143 127t-80 208t-25 284zM369 442q0 -117 48 -191.5t140 -74.5q90 0 141.5 75t51.5 202q0 115 -47.5 186.5t-141.5 71.5q-90 0 -141 -75t-51 -194z" />
<glyph unicode="7" horiz-adv-x="972" d="M47 1085v211q0 41 21.5 69t64.5 28h721q45 0 79 -26t34 -83q0 -39 -13.5 -76t-33.5 -75q-129 -248 -241 -517.5t-206 -515.5q-23 -63 -54.5 -88.5t-78.5 -25.5q-55 0 -91 27.5t-36 78.5q0 14 3 29.5t9 44.5q14 49 58.5 162.5t106 256t132 295t135.5 281.5h-376v-82 q0 -47 -22.5 -80.5t-94.5 -33.5q-68 0 -92.5 28.5t-24.5 91.5z" />
<glyph unicode="8" horiz-adv-x="1095" d="M74 371q0 135 56 218t132 124q-72 47 -108.5 131t-36.5 176q0 109 38 185.5t99 124.5t138 69.5t157 21.5t156.5 -21.5t138 -68.5t99.5 -122.5t38 -184.5q0 -92 -38 -179t-107 -134q76 -41 131 -123t55 -217q0 -78 -25.5 -151t-83 -129t-146.5 -91t-218 -35t-219 35 t-146.5 91t-83 129t-26.5 151zM338 385q0 -102 59.5 -151.5t151.5 -49.5t151.5 50.5t59.5 160.5q0 98 -59.5 152.5t-151.5 54.5t-151.5 -55.5t-59.5 -161.5zM373 1010q0 -86 45 -139.5t131 -53.5q84 0 130 53.5t46 139.5q0 31 -7 63.5t-27.5 60t-54.5 46t-87 18.5t-88 -19.5 t-54.5 -47t-26.5 -61.5t-7 -60z" />
<glyph unicode="9" horiz-adv-x="1105" d="M98 924q0 109 28 199.5t83 157.5t137 103.5t191 36.5q125 0 213 -43t143 -128t80.5 -208.5t25.5 -283.5q0 -178 -26.5 -323.5t-87 -250t-156.5 -162t-235 -57.5q-92 0 -157 17.5t-108 40.5q-49 29 -75.5 58.5t-26.5 80.5q0 55 30.5 91t78.5 36q31 0 51 -10.5t43 -26.5 q35 -25 71.5 -43.5t100.5 -18.5q47 0 89 20.5t72.5 69t48 127t17.5 195.5q-8 -20 -27.5 -43.5t-50 -45t-72.5 -36t-98 -14.5q-186 0 -284.5 125t-98.5 336zM352 932q0 -127 47.5 -194.5t141.5 -67.5q45 0 80.5 21.5t60.5 58t38 87t13 105.5q0 125 -48 197.5t-140 72.5 q-90 0 -141.5 -73.5t-51.5 -206.5z" />
<glyph unicode=":" horiz-adv-x="440" d="M73 129q0 72 45.5 118t112.5 46q70 0 112 -46t42 -118t-43 -120t-111 -48t-113 48t-45 120zM73 879q0 72 45.5 118t112.5 46q70 0 112 -46t42 -118t-43 -120t-111 -48t-113 48t-45 120z" />
<glyph unicode=";" horiz-adv-x="450" d="M71 -272q0 35 33 67q31 35 64 81t37 112q-55 4 -92 47t-37 102q0 72 42 116t111 44q74 0 121 -51t47 -154q0 -119 -46 -234.5t-132 -193.5q-29 -25 -55 -24q-35 0 -66 26q-27 25 -27 62zM79 879q0 72 45.5 118t112.5 46q70 0 112 -46t42 -118t-43 -120t-111 -48t-113 48 t-45 120z" />
<glyph unicode="&#x3c;" horiz-adv-x="1097" d="M111 702q0 57 23.5 95.5t78.5 62.5l621 273q10 4 24 8t29 4q41 0 67.5 -38t26.5 -99q0 -49 -20.5 -79t-67.5 -48l-436 -172l436 -177q47 -18 67.5 -47.5t20.5 -78.5q0 -61 -26.5 -99.5t-67.5 -38.5q-14 0 -28.5 4t-24.5 9l-633 274q-43 18 -66.5 52t-23.5 95z" />
<glyph unicode="=" horiz-adv-x="1097" d="M131 504q0 57 19.5 90t72.5 33h649q53 0 72 -33t19 -90q0 -121 -95 -121h-647q-90 0 -90 121zM131 905q0 57 19.5 90t72.5 33h649q53 0 72 -32.5t19 -90.5q0 -121 -95 -121h-647q-90 0 -90 121z" />
<glyph unicode="&#x3e;" horiz-adv-x="1097" d="M113 406q0 49 20.5 78.5t67.5 47.5l436 177l-436 172q-47 18 -67.5 47.5t-20.5 79.5q0 61 30.5 98t71.5 37q14 0 27.5 -4t23.5 -9l615 -270q55 -25 78.5 -62.5t23.5 -95.5q0 -61 -23.5 -95t-66.5 -52l-619 -270q-10 -4 -27.5 -9.5t-35.5 -5.5q-43 0 -70.5 37t-27.5 99z " />
<glyph unicode="?" horiz-adv-x="968" d="M72 1110q0 35 12 66.5t33 60.5q23 33 56.5 68.5t81.5 64.5t111.5 47.5t147.5 18.5q78 0 146.5 -21.5t121 -66.5t82 -115t29.5 -164q0 -90 -23.5 -153.5t-57.5 -110.5t-75 -82t-74.5 -67.5t-57 -67.5t-23.5 -80v-14q0 -55 -34 -76t-93 -21q-68 0 -95.5 32t-27.5 99 q0 49 13 89t35.5 73t50.5 61.5t58 57.5q66 59 105 113.5t39 138.5q0 82 -41 120t-105 38q-68 0 -104.5 -34t-58.5 -73q-12 -20 -22.5 -39.5t-23 -35t-30 -24.5t-41.5 -9q-53 0 -94 26.5t-41 79.5zM309 109q0 68 43 110.5t105 42.5q59 0 103 -43t44 -110q0 -68 -44 -108 t-103 -40q-61 0 -104.5 40t-43.5 108z" />
<glyph unicode="@" horiz-adv-x="1712" d="M61 414q0 190 61.5 348t170 271.5t256 176t321.5 62.5q193 0 338.5 -61.5t243.5 -166t148.5 -245t50.5 -297.5q0 -166 -40 -271.5t-100.5 -164t-133 -80t-136.5 -21.5q-72 0 -124 37t-77 102q-43 -76 -105.5 -107.5t-135.5 -31.5q-88 0 -156 35t-115 96.5t-71.5 146.5 t-24.5 187q0 98 25.5 182t71.5 145.5t112 96.5t143 35q84 0 138.5 -34t83.5 -85v16q0 51 29.5 71t76.5 20q35 0 54.5 -9.5t29.5 -25t13 -36t3 -44.5v-510q0 -41 11.5 -63.5t48.5 -22.5q23 0 52.5 11t56 46t45 102.5t18.5 180.5q0 111 -34 214t-105.5 183t-182 128t-264.5 48 q-135 0 -243.5 -49t-184.5 -137t-116 -211t-40 -272q0 -147 43 -266t123 -203t197 -130.5t264 -46.5q86 0 139.5 10.5t112.5 28.5q23 6 45.5 14.5t46.5 8.5q47 0 66.5 -38t19.5 -77q0 -61 -84 -98q-59 -25 -150 -38t-202 -13q-197 0 -351.5 60.5t-262 171t-164 268 t-56.5 352.5zM655 430q0 -127 43 -202.5t133 -75.5q82 0 127.5 74.5t45.5 197.5q0 117 -45.5 193.5t-127.5 76.5q-90 0 -133 -69.5t-43 -194.5z" />
<glyph unicode="A" horiz-adv-x="1169" d="M23 104q0 16 3 34t9 32l403 1163q20 59 61.5 81t88.5 22t86 -19.5t61 -81.5l402 -1163q10 -27 10 -61q0 -51 -30 -88t-95 -37q-90 0 -123 82l-74 194h-485l-68 -196q-14 -43 -44.5 -61.5t-65.5 -18.5q-74 0 -106.5 33.5t-32.5 84.5zM412 485h336l-168 580z" />
<glyph unicode="B" horiz-adv-x="1169" d="M133 109v1210q0 45 26.5 73.5t80.5 28.5h360q217 0 340 -87t123 -294q0 -121 -47 -192.5t-113 -106.5q113 -41 158 -132t45 -197q0 -217 -127 -314.5t-361 -97.5h-385q-100 0 -100 109zM385 229h254q55 0 93 16.5t62.5 42t36 60.5t11.5 72t-10.5 72.5t-33 62.5t-62.5 43 t-97 16h-254v-385zM385 836h236q51 0 84.5 15t54 41t30 57.5t9.5 64.5t-9.5 64.5t-30 56t-54 40t-84.5 15.5h-236v-354z" />
<glyph unicode="C" horiz-adv-x="1214" d="M86 702q0 150 34 286t106.5 240.5t188 166t279.5 61.5q129 0 230.5 -47t173.5 -119q33 -33 60.5 -73.5t27.5 -81.5q0 -59 -40 -88t-85 -29q-35 0 -59.5 21.5t-53.5 50.5q-23 23 -47 46t-55 41.5t-70 31t-88 12.5q-92 0 -154.5 -41t-102.5 -111t-57.5 -162t-17.5 -192 q0 -104 17.5 -198.5t56.5 -164t99.5 -110.5t144.5 -41q49 0 86 11t66.5 31.5t55 46t50.5 56.5q18 23 45 50.5t67 27.5q47 0 85 -33t38 -86q0 -78 -77 -162q-35 -37 -76 -69.5t-92.5 -57t-114.5 -38t-143 -13.5q-166 0 -278 61.5t-178.5 165t-94 236.5t-27.5 274z" />
<glyph unicode="D" horiz-adv-x="1284" d="M133 109v1210q0 45 26.5 73.5t73.5 28.5h334q147 0 266 -43t202 -129t128 -217t45 -309q0 -176 -45 -311.5t-128 -226.5t-201.5 -138t-266.5 -47h-334q-100 0 -100 109zM391 231h193q168 0 264 119t96 373q0 246 -96 353.5t-264 107.5h-193v-953z" />
<glyph unicode="E" horiz-adv-x="1060" d="M133 109v1210q0 45 26.5 73.5t73.5 28.5h685q102 0 102 -118q0 -53 -21.5 -86t-74.5 -33h-533v-348h481q98 0 99 -113q0 -53 -21.5 -88t-77.5 -35h-481v-358h543q43 0 64.5 -33t21.5 -88q0 -53 -21.5 -87t-76.5 -34h-689q-100 0 -100 109z" />
<glyph unicode="F" horiz-adv-x="1026" d="M133 106v1213q0 43 24.5 72.5t75.5 29.5h678q51 0 76 -32.5t25 -90.5q0 -53 -20.5 -83.5t-73.5 -30.5h-527v-348h475q49 0 73 -31t24 -86q0 -53 -21.5 -86t-75.5 -33h-475v-494q0 -47 -27.5 -83.5t-101.5 -36.5q-68 0 -98.5 28.5t-30.5 91.5z" />
<glyph unicode="G" horiz-adv-x="1349" d="M86 702q0 147 34 283.5t108.5 241t193.5 167t287 62.5q117 0 219 -44t184 -124q33 -33 60.5 -73.5t27.5 -81.5q0 -53 -32.5 -85t-84.5 -32q-35 0 -62.5 18.5t-55.5 44.5q-23 23 -49.5 47.5t-59.5 45t-74 34t-90 13.5q-92 0 -156.5 -40t-104.5 -110t-57.5 -163t-17.5 -199 q0 -250 81 -381t255 -131q72 0 124 22.5t99 69.5q43 45 68 103.5t37 135.5h-225q-68 0 -91.5 31t-23.5 80q0 119 115 119h350q49 0 80.5 -27t31.5 -92v-553q0 -18 -3 -36.5t-13 -34t-33.5 -24.5t-62.5 -9t-61.5 9t-35 24.5t-15.5 32.5t-3 36v55q-14 -20 -29.5 -34.5 t-29.5 -26.5q-59 -51 -134 -81t-180 -30q-141 0 -247.5 50.5t-179 145.5t-108.5 232t-36 309z" />
<glyph unicode="H" horiz-adv-x="1290" d="M133 106v1215q0 61 36 88t95 27q55 0 91 -27t36 -88v-469h508v467q0 63 36 90t95 27q57 0 92 -27t35 -90v-1215q0 -47 -26.5 -82.5t-100.5 -35.5q-131 0 -131 120v508h-508v-508q0 -47 -26.5 -83.5t-100.5 -36.5q-70 0 -100.5 28.5t-30.5 91.5z" />
<glyph unicode="I" horiz-adv-x="524" d="M133 106v1215q0 61 36 88t95 27q55 0 91 -27t36 -88v-1215q0 -47 -26.5 -83.5t-100.5 -36.5q-70 0 -100.5 28.5t-30.5 91.5z" />
<glyph unicode="J" horiz-adv-x="1030" d="M45 356q0 74 39 103.5t92 29.5q35 0 71 -19t50 -91q16 -92 56 -146.5t139 -54.5q35 0 64.5 7.5t51 26.5t32.5 56t11 97v956q0 61 36 88t95 27q57 0 92 -27t35 -88v-870q0 -104 -11 -187.5t-52 -142.5q-55 -84 -149.5 -120t-225.5 -36q-88 0 -153.5 18.5t-111.5 49 t-77 71.5t-49 86q-20 47 -27.5 91.5t-7.5 74.5z" />
<glyph unicode="K" horiz-adv-x="1177" d="M133 106v1215q0 61 36 88t95 27q55 0 91 -27t36 -88v-498l463 539q25 29 52.5 51.5t66.5 22.5q29 0 48 -9.5t38 -25.5q18 -18 29.5 -40t11.5 -50q0 -23 -12.5 -49.5t-32.5 -49.5l-326 -374l414 -664q18 -29 18 -63q0 -51 -34.5 -88t-100.5 -37q-43 0 -71.5 22.5 t-51.5 61.5l-362 581l-150 -172v-373q0 -47 -26.5 -83.5t-100.5 -36.5q-70 0 -100.5 28.5t-30.5 91.5z" />
<glyph unicode="L" horiz-adv-x="1030" d="M133 106v1215q0 61 36 88t95 27q55 0 91 -27t36 -88v-1079h527q49 0 71.5 -32t22.5 -87q0 -53 -22.5 -88t-78.5 -35h-694q-39 0 -61.5 23.5t-22.5 82.5z" />
<glyph unicode="M" horiz-adv-x="1611" d="M133 106v1188q0 76 42 109t128 33q90 0 130 -34t59 -95l317 -1014l299 1005q23 74 69 106t136 32q86 0 126 -32t40 -97v-1207q0 -47 -28 -80.5t-99 -33.5q-66 0 -93.5 28.5t-27.5 87.5v891l-289 -893q-16 -53 -53 -78.5t-84 -25.5q-66 0 -100.5 29.5t-51.5 83.5l-274 862 v-871q0 -47 -26.5 -80.5t-98.5 -33.5q-68 0 -94.5 28.5t-26.5 91.5z" />
<glyph unicode="N" horiz-adv-x="1316" d="M133 106v1197q0 70 38 101.5t95 31.5q41 0 76 -17.5t70 -75.5l520 -899v873q0 66 32.5 92.5t92.5 26.5q57 0 92 -27t35 -92v-1200q0 -23 -4 -46.5t-16.5 -42t-37 -30.5t-67.5 -12q-86 0 -139 86l-533 864v-830q0 -47 -24.5 -83.5t-98.5 -36.5q-70 0 -100.5 28.5 t-30.5 91.5z" />
<glyph unicode="O" horiz-adv-x="1417" d="M86 696q0 166 44 305.5t125 240.5t196 157.5t258 56.5q150 0 265.5 -55t195 -154.5t120.5 -237t41 -300.5q0 -168 -43 -305.5t-124 -234.5t-196.5 -150.5t-258.5 -53.5q-152 0 -267.5 52.5t-194.5 147.5t-120 230t-41 301zM356 702q0 -231 87.5 -363t265.5 -132t265 132 t87 363q0 111 -21.5 204t-65.5 161t-110.5 105.5t-154.5 37.5q-90 0 -156 -37.5t-110 -105.5t-65.5 -161t-21.5 -204z" />
<glyph unicode="P" horiz-adv-x="1112" d="M133 106v1219q0 45 27.5 70.5t72.5 25.5h363q244 0 354.5 -118.5t110.5 -335.5q0 -74 -18.5 -153t-69.5 -145.5t-139.5 -109.5t-227.5 -43h-221v-414q0 -47 -24.5 -81.5t-96.5 -34.5q-70 0 -100.5 28.5t-30.5 91.5zM385 745h190q63 0 106.5 18.5t69 50.5t37 73t11.5 86 q0 43 -11.5 82t-37 69.5t-68.5 48t-107 17.5h-190v-445z" />
<glyph unicode="Q" horiz-adv-x="1419" d="M86 696q0 166 44 305.5t125 240.5t195.5 157.5t258.5 56.5q150 0 265.5 -55t195 -154.5t120.5 -237t41 -300.5q0 -188 -54 -337t-155 -247l101 -178q10 -16 15 -32.5t5 -39.5t-8 -39t-25 -33q-18 -16 -44.5 -26t-51.5 -10q-35 0 -56.5 14t-39.5 49l-94 172 q-98 -37 -215 -37q-152 0 -267.5 52.5t-194.5 147.5t-120 230t-41 301zM356 702q0 -231 87 -363t266 -132q25 0 45 2t43 8l-103 186q-14 29 -14 60q0 51 43 85t92 34q63 0 98 -66l78 -149q70 129 70 335q0 111 -21.5 204t-65.5 161t-110.5 105.5t-154.5 37.5 q-90 0 -156 -37.5t-110 -105.5t-65.5 -161t-21.5 -204z" />
<glyph unicode="R" horiz-adv-x="1159" d="M133 106v1213q0 47 27.5 74.5t68.5 27.5h379q244 0 354.5 -110.5t110.5 -329.5q0 -51 -10 -103.5t-33.5 -101.5t-60.5 -93t-90 -81l213 -432q8 -16 14 -33.5t6 -34.5q0 -27 -7 -45t-28 -34q-20 -16 -45.5 -26.5t-66.5 -10.5t-66 21.5t-45 62.5l-229 460h-240v-428 q0 -47 -26.5 -81.5t-98.5 -34.5q-70 0 -98.5 28.5t-28.5 91.5zM385 756h201q63 0 106 18.5t69.5 49t37 70.5t10.5 85q0 43 -10.5 81t-37 67.5t-69.5 46t-106 16.5h-201v-434z" />
<glyph unicode="S" horiz-adv-x="1077" d="M35 188q0 61 38 109.5t89 48.5q33 0 57.5 -14.5t54.5 -36.5q25 -18 49.5 -34.5t55.5 -31t70.5 -22.5t93.5 -8q104 0 162.5 48t58.5 134q0 92 -53.5 138t-163.5 69l-98 20q-78 16 -150 44t-127 75t-88 117.5t-33 175.5q0 94 33 174t96.5 138.5t156.5 91t214 32.5 q82 0 163 -18.5t145.5 -51t105.5 -77.5t41 -101q0 -31 -15 -65q-12 -29 -38.5 -48.5t-61.5 -21.5q-29 0 -51.5 7t-44.5 30q-23 18 -47.5 37.5t-55 35t-69.5 26t-88 10.5q-61 0 -102.5 -15.5t-66 -40t-34.5 -57.5t-10 -66q0 -76 52 -119.5t142 -66.5l105 -25 q72 -16 143.5 -41.5t129.5 -71.5t95 -118t37 -182q0 -121 -39 -206t-107.5 -139.5t-160.5 -80t-199 -25.5q-145 0 -243.5 34t-157.5 75q-49 33 -66.5 61.5t-17.5 52.5z" />
<glyph unicode="T" horiz-adv-x="1110" d="M8 1305q0 49 23.5 82.5t70.5 33.5h904q47 0 70.5 -32.5t23.5 -81.5t-21.5 -84t-77.5 -35h-325v-1088q0 -47 -27.5 -80.5t-99.5 -33.5q-131 0 -131 114v1088h-312q-53 0 -75.5 33.5t-22.5 83.5z" />
<glyph unicode="U" horiz-adv-x="1284" d="M123 494v827q0 61 36 88t95 27q57 0 92 -27t35 -88v-795q0 -176 66.5 -252.5t195.5 -76.5q127 0 193.5 76.5t66.5 252.5v793q0 63 36 90t95 27q57 0 92 -27t35 -90v-825q0 -129 -38 -227.5t-107.5 -165t-166.5 -101.5t-216 -35q-250 0 -380 135.5t-130 393.5z" />
<glyph unicode="V" horiz-adv-x="1185" d="M20 1317q0 53 37 86t105 33q96 0 121 -84l313 -1037l319 1031q14 47 40 68.5t73 21.5q66 0 101.5 -34t35.5 -83q0 -29 -16 -82l-395 -1149q-18 -55 -60.5 -78.5t-99.5 -23.5q-72 0 -114 30.5t-58 79.5l-387 1139q-10 31 -12.5 49.5t-2.5 32.5z" />
<glyph unicode="W" horiz-adv-x="1740" d="M29 1321q0 53 37.5 84t103.5 31q63 0 91 -25t38 -72l217 -995l213 985q14 66 57 86.5t93 20.5q49 0 87 -22.5t54 -88.5l217 -981l221 1002q20 90 117 90q66 0 100.5 -34t34.5 -83q0 -35 -12 -80l-305 -1153q-16 -55 -59.5 -77.5t-98.5 -22.5q-72 0 -112 28.5t-50 79.5 l-203 899l-204 -905q-12 -57 -55.5 -79.5t-100.5 -22.5q-72 0 -110 29.5t-52 80.5l-307 1147q-12 49 -12 78z" />
<glyph unicode="X" horiz-adv-x="1114" d="M27 102q0 45 22 76l357 535l-326 532q-10 16 -16.5 35.5t-6.5 36.5q0 51 37 85t96 34q49 0 75 -25t48 -63l246 -422l254 420q23 37 48.5 63.5t70.5 26.5q59 0 94 -33t35 -84q0 -16 -4 -32.5t-17 -35.5l-333 -524l360 -549q20 -35 20 -69q0 -51 -34.5 -87t-94.5 -36 q-47 0 -74.5 20.5t-49.5 56.5l-283 439l-277 -439q-23 -37 -47 -57t-65 -20q-70 0 -102.5 36.5t-32.5 79.5z" />
<glyph unicode="Y" horiz-adv-x="1116" d="M10 1317q0 49 31 84t96 35q53 0 81 -25t48 -57l293 -490l287 469q25 41 52.5 72t80.5 31t91 -29t38 -78q0 -18 -7 -43.5t-20 -44.5l-401 -618v-519q0 -47 -27.5 -82.5t-99.5 -35.5q-131 0 -131 118v519l-383 606q-29 45 -29 88z" />
<glyph unicode="Z" horiz-adv-x="1093" d="M27 117q0 47 19.5 85t51.5 85l619 891h-576q-53 0 -75.5 36.5t-22.5 85.5t25.5 84t72.5 35h803q45 0 80 -24.5t35 -83.5q0 -47 -21.5 -89t-54.5 -89l-623 -887h609q45 0 70.5 -32t25.5 -87t-23.5 -91t-76.5 -36h-815q-47 0 -85 28.5t-38 88.5z" />
<glyph unicode="[" horiz-adv-x="630" d="M119 -174v1577q0 47 23.5 77.5t72.5 30.5h297q102 0 102 -114q0 -53 -21.5 -85t-74.5 -32h-147v-1327h147q53 0 74.5 -33t21.5 -86q0 -113 -102 -113h-297q-49 0 -72.5 30t-23.5 75z" />
<glyph unicode="\" horiz-adv-x="880" d="M6 1352q0 23 12.5 41t31 31.5t40 20.5t41.5 7q33 0 53.5 -17.5t32.5 -43.5l647 -1278q10 -20 10 -47q0 -25 -12 -44.5t-30.5 -33t-40 -20.5t-41.5 -7q-59 0 -86 57l-641 1272q-6 10 -11.5 27.5t-5.5 34.5z" />
<glyph unicode="]" horiz-adv-x="630" d="M10 -166q0 53 21.5 86t74.5 33h148v1327h-148q-53 0 -74.5 31.5t-21.5 85.5q0 115 103 114h297q49 0 72.5 -30.5t23.5 -77.5v-1577q0 -45 -23.5 -75t-72.5 -30h-297q-102 0 -103 113z" />
<glyph unicode="^" d="M57 719q0 33 11 57l282 608q23 61 56.5 88t85.5 27q55 0 85.5 -26.5t47.5 -73.5l284 -623q4 -10 7.5 -25.5t3.5 -31.5q0 -45 -34 -76t-89 -31q-45 0 -72 26t-49 73l-191 415l-184 -415q-23 -47 -49.5 -73t-71.5 -26q-55 0 -89 31t-34 76z" />
<glyph unicode="_" horiz-adv-x="894" d="M-4 -328q0 43 19.5 76t54.5 33h761q39 0 53.5 -33t14.5 -72q0 -45 -17.5 -78.5t-58.5 -33.5h-753q-35 0 -54.5 30.5t-19.5 77.5z" />
<glyph unicode="`" horiz-adv-x="837" d="M238 1487q0 43 32.5 80t85.5 37q35 0 66 -18.5t63 -61.5l119 -164q29 -41 29 -80t-26.5 -60.5t-63.5 -21.5q-31 0 -55.5 14.5t-45.5 34.5l-166 158q-39 37 -38 82z" />
<glyph unicode="a" horiz-adv-x="1040" d="M61 266q0 88 28 150.5t75 103.5t107.5 65.5t125.5 37.5q72 14 135.5 22t147.5 14v54q0 31 -6 60.5t-24.5 54t-51.5 39t-84 14.5q-53 0 -99 -20.5t-106 -65.5q-23 -16 -44 -30.5t-56 -14.5q-20 0 -39.5 9t-35 24.5t-26 36t-10.5 40.5q0 39 17.5 64.5t64.5 60.5 q72 53 163 80t177 27q215 0 311.5 -93.5t96.5 -285.5v-615q0 -59 -31 -85.5t-96 -26.5q-55 0 -87 25.5t-32 86.5v27q-20 -29 -46 -55.5t-62.5 -48t-84 -35t-110.5 -13.5q-147 0 -232.5 74t-85.5 219zM309 297q0 -47 28 -82t99 -35q55 0 100.5 18.5t77 49.5t49 71.5 t17.5 88.5v69q-72 -8 -135.5 -18t-93.5 -19q-82 -20 -112 -57t-30 -86z" />
<glyph unicode="b" horiz-adv-x="1134" d="M119 102v1211q0 53 31.5 88t101.5 35q23 0 45 -4.5t39.5 -16.5t28 -32.5t10.5 -53.5v-395q14 25 38.5 53.5t59.5 51t79 38t99 15.5q100 0 177 -40t128.5 -113t77 -176.5t25.5 -230.5t-30 -231t-84 -179t-132 -116t-176 -41q-76 0 -127 22.5t-82 51.5q-37 33 -59 76v-13 q0 -63 -30 -89.5t-97 -26.5q-123 0 -123 116zM365 524q0 -156 55.5 -245t159.5 -89q111 0 165 92.5t54 245.5q0 154 -55.5 242t-163.5 88q-53 0 -93.5 -25.5t-67 -70.5t-40.5 -106.5t-14 -131.5z" />
<glyph unicode="c" horiz-adv-x="1007" d="M70 512q0 137 34.5 245.5t99 182.5t156 113t205.5 39q94 0 170 -29t127 -72t79 -90t28 -84q0 -53 -36 -86t-89 -33q-35 0 -59.5 20.5t-47.5 45.5q-37 41 -79 69.5t-109 28.5q-74 0 -117 -35.5t-66.5 -88t-29.5 -112t-6 -106.5q0 -53 8 -110.5t32.5 -105.5t67.5 -79.5 t111 -31.5q78 0 121 32.5t71 61.5q27 27 46.5 42t52.5 15q41 0 77.5 -32.5t36.5 -80.5q0 -41 -29.5 -87t-84 -86t-132.5 -66.5t-176 -26.5q-129 0 -217 46t-143 122t-78.5 175.5t-23.5 203.5z" />
<glyph unicode="d" horiz-adv-x="1132" d="M74 528q0 123 28.5 226.5t83 178.5t133 117t179.5 42q109 0 172 -49.5t88 -104.5v391q0 63 36.5 85t84.5 22q70 0 101.5 -35t31.5 -88v-1215q0 -112 -119 -112h-2q-70 0 -99.5 26.5t-29.5 85.5v23q-20 -43 -57 -78q-31 -29 -84.5 -53.5t-131.5 -24.5q-201 0 -308 150.5 t-107 412.5zM332 524q0 -156 55.5 -245t159.5 -89q111 0 165 90.5t54 243.5q0 152 -56.5 245t-164.5 93q-53 0 -92 -25.5t-67 -70.5t-41 -106.5t-13 -135.5z" />
<glyph unicode="e" horiz-adv-x="1054" d="M70 514q0 109 27.5 212t87 185t149.5 131.5t217 49.5q201 0 320.5 -136.5t119.5 -394.5q0 -59 -32.5 -81.5t-92.5 -22.5h-534q10 -268 233 -269q66 0 104 15.5t83 44.5l49 33q25 16 57 16q39 0 72 -35t33 -86q0 -53 -41 -93t-102.5 -66.5t-132.5 -39t-130 -12.5 q-231 0 -359 137.5t-128 411.5zM340 659h397q0 43 -11 82t-34.5 69t-60.5 48.5t-86 18.5q-78 0 -136.5 -57.5t-68.5 -160.5z" />
<glyph unicode="f" horiz-adv-x="604" d="M6 952q0 35 15.5 70t50.5 35h80v78q0 68 18 127t55 102t93.5 67.5t132.5 24.5q49 0 95 -6t82 -22.5t57.5 -43t21.5 -67.5q0 -20 -2.5 -37.5t-12.5 -34.5q-20 -41 -69 -41q-41 0 -70 17.5t-74 17.5q-76 0 -76 -109v-73h136q39 0 53 -35t14 -70q0 -37 -16.5 -71.5 t-50.5 -34.5h-136v-746q0 -61 -31.5 -87.5t-90.5 -26.5q-68 0 -98.5 28.5t-30.5 83.5v748h-82q-33 4 -48.5 38t-15.5 68z" />
<glyph unicode="g" horiz-adv-x="1118" d="M74 541q0 125 28.5 226t83 174t130 112t169.5 39q57 0 101.5 -15.5t77 -39t56 -50t38.5 -49.5v43q0 51 34.5 70.5t81.5 19.5q68 0 100 -36t32 -89v-901q0 -262 -120 -382t-349 -120q-127 0 -213 25.5t-127 60.5q-20 16 -32.5 38t-12.5 54q0 43 29.5 86t80.5 43 q25 0 50.5 -10t54.5 -26q35 -18 82 -32.5t102 -14.5q96 0 151.5 52t55.5 177v143q-37 -53 -106.5 -96t-170.5 -43q-96 0 -170.5 38t-128 108.5t-81 171t-27.5 223.5zM338 545q0 -164 54.5 -245t150.5 -81q111 0 166 87t55 233q0 68 -13.5 127t-41 103t-67.5 69.5t-95 25.5 q-100 0 -154.5 -86t-54.5 -233z" />
<glyph unicode="h" horiz-adv-x="1107" d="M119 100v1217q0 55 30.5 87t100.5 32q49 0 87 -25t38 -96v-375q35 55 105.5 103.5t172.5 48.5q98 0 161 -31t108 -94q49 -70 57 -158t8 -164v-547q0 -59 -30.5 -85.5t-96.5 -26.5q-55 0 -91 25.5t-36 86.5v551q0 88 -16 131q-16 41 -51 57.5t-82 16.5q-49 0 -84 -16.5 t-59.5 -41t-38 -53t-17.5 -53.5q-8 -37 -9 -84t-1 -80v-422q0 -63 -30 -90.5t-101 -27.5q-57 0 -91 26.5t-34 87.5z" />
<glyph unicode="i" horiz-adv-x="495" d="M106 1333q0 66 40 109t104 43q53 0 98 -37t45 -115q0 -70 -39 -110.5t-104 -40.5q-66 0 -105 40.5t-39 110.5zM119 96v852q0 123 133 123q47 0 85 -25.5t38 -84.5v-861q0 -61 -33 -87.5t-92 -26.5q-131 0 -131 110z" />
<glyph unicode="j" horiz-adv-x="495" d="M-193 -317q0 47 25 76.5t66 29.5t67.5 -15.5t69.5 -15.5q41 0 62.5 23.5t21.5 81.5v1089q0 61 33.5 90t93.5 29q70 0 99.5 -30.5t29.5 -86.5v-1083q0 -147 -74 -237.5t-233 -90.5q-35 0 -79 4t-85 19.5t-69 42t-28 74.5zM106 1333q0 66 40 109t104 43q53 0 98 -37 t45 -115q0 -70 -38.5 -110.5t-104.5 -40.5t-105 41t-39 110z" />
<glyph unicode="k" horiz-adv-x="991" d="M119 96v1211q0 59 32.5 94t100.5 35q47 0 85 -29t38 -88v-617l278 289q37 39 64.5 59.5t68.5 20.5q29 0 51.5 -13.5t39.5 -31.5q14 -16 22 -33.5t8 -44.5q0 -23 -12 -44t-33 -44l-209 -213l279 -475q10 -18 17 -37.5t7 -36.5q0 -47 -35.5 -79.5t-95.5 -32.5 q-51 0 -82.5 30.5t-60.5 83.5l-215 377l-92 -94v-283q0 -61 -33 -87.5t-92 -26.5q-131 0 -131 110z" />
<glyph unicode="l" horiz-adv-x="495" d="M119 96v1221q0 119 133 119q47 0 85 -26t38 -85v-1225q0 -61 -33 -87.5t-92 -26.5q-131 0 -131 110z" />
<glyph unicode="m" horiz-adv-x="1677" d="M119 100v846q0 55 28.5 90t98.5 35q49 0 86 -21.5t37 -93.5v-20q35 61 100.5 108.5t171.5 47.5q100 0 169 -40t110 -130q53 90 128.5 130t174.5 40q96 0 159.5 -31t108.5 -94q49 -70 57 -158t8 -164v-547q0 -59 -30.5 -85.5t-95.5 -26.5q-55 0 -91 25.5t-36 86.5v553 q0 88 -17 131q-16 41 -51 57.5t-82 16.5q-49 0 -81 -16.5t-51.5 -41t-29.5 -53t-14 -53.5q-10 -37 -11 -84t-1 -80v-430q0 -59 -31 -85.5t-96 -26.5q-55 0 -91 25.5t-36 86.5v553q0 43 -3 77t-14 54q-16 41 -51 57.5t-82 16.5q-49 0 -80.5 -16.5t-51 -41t-30 -53 t-14.5 -53.5q-8 -37 -9 -84t-1 -80v-424q0 -63 -30 -90.5t-101 -27.5q-57 0 -91 26.5t-34 87.5z" />
<glyph unicode="n" horiz-adv-x="1105" d="M119 100v846q0 55 28.5 90t98.5 35q49 0 86 -19.5t37 -90.5v-25q39 63 111.5 109.5t170.5 46.5q188 0 273 -127q45 -70 54 -157t9 -163v-547q0 -59 -30.5 -85.5t-96.5 -26.5q-55 0 -91 25.5t-36 86.5v551q0 88 -16 131q-16 41 -51 57.5t-82 16.5q-49 0 -85 -16.5 t-59.5 -41t-37 -53t-17.5 -53.5q-8 -37 -9 -84t-1 -80v-422q0 -63 -30 -90.5t-101 -27.5q-57 0 -91 26.5t-34 87.5z" />
<glyph unicode="o" horiz-adv-x="1122" d="M70 524q0 131 35.5 236.5t101 179.5t156 113t200.5 39q111 0 201 -36t154.5 -106.5t99.5 -176t35 -245.5q0 -133 -36 -237.5t-100.5 -177t-154.5 -110.5t-201 -38q-115 0 -205 38t-154.5 110.5t-98 176t-33.5 234.5zM330 526q0 -174 61.5 -256t167.5 -82q111 0 173.5 81 t62.5 251q0 174 -61.5 258t-174.5 84q-106 0 -167.5 -84t-61.5 -252z" />
<glyph unicode="p" horiz-adv-x="1128" d="M119 -324v1272q0 53 31.5 88t101.5 35q23 0 45 -3t39.5 -13.5t28 -29.5t10.5 -52v-39q14 25 38.5 53.5t59.5 51t79 38t99 15.5q100 0 176 -43t126.5 -118t76 -178.5t25.5 -224.5q0 -123 -29 -226t-84 -178t-134 -117t-179 -42q-74 0 -123 19.5t-80 44.5q-37 29 -57 65 v-411q0 -63 -30 -91t-97 -28q-123 0 -123 112zM365 524q0 -156 55.5 -246t159.5 -90q111 0 165 91.5t54 244.5q0 152 -55.5 243t-163.5 91q-53 0 -93.5 -25.5t-67 -70.5t-40.5 -106.5t-14 -131.5z" />
<glyph unicode="q" horiz-adv-x="1126" d="M74 532q0 121 27.5 223.5t79.5 177.5t129 117t177 42q109 0 174.5 -49.5t90.5 -104.5v35q0 63 37.5 80.5t82.5 17.5q70 0 102 -35t32 -88v-1272q0 -112 -119 -112h-2q-68 0 -97.5 26.5t-29.5 85.5v428q-27 -39 -64 -69q-33 -27 -85 -48.5t-124 -21.5q-100 0 -177 43 t-129 118t-78.5 179.5t-26.5 226.5zM332 528q0 -156 55.5 -247t159.5 -91q111 0 165 90.5t54 243.5q0 152 -56.5 245t-164.5 93q-53 0 -92 -24.5t-67 -69.5t-41 -105.5t-13 -134.5z" />
<glyph unicode="r" horiz-adv-x="712" d="M119 106v852q0 45 27.5 79t97.5 34q53 0 85.5 -20.5t32.5 -73.5v-45q37 66 94.5 113t137.5 47q43 0 66.5 -14.5t35 -35t14.5 -43t3 -41.5q0 -18 -3 -38.5t-13.5 -38t-31 -31.5t-55.5 -21q-39 -8 -73.5 -16t-77.5 -31q-59 -33 -73.5 -106.5t-14.5 -171.5v-398 q0 -63 -30 -91.5t-95 -28.5q-127 0 -127 120z" />
<glyph unicode="s" horiz-adv-x="917" d="M51 156q0 47 29 88t82 41q29 0 54.5 -18.5t57 -41t74.5 -41t107 -18.5q78 0 115.5 32.5t37.5 88.5q0 47 -26.5 79.5t-104.5 47.5l-110 20q-68 12 -124.5 35t-96.5 59.5t-62.5 90t-22.5 131.5q0 82 30 145t83 107.5t127 67t164 22.5q129 0 212 -32t122 -69q45 -43 45 -88 q0 -43 -24.5 -75.5t-65.5 -32.5q-23 0 -43.5 7t-42.5 21q-37 23 -87.5 42.5t-121.5 19.5q-78 0 -114 -30t-36 -77q0 -18 5 -35.5t19.5 -33t41 -27.5t67.5 -20l99 -21q82 -18 142 -44t98 -63.5t56.5 -92t18.5 -128.5q0 -174 -111.5 -261t-306.5 -87q-111 0 -197.5 29 t-142.5 72q-23 18 -35 42.5t-12 47.5z" />
<glyph unicode="t" horiz-adv-x="677" d="M-4 952q0 37 15.5 71t49.5 34h74v190q0 37 15.5 62.5t40 41t54 22.5t56.5 7q47 0 67.5 -25.5t20.5 -64.5v-233h141q43 0 59.5 -30t16.5 -75q0 -106 -74 -106h-143v-574q0 -47 15.5 -66.5t48.5 -19.5q18 0 33.5 7.5t29.5 16.5t30.5 17.5t39.5 8.5q25 0 41 -13.5t27.5 -32 t15.5 -40t4 -37.5q0 -45 -25.5 -74t-65.5 -45.5t-88.5 -22.5t-93.5 -6q-121 0 -193.5 74t-72.5 227v580h-74q-35 0 -50 36t-15 70z" />
<glyph unicode="u" horiz-adv-x="1107" d="M119 414v544q0 59 30.5 86t96.5 27q55 0 92 -25.5t37 -87.5v-555q0 -43 3 -76.5t13 -54.5q16 -41 49 -57t80 -16q51 0 87 18.5t60.5 45t37 56t18.5 54.5q8 37 9 82t1 77v420q0 63 30 91t101 28q57 0 90 -26.5t33 -88.5v-845q0 -55 -28.5 -90t-98.5 -35q-47 0 -84 23.5 t-37 94.5v21q-35 -59 -105.5 -109.5t-182.5 -50.5q-178 0 -265 123q-49 70 -58 160t-9 166z" />
<glyph unicode="v" d="M14 956q0 53 37 84t103 31q55 0 83.5 -23.5t41.5 -64.5l208 -655l226 653q16 47 40.5 68.5t73.5 21.5q66 0 100 -33.5t34 -83.5q0 -16 -2.5 -37.5t-12.5 -44.5l-321 -798q-18 -47 -52 -67.5t-92 -20.5q-72 0 -101.5 28.5t-43.5 63.5l-305 796q-12 31 -14.5 49.5 t-2.5 32.5z" />
<glyph unicode="w" horiz-adv-x="1376" d="M14 954q0 55 37 86t103 31q43 0 75.5 -20.5t44.5 -75.5l142 -641l141 645q20 92 131 92q72 0 97.5 -26.5t35.5 -65.5l144 -660l145 658q12 53 42 73.5t75 20.5q68 0 101.5 -33.5t33.5 -85.5q0 -14 -3 -34.5t-11 -45.5l-246 -792q-10 -33 -39 -63.5t-100 -30.5 q-74 0 -101.5 29.5t-38.5 72.5l-137 578l-129 -580q-10 -51 -49 -75.5t-96 -24.5q-72 0 -99.5 26.5t-42.5 73.5l-241 788q-10 31 -12.5 49.5t-2.5 30.5z" />
<glyph unicode="x" horiz-adv-x="894" d="M12 96q0 25 12.5 52.5t30.5 54.5l236 340l-244 329q-12 18 -17 38t-5 38q0 47 36.5 85t96.5 38q41 0 68.5 -22.5t52.5 -59.5l167 -258l150 250q23 37 47.5 63.5t75.5 26.5q59 0 93 -33.5t34 -81.5q0 -43 -27 -84l-221 -325l246 -365q24 -36 24 -77q0 -46 -36.5 -82.5 t-96.5 -36.5q-51 0 -77.5 27.5t-47.5 58.5l-174 262l-180 -277q-20 -29 -48 -50t-75 -21q-63 0 -92 32.5t-29 77.5z" />
<glyph unicode="y" d="M14 956q0 53 37 84t103 31q55 0 82.5 -23.5t42.5 -64.5l210 -608l224 606q16 47 41.5 68.5t74.5 21.5q66 0 99 -33.5t33 -83.5q0 -16 -3.5 -37.5t-13.5 -44.5l-481 -1202q-23 -53 -54.5 -83.5t-78.5 -30.5q-61 0 -93 35.5t-32 78.5q0 25 8 52.5t18 48.5l123 290l-323 813 q-12 31 -14.5 49.5t-2.5 32.5z" />
<glyph unicode="z" horiz-adv-x="917" d="M20 109q0 47 19.5 85.5t44.5 67.5l457 572h-412q-47 0 -65.5 32.5t-18.5 81.5q0 47 20.5 78t57.5 31h663q41 0 67 -28t26 -79q0 -47 -15.5 -78.5t-38.5 -60.5l-467 -588h451q35 0 56.5 -27.5t21.5 -76.5q0 -53 -18.5 -86t-65.5 -33h-688q-43 0 -69 30.5t-26 78.5z" />
<glyph unicode="{" horiz-adv-x="649" d="M6 623q0 47 18.5 80.5t59.5 39.5q57 8 76.5 34t19.5 91v355q0 125 68.5 206.5t191.5 81.5h97q96 0 96 -112q0 -53 -21.5 -79t-74.5 -26q-55 0 -85 -26.5t-30 -91.5v-353q0 -70 -20.5 -120t-88.5 -80q70 -31 89.5 -85.5t19.5 -115.5v-367q0 -66 26.5 -91t88.5 -25 q53 0 74.5 -28t21.5 -81q0 -109 -103 -109h-90q-123 0 -191.5 83t-68.5 206v367q0 66 -21.5 92.5t-74.5 32.5q-45 4 -61.5 42t-16.5 79z" />
<glyph unicode="|" horiz-adv-x="530" d="M143 -174v1587q0 49 33 73.5t88 24.5q53 0 89 -21.5t36 -78.5v-1589q0 -57 -36 -79t-89 -22q-55 0 -88 26t-33 79z" />
<glyph unicode="}" horiz-adv-x="649" d="M10 -170q0 53 21.5 81t74.5 28q61 0 88 25.5t27 90.5v367q0 31 4 60.5t15.5 55t33 47t56.5 38.5q-68 31 -88.5 81t-20.5 119v353q0 66 -29.5 92t-85.5 26q-53 0 -74.5 26t-21.5 79q0 113 96 112h97q123 0 191.5 -81.5t68.5 -206.5v-355q0 -66 19.5 -91t76.5 -34 q41 -6 59.5 -39.5t18.5 -80.5q0 -41 -16.5 -79t-61.5 -42q-53 -6 -74.5 -33t-21.5 -92v-367q0 -123 -68.5 -206t-191.5 -83h-90q-102 0 -103 109z" />
<glyph unicode="~" horiz-adv-x="1163" d="M18 473q0 49 21.5 95t50.5 83q53 74 131 112t148 38q61 0 109 -16.5t100 -45.5l110 -63q39 -23 63.5 -32t57.5 -9q47 0 73.5 32.5t43.5 73.5q16 39 36.5 54.5t45.5 15.5q23 0 46 -8t42.5 -23.5t32 -37t12.5 -48.5q0 -18 -2 -31.5t-6 -23.5q-35 -127 -123 -203t-195 -76 q-127 0 -229 64l-109 68q-39 25 -61.5 31.5t-48.5 6.5q-47 0 -74 -33.5t-49 -68.5q-23 -33 -43.5 -51.5t-50.5 -18.5q-23 0 -45.5 8.5t-42 22.5t-32 35.5t-12.5 48.5z" />
<glyph unicode="&#xa0;" horiz-adv-x="430" d="M0 0z" />
<glyph unicode="&#xa2;" horiz-adv-x="1105" d="M106 702q0 252 112 391.5t298 161.5v140q0 45 23.5 62.5t54.5 17.5q29 0 52.5 -16.5t23.5 -69.5v-134q82 -10 142 -40.5t100 -70.5t60.5 -82t20.5 -75q0 -53 -34.5 -87t-88.5 -34q-35 0 -58.5 19.5t-43.5 46.5q-18 23 -40.5 46t-57.5 40v-608q39 16 61.5 38.5t42.5 51.5 q18 27 37.5 43t52.5 16q29 0 48.5 -10t39.5 -29q14 -14 26.5 -33.5t12.5 -54.5q0 -37 -21.5 -77t-63.5 -74.5t-101.5 -62.5t-134.5 -40v-143q0 -53 -23.5 -69.5t-52.5 -16.5q-31 0 -54.5 17.5t-23.5 62.5v145q-113 10 -190.5 57.5t-126.5 119t-71 162.5t-22 189zM367 711 q0 -45 6 -92.5t22.5 -88.5t45 -73.5t75.5 -46.5v614q-49 -16 -78.5 -52t-45 -80t-20.5 -92t-5 -89z" />
<glyph unicode="&#xa3;" horiz-adv-x="1105" d="M61 707q0 47 20.5 75.5t51.5 28.5h107q-18 39 -34 94.5t-16 141.5q0 78 31 146.5t88.5 120.5t137 82.5t178.5 30.5q78 0 136 -14t100 -33.5t69.5 -42t44.5 -39.5q35 -35 51 -64.5t16 -64.5q0 -33 -12 -57.5t-41 -44.5q-18 -12 -36.5 -16t-34.5 -4q-25 0 -47.5 14 t-43.5 37q-33 39 -76.5 74.5t-119.5 35.5q-49 0 -81 -16t-51.5 -43t-27.5 -59.5t-8 -65.5q0 -63 14.5 -114.5t36.5 -98.5h279q31 0 51 -28.5t20 -75.5q0 -49 -19.5 -76t-51.5 -27h-224q8 -23 15.5 -58.5t7.5 -84.5q0 -59 -28.5 -124t-76.5 -112h488q88 0 88 -112 q0 -51 -20.5 -82t-73.5 -31h-750q-59 0 -81.5 31.5t-22.5 72.5q0 29 13 55.5t48 51.5q27 18 53.5 39.5t48 50.5t36 68t14.5 92q0 41 -7.5 76.5t-19.5 66.5h-168q-33 0 -52.5 27.5t-19.5 75.5z" />
<glyph unicode="&#xa5;" horiz-adv-x="1064" d="M41 1315q0 49 35 82q16 16 41.5 27.5t58.5 11.5q49 0 72.5 -26t42.5 -60l248 -447l239 436q23 43 49.5 73t79.5 30q29 0 52.5 -11.5t39.5 -27.5q14 -16 25.5 -35.5t11.5 -44.5q0 -41 -26 -88l-269 -438h162q35 0 50.5 -22.5t15.5 -63.5q0 -53 -17.5 -73t-50.5 -20h-242 v-143h242q66 0 66 -84q0 -53 -17.5 -71.5t-50.5 -18.5h-240v-211q0 -47 -27.5 -83t-99.5 -36q-131 0 -131 119v211h-233q-31 0 -48.5 25.5t-17.5 60.5q0 37 16.5 62.5t47.5 25.5h235v143h-233q-35 0 -50.5 28t-15.5 63q0 37 16.5 62.5t47.5 25.5h156l-254 428 q-14 23 -20.5 45t-6.5 45z" />
<glyph unicode="&#xa8;" horiz-adv-x="894" d="M117 1366q0 61 36.5 100t96.5 39q51 0 92 -33.5t41 -105.5q0 -63 -37 -101t-96 -38t-96 38t-37 101zM547 1366q0 61 37 100t96 39q49 0 91 -33.5t42 -105.5q0 -63 -37 -101t-96 -38t-96 38t-37 101z" />
<glyph unicode="&#xa9;" horiz-adv-x="1562" d="M63 727q0 170 56.5 309.5t154 237.5t228.5 152.5t278 54.5q150 0 281 -51.5t228 -148.5t153.5 -237.5t56.5 -316.5q0 -172 -56.5 -311.5t-153.5 -237.5t-228 -152.5t-281 -54.5q-147 0 -278 54.5t-228.5 154t-154 238.5t-56.5 309zM256 727q0 -131 42 -237.5 t112.5 -183.5t165.5 -119t204 -42t204 41t167 116t114 182.5t42 242.5q0 129 -42 235.5t-114 183.5t-168 120t-203 43q-109 0 -204 -41t-165.5 -117t-112.5 -183.5t-42 -240.5zM401 729q0 100 29 183t80 141.5t123 91.5t158 33q106 0 193 -51.5t128 -137.5q14 -25 22.5 -47 t8.5 -51q0 -39 -26.5 -62.5t-61.5 -23.5q-29 0 -49.5 12t-36.5 47q-12 25 -25.5 49.5t-34 44t-50.5 33t-75 13.5q-90 0 -137 -75t-47 -200t49 -198.5t146 -73.5q61 0 95 29.5t54 76.5q14 35 32.5 48.5t43.5 13.5q35 0 65.5 -21.5t30.5 -68.5q0 -43 -18.5 -79t-42.5 -65 q-47 -53 -119 -80.5t-156 -27.5q-82 0 -151.5 30.5t-119.5 89t-79 140.5t-29 186z" />
<glyph unicode="&#xab;" horiz-adv-x="1005" d="M35 553q0 23 8 42t18 36l248 315q35 47 86 47q20 0 41 -10t37 -26.5t27.5 -38t11.5 -46.5q0 -23 -10 -43t-33 -51l-170 -217l168 -225q23 -29 31 -48.5t8 -41.5q0 -25 -11.5 -46.5t-27.5 -38t-36.5 -26.5t-41.5 -10q-49 0 -88 49l-235 293q-31 41 -31 86zM484 553 q0 23 8 42t18 36l248 315q35 47 86 47q20 0 41 -10t37 -26.5t27.5 -38t11.5 -46.5q0 -23 -10 -43t-33 -51l-170 -217l168 -225q23 -29 31 -48.5t8 -41.5q0 -25 -11.5 -46.5t-27.5 -38t-36.5 -26.5t-41.5 -10q-49 0 -88 49l-235 293q-31 41 -31 86z" />
<glyph unicode="&#xad;" horiz-adv-x="600" d="M25 520q0 57 18 97t72 40h370q53 0 73 -39.5t20 -97.5q0 -63 -24 -99t-71 -36h-370q-45 2 -66.5 38t-21.5 97z" />
<glyph unicode="&#xae;" horiz-adv-x="1562" d="M63 727q0 170 56.5 309.5t154 237.5t228.5 152.5t278 54.5q150 0 281 -51.5t228 -148.5t153.5 -237.5t56.5 -316.5q0 -172 -56.5 -311.5t-153.5 -237.5t-228 -152.5t-281 -54.5q-147 0 -278 54.5t-228.5 154t-154 238.5t-56.5 309zM256 727q0 -131 42 -237.5 t112.5 -183.5t165.5 -119t204 -42t204 41t167 116t114 182.5t42 242.5q0 129 -42 235.5t-114 183.5t-168 120t-203 43q-109 0 -204 -41t-165.5 -117t-112.5 -183.5t-42 -240.5zM487 367v729q0 27 13.5 45t42.5 18h221q160 0 245 -64.5t85 -213.5q0 -27 -6.5 -58.5 t-19.5 -63.5t-36.5 -60.5t-60.5 -51.5l94 -241q6 -16 6 -31q0 -35 -29.5 -54.5t-64.5 -19.5q-78 0 -103 70l-83 235h-121v-239q0 -35 -27 -50.5t-61 -15.5q-35 0 -65 15.5t-30 50.5zM670 764h110q66 0 93.5 33.5t27.5 85.5q0 51 -27.5 81.5t-93.5 30.5h-110v-231z" />
<glyph unicode="&#xb4;" horiz-adv-x="837" d="M236 1280q0 39 28 80l121 164q33 43 62.5 60.5t64.5 17.5q53 0 87 -36t34 -79q0 -45 -37 -82l-168 -158q-23 -20 -46.5 -34.5t-55.5 -14.5q-35 0 -62.5 21.5t-27.5 60.5z" />
<glyph unicode="&#xb8;" horiz-adv-x="837" d="M190 -365q0 31 18.5 56.5t47.5 25.5q18 0 33 -6l28 -14q14 -8 32 -15.5t44 -7.5q72 0 72 64q0 59 -100 59q-23 0 -46.5 4t-23.5 29q0 10 5 29.5t9 29.5l29 111h133l-22 -86q86 -6 131 -51t45 -119q0 -98 -60.5 -160.5t-171.5 -62.5q-70 0 -113.5 17.5t-62.5 33.5 q-27 25 -27 63z" />
<glyph unicode="&#xbb;" horiz-adv-x="1005" d="M43 872q0 25 10 46.5t26.5 38t37 26.5t41.5 10q53 0 88 -47l246 -315q12 -16 20 -36t8 -42q0 -47 -33 -86l-233 -293q-37 -49 -88 -49q-20 0 -41 10t-38 26.5t-28.5 38t-11.5 46.5q0 23 8 42t31 48l170 225l-172 217q-23 29 -32 50.5t-9 43.5zM492 872q0 25 10 46.5 t26.5 38t37 26.5t41.5 10q53 0 88 -47l246 -315q12 -16 20 -36t8 -42q0 -47 -33 -86l-233 -293q-37 -49 -88 -49q-20 0 -41 10t-38 26.5t-28.5 38t-11.5 46.5q0 23 8 42t31 48l170 225l-172 217q-23 29 -32 50.5t-9 43.5z" />
<glyph unicode="&#x2c6;" horiz-adv-x="837" d="M16 1292q0 41 31 74l133 158q35 41 67 59.5t66 18.5q39 0 69 -18.5t64 -59.5l132 -158q33 -35 32 -72q0 -43 -25.5 -69.5t-64.5 -26.5q-33 0 -57.5 13.5t-44.5 35.5l-103 121l-106 -121q-20 -23 -45 -36t-58 -13q-39 0 -64.5 24.5t-25.5 69.5z" />
<glyph unicode="&#x2da;" horiz-adv-x="837" d="M195 1415q0 51 17 93t48 73t71 48.5t87 17.5q45 0 86 -17.5t71.5 -48.5t48 -73t17.5 -93q0 -100 -62.5 -163.5t-160.5 -63.5t-160.5 63.5t-62.5 163.5zM332 1413q0 -45 25.5 -71.5t60.5 -26.5q37 0 62.5 26.5t25.5 71.5t-25.5 72.5t-62.5 27.5q-35 0 -60.5 -27.5 t-25.5 -72.5z" />
<glyph unicode="&#x2dc;" horiz-adv-x="837" d="M84 1300q0 35 15.5 67t31.5 54q31 45 72 66.5t86 21.5q39 0 70.5 -11t64.5 -28l55 -26q23 -10 41.5 -17.5t36.5 -7.5q29 0 42 16.5t24 41.5q10 23 23 33t30 10q27 0 55.5 -19.5t28.5 -60.5q0 -14 -4 -31q-23 -78 -72 -128t-117 -50q-43 0 -76.5 12t-64.5 29l-49 24 q-49 25 -76 25q-25 0 -39 -15.5t-35 -45.5q-14 -20 -28.5 -27.5t-30.5 -7.5q-31 0 -57.5 18.5t-26.5 56.5z" />
<glyph unicode="&#x400;" horiz-adv-x="1060" d="M356 1755q0 25 9.5 48.5t26 43t39 31.5t48.5 12q25 0 54.5 -17.5t58.5 -43.5l137 -121q45 -39 45 -86q0 -41 -24.5 -69.5t-63.5 -28.5q-20 0 -40.5 7t-37.5 17l-190 115q-29 16 -45.5 39.5t-16.5 52.5z" />
<glyph unicode="&#x401;" horiz-adv-x="1060" d="M133 109v1210q0 45 26.5 73.5t73.5 28.5h685q102 0 102 -118q0 -53 -21.5 -86t-74.5 -33h-533v-348h481q98 0 99 -113q0 -53 -21.5 -88t-77.5 -35h-481v-358h543q43 0 64.5 -33t21.5 -88q0 -53 -21.5 -87t-76.5 -34h-689q-100 0 -100 109zM242 1673q0 61 36.5 100 t96.5 39q51 0 92 -33.5t41 -105.5q0 -63 -37 -101t-96 -38t-96 38t-37 101zM672 1673q0 61 37 100t96 39q49 0 91 -33.5t42 -105.5q0 -63 -37 -101t-96 -38t-96 38t-37 101z" />
<glyph unicode="&#x402;" horiz-adv-x="1417" d="M2 1303q0 51 25.5 84.5t78.5 33.5h826q55 0 80.5 -33.5t25.5 -84.5t-23.5 -83t-82.5 -32h-324v-400q47 70 136.5 116t195.5 46q195 0 297 -118.5t102 -364.5q0 -125 -29.5 -219t-85 -156.5t-133 -94.5t-171.5 -32q-31 0 -74 5t-82 20.5t-66.5 44t-27.5 74.5q0 25 8 48 t23.5 41.5t36 31t44.5 12.5q25 0 41.5 -8.5t32.5 -17.5t34.5 -16t45.5 -7q61 0 103 57t42 205q0 262 -209 262q-70 0 -120 -27.5t-81.5 -74t-47 -103.5t-15.5 -115v-293q0 -59 -29.5 -88.5t-95.5 -29.5q-59 0 -96 26.5t-37 91.5v1084h-241q-59 0 -83 31.5t-24 83.5z" />
<glyph unicode="&#x403;" horiz-adv-x="1015" d="M133 106v1213q0 45 26.5 73.5t73.5 28.5h685q102 0 102 -118q0 -53 -21.5 -86t-74.5 -33h-533v-1078q0 -47 -26.5 -83.5t-100.5 -36.5q-70 0 -100.5 28.5t-30.5 91.5zM381 1622q0 47 48 86l135 121q31 27 60.5 44t53.5 17q27 0 49.5 -12t39 -31.5t25.5 -43t9 -48.5 q0 -29 -16.5 -52.5t-44.5 -39.5l-191 -115q-18 -10 -37.5 -17t-42.5 -7q-37 0 -62.5 28.5t-25.5 69.5z" />
<glyph unicode="&#x404;" horiz-adv-x="1255" d="M86 702q0 150 36 286t111.5 240.5t193.5 166t282 61.5q129 0 230 -47t173 -119q33 -33 60.5 -73.5t27.5 -81.5q0 -59 -40 -88t-85 -29q-35 0 -59.5 21.5t-52.5 50.5q-23 23 -47.5 46t-55.5 41.5t-69.5 31t-88.5 12.5q-78 0 -138 -29t-103 -81t-67.5 -122.5t-31.5 -152.5 h510q98 0 99 -113q0 -53 -21.5 -88t-77.5 -35h-510q8 -86 34 -158.5t66 -126t96 -84t130 -30.5q49 0 86 11t66.5 31.5t55.5 46t50 56.5q18 23 45 50.5t68 27.5q47 0 85 -33t38 -86q0 -78 -78 -162q-35 -37 -76 -69.5t-92 -57t-114.5 -38t-143.5 -13.5q-166 0 -279.5 61.5 t-183.5 165t-99.5 236.5t-29.5 274z" />
<glyph unicode="&#x405;" horiz-adv-x="1077" d="M35 188q0 61 38 109.5t89 48.5q33 0 57.5 -14.5t54.5 -36.5q25 -18 49.5 -34.5t55.5 -31t70.5 -22.5t93.5 -8q104 0 162.5 48t58.5 134q0 92 -53.5 138t-163.5 69l-98 20q-78 16 -150 44t-127 75t-88 117.5t-33 175.5q0 94 33 174t96.5 138.5t156.5 91t214 32.5 q82 0 163 -18.5t145.5 -51t105.5 -77.5t41 -101q0 -31 -15 -65q-12 -29 -38.5 -48.5t-61.5 -21.5q-29 0 -51.5 7t-44.5 30q-23 18 -47.5 37.5t-55 35t-69.5 26t-88 10.5q-61 0 -102.5 -15.5t-66 -40t-34.5 -57.5t-10 -66q0 -76 52 -119.5t142 -66.5l105 -25 q72 -16 143.5 -41.5t129.5 -71.5t95 -118t37 -182q0 -121 -39 -206t-107.5 -139.5t-160.5 -80t-199 -25.5q-145 0 -243.5 34t-157.5 75q-49 33 -66.5 61.5t-17.5 52.5z" />
<glyph unicode="&#x406;" horiz-adv-x="524" d="M133 106v1215q0 61 36 88t95 27q55 0 91 -27t36 -88v-1215q0 -47 -26.5 -83.5t-100.5 -36.5q-70 0 -100.5 28.5t-30.5 91.5z" />
<glyph unicode="&#x407;" horiz-adv-x="524" d="M-82 1673q0 61 36.5 100t96.5 39q51 0 92 -33.5t41 -105.5q0 -63 -37 -101t-96 -38t-96 38t-37 101zM133 106v1215q0 61 36 88t95 27q55 0 91 -27t36 -88v-1215q0 -47 -26.5 -83.5t-100.5 -36.5q-70 0 -100.5 28.5t-30.5 91.5zM348 1673q0 61 37 100t96 39q49 0 91 -33.5 t42 -105.5q0 -63 -37 -101t-96 -38t-96 38t-37 101z" />
<glyph unicode="&#x408;" horiz-adv-x="1030" d="M45 356q0 74 39 103.5t92 29.5q35 0 71 -19t50 -91q16 -90 54 -145.5t128 -55.5q39 0 71 7.5t54.5 26.5t34.5 56t12 97v956q0 61 36 88t95 27q57 0 92 -27t35 -88v-870q0 -104 -11 -187.5t-52 -142.5q-55 -84 -150.5 -120t-226.5 -36q-88 0 -153.5 18.5t-111.5 49 t-76 71.5t-48 86q-20 47 -27.5 91.5t-7.5 74.5z" />
<glyph unicode="&#x409;" horiz-adv-x="1996" d="M-4 92q0 115 104 127q35 4 61.5 14.5t47 33t36 60.5t27.5 97q12 63 21.5 114.5t15.5 100.5t12.5 102.5t12.5 120.5q6 63 10 119.5t8 111t7 111t8 119.5q6 113 120 113h570q74 0 102.5 -30t28.5 -85v-432h254q104 0 194 -20.5t157 -70.5t104.5 -133t37.5 -208 q0 -217 -135 -337t-399 -120h-367q-55 6 -79.5 34.5t-24.5 86.5v1077h-307q-4 -49 -6.5 -88t-5.5 -74t-6 -73.5t-7 -88.5q-6 -74 -16.5 -158.5t-22.5 -168.5t-28.5 -162t-36.5 -137q-29 -82 -69 -133.5t-87 -80t-99.5 -38.5t-107.5 -10q-43 0 -69.5 9t-41 24.5t-19.5 35 t-5 37.5zM1188 229h260q55 0 93 17.5t62.5 48.5t36 69.5t11.5 81.5t-10.5 82t-35 70t-67.5 48.5t-108 17.5h-242v-435z" />
<glyph unicode="&#x40a;" horiz-adv-x="1945" d="M133 106v1215q0 61 36 88t95 27q55 0 91 -27t36 -88v-449h488v447q0 63 35.5 90t95.5 27q57 0 92 -27t35 -90v-447h254q104 0 194 -18t156.5 -66.5t104.5 -129t38 -205.5q0 -217 -133 -335t-401 -118h-367q-55 6 -79.5 34.5t-24.5 86.5v514h-488v-529q0 -47 -26.5 -83.5 t-100.5 -36.5q-70 0 -100.5 28.5t-30.5 91.5zM1137 229h260q109 0 155.5 60.5t46.5 146.5q0 43 -10 80t-34.5 62.5t-67.5 41t-109 15.5h-241v-406z" />
<glyph unicode="&#x40b;" horiz-adv-x="1411" d="M2 1303q0 51 25.5 84.5t81.5 33.5h823q59 0 82.5 -33.5t23.5 -84.5t-23.5 -83t-82.5 -32h-322v-344q45 57 121 102t191 45q104 0 179 -34.5t122 -112.5q41 -66 48 -150t7 -174v-426q0 -59 -36 -83.5t-95 -24.5t-93 24.5t-34 83.5v457q0 104 -40 151.5t-122 47.5 q-76 0 -124 -33t-75.5 -82t-38 -104.5t-10.5 -100.5v-326q0 -119 -131 -118q-53 0 -90 27.5t-37 90.5v1084h-241q-59 0 -84 31.5t-25 83.5z" />
<glyph unicode="&#x40c;" horiz-adv-x="1169" d="M133 106v1215q0 61 36 88t95 27q55 0 91 -27t36 -88v-483h129l344 524q20 33 43 53.5t62 20.5q23 0 48 -8.5t45.5 -23.5t34 -36.5t13.5 -48.5q0 -23 -14.5 -51.5t-30.5 -55.5l-315 -477l378 -561q10 -14 17.5 -30.5t7.5 -32.5q0 -47 -40 -86t-105 -39q-43 0 -68 23.5 t-51 60.5l-369 534h-129v-498q0 -47 -26.5 -83.5t-100.5 -36.5q-70 0 -100.5 28.5t-30.5 91.5zM430 1622q0 47 48 86l135 121q31 27 60.5 44t53.5 17q27 0 49.5 -12t39 -31.5t25.5 -43t9 -48.5q0 -29 -16.5 -52.5t-44.5 -39.5l-191 -115q-18 -10 -37.5 -17t-42.5 -7 q-37 0 -62.5 28.5t-25.5 69.5z" />
<glyph unicode="&#x40d;" horiz-adv-x="1296" d="M133 117v1200q0 66 35 92.5t92 26.5q59 0 92 -27t33 -92v-873l500 899q33 59 68.5 76t76.5 17q57 0 95 -32t38 -101v-1197q0 -63 -30.5 -91.5t-100.5 -28.5q-74 0 -98.5 36.5t-24.5 83.5v836l-508 -870q-51 -86 -143 -86q-43 0 -67.5 12t-37 30.5t-16.5 42t-4 46.5z M446 1755q0 25 9.5 48.5t26 43t39 31.5t48.5 12q25 0 54.5 -17.5t58.5 -43.5l137 -121q45 -39 45 -86q0 -41 -24.5 -69.5t-63.5 -28.5q-20 0 -40.5 7t-37.5 17l-190 115q-29 16 -45.5 39.5t-16.5 52.5z" />
<glyph unicode="&#x40e;" horiz-adv-x="1114" d="M6 1317q0 27 13.5 48t35 36.5t48 25t53.5 9.5q45 0 64.5 -19.5t35.5 -54.5l319 -653l287 643q16 37 40 60.5t67 23.5q53 0 96 -29t43 -76q0 -23 -8 -49.5t-19 -48.5l-336 -731q-72 -154 -127 -254.5t-112 -158.5t-123 -80.5t-156 -22.5q-72 0 -103.5 26.5t-31.5 83.5 q0 47 26.5 86t98.5 39q53 0 85 16.5t60 67.5l74 137l-403 789q-10 18 -18.5 43.5t-8.5 42.5zM281 1739q0 45 29.5 66.5t76.5 21.5q31 0 47.5 -15t28.5 -46q16 -45 38 -65.5t77 -20.5q53 0 77.5 23.5t39.5 66.5q10 29 24.5 43t44.5 14q53 0 81 -23.5t28 -62.5t-17.5 -78 t-54.5 -70.5t-92 -51t-131 -19.5q-78 0 -134.5 19.5t-92 50t-53 69.5t-17.5 78z" />
<glyph unicode="&#x40f;" horiz-adv-x="1255" d="M133 115v1200q0 63 31 92t100 29q74 0 100.5 -37t26.5 -84v-1077h473v1077q0 121 131 121q74 0 100.5 -36t26.5 -83v-1200q0 -63 -34.5 -90t-92.5 -27h-225v-207q0 -47 -26.5 -84t-100.5 -37q-70 0 -100.5 29t-30.5 92v207h-248q-59 0 -95 26.5t-36 88.5z" />
<glyph unicode="&#x410;" horiz-adv-x="1169" d="M23 104q0 16 3 34t9 32l403 1163q20 59 61.5 81t88.5 22t86 -19.5t61 -81.5l402 -1163q10 -27 10 -61q0 -51 -30 -88t-95 -37q-90 0 -123 82l-74 194h-485l-68 -196q-14 -43 -44.5 -61.5t-65.5 -18.5q-74 0 -106.5 33.5t-32.5 84.5zM412 485h336l-168 580z" />
<glyph unicode="&#x411;" horiz-adv-x="1196" d="M133 121v1198q0 45 26.5 73.5t73.5 28.5h685q102 0 102 -118q0 -53 -21.5 -86t-74.5 -33h-533v-330h230q113 0 207 -19.5t162.5 -67.5t106.5 -127t38 -196q0 -217 -135.5 -330.5t-399.5 -113.5h-362q-55 6 -80 34.5t-25 86.5zM391 229h256q55 0 93 18.5t62.5 47.5 t36 65.5t11.5 73.5t-10.5 74t-35 64.5t-67.5 45t-108 17.5h-238v-406z" />
<glyph unicode="&#x412;" horiz-adv-x="1169" d="M133 109v1210q0 45 26.5 73.5t80.5 28.5h360q217 0 340 -87t123 -294q0 -121 -47 -192.5t-113 -106.5q113 -41 158 -132t45 -197q0 -217 -127 -314.5t-361 -97.5h-385q-100 0 -100 109zM385 229h254q55 0 93 16.5t62.5 42t36 60.5t11.5 72t-10.5 72.5t-33 62.5t-62.5 43 t-97 16h-254v-385zM385 836h236q51 0 84.5 15t54 41t30 57.5t9.5 64.5t-9.5 64.5t-30 56t-54 40t-84.5 15.5h-236v-354z" />
<glyph unicode="&#x413;" horiz-adv-x="1015" d="M133 106v1213q0 45 26.5 73.5t73.5 28.5h685q102 0 102 -118q0 -53 -21.5 -86t-74.5 -33h-533v-1078q0 -47 -26.5 -83.5t-100.5 -36.5q-70 0 -100.5 28.5t-30.5 91.5z" />
<glyph unicode="&#x414;" horiz-adv-x="1437" d="M6 127q0 61 36 88t91 27h74q59 166 84.5 315.5t40.5 304.5q6 63 10 119.5t8 111t7 111t8 119.5q6 113 120 113h596q55 0 91 -27t36 -88v-1079h76q55 0 91 -27t36 -88v-334q0 -47 -26.5 -84t-100.5 -37q-70 0 -100.5 29t-30.5 92v207h-889v-207q0 -63 -30.5 -92 t-100.5 -29q-74 0 -100.5 37t-26.5 84v334zM489 242h461v956h-323q-4 -49 -6.5 -88t-5.5 -74t-6 -74t-7 -88q-16 -164 -41.5 -315t-71.5 -317z" />
<glyph unicode="&#x415;" horiz-adv-x="1060" d="M133 109v1210q0 45 26.5 73.5t73.5 28.5h685q102 0 102 -118q0 -53 -21.5 -86t-74.5 -33h-533v-348h481q98 0 99 -113q0 -53 -21.5 -88t-77.5 -35h-481v-358h543q43 0 64.5 -33t21.5 -88q0 -53 -21.5 -87t-76.5 -34h-689q-100 0 -100 109z" />
<glyph unicode="&#x416;" horiz-adv-x="1755" d="M27 111q0 16 7 32.5t17 30.5l336 559l-272 479q-16 29 -28.5 60t-12.5 53q0 27 12 47.5t32.5 34.5t45 21.5t47.5 7.5q39 0 62.5 -19.5t41.5 -54.5l295 -524h140v483q0 61 35.5 88t95.5 27q55 0 91 -27t36 -88v-483h137l295 524q18 35 41.5 54.5t62.5 19.5q23 0 47.5 -7.5 t44 -21.5t32.5 -34.5t13 -47.5q0 -23 -12 -53.5t-29 -59.5l-272 -479l336 -559q10 -14 17.5 -30.5t7.5 -32.5q0 -47 -40 -86t-106 -39q-43 0 -69.5 22.5t-49.5 61.5l-319 534h-137v-498q0 -47 -27 -83.5t-100 -36.5q-70 0 -100.5 28.5t-30.5 91.5v498h-140l-319 -534 q-23 -39 -49.5 -61.5t-69.5 -22.5q-66 0 -105.5 38.5t-39.5 86.5z" />
<glyph unicode="&#x417;" horiz-adv-x="1112" d="M6 244q0 27 13.5 51t34 42.5t45 30t46.5 11.5q29 0 54.5 -16.5t50.5 -40.5q18 -18 40.5 -40t54.5 -40.5t78 -29.5t114 -11q117 0 178 51t61 156q0 111 -71.5 157.5t-210.5 46.5h-156q-57 0 -76.5 34t-19.5 83q0 47 19.5 80t76.5 33h176q117 0 175.5 57t58.5 150 q0 72 -47.5 121t-159.5 49q-53 0 -92 -10.5t-68 -27t-49.5 -36t-38.5 -37.5q-29 -31 -53.5 -52.5t-65.5 -21.5q-45 0 -84 33t-39 84q0 35 18.5 67t36.5 52q25 27 63 58.5t93 60t130 48t173 19.5q117 0 201 -30.5t139.5 -83t81 -122t25.5 -149.5q0 -104 -52.5 -190 t-134.5 -138q106 -41 166 -126t60 -201q0 -219 -130 -335t-384 -116q-135 0 -229.5 27.5t-155.5 68.5q-80 51 -113 97.5t-33 85.5z" />
<glyph unicode="&#x418;" horiz-adv-x="1296" d="M133 117v1200q0 66 35 92.5t92 26.5q59 0 92 -27t33 -92v-873l500 899q33 59 68.5 76t76.5 17q57 0 95 -32t38 -101v-1197q0 -63 -30.5 -91.5t-100.5 -28.5q-74 0 -98.5 36.5t-24.5 83.5v836l-508 -870q-51 -86 -143 -86q-43 0 -67.5 12t-37 30.5t-16.5 42t-4 46.5z" />
<glyph unicode="&#x419;" horiz-adv-x="1296" d="M133 117v1200q0 66 35 92.5t92 26.5q59 0 92 -27t33 -92v-873l500 899q33 59 68.5 76t76.5 17q57 0 95 -32t38 -101v-1197q0 -63 -30.5 -91.5t-100.5 -28.5q-74 0 -98.5 36.5t-24.5 83.5v836l-508 -870q-51 -86 -143 -86q-43 0 -67.5 12t-37 30.5t-16.5 42t-4 46.5z M367 1739q0 45 29.5 66.5t76.5 21.5q31 0 47.5 -15t28.5 -46q16 -45 38 -65.5t77 -20.5q53 0 77.5 23.5t39.5 66.5q10 29 24.5 43t44.5 14q53 0 81 -23.5t28 -62.5t-17.5 -78t-54.5 -70.5t-92 -51t-131 -19.5q-78 0 -134.5 19.5t-92 50t-53 69.5t-17.5 78z" />
<glyph unicode="&#x41a;" horiz-adv-x="1169" d="M133 106v1215q0 61 36 88t95 27q55 0 91 -27t36 -88v-483h129l344 524q20 33 43 53.5t62 20.5q23 0 48 -8.5t45.5 -23.5t34 -36.5t13.5 -48.5q0 -23 -14.5 -51.5t-30.5 -55.5l-315 -477l378 -561q10 -14 17.5 -30.5t7.5 -32.5q0 -47 -40 -86t-105 -39q-43 0 -68 23.5 t-51 60.5l-369 534h-129v-498q0 -47 -26.5 -83.5t-100.5 -36.5q-70 0 -100.5 28.5t-30.5 91.5z" />
<glyph unicode="&#x41b;" horiz-adv-x="1343" d="M-4 92q0 115 104 127q35 4 61.5 14.5t47 33t36 60.5t27.5 97q12 63 21.5 114.5t15.5 100.5t12.5 102.5t12.5 120.5q6 63 10 119.5t8 111t7 111t8 119.5q6 113 120 113h596q55 0 91 -27t36 -88v-1215q0 -47 -26.5 -83.5t-100.5 -36.5q-70 0 -100.5 28.5t-30.5 91.5v1092 h-329q-4 -49 -6.5 -88t-5.5 -74t-6 -73.5t-7 -88.5q-6 -74 -16.5 -158.5t-22.5 -168.5t-28.5 -162t-36.5 -137q-29 -82 -69 -133.5t-87 -80t-99.5 -38.5t-107.5 -10q-43 0 -69.5 9t-41 24.5t-19.5 35t-5 37.5z" />
<glyph unicode="&#x41c;" horiz-adv-x="1611" d="M133 106v1188q0 76 42 109t128 33q90 0 130 -34t59 -95l317 -1014l299 1005q23 74 69 106t136 32q86 0 126 -32t40 -97v-1207q0 -47 -28 -80.5t-99 -33.5q-66 0 -93.5 28.5t-27.5 87.5v891l-289 -893q-16 -53 -53 -78.5t-84 -25.5q-66 0 -100.5 29.5t-51.5 83.5l-274 862 v-871q0 -47 -26.5 -80.5t-98.5 -33.5q-68 0 -94.5 28.5t-26.5 91.5z" />
<glyph unicode="&#x41d;" horiz-adv-x="1290" d="M133 106v1215q0 61 36 88t95 27q55 0 91 -27t36 -88v-469h508v467q0 63 36 90t95 27q57 0 92 -27t35 -90v-1215q0 -47 -26.5 -82.5t-100.5 -35.5q-131 0 -131 120v508h-508v-508q0 -47 -26.5 -83.5t-100.5 -36.5q-70 0 -100.5 28.5t-30.5 91.5z" />
<glyph unicode="&#x41e;" horiz-adv-x="1417" d="M86 696q0 166 44 305.5t125 240.5t196 157.5t258 56.5q150 0 265.5 -55t195 -154.5t120.5 -237t41 -300.5q0 -168 -43 -305.5t-124 -234.5t-196.5 -150.5t-258.5 -53.5q-152 0 -267.5 52.5t-194.5 147.5t-120 230t-41 301zM356 702q0 -231 87.5 -363t265.5 -132t265 132 t87 363q0 111 -21.5 204t-65.5 161t-110.5 105.5t-154.5 37.5q-90 0 -156 -37.5t-110 -105.5t-65.5 -161t-21.5 -204z" />
<glyph unicode="&#x41f;" horiz-adv-x="1269" d="M133 106v1201q0 61 36 87.5t95 26.5h746q57 0 92 -26.5t35 -89.5v-1201q0 -47 -27 -82.5t-100 -35.5q-131 0 -131 120v1078h-488v-1078q0 -47 -26.5 -83.5t-100.5 -36.5q-70 0 -100.5 28.5t-30.5 91.5z" />
<glyph unicode="&#x420;" horiz-adv-x="1112" d="M133 106v1219q0 45 27.5 70.5t72.5 25.5h363q244 0 354.5 -118.5t110.5 -335.5q0 -74 -18.5 -153t-69.5 -145.5t-139.5 -109.5t-227.5 -43h-221v-414q0 -47 -24.5 -81.5t-96.5 -34.5q-70 0 -100.5 28.5t-30.5 91.5zM385 745h190q63 0 106.5 18.5t69 50.5t37 73t11.5 86 q0 43 -11.5 82t-37 69.5t-68.5 48t-107 17.5h-190v-445z" />
<glyph unicode="&#x421;" horiz-adv-x="1255" d="M86 702q0 150 34 286t106.5 240.5t188 166t279.5 61.5q129 0 230.5 -47t173.5 -119q33 -33 60.5 -73.5t27.5 -81.5q0 -59 -40 -88t-85 -29q-35 0 -59.5 21.5t-53.5 50.5q-23 23 -47 46t-55 41.5t-70 31t-88 12.5q-92 0 -154.5 -41t-102.5 -111t-57.5 -162t-17.5 -192 q0 -104 17.5 -198.5t56.5 -164t99.5 -110.5t144.5 -41q49 0 86 11t66.5 31.5t55 46t50.5 56.5q18 23 45 50.5t67 27.5q47 0 85 -33t38 -86q0 -78 -77 -162q-35 -37 -76 -69.5t-92.5 -57t-114.5 -38t-143 -13.5q-166 0 -278 61.5t-178.5 165t-94 236.5t-27.5 274z" />
<glyph unicode="&#x422;" horiz-adv-x="1110" d="M8 1305q0 49 23.5 82.5t70.5 33.5h904q47 0 70.5 -32.5t23.5 -81.5t-21.5 -84t-77.5 -35h-325v-1088q0 -47 -27.5 -80.5t-99.5 -33.5q-131 0 -131 114v1088h-312q-53 0 -75.5 33.5t-22.5 83.5z" />
<glyph unicode="&#x423;" horiz-adv-x="1114" d="M6 1317q0 27 13.5 48t35 36.5t48 25t53.5 9.5q45 0 64.5 -19.5t35.5 -54.5l319 -653l287 643q16 37 40 60.5t67 23.5q53 0 96 -29t43 -76q0 -23 -8 -49.5t-19 -48.5l-336 -731q-72 -154 -127 -254.5t-112 -158.5t-123 -80.5t-156 -22.5q-72 0 -103.5 26.5t-31.5 83.5 q0 47 26.5 86t98.5 39q53 0 85 16.5t60 67.5l74 137l-403 789q-10 18 -18.5 43.5t-8.5 42.5z" />
<glyph unicode="&#x424;" horiz-adv-x="1470" d="M70 713q0 133 44 234.5t117.5 172t170 112.5t198.5 54v82q0 61 36 88t95 27q55 0 91 -26.5t36 -88.5v-82q109 -10 207 -46t172 -103.5t118 -169t44 -240.5q0 -135 -42 -238.5t-116 -175t-172 -111.5t-211 -52v-93q0 -47 -26.5 -83.5t-100.5 -36.5q-70 0 -100.5 28.5 t-30.5 91.5v95q-113 10 -209 47t-167.5 105.5t-112.5 169.5t-41 239zM324 715q0 -164 73.5 -246t202.5 -98v694q-57 -6 -107.5 -32.5t-88 -70.5t-59 -105.5t-21.5 -141.5zM858 371q129 14 207 100t78 252q0 162 -77 245t-208 99v-696z" />
<glyph unicode="&#x425;" horiz-adv-x="1114" d="M27 102q0 45 22 76l357 535l-326 532q-10 16 -16.5 35.5t-6.5 36.5q0 51 37 85t96 34q49 0 75 -25t48 -63l246 -422l254 420q23 37 48.5 63.5t70.5 26.5q59 0 94 -33t35 -84q0 -16 -4 -32.5t-17 -35.5l-333 -524l360 -549q20 -35 20 -69q0 -51 -34.5 -87t-94.5 -36 q-47 0 -74.5 20.5t-49.5 56.5l-283 439l-277 -439q-23 -37 -47 -57t-65 -20q-70 0 -102.5 36.5t-32.5 79.5z" />
<glyph unicode="&#x426;" horiz-adv-x="1343" d="M133 115v1200q0 63 31 92t100 29q74 0 100.5 -37t26.5 -84v-1077h467v1077q0 121 131 121q74 0 100.5 -36t26.5 -83v-1075h74q55 0 91 -27t36 -88v-334q0 -47 -26.5 -84t-100.5 -37q-70 0 -100.5 29t-30.5 92v207h-795q-59 0 -95 26.5t-36 88.5z" />
<glyph unicode="&#x427;" horiz-adv-x="1214" d="M88 1001v320q0 61 36 88t95 27q55 0 91 -27t36 -88v-283q0 -55 10.5 -96t37 -67.5t73.5 -40t121 -13.5q59 0 114.5 6.5t120.5 20.5v473q0 61 36 88t95 27q55 0 91 -27t36 -88v-1215q0 -47 -26.5 -83.5t-100.5 -36.5q-70 0 -100.5 28.5t-30.5 91.5v504q-70 -10 -133 -18 t-129 -8q-115 0 -203 21.5t-147 70.5t-91 129t-32 196z" />
<glyph unicode="&#x428;" horiz-adv-x="1673" d="M133 115v1200q0 63 31 92t100 29q74 0 100.5 -37t26.5 -84v-1077h316v1077q0 121 131 121q74 0 100.5 -36t26.5 -83v-1079h317v1077q0 121 131 121q74 0 100.5 -36t26.5 -83v-1200q0 -63 -35 -90t-92 -27h-1149q-59 0 -95 26.5t-36 88.5z" />
<glyph unicode="&#x429;" horiz-adv-x="1746" d="M133 115v1200q0 63 31 92t100 29q74 0 100.5 -37t26.5 -84v-1077h305v1077q0 121 131 121q74 0 100.5 -36t26.5 -83v-1079h308v1077q0 121 131 121q74 0 100.5 -36t26.5 -83v-1075h73q55 0 91 -27t36 -88v-334q0 -47 -26.5 -84t-100.5 -37q-70 0 -100.5 29t-30.5 92v207 h-1198q-59 0 -95 26.5t-36 88.5z" />
<glyph unicode="&#x42a;" horiz-adv-x="1355" d="M-14 1303q0 119 102 118h346q53 0 78 -27.5t25 -70.5v-434h264q104 0 194 -20.5t157 -70.5t104.5 -133t37.5 -208q0 -217 -135 -337t-399 -120h-377q-55 6 -79.5 34.5t-24.5 86.5v1063h-197q-53 0 -74.5 32.5t-21.5 86.5zM537 229h270q55 0 93 17.5t62.5 48.5t36 69.5 t11.5 81.5t-10.5 82t-35 70t-67.5 48.5t-109 17.5h-251v-435z" />
<glyph unicode="&#x42b;" horiz-adv-x="1722" d="M133 121v1196q0 57 28.5 88t100.5 31t100.5 -30t28.5 -85v-432h254q104 0 194.5 -20.5t157 -70.5t104.5 -133t38 -208q0 -217 -135.5 -337t-399.5 -120h-366q-55 6 -80 34.5t-25 86.5zM391 229h260q55 0 93 17.5t62.5 48.5t36 69.5t11.5 81.5t-10 82t-35 70t-68 48.5 t-108 17.5h-242v-435zM1331 106v1215q0 61 36 88t95 27q55 0 91 -27t36 -88v-1215q0 -47 -26.5 -83.5t-100.5 -36.5q-70 0 -100.5 28.5t-30.5 91.5z" />
<glyph unicode="&#x42c;" horiz-adv-x="1220" d="M133 121v1196q0 57 28.5 88t100.5 31t100.5 -30t28.5 -85v-432h275q104 0 194 -20.5t156.5 -70.5t104.5 -133t38 -208q0 -217 -134 -337t-400 -120h-387q-55 0 -80 31.5t-25 89.5zM391 229h281q55 0 93 17.5t62.5 48.5t35.5 69.5t11 81.5t-10 82t-34.5 70t-67.5 48.5 t-109 17.5h-262v-435z" />
<glyph unicode="&#x42d;" horiz-adv-x="1257" d="M43 295q0 27 12.5 50.5t30.5 38.5t39.5 24.5t40.5 9.5q47 0 72.5 -22.5t64.5 -69.5q59 -72 117.5 -98.5t142.5 -26.5q78 0 136.5 29.5t99.5 84t64.5 127t31.5 158.5h-510q-55 0 -76.5 35t-21.5 88q0 113 98 113h510q-8 86 -31.5 155.5t-61.5 120.5t-93.5 79t-126.5 28 q-84 0 -144.5 -30t-124.5 -89q-35 -35 -65.5 -57.5t-79.5 -22.5q-53 0 -89 32.5t-36 82.5q0 41 22.5 79.5t61.5 73.5q86 78 198.5 123t264.5 45q162 0 272.5 -57.5t179 -155.5t99 -230t30.5 -282q0 -147 -31.5 -285.5t-104 -245t-192.5 -171t-296 -64.5q-74 0 -140.5 14.5 t-122 39t-99.5 56t-72 66.5q-35 41 -52.5 77t-17.5 77z" />
<glyph unicode="&#x42e;" horiz-adv-x="1918" d="M133 106v1215q0 61 36 88t95 27q55 0 91 -27t36 -88v-485h244q16 137 63 251.5t123 196.5t179.5 127t230.5 45q150 0 262.5 -55t188 -154.5t113.5 -237t38 -300.5q0 -168 -40 -305.5t-117 -234.5t-189.5 -150.5t-255.5 -53.5q-141 0 -249 45t-182.5 128t-116.5 202 t-52 266h-240v-500q0 -47 -26.5 -83.5t-100.5 -36.5q-70 0 -100.5 28.5t-30.5 91.5zM899 702q0 -117 18.5 -209t58.5 -156.5t102.5 -99t152.5 -34.5q88 0 151.5 34.5t103.5 99t58.5 158t18.5 207.5q0 111 -18.5 204t-58.5 161t-103.5 105.5t-151.5 37.5q-90 0 -152.5 -37.5 t-102.5 -105.5t-58.5 -161t-18.5 -204z" />
<glyph unicode="&#x42f;" horiz-adv-x="1179" d="M47 102q0 16 6 34t15 34l233 434q-121 72 -166 166t-45 205q0 211 132 328.5t376 117.5h352q41 0 69 -27.5t28 -74.5v-1213q0 -63 -31 -91.5t-101 -28.5q-72 0 -99.5 34.5t-27.5 81.5v428h-233l-250 -460q-23 -41 -46 -62.5t-64 -21.5t-67 10t-46 27q-20 16 -27.5 34.5 t-7.5 44.5zM354 981q0 -45 10.5 -86t37 -71.5t68.5 -49t108 -18.5h210v434h-213q-66 0 -107.5 -16.5t-67 -45t-36 -66.5t-10.5 -81z" />
<glyph unicode="&#x430;" horiz-adv-x="1046" d="M61 266q0 88 28 151.5t75 106.5t107.5 68.5t125.5 38.5q72 14 135.5 22.5t147.5 14.5v57q0 31 -6 60.5t-24.5 54t-51.5 39t-84 14.5q-53 0 -99 -20.5t-106 -65.5q-23 -16 -44 -30.5t-56 -14.5q-20 0 -39.5 9t-35 24.5t-26 36t-10.5 40.5q0 39 17.5 65t64.5 60 q72 53 163 80t177 27q215 0 311.5 -93t96.5 -286v-627q0 -59 -31 -85.5t-96 -26.5q-55 0 -87 25.5t-32 86.5v27q-20 -29 -46 -55.5t-62.5 -48t-84 -35t-110.5 -13.5q-147 0 -232.5 74t-85.5 219zM309 297q0 -47 28 -82t99 -35q55 0 100.5 18.5t77 49.5t49 71.5t17.5 88.5v81 q-72 -8 -135.5 -18t-93.5 -18q-82 -20 -112 -63.5t-30 -92.5z" />
<glyph unicode="&#x431;" horiz-adv-x="1075" d="M68 567q0 174 20.5 311.5t67.5 238t125.5 167t195.5 100.5l137 41q49 14 79 35t51.5 39.5t38 30.5t40.5 12q47 0 86 -36t39 -83q0 -59 -58.5 -101t-146.5 -69l-170 -51q-127 -39 -181 -113.5t-68 -191.5q66 88 143.5 124t163.5 36q72 0 139.5 -30t120.5 -93.5t85 -161.5 t32 -233q0 -125 -34 -230.5t-95.5 -181.5t-149.5 -119t-199 -43q-117 0 -202.5 43t-144 121t-87 189.5t-28.5 248.5zM319 516q0 -68 12.5 -127t39 -105t68.5 -73t100 -27q57 0 98 27t67.5 73t39 107.5t12.5 132.5q0 154 -53.5 235t-157.5 81q-94 0 -160 -85t-66 -239z" />
<glyph unicode="&#x432;" horiz-adv-x="1009" d="M119 104v863q0 51 31.5 77.5t85.5 26.5h325q176 0 266.5 -71.5t90.5 -215.5q0 -78 -35 -136t-88 -93q90 -37 123.5 -102t33.5 -131q0 -322 -401 -322h-318q-51 0 -82.5 25.5t-31.5 78.5zM358 205h195q82 0 117 32t35 91t-35 88.5t-121 29.5h-191v-241zM358 635h152 q92 0 128 29t36 88q0 53 -33 82.5t-104 29.5h-179v-229z" />
<glyph unicode="&#x433;" horiz-adv-x="829" d="M119 100v861q0 55 30.5 82.5t83.5 27.5h467q61 0 87 -24.5t26 -85.5q0 -53 -24.5 -83t-88.5 -30h-340v-748q0 -59 -27.5 -86.5t-92.5 -27.5q-59 0 -90 25.5t-31 88.5z" />
<glyph unicode="&#x434;" horiz-adv-x="1187" d="M16 106q0 63 30 87t89 24h39q18 37 31.5 88t24 106.5t16.5 111t10 98.5q6 72 10 148.5t6 150.5q0 31 3.5 58.5t14.5 48t34.5 32.5t66.5 12h463q31 0 56.5 -3t45 -15.5t29.5 -37t10 -65.5v-733h45q55 0 88 -25.5t33 -85.5v-290q0 -63 -32.5 -88t-90.5 -25 q-59 0 -88.5 25.5t-29.5 91.5v180h-664v-180q0 -61 -28.5 -89t-90.5 -28q-55 0 -88 24.5t-33 88.5v290zM424 217h332v633h-246q-4 -72 -9 -153t-15.5 -164.5t-26 -164.5t-35.5 -151z" />
<glyph unicode="&#x435;" horiz-adv-x="1054" d="M70 526q0 109 27.5 212.5t87 185.5t149.5 131t217 49q201 0 320.5 -136.5t119.5 -394.5q0 -59 -32.5 -81.5t-92.5 -22.5h-534q4 -135 63.5 -208t169.5 -73q66 0 104 15.5t83 44.5l49 33q25 16 57 16q39 0 72 -35t33 -86q0 -53 -41 -93t-102.5 -66.5t-132.5 -39 t-130 -12.5q-231 0 -359 143.5t-128 417.5zM340 672h397q0 43 -11 82t-34.5 68.5t-60.5 48t-86 18.5q-78 0 -136.5 -57.5t-68.5 -159.5z" />
<glyph unicode="&#x436;" horiz-adv-x="1335" d="M16 92q0 27 15.5 54.5t27.5 50.5l199 360l-172 315q-16 31 -28.5 61t-12.5 54q0 41 39 73t90 32q35 0 56.5 -13.5t37.5 -48.5l191 -381h88v334q0 59 32.5 84t88.5 25q121 0 120 -109v-334h89l196 381q33 61 94 62q49 0 87 -26t38 -67q0 -29 -11 -55t-28 -57l-174 -336 l224 -401q16 -29 16 -60q0 -47 -40 -75.5t-83 -28.5q-47 0 -67.5 16t-41.5 51l-200 371h-99v-324q0 -23 -3 -43t-15 -36.5t-36.5 -25.5t-65.5 -9q-57 0 -89 24.5t-32 87.5v326h-98l-205 -371q-18 -35 -39 -51t-68 -16q-51 0 -86 32.5t-35 73.5z" />
<glyph unicode="&#x437;" horiz-adv-x="892" d="M16 184q0 23 11.5 44.5t29 38t39 26.5t41.5 10q29 0 49.5 -13.5t40.5 -33.5q27 -29 77 -55.5t126 -26.5t118 34t42 93q0 66 -42 105.5t-124 39.5h-143q-61 0 -83 32t-22 75q0 39 21.5 70.5t83.5 31.5h139q70 0 107.5 35t37.5 96q0 104 -127 105q-72 0 -110.5 -21.5 t-75.5 -54.5q-18 -16 -38.5 -32.5t-51.5 -16.5q-43 0 -82 32.5t-39 80.5q0 29 15.5 53t31.5 43q20 20 53 42.5t78 42t102.5 32t127.5 12.5q100 0 168.5 -23.5t111.5 -64.5t61.5 -94.5t18.5 -110.5q0 -78 -40 -144.5t-101 -105.5q84 -37 126 -105.5t42 -150.5 q0 -160 -106.5 -250t-309.5 -90q-74 0 -129 11.5t-96 27.5t-70 35.5t-49 36.5q-59 51 -60 108z" />
<glyph unicode="&#x438;" horiz-adv-x="1101" d="M119 100v879q0 63 31.5 88t87.5 25q59 0 89.5 -25t30.5 -88v-580l383 619q27 43 54.5 58.5t64.5 15.5q57 0 90 -26t33 -91v-877q0 -63 -30.5 -87.5t-92.5 -24.5q-66 0 -92.5 28.5t-26.5 83.5v559l-372 -598q-27 -41 -57.5 -57t-75.5 -16q-72 0 -94.5 30.5t-22.5 83.5z " />
<glyph unicode="&#x439;" horiz-adv-x="1101" d="M119 100v879q0 63 31.5 88t87.5 25q59 0 89.5 -25t30.5 -88v-580l383 619q27 43 54.5 58.5t64.5 15.5q57 0 90 -26t33 -91v-877q0 -63 -30.5 -87.5t-92.5 -24.5q-66 0 -92.5 28.5t-26.5 83.5v559l-372 -598q-27 -41 -57.5 -57t-75.5 -16q-72 0 -94.5 30.5t-22.5 83.5z M272 1415q0 45 29.5 66.5t76.5 21.5q31 0 47.5 -15t28.5 -46q16 -45 38 -65.5t77 -20.5q53 0 77.5 23.5t39.5 66.5q10 29 24.5 43t44.5 14q53 0 81 -23.5t28 -62.5t-17.5 -78t-54.5 -70.5t-92 -51t-131 -19.5q-78 0 -134.5 19.5t-92 50t-53 69.5t-17.5 78z" />
<glyph unicode="&#x43a;" horiz-adv-x="950" d="M119 98v885q0 57 32.5 83t88.5 26q119 0 118 -109v-336h82l248 387q18 29 37.5 43.5t52.5 14.5q53 0 91 -33t38 -72q0 -14 -5 -32.5t-17 -36.5l-240 -365l260 -389q12 -18 20.5 -34.5t8.5 -33.5q0 -23 -12.5 -43t-31 -35.5t-42 -23.5t-47.5 -8q-39 0 -60.5 15t-44.5 48 l-254 381h-84v-332q0 -12 -1 -31.5t-12 -38t-35.5 -30.5t-71.5 -12q-59 0 -89 26.5t-30 85.5z" />
<glyph unicode="&#x43b;" horiz-adv-x="1069" d="M-4 94q0 41 18.5 68.5t71.5 34.5q41 4 62.5 37.5t35.5 117.5q12 68 16.5 135.5t8.5 128.5l16 349q6 106 115 106h491q53 0 86 -23.5t33 -82.5v-873q0 -106 -119 -106q-61 0 -90.5 24.5t-29.5 83.5v754h-258l-11 -242q-4 -104 -15 -213.5t-43 -201t-94.5 -148.5 t-168.5 -57q-78 0 -101.5 28.5t-23.5 79.5z" />
<glyph unicode="&#x43c;" horiz-adv-x="1288" d="M119 90v879q0 70 32.5 96.5t108.5 26.5q68 0 98.5 -26t47.5 -69l239 -702l236 696q16 51 46.5 76t104.5 25q76 0 106.5 -27t30.5 -94v-883q0 -51 -26.5 -76.5t-87.5 -25.5q-63 0 -88 24.5t-25 79.5v506l-186 -518q-29 -80 -113 -80q-55 0 -81.5 23.5t-39.5 58.5l-176 504 v-496q0 -51 -23.5 -76.5t-89.5 -25.5q-63 0 -88.5 22.5t-25.5 81.5z" />
<glyph unicode="&#x43d;" horiz-adv-x="1107" d="M119 98v883q0 63 29.5 87t89.5 24q59 0 89.5 -24t30.5 -87v-322h387v322q0 63 34 87t89 24t88 -24t33 -87v-885q0 -111 -121 -110q-59 0 -91 24.5t-32 87.5v338h-387v-338q0 -55 -27.5 -83.5t-92.5 -28.5q-61 0 -90 24.5t-29 87.5z" />
<glyph unicode="&#x43e;" horiz-adv-x="1122" d="M70 535q0 131 35.5 236.5t101 179t156 113.5t200.5 40q111 0 201 -36t154.5 -106.5t99.5 -177t35 -245.5q0 -133 -36 -239.5t-100.5 -180.5t-154.5 -114t-201 -40q-115 0 -205 40t-154.5 114t-98 179.5t-33.5 236.5zM332 537q0 -174 61.5 -261.5t167.5 -87.5 q111 0 173.5 86t62.5 256q0 174 -61.5 259t-174.5 85q-106 0 -167.5 -84.5t-61.5 -252.5z" />
<glyph unicode="&#x43f;" horiz-adv-x="1099" d="M119 98v867q0 61 29.5 83.5t87.5 22.5h632q55 0 84 -23.5t29 -84.5v-867q0 -53 -27.5 -81.5t-93.5 -28.5q-61 0 -90 24.5t-29 87.5v750h-381v-750q0 -113 -120 -112q-61 0 -91 24.5t-30 87.5z" />
<glyph unicode="&#x440;" horiz-adv-x="1124" d="M119 -324v1293q0 53 31.5 88t101.5 35q23 0 45 -3.5t39.5 -13.5t28 -29.5t10.5 -52.5v-39q14 25 38.5 51.5t59.5 48t79 36t99 14.5q100 0 176 -43t126.5 -119t76 -179.5t25.5 -223.5q0 -123 -29 -228.5t-84 -182.5t-134 -120t-179 -43q-74 0 -123 19.5t-80 44.5 q-37 29 -57 65v-411q0 -63 -30 -91t-97 -28q-123 0 -123 112zM365 535q0 -156 55.5 -251.5t159.5 -95.5q55 0 96 26t68.5 72t41 109.5t13.5 139.5q0 152 -55.5 243.5t-163.5 91.5q-53 0 -93.5 -26.5t-67 -71.5t-40.5 -106.5t-14 -130.5z" />
<glyph unicode="&#x441;" horiz-adv-x="997" d="M70 518q0 137 34.5 246.5t99 184.5t156 115t205.5 40q94 0 170 -28.5t127 -71.5t79 -90.5t28 -84.5q0 -53 -36 -85.5t-89 -32.5q-35 0 -59.5 20.5t-47.5 44.5q-37 41 -79 69.5t-109 28.5q-74 0 -117 -36.5t-66.5 -90t-29.5 -114t-6 -107.5q0 -53 8 -111.5t32.5 -107.5 t67.5 -81.5t111 -32.5q78 0 121 32.5t71 61.5q27 27 46.5 42t52.5 15q41 0 77.5 -32.5t36.5 -80.5q0 -41 -29.5 -87t-84 -86t-132.5 -66.5t-176 -26.5q-129 0 -217 47t-143 124t-78.5 177.5t-23.5 204.5z" />
<glyph unicode="&#x442;" horiz-adv-x="866" d="M6 961q0 53 23.5 81.5t87.5 28.5h633q111 0 110 -110q0 -53 -24.5 -83t-87.5 -30h-203v-750q0 -113 -121 -112q-61 0 -92 24.5t-31 87.5v750h-182q-66 0 -89.5 29.5t-23.5 83.5z" />
<glyph unicode="&#x443;" d="M14 977q0 53 37 84t103 31q55 0 82.5 -24t42.5 -64l210 -629l224 626q16 47 41.5 69t74.5 22q66 0 99 -34t33 -83q0 -16 -3.5 -38t-13.5 -44l-481 -1223q-23 -53 -54.5 -83.5t-78.5 -30.5q-61 0 -93 35.5t-32 78.5q0 25 8 52.5t18 48.5l123 290l-323 834 q-12 31 -14.5 49.5t-2.5 32.5z" />
<glyph unicode="&#x444;" horiz-adv-x="1556" d="M70 539q0 123 22.5 226t67.5 179t113.5 118t160.5 42q74 0 129 -34t96 -107v354q0 61 29 90t94 29q51 0 85 -27t34 -90v-354q41 63 108.5 101t139.5 38q92 0 156.5 -42t104.5 -117t58.5 -179t18.5 -227q0 -119 -19.5 -223.5t-62.5 -182.5t-109.5 -123t-160.5 -45 q-72 0 -135.5 37t-98.5 92v-416q0 -63 -32 -88.5t-89 -25.5q-121 0 -121 114v418q-35 -57 -100 -94t-137 -37q-94 0 -160.5 45t-109.5 123t-62.5 182.5t-19.5 223.5zM324 524q0 -74 8 -137t26.5 -110.5t48 -75t72.5 -27.5q92 0 135 97.5t43 267.5q0 174 -49 256t-131 82 q-43 0 -72.5 -28t-48 -76t-25.5 -112.5t-7 -136.5zM901 539q0 -170 43 -267.5t137 -97.5q43 0 73 28.5t49.5 77t27.5 112.5t8 138q0 72 -7 135.5t-25.5 110.5t-48.5 74t-73 27q-84 0 -134 -82t-50 -256z" />
<glyph unicode="&#x445;" horiz-adv-x="894" d="M8 98q0 25 12.5 52.5t30.5 54.5l232 346l-236 342q-12 18 -17 37.5t-5 38.5q0 47 36.5 85t96.5 38q41 0 69.5 -21.5t51.5 -60.5l165 -269l152 260q23 37 47.5 64t75.5 27q59 0 93 -34t34 -81q0 -43 -27 -84l-217 -332l242 -379q25 -37 24 -80q0 -43 -36.5 -79.5 t-96.5 -36.5q-51 0 -77.5 27.5t-47.5 58.5l-174 272l-180 -287q-18 -29 -47 -50t-76 -21q-63 0 -94 33.5t-31 78.5z" />
<glyph unicode="&#x446;" horiz-adv-x="1150" d="M119 109v872q0 61 28.5 86t92.5 25q63 0 90.5 -29t27.5 -82v-758h363v758q0 61 28.5 86t94.5 25t92.5 -28t26.5 -83v-758h43q59 0 88.5 -23.5t29.5 -84.5v-299q0 -63 -31.5 -89t-86.5 -26q-63 0 -91 27.5t-28 89.5v182h-654q-57 0 -85.5 24.5t-28.5 84.5z" />
<glyph unicode="&#x447;" horiz-adv-x="1011" d="M78 739v248q0 55 31.5 80t85.5 25q59 0 90.5 -25t31.5 -80v-205q0 -45 5.5 -76.5t21.5 -52t47 -31t84 -10.5q84 0 174 19v348q0 63 33 88t88 25t89 -25t34 -88v-885q0 -109 -121 -108q-51 0 -87 24.5t-36 83.5v328q-57 -10 -109.5 -15.5t-105.5 -5.5q-94 0 -161.5 17.5 t-110.5 57.5t-63.5 104.5t-20.5 158.5z" />
<glyph unicode="&#x448;" horiz-adv-x="1355" d="M119 109v872q0 61 28.5 86t92.5 25q63 0 90.5 -29t27.5 -82v-758h201v758q0 61 29.5 86t89.5 25q66 0 93.5 -29t27.5 -82v-758h196v758q0 61 31 86t90 25q66 0 93.5 -28t27.5 -83v-872q0 -59 -31.5 -84t-85.5 -25h-887q-57 0 -85.5 24.5t-28.5 84.5z" />
<glyph unicode="&#x449;" horiz-adv-x="1421" d="M119 109v872q0 61 29.5 86t91.5 25q66 0 93 -29t27 -82v-758h197v758q0 61 29.5 86t89.5 25q66 0 94.5 -29t28.5 -82v-758h192v758q0 61 30 86t89 25q66 0 94.5 -28t28.5 -83v-758h43q61 0 90 -23.5t29 -84.5v-299q0 -63 -31 -89t-90 -26q-61 0 -89 27.5t-28 89.5v182 h-921q-57 0 -87 24.5t-30 84.5z" />
<glyph unicode="&#x44a;" horiz-adv-x="1054" d="M-4 961q0 53 24.5 81.5t85.5 28.5h207q59 0 83 -24.5t24 -83.5v-279h160q82 0 157.5 -13.5t133 -50t92 -101t34.5 -167.5q0 -166 -101 -259t-302 -93h-295q-115 0 -115 106v742h-75q-66 0 -89.5 29.5t-23.5 83.5zM420 207h176q86 0 121 40t35 97q0 59 -34 98t-130 39 h-168v-274z" />
<glyph unicode="&#x44b;" horiz-adv-x="1419" d="M119 104v877q0 59 29.5 85t87.5 26q66 0 93 -25t27 -84v-297h156q86 0 161 -14.5t132 -52t90 -102t33 -165.5q0 -166 -102.5 -259t-301.5 -93h-291q-53 0 -83.5 25.5t-30.5 78.5zM356 205h160q90 0 128 38t38 101q0 61 -37 99t-141 38h-148v-276zM1059 98v875 q0 63 27.5 91t93.5 28q59 0 89.5 -25t30.5 -90v-877q0 -66 -30.5 -90t-89.5 -24q-63 0 -92 24.5t-29 87.5z" />
<glyph unicode="&#x44c;" horiz-adv-x="985" d="M119 106v877q0 59 30.5 84t86.5 25q66 0 93 -24t27 -85v-295h154q82 0 157.5 -14.5t133 -51t92.5 -102t35 -168.5q0 -164 -102.5 -258t-301.5 -94h-291q-53 0 -83.5 25.5t-30.5 80.5zM356 205h174q84 0 118 41t34 100t-35 97t-133 38h-158v-276z" />
<glyph unicode="&#x44d;" horiz-adv-x="1021" d="M61 860q0 37 31 79t88.5 79t135 61.5t173.5 24.5q223 0 343 -139.5t120 -417.5q0 -104 -25.5 -209t-83 -187.5t-150.5 -134t-230 -51.5q-98 0 -187.5 31t-154.5 96q-55 55 -55 113q0 47 35.5 83t80.5 36q29 0 46.5 -12.5t39.5 -35.5q31 -33 75 -60.5t122 -27.5 q55 0 96 19.5t67.5 53.5t41 77t16.5 90h-311q-109 0 -109 109q0 59 26.5 83.5t80.5 24.5h313q-4 43 -15.5 84t-35 75t-60 54.5t-92.5 20.5q-68 0 -112.5 -20.5t-94.5 -57.5q-25 -18 -48 -34.5t-56 -16.5q-53 0 -82 31.5t-29 78.5z" />
<glyph unicode="&#x44e;" horiz-adv-x="1521" d="M119 98v873q0 121 121 121q59 0 89.5 -26t30.5 -91v-328h156q33 217 152.5 337t316.5 120q113 0 200 -40t146.5 -113.5t90 -178t30.5 -231.5q0 -129 -31.5 -234.5t-93 -181.5t-149.5 -118t-201 -42q-213 0 -326.5 122t-136.5 339h-154v-334q0 -59 -30.5 -82.5 t-89.5 -23.5t-90 24.5t-31 87.5zM756 537q0 -156 52 -250t169 -94q119 0 171 94t52 250t-51 248t-170 92q-117 0 -170 -92.5t-53 -247.5z" />
<glyph unicode="&#x44f;" horiz-adv-x="952" d="M27 86q0 16 7 35.5t17 36.5l164 297q-88 53 -122 127.5t-34 148.5q0 156 93.5 248t291.5 92h285q53 0 84 -26.5t31 -77.5v-875q0 -59 -30 -82.5t-89 -23.5q-66 0 -92.5 26.5t-26.5 77.5v303h-160l-184 -338q-18 -35 -38.5 -52t-65.5 -17q-59 0 -95 28.5t-36 71.5z M311 733q0 -57 35 -97t121 -40h139v272h-149q-80 0 -113 -38t-33 -97z" />
<glyph unicode="&#x450;" horiz-adv-x="1054" d="M70 526q0 109 27.5 212.5t87 185.5t149.5 131t217 49q201 0 320.5 -136.5t119.5 -394.5q0 -59 -32.5 -81.5t-92.5 -22.5h-534q4 -135 63.5 -208t169.5 -73q66 0 104 15.5t83 44.5l49 33q25 16 57 16q39 0 72 -35t33 -86q0 -53 -41 -93t-102.5 -66.5t-132.5 -39 t-130 -12.5q-231 0 -359 143.5t-128 417.5zM295 1487q0 43 32.5 80t85.5 37q35 0 66 -18.5t63 -61.5l119 -164q29 -41 29 -80t-26.5 -60.5t-63.5 -21.5q-31 0 -55.5 14.5t-45.5 34.5l-166 158q-39 37 -38 82zM340 672h397q0 43 -11 82t-34.5 68.5t-60.5 48t-86 18.5 q-78 0 -136.5 -57.5t-68.5 -159.5z" />
<glyph unicode="&#x451;" horiz-adv-x="1054" d="M70 526q0 109 27.5 212.5t87 185.5t149.5 131t217 49q201 0 320.5 -136.5t119.5 -394.5q0 -59 -32.5 -81.5t-92.5 -22.5h-534q4 -135 63.5 -208t169.5 -73q66 0 104 15.5t83 44.5l49 33q25 16 57 16q39 0 72 -35t33 -86q0 -53 -41 -93t-102.5 -66.5t-132.5 -39 t-130 -12.5q-231 0 -359 143.5t-128 417.5zM203 1366q0 61 36.5 100t96.5 39q51 0 92 -33.5t41 -105.5q0 -63 -37 -101t-96 -38t-96 38t-37 101zM340 672h397q0 43 -11 82t-34.5 68.5t-60.5 48t-86 18.5q-78 0 -136.5 -57.5t-68.5 -159.5zM633 1366q0 61 37 100t96 39 q49 0 91 -33.5t42 -105.5q0 -63 -37 -101t-96 -38t-96 38t-37 101z" />
<glyph unicode="&#x452;" horiz-adv-x="1107" d="M-16 1212q0 45 20.5 70t50.5 25h64v10q0 55 30.5 87t100.5 32q49 0 87 -25t38 -96v-8h248q35 0 50 -27t15 -68q0 -53 -17.5 -75.5t-49.5 -22.5h-246v-285q35 55 105.5 103.5t172.5 48.5q98 0 161 -30.5t108 -94.5q49 -70 57 -158t8 -163v-664q0 -70 -18.5 -130 t-56.5 -104.5t-95 -69t-137 -24.5q-45 0 -90 6.5t-81 20.5t-58.5 39.5t-22.5 62.5q0 53 23.5 91t68.5 38q20 0 36.5 -7t32 -16t33 -16.5t42.5 -7.5q68 0 67 109l2 686q0 88 -16 131q-16 41 -51 57.5t-82 16.5q-49 0 -84 -16.5t-59.5 -41t-38 -53.5t-17.5 -53q-8 -37 -9 -84 t-1 -80v-336q0 -63 -30 -91t-101 -28q-57 0 -91 27t-34 88v1028h-53q-45 0 -63.5 27.5t-18.5 70.5z" />
<glyph unicode="&#x453;" horiz-adv-x="829" d="M119 100v861q0 55 30.5 82.5t83.5 27.5h467q61 0 87 -24.5t26 -85.5q0 -53 -24.5 -83t-88.5 -30h-340v-748q0 -59 -27.5 -86.5t-92.5 -27.5q-59 0 -90 25.5t-31 88.5zM330 1280q0 39 28 80l121 164q33 43 62.5 60.5t64.5 17.5q53 0 87 -36t34 -79q0 -45 -37 -82 l-168 -158q-23 -20 -46.5 -34.5t-55.5 -14.5q-35 0 -62.5 21.5t-27.5 60.5z" />
<glyph unicode="&#x454;" horiz-adv-x="1007" d="M70 522q0 137 35.5 246t100 183.5t156 113.5t201.5 39q94 0 168 -24.5t125 -61.5t76.5 -80t25.5 -80q0 -47 -32.5 -80t-85.5 -33q-33 0 -56.5 16.5t-46.5 39.5q-39 39 -79 58.5t-107 19.5q-55 0 -94 -20.5t-64.5 -54.5t-39 -75t-17.5 -84h313q53 0 80 -24.5t27 -83.5 q0 -109 -109 -109h-311q2 -47 16.5 -90t41 -77t67.5 -53.5t96 -19.5q76 0 118 30t73 63q23 23 40 35t46 12q53 0 92 -49q25 -35 24 -70q0 -57 -55 -113q-66 -66 -154 -98.5t-186 -32.5q-135 0 -228.5 47t-149.5 126t-81.5 179.5t-25.5 204.5z" />
<glyph unicode="&#x455;" horiz-adv-x="917" d="M51 156q0 47 29 88t82 41q29 0 54.5 -18.5t57 -41t74.5 -41t107 -18.5q78 0 115.5 35t37.5 90q0 47 -26.5 79.5t-104.5 47.5l-110 20q-68 12 -124.5 35t-96.5 61.5t-62.5 93t-22.5 132.5q0 82 30 145.5t83 107.5t127 67.5t164 23.5q129 0 212 -32t122 -68q45 -43 45 -89 q0 -43 -24.5 -75.5t-65.5 -32.5q-23 0 -43.5 7t-42.5 22q-37 23 -87.5 42t-121.5 19q-78 0 -114 -28.5t-36 -75.5q0 -18 5 -38t19.5 -36.5t41 -30.5t67.5 -22l99 -21q82 -18 142 -44t98 -63.5t56.5 -92t18.5 -128.5q0 -174 -111.5 -263t-306.5 -89q-111 0 -197.5 29 t-142.5 72q-23 18 -35 42.5t-12 47.5z" />
<glyph unicode="&#x456;" horiz-adv-x="495" d="M106 1354q0 66 40 108.5t104 42.5q53 0 98 -36.5t45 -114.5q0 -70 -39 -111t-104 -41q-66 0 -105 41t-39 111zM119 96v873q0 123 133 123q47 0 85 -26t38 -85v-881q0 -61 -33 -87.5t-92 -26.5q-131 0 -131 110z" />
<glyph unicode="&#x457;" horiz-adv-x="495" d="M-35 1364q0 76 30 108.5t87 32.5t87 -32.5t30 -108.5q0 -72 -30 -104.5t-87 -32.5t-87 32.5t-30 104.5zM119 96v873q0 123 133 123q47 0 85 -26t38 -85v-881q0 -61 -33 -87.5t-92 -26.5q-131 0 -131 110zM301 1364q0 76 29 108.5t86 32.5t86.5 -32.5t29.5 -108.5 q0 -72 -29.5 -104.5t-86.5 -32.5t-86 32.5t-29 104.5z" />
<glyph unicode="&#x458;" horiz-adv-x="495" d="M-184 -328q0 53 23.5 91t68.5 38q20 0 36.5 -7t32 -16t33 -16.5t41.5 -7.5q68 0 68 109v1110q0 61 33.5 90t93.5 29q70 0 99.5 -31t29.5 -86v-1104q0 -70 -18.5 -130t-56.5 -104.5t-95.5 -69t-136.5 -24.5q-45 0 -90.5 6.5t-81 20.5t-58 39.5t-22.5 62.5zM106 1354 q0 66 40 108.5t104 42.5q53 0 98 -36.5t45 -114.5q0 -70 -38.5 -111t-104.5 -41t-105 41t-39 111z" />
<glyph unicode="&#x459;" horiz-adv-x="1519" d="M-4 94q0 41 18.5 68.5t71.5 34.5q41 4 62.5 37.5t35.5 117.5q12 68 17.5 135.5t9.5 128.5l14 349q4 106 115 106h448q66 0 92.5 -25.5t26.5 -82.5v-277h135q86 0 161 -14.5t132.5 -52t90 -102t32.5 -165.5q0 -166 -102.5 -259t-300.5 -93h-271q-53 0 -83.5 25.5 t-30.5 78.5v744h-217l-11 -242q-4 -104 -15 -213.5t-43 -201t-94.5 -148.5t-168.5 -57q-78 0 -101.5 28.5t-23.5 79.5zM907 205h140q90 0 127.5 38t37.5 101q0 61 -36.5 99t-141.5 38h-127v-276z" />
<glyph unicode="&#x45a;" horiz-adv-x="1574" d="M119 98v883q0 63 29.5 87t89.5 24q59 0 89.5 -24t30.5 -87v-322h367v322q0 63 34 87t89 24t85 -24t30 -87v-322h135q86 0 160.5 -13t132 -49t90 -98.5t32.5 -162.5q0 -166 -102 -251t-301 -85h-270q-53 0 -84 25.5t-31 78.5v342h-367v-348q0 -55 -27.5 -83.5t-92.5 -28.5 q-61 0 -90 24.5t-29 87.5zM963 205h139q90 0 128 30t38 93q0 61 -35 89.5t-131 28.5h-139v-241z" />
<glyph unicode="&#x45b;" horiz-adv-x="1107" d="M-16 1212q0 45 20.5 70t50.5 25h64v10q0 55 30.5 87t100.5 32q49 0 87 -25t38 -96v-8h248q35 0 50 -27t15 -68q0 -53 -17.5 -75.5t-49.5 -22.5h-246v-285q35 55 105.5 103.5t172.5 48.5q98 0 161 -30.5t108 -94.5q49 -70 57 -158t8 -163v-451q0 -59 -30.5 -86t-96.5 -27 q-55 0 -91 26t-36 87v465q0 88 -16 131q-16 41 -51 57.5t-82 16.5q-49 0 -84 -16.5t-59.5 -41t-38 -53.5t-17.5 -53q-8 -37 -9 -84t-1 -80v-336q0 -63 -30 -91t-101 -28q-57 0 -91 27t-34 88v1028h-53q-45 0 -63.5 27.5t-18.5 70.5z" />
<glyph unicode="&#x45c;" horiz-adv-x="950" d="M119 98v885q0 57 32.5 83t88.5 26q119 0 118 -109v-336h82l248 387q18 29 37.5 43.5t52.5 14.5q53 0 91 -33t38 -72q0 -14 -5 -32.5t-17 -36.5l-240 -365l260 -389q12 -18 20.5 -34.5t8.5 -33.5q0 -23 -12.5 -43t-31 -35.5t-42 -23.5t-47.5 -8q-39 0 -60.5 15t-44.5 48 l-254 381h-84v-332q0 -12 -1 -31.5t-12 -38t-35.5 -30.5t-71.5 -12q-59 0 -89 26.5t-30 85.5zM375 1280q0 39 28 80l121 164q33 43 62.5 60.5t64.5 17.5q53 0 87 -36t34 -79q0 -45 -37 -82l-168 -158q-23 -20 -46.5 -34.5t-55.5 -14.5q-35 0 -62.5 21.5t-27.5 60.5z" />
<glyph unicode="&#x45d;" horiz-adv-x="1101" d="M119 100v879q0 63 31.5 88t87.5 25q59 0 89.5 -25t30.5 -88v-580l383 619q27 43 54.5 58.5t64.5 15.5q57 0 90 -26t33 -91v-877q0 -63 -30.5 -87.5t-92.5 -24.5q-66 0 -92.5 28.5t-26.5 83.5v559l-372 -598q-27 -41 -57.5 -57t-75.5 -16q-72 0 -94.5 30.5t-22.5 83.5z M312 1487q0 43 32.5 80t85.5 37q35 0 66 -18.5t63 -61.5l119 -164q29 -41 29 -80t-26.5 -60.5t-63.5 -21.5q-31 0 -55.5 14.5t-45.5 34.5l-166 158q-39 37 -38 82z" />
<glyph unicode="&#x45e;" d="M14 977q0 53 37 84t103 31q55 0 82.5 -24t42.5 -64l210 -629l224 626q16 47 41.5 69t74.5 22q66 0 99 -34t33 -83q0 -16 -3.5 -38t-13.5 -44l-481 -1223q-23 -53 -54.5 -83.5t-78.5 -30.5q-61 0 -93 35.5t-32 78.5q0 25 8 52.5t18 48.5l123 290l-323 834 q-12 31 -14.5 49.5t-2.5 32.5zM215 1415q0 45 29.5 66.5t76.5 21.5q31 0 47.5 -15t28.5 -46q16 -45 38 -65.5t77 -20.5q53 0 77.5 23.5t39.5 66.5q10 29 24.5 43t44.5 14q53 0 81 -23.5t28 -62.5t-17.5 -78t-54.5 -70.5t-92 -51t-131 -19.5q-78 0 -134.5 19.5t-92 50 t-53 69.5t-17.5 78z" />
<glyph unicode="&#x45f;" horiz-adv-x="1085" d="M119 106v873q0 63 30.5 88t90.5 25q66 0 93 -29t27 -84v-756h365v756q0 63 30.5 88t90.5 25q66 0 93.5 -29t27.5 -84v-873q0 -59 -30 -82.5t-85 -23.5h-178v-184q0 -63 -32 -88t-87 -25q-61 0 -91 27.5t-30 89.5v180h-198q-53 0 -85 22.5t-32 83.5z" />
<glyph unicode="&#x462;" horiz-adv-x="1370" d="M33 1178q0 47 22.5 83.5t69.5 36.5h246v150q0 59 35.5 85t95.5 26q59 0 92 -26t33 -85v-150h334q47 0 70.5 -36.5t23.5 -83.5t-21.5 -83t-75.5 -36h-331v-223h202q106 0 195.5 -19.5t153 -64.5t99.5 -121t36 -189q0 -117 -37 -200.5t-103.5 -137t-158.5 -79t-203 -25.5 h-338q-102 0 -102 104v955h-242q-53 0 -74.5 35.5t-21.5 83.5zM627 227h217q96 0 149.5 54.5t53.5 146.5q0 88 -49.5 137t-153.5 49h-217v-387z" />
<glyph unicode="&#x463;" horiz-adv-x="1040" d="M-6 961q0 35 13 65.5t44 30.5h156v203q0 123 133 122q47 0 85 -26.5t38 -83.5v-215h190q37 0 52.5 -28t15.5 -68q0 -106 -70 -107h-188v-160h172q82 0 148.5 -18.5t113.5 -58t72.5 -102t25.5 -150.5q0 -180 -105.5 -272.5t-291.5 -92.5h-285q-49 0 -77.5 23.5t-28.5 72.5 v758h-154q-31 0 -45 36t-14 71zM463 205h160q59 0 85.5 45t26.5 104q0 57 -24.5 97.5t-96.5 40.5h-151v-287z" />
<glyph unicode="&#x472;" horiz-adv-x="1417" d="M86 696q0 166 44 305.5t125 240.5t196 157.5t258 56.5q150 0 265.5 -55t195 -154.5t120.5 -237t41 -300.5q0 -168 -43 -305.5t-124 -234.5t-196.5 -150.5t-258.5 -53.5q-152 0 -267.5 52.5t-194.5 147.5t-120 230t-41 301zM360 600q16 -186 102.5 -289.5t246.5 -103.5 t244.5 103.5t103.5 289.5h-697zM365 838h686q-23 166 -107.5 269t-234.5 103q-152 0 -237 -103t-107 -269z" />
<glyph unicode="&#x473;" horiz-adv-x="1122" d="M70 535q0 131 35.5 236.5t101 179t156 113.5t200.5 40q111 0 201 -36t154.5 -106.5t99.5 -177t35 -245.5q0 -133 -36 -239.5t-100.5 -180.5t-154.5 -114t-201 -40q-115 0 -205 40t-154.5 114t-98 179.5t-33.5 236.5zM338 635h450q-34 239 -227 239q-92 0 -149.5 -60 t-73.5 -179zM340 424q18 -119 75.5 -177.5t145.5 -58.5q92 0 150.5 58.5t76.5 177.5h-448z" />
<glyph unicode="&#x474;" horiz-adv-x="1271" d="M20 1321q0 53 38 84t108 31q51 0 83 -22.5t42 -59.5l309 -1000q31 125 56.5 231.5t51 202t52 183.5t57.5 176q23 66 51.5 119t67.5 91t90 58.5t121 20.5q84 0 108.5 -28t24.5 -77q0 -43 -20.5 -78.5t-85.5 -42.5q-45 -4 -75 -48t-65 -156q-47 -145 -89 -296t-89 -304 l-96 -320q-16 -55 -60.5 -77.5t-101.5 -22.5q-74 0 -115 30.5t-57 77.5l-389 1145q-10 27 -13.5 48.5t-3.5 33.5z" />
<glyph unicode="&#x475;" horiz-adv-x="1030" d="M12 985q0 53 38 82t104 29q55 0 81.5 -22.5t40.5 -63.5l183 -535q16 -47 26.5 -86t14.5 -67q4 29 14 73.5t21 81.5q29 121 51 199t45 147q29 80 55.5 123t54.5 72q29 29 78 49t111 20q68 0 92.5 -28.5t24.5 -81.5q0 -31 -17.5 -62.5t-60.5 -54.5q-16 -8 -35 -21.5 t-29 -25.5q-10 -14 -26.5 -43t-32.5 -72q-29 -78 -51.5 -145.5t-47 -140t-51 -155.5t-61.5 -187q-16 -49 -49 -67.5t-99 -18.5q-74 0 -101.5 27.5t-39.5 62.5l-317 829q-10 27 -13.5 48.5t-3.5 33.5z" />
<glyph unicode="&#x48a;" horiz-adv-x="1386" d="M133 117v1200q0 66 35 92.5t92 26.5q59 0 92 -27t33 -92v-873l500 899q33 59 68.5 76t76.5 17q57 0 95 -32t38 -101v-1057h74q55 0 93 -39t38 -94q0 -10 -2 -21l-100 -346q-31 -106 -127 -106q-55 0 -93 33.5t-38 88.5q0 12 1 20.5t3 16.5l49 189q-14 -2 -29 -2 q-74 0 -98.5 36.5t-24.5 83.5v836l-508 -870q-51 -86 -143 -86q-43 0 -67.5 12t-37 30.5t-16.5 42t-4 46.5zM367 1739q0 45 29.5 66.5t76.5 21.5q31 0 47.5 -15.5t28.5 -46.5q16 -45 37.5 -65.5t77.5 -20.5q53 0 77.5 23.5t38.5 66.5q10 29 24.5 43.5t45.5 14.5 q53 0 80.5 -23.5t27.5 -62.5t-17 -78t-54 -70.5t-92.5 -51t-130.5 -19.5q-78 0 -134.5 19.5t-92.5 50t-53 69.5t-17 78z" />
<glyph unicode="&#x48b;" horiz-adv-x="1157" d="M119 100v879q0 63 31.5 88t87.5 25q59 0 89.5 -25t30.5 -88v-580l383 619q27 43 54.5 58.5t64.5 15.5q57 0 90 -26t33 -91v-748h43q47 0 81 -34.5t34 -83.5q0 -14 -2 -19l-84 -299q-27 -94 -117 -94q-47 0 -80 29.5t-33 78.5q0 14 4 35l37 146h-6q-66 0 -92.5 28.5 t-26.5 83.5v559l-372 -598q-27 -41 -57.5 -57t-75.5 -16q-72 0 -94.5 30.5t-22.5 83.5zM272 1415q0 45 30 66.5t77 21.5q31 0 47 -15t29 -46q16 -45 37.5 -65.5t76.5 -20.5q53 0 78 23.5t39 66.5q10 29 24.5 43t45.5 14q53 0 80.5 -23.5t27.5 -62.5t-17.5 -78t-54 -70.5 t-92 -51t-131.5 -19.5q-78 0 -134 19.5t-92 50t-53.5 69.5t-17.5 78z" />
<glyph unicode="&#x48c;" horiz-adv-x="1220" d="M-2 1096q0 47 22.5 82.5t73.5 35.5h101v103q0 57 28.5 88t100.5 31t100.5 -30t28.5 -85v-107h151q47 0 70.5 -35.5t23.5 -82.5t-22.5 -83t-75.5 -36h-147v-162h204q106 0 195.5 -19.5t154 -63.5t99.5 -117.5t35 -180.5q0 -111 -37 -192.5t-103.5 -135t-158.5 -80 t-201 -26.5h-344q-51 0 -76.5 34t-25.5 87v856h-95q-57 0 -79.5 36t-22.5 83zM453 227h219q94 0 148 53.5t54 135.5q0 76 -49 126t-153 50h-219v-365z" />
<glyph unicode="&#x48d;" horiz-adv-x="966" d="M-10 870q0 35 13 67t44 32h86v88q0 117 133 117q47 0 85 -26t38 -91v-88h152q37 0 52 -29t15 -70q0 -104 -69 -104h-150v-117h172q82 0 148.5 -17.5t113.5 -54t73 -94t26 -137.5q0 -168 -105.5 -257t-292.5 -89h-284q-49 0 -78 23.5t-29 72.5v670h-84q-31 0 -45 35 t-14 69zM389 205h160q59 0 86 38t27 89q0 47 -25 82t-96 35h-152v-244z" />
<glyph unicode="&#x48e;" horiz-adv-x="1112" d="M131 106v1219q0 45 28.5 70.5t73.5 25.5h363q246 0 357.5 -118.5t111.5 -335.5q0 -74 -20.5 -153t-71.5 -144q-31 -39 -76 -72l72 -125q8 -16 12 -29.5t4 -35.5q0 -39 -37 -70t-82 -31q-31 0 -49 14.5t-37 45.5l-92 155q-39 -4 -82 -4h-221v-416q0 -47 -24.5 -81.5 t-98.5 -34.5q-131 0 -131 120zM385 743h174l-65 115q-14 23 -15 53q0 47 40 78t87 31q55 0 90 -62l74 -133q16 25 25 54q12 41 12 86q0 43 -11.5 84t-37 72.5t-68.5 51t-106 19.5h-199v-449z" />
<glyph unicode="&#x48f;" horiz-adv-x="1124" d="M119 -324v1293q0 53 31.5 88t101.5 35q45 0 83 -21.5t38 -85.5v-39q14 25 38.5 53.5t60.5 53t80 40t99 15.5q100 0 175 -42t126.5 -118t77 -180t25.5 -229q0 -123 -29 -228.5t-84 -183.5q-8 -10 -14 -18l59 -107q8 -16 12.5 -29.5t4.5 -35.5q0 -39 -37 -70t-82 -31 q-31 0 -50.5 13.5t-35.5 46.5l-51 88q-57 -18 -121 -19q-74 0 -122 19.5t-81 44.5q-16 14 -31.5 29.5t-25.5 33.5v-409q0 -63 -29 -91t-98 -28q-121 0 -121 112zM365 530q0 -74 13 -138t40.5 -110t68.5 -73t97 -27q23 0 45 4l-117 201v-2q-14 27 -14 55q0 47 40 78t87 31 q55 0 90 -62l69 -122q4 14 9 30q14 63 14 135q0 70 -14.5 133.5t-43 110.5t-69.5 75t-96 28t-96.5 -28t-69 -75t-40.5 -110.5t-13 -133.5z" />
<glyph unicode="&#x490;" horiz-adv-x="1028" d="M133 106v1213q0 45 26.5 73.5t73.5 28.5h541v170q0 63 31 92t100 29q74 0 100.5 -37t26.5 -84v-293q0 -61 -35.5 -87.5t-91.5 -26.5h-514v-1078q0 -47 -26.5 -83.5t-100.5 -36.5q-70 0 -100.5 28.5t-30.5 91.5z" />
<glyph unicode="&#x491;" horiz-adv-x="829" d="M119 100v861q0 55 30.5 82.5t83.5 27.5h342v146q0 61 28 88.5t91 27.5q55 0 87 -25.5t32 -88.5v-263q0 -61 -29.5 -84.5t-89.5 -23.5h-334v-748q0 -59 -27.5 -86.5t-92.5 -27.5q-59 0 -90 25.5t-31 88.5z" />
<glyph unicode="&#x492;" horiz-adv-x="1015" d="M8 719q0 53 21.5 86t76.5 33h80v481q0 45 27 73.5t74 28.5h631q102 0 102 -118q0 -53 -21.5 -86t-74.5 -33h-480v-346h248q47 0 73 -33t26 -86t-23 -86t-76 -33h-248v-494q0 -47 -26.5 -83.5t-100.5 -36.5q-70 0 -100.5 28.5t-30.5 91.5v494h-80q-51 0 -74.5 33t-23.5 86 z" />
<glyph unicode="&#x493;" horiz-adv-x="829" d="M-23 522q0 35 14.5 65.5t45.5 30.5h82v343q0 55 30.5 82.5t83.5 27.5h467q61 0 87 -24.5t26 -85.5q0 -53 -24.5 -83t-88.5 -30h-340v-230h166q37 0 52.5 -27.5t15.5 -68.5q0 -104 -70 -104h-164v-318q0 -59 -27.5 -86.5t-92.5 -27.5q-59 0 -90 25.5t-31 88.5v318h-80 q-33 0 -47.5 34.5t-14.5 69.5z" />
<glyph unicode="&#x494;" horiz-adv-x="1124" d="M133 106v1213q0 45 26.5 73.5t73.5 28.5h627q102 0 103 -118q0 -53 -21.5 -86t-75.5 -33h-475v-305q49 10 101 18q53 8 100 8q119 0 204 -24.5t138 -96t78.5 -200.5t25.5 -340q0 -367 -115.5 -535t-328.5 -168q-68 0 -115 7.5t-79.5 18.5t-56.5 25.5t-42 30.5 q-43 37 -43 88q0 53 27.5 95t81.5 42q23 0 38 -9t27 -21q23 -20 56.5 -39t109.5 -19q88 0 134 110t46 374q0 106 -6 185t-26.5 131t-60.5 77t-107 25q-43 0 -93 -9q-45 -6 -94 -16v-531q0 -47 -26.5 -83.5t-100.5 -36.5q-70 0 -100.5 28.5t-30.5 91.5z" />
<glyph unicode="&#x495;" horiz-adv-x="1030" d="M119 100v861q0 55 30.5 82.5t83.5 27.5h467q61 0 87 -24.5t26 -85.5q0 -53 -24.5 -83t-88.5 -30h-340v-242q51 16 96.5 21.5t92.5 5.5q100 0 178 -36t129 -100.5t78 -153.5t27 -196q0 -293 -121 -448.5t-336 -155.5q-135 0 -213 25.5t-117 58.5q-43 37 -43 88 q0 53 27.5 94t81.5 41q23 0 40 -9t37 -21q29 -18 72 -37t119 -19q43 0 80 27t63.5 73t42 107.5t15.5 132.5q0 154 -54.5 225.5t-134.5 71.5q-53 0 -88 -12t-72 -31v-258q0 -59 -27.5 -86.5t-92.5 -27.5q-59 0 -90 25.5t-31 88.5z" />
<glyph unicode="&#x496;" horiz-adv-x="1755" d="M27 111q0 33 24 63l336 559l-272 479q-16 29 -28.5 60t-12.5 53q0 27 12 47.5t32.5 34.5t45 21.5t47.5 7.5q39 0 62.5 -19.5t41.5 -54.5l295 -524h140v483q0 61 35.5 88t95.5 27q55 0 91 -27t36 -88v-483h137l295 524q18 35 41.5 54.5t62.5 19.5q23 0 47.5 -7.5t44 -21.5 t32.5 -34.5t13 -47.5q0 -23 -12 -53.5t-29 -59.5l-272 -479l336 -559q25 -31 25 -63v-351q0 -47 -27 -83.5t-100 -36.5q-70 0 -101 28.5t-31 91.5v299l-325 545h-137v-498q0 -47 -27 -83.5t-100 -36.5q-70 0 -100.5 28.5t-30.5 91.5v498h-140l-319 -534q-23 -39 -49.5 -61.5 t-69.5 -22.5q-66 0 -105.5 38.5t-39.5 86.5z" />
<glyph unicode="&#x497;" horiz-adv-x="1335" d="M16 92q0 27 15.5 54.5t27.5 50.5l199 360l-172 315q-16 31 -28.5 61t-12.5 54q0 41 39 73t90 32q35 0 56.5 -13.5t37.5 -48.5l191 -381h88v334q0 59 32.5 84t88.5 25q121 0 120 -109v-334h89l196 381q33 61 94 62q49 0 87 -26t38 -67q0 -29 -11 -55t-28 -57l-174 -336 l224 -401q16 -29 16 -60v-276q0 -23 -3 -43.5t-15.5 -37t-37 -25.5t-65.5 -9q-57 0 -89 24.5t-32 88.5v260l-190 352h-99v-324q0 -23 -3 -43t-15 -36.5t-36.5 -25.5t-65.5 -9q-57 0 -89 24.5t-32 87.5v326h-98l-205 -371q-18 -35 -39 -51t-68 -16q-51 0 -86 32.5t-35 73.5z " />
<glyph unicode="&#x498;" horiz-adv-x="1112" d="M6 244q0 27 13.5 51t34 42.5t45 30t46.5 11.5q29 0 54.5 -16.5t50.5 -40.5q18 -18 40.5 -40t54.5 -40.5t78 -29.5t114 -11q117 0 178 51t61 156q0 111 -70.5 157.5t-211.5 46.5h-156q-57 0 -76.5 34t-19.5 83q0 47 19.5 80t76.5 33h176q117 0 175.5 57t58.5 150 q0 72 -47.5 121t-159.5 49q-53 0 -92 -10.5t-68 -27t-49.5 -36t-38.5 -37.5q-29 -31 -53.5 -52.5t-65.5 -21.5q-45 0 -84 33t-39 84q0 35 18.5 67t36.5 52q25 27 63 58.5t93 60t130 48t173 19.5q117 0 201 -30.5t139.5 -83t81 -122t25.5 -149.5q0 -104 -52.5 -190 t-134.5 -138q106 -41 166 -126t60 -201q0 -205 -112 -317.5t-333 -129.5l-14 -55q86 -6 131 -51t45 -119q0 -98 -60.5 -160.5t-170.5 -62.5q-70 0 -114 17.5t-63 33.5q-27 25 -26 63q0 31 18.5 56.5t46.5 25.5q16 0 33 -6l29 -14q14 -8 31.5 -15.5t44.5 -7.5q72 0 71 64 q0 59 -100 59q-23 0 -46.5 4t-23.5 29q0 10 5.5 29.5t9.5 29.5l20 78q-111 6 -189.5 32t-131.5 62q-80 51 -113 97.5t-33 85.5z" />
<glyph unicode="&#x499;" horiz-adv-x="892" d="M16 184q0 23 11.5 44.5t29 38t39 26.5t41.5 10q29 0 49.5 -13.5t40.5 -33.5q27 -29 77 -55.5t126 -26.5t118 34t42 93q0 66 -42 105.5t-124 39.5h-143q-61 0 -83 32t-22 75q0 39 21.5 70.5t83.5 31.5h139q70 0 107.5 35t37.5 96q0 104 -127 105q-72 0 -110.5 -21.5 t-75.5 -54.5q-18 -16 -38.5 -32.5t-51.5 -16.5q-43 0 -82 32.5t-39 80.5q0 29 15.5 53t31.5 43q20 20 53 42.5t78 42t102.5 32t127.5 12.5q100 0 168.5 -23.5t111.5 -64.5t61.5 -94.5t18.5 -110.5q0 -78 -40 -144.5t-101 -105.5q86 -37 127 -105.5t41 -150.5 q0 -147 -89.5 -235t-263.5 -103l-14 -53q86 -6 131 -51t45 -119q0 -98 -60.5 -160.5t-170.5 -62.5q-70 0 -114 17.5t-62 33.5q-27 25 -27 63q0 31 18.5 56.5t46.5 25.5q16 0 33 -6l29 -14q14 -8 31.5 -15.5t44.5 -7.5q72 0 71 64q0 59 -100 59q-23 0 -46.5 4t-23.5 29 q0 10 5.5 29.5t9.5 29.5l20 80q-113 10 -176 44t-98 63q-59 53 -60 108z" />
<glyph unicode="&#x49a;" horiz-adv-x="1181" d="M133 106v1215q0 61 36 88t95 27q55 0 91 -27t36 -88v-483h129l344 524q20 33 43 53.5t62 20.5q23 0 48 -8.5t45.5 -23.5t34 -36.5t13.5 -48.5q0 -23 -14.5 -51.5t-30.5 -55.5l-315 -477l378 -561q25 -31 25 -63v-351q0 -47 -26.5 -83.5t-100.5 -36.5q-70 0 -100.5 28.5 t-30.5 91.5v301l-375 543h-129v-498q0 -47 -26.5 -83.5t-100.5 -36.5q-70 0 -100.5 28.5t-30.5 91.5z" />
<glyph unicode="&#x49b;" horiz-adv-x="950" d="M119 98v885q0 57 32.5 83t88.5 26q119 0 118 -109v-336h82l248 387q18 29 37.5 43.5t52.5 14.5q53 0 91 -33t38 -72q0 -14 -5 -32.5t-17 -36.5l-240 -365l260 -389q12 -18 20.5 -34.5t8.5 -33.5v-282q0 -23 -3 -43.5t-15.5 -37t-37 -25.5t-65.5 -9q-57 0 -89 24.5 t-32 88.5v243l-250 375h-84v-332q0 -12 -1 -31.5t-12 -38t-35.5 -30.5t-71.5 -12q-59 0 -89 26.5t-30 85.5z" />
<glyph unicode="&#x49c;" horiz-adv-x="1228" d="M133 106v1215q0 61 36 88t95 27q57 0 92 -27t35 -88v-494h80v293q0 61 27.5 88t81.5 27q113 0 112 -111v-297h19q8 47 29.5 112t51 136.5t64.5 146t70 140.5q18 35 42.5 54.5t61.5 19.5q53 0 94 -35t41 -86q0 -23 -12 -51.5t-25 -55.5l-229 -479l297 -549q16 -29 16 -63 q0 -51 -38.5 -91t-104.5 -40q-43 0 -69.5 21.5t-49.5 62.5q-37 63 -74.5 141t-71.5 154.5t-59.5 144.5t-33.5 111h-19v-332q0 -61 -27.5 -88t-80.5 -27q-113 0 -113 111v336h-80v-515q0 -47 -25.5 -83.5t-101.5 -36.5q-131 0 -131 120z" />
<glyph unicode="&#x49d;" horiz-adv-x="1077" d="M119 94v893q0 55 33.5 80t87.5 25q53 0 85.5 -25t32.5 -80v-350h70v227q0 61 27.5 88t83.5 27q111 0 110 -111v-231h33q31 123 58.5 212t70.5 179q29 63 86 64q49 0 93 -33t44 -86q0 -16 -5 -37t-21 -55l-144 -324l180 -393q16 -39 17 -58q0 -47 -40 -83.5t-106 -36.5 q-41 0 -61 17t-37 52q-41 88 -74.5 190.5t-60.5 215.5h-33v-219q0 -61 -27.5 -88t-80.5 -27q-113 0 -113 111v223h-70v-367q0 -43 -23.5 -75.5t-94.5 -32.5q-121 0 -121 108z" />
<glyph unicode="&#x49e;" horiz-adv-x="1204" d="M0 1096q0 47 22.5 82.5t69.5 35.5h96v107q0 61 36 88t95 27q55 0 91 -27t36 -88v-107h129q47 0 71 -35.5t24 -82.5t-21.5 -83t-75.5 -36h-127v-139h175l274 514q20 37 45 60.5t66 23.5q57 0 98 -29t41 -78q0 -23 -9.5 -50.5t-23.5 -51.5l-270 -492l327 -573 q18 -29 19 -56q0 -29 -13.5 -51t-34 -37.5t-45 -23.5t-46.5 -8q-55 0 -84 32.5t-45 63.5l-304 522h-170v-457q0 -25 -6 -52t-20 -52t-39 -41t-62 -16q-70 0 -100.5 28.5t-30.5 91.5v871h-92q-53 0 -74.5 36t-21.5 83z" />
<glyph unicode="&#x49f;" horiz-adv-x="993" d="M0 840q0 35 13.5 66.5t43.5 31.5h84v45q0 57 33 83t88 26q119 0 119 -109v-45h129q37 0 52.5 -28.5t15.5 -69.5q0 -104 -70 -105h-127v-88h182l182 377q33 68 101 68q47 0 85 -28t38 -73q0 -12 -2 -27.5t-11 -31.5l-188 -377l190 -408q8 -16 13.5 -31.5t5.5 -29.5 q0 -27 -13.5 -45t-34 -30.5t-42 -18.5t-39.5 -6q-43 0 -69.5 22.5t-43.5 57.5l-172 364h-182v-332q0 -59 -31 -85.5t-90 -26.5t-89 26.5t-30 85.5v637h-82q-31 0 -45 35t-14 70z" />
<glyph unicode="&#x4a0;" horiz-adv-x="1429" d="M0 1303q0 119 102 118h422q55 0 91 -26.5t36 -87.5v-469h129l344 524q20 33 43 53.5t62 20.5q23 0 48.5 -8.5t45.5 -23.5t33.5 -36.5t13.5 -48.5q0 -23 -14.5 -51.5t-30.5 -55.5l-315 -477l379 -561q25 -31 24 -63q0 -47 -40 -86t-105 -39q-43 0 -67.5 23.5t-51.5 60.5 l-369 534h-129v-498q0 -47 -26.5 -83.5t-100.5 -36.5q-70 0 -100.5 28.5t-30.5 91.5v1078h-297q-53 0 -74.5 32.5t-21.5 86.5z" />
<glyph unicode="&#x4a1;" horiz-adv-x="1124" d="M6 961q0 53 23.5 81.5t87.5 28.5h297q119 0 118 -108v-316h82l248 387q18 29 38 43.5t52 14.5q53 0 91 -33t38 -72q0 -14 -5 -32.5t-17 -36.5l-240 -365l260 -389q12 -18 20.5 -34.5t8.5 -33.5q0 -23 -12.5 -43t-30.5 -35.5t-42 -23.5t-48 -8q-39 0 -60.5 15t-44.5 48 l-254 381h-84v-332q0 -12 -1 -31.5t-12 -38t-35.5 -30.5t-71.5 -12q-59 0 -89 26.5t-30 85.5v750h-174q-66 0 -89.5 29.5t-23.5 83.5z" />
<glyph unicode="&#x4a2;" horiz-adv-x="1378" d="M133 106v1215q0 61 36 88t95 27q55 0 91 -27t36 -88v-469h508v467q0 63 36 90t95 27q57 0 92 -27t35 -90v-1073h78q74 0 100.5 -37t26.5 -84v-365q0 -47 -26.5 -83.5t-100.5 -36.5q-70 0 -100.5 28.5t-30.5 91.5v240h-74q-131 0 -131 121v493h-508v-508 q0 -47 -26.5 -83.5t-100.5 -36.5q-70 0 -100.5 28.5t-30.5 91.5z" />
<glyph unicode="&#x4a3;" horiz-adv-x="1159" d="M119 98v883q0 63 29.5 87t89.5 24q59 0 89.5 -24t30.5 -87v-322h387v322q0 63 34 87t89 24t88 -24t33 -87v-760h33q41 0 65.5 -9t37 -25.5t15.5 -37t3 -43.5v-292q0 -23 -3 -43.5t-15.5 -37t-37 -25.5t-65.5 -9q-57 0 -89 24.5t-32 88.5v188h-33q-59 0 -91 24.5t-32 88.5 v323h-387v-338q0 -55 -27.5 -83.5t-92.5 -28.5q-61 0 -90 24.5t-29 87.5z" />
<glyph unicode="&#x4a4;" horiz-adv-x="1552" d="M133 106v1215q0 61 36 88t95 27q55 0 91 -27t36 -88v-469h508v453q0 63 36 89.5t95 26.5h14h406q102 0 102 -118q0 -53 -21.5 -86t-74.5 -33h-299v-1080q0 -47 -26.5 -82.5t-100.5 -35.5q-131 0 -131 120v508h-508v-508q0 -47 -26.5 -83.5t-100.5 -36.5 q-70 0 -100.5 28.5t-30.5 91.5z" />
<glyph unicode="&#x4a5;" horiz-adv-x="1275" d="M119 98v883q0 63 29.5 87t89.5 24q59 0 89.5 -24t30.5 -87v-322h387v302q0 63 34 86.5t89 23.5h13h284q63 0 87 -28.5t24 -81.5t-23.5 -83t-89.5 -30h-174v-752q0 -111 -121 -110q-59 0 -91 24.5t-32 87.5v338h-387v-338q0 -55 -27.5 -83.5t-92.5 -28.5q-61 0 -90 24.5 t-29 87.5z" />
<glyph unicode="&#x4a6;" horiz-adv-x="1832" d="M133 106v1201q0 61 36 87.5t95 26.5h707q57 0 92 -26.5t35 -89.5v-426q49 10 102 18t100 8q119 0 204 -24.5t138.5 -96t79 -200.5t25.5 -340q0 -367 -115.5 -535t-328.5 -168q-68 0 -115 7.5t-80 18.5t-56.5 25.5t-41.5 30.5q-43 37 -43 88q0 53 27.5 95t80.5 42 q23 0 38 -9t28 -21q23 -20 56.5 -39t109.5 -19q88 0 134 110t46 374q0 106 -6 185t-26.5 131t-60.5 77t-108 25q-43 0 -91 -7.5t-97 -17.5v-533q0 -47 -27 -82.5t-100 -35.5q-131 0 -131 120v1078h-449v-1078q0 -47 -26.5 -83.5t-100.5 -36.5q-70 0 -100.5 28.5t-30.5 91.5z " />
<glyph unicode="&#x4a7;" horiz-adv-x="1650" d="M119 98v867q0 61 29.5 83.5t87.5 22.5h632q55 0 84 -23.5t29 -84.5v-357q51 16 96 21.5t92 5.5q100 0 178 -36t129.5 -100.5t78 -153.5t26.5 -196q0 -293 -121 -448.5t-336 -155.5q-135 0 -212.5 25.5t-116.5 58.5q-43 37 -43 88q0 53 27.5 94t80.5 41q23 0 40.5 -9 t37.5 -21q29 -18 72 -37t118 -19q43 0 80 27t63.5 73t42 107.5t15.5 132.5q0 154 -54 225.5t-134 71.5q-53 0 -88 -12t-72 -31v-262q0 -53 -27.5 -81.5t-93.5 -28.5q-61 0 -90 24.5t-29 87.5v750h-381v-750q0 -113 -120 -112q-61 0 -91 24.5t-30 87.5z" />
<glyph unicode="&#x4a8;" horiz-adv-x="1380" d="M80 670q0 113 19.5 220t63.5 201.5t114.5 174.5t171.5 139q35 23 62.5 26t43.5 3q53 0 88 -32t35 -91q0 -25 -9.5 -51.5t-50.5 -51.5q-86 -53 -139 -117.5t-82.5 -133t-39 -137t-9.5 -130.5q0 -227 96 -358q59 -78 142 -109q-31 72 -51 152q-31 119 -31 254 q0 119 33.5 215t91 163.5t133.5 103.5t160 36q78 0 147.5 -30t122.5 -92t85 -157.5t32 -226.5q0 -135 -47.5 -257t-128.5 -212q-59 -66 -136 -113q23 -18 45 -39q55 -47 74 -77.5t19 -69.5q0 -47 -26 -78t-69 -31q-20 0 -49.5 4.5t-62.5 32.5q-94 76 -172 164q-6 6 -11 12 q-18 -2 -36 -2q-137 0 -253 49.5t-199 140.5t-130 219t-47 286zM748 637q0 -88 14 -168t49 -156q16 -37 39 -73q57 33 102 88q49 61 77 143t28 180q0 125 -47 184.5t-111 59.5q-68 0 -109.5 -59.5t-41.5 -198.5z" />
<glyph unicode="&#x4a9;" horiz-adv-x="1253" d="M70 512q0 94 22.5 181t62.5 161t95 130t121 91q29 14 62.5 21.5t45.5 7.5q53 0 85 -30t32 -87q0 -23 -9 -49.5t-50 -48.5q-49 -25 -88 -54.5t-66 -71.5t-41 -97.5t-14 -133.5q0 -39 7 -87t24.5 -96t48 -92t77.5 -73q-24 89 -24 185q0 102 29.5 188t81 148.5t121 97.5 t149.5 35q82 0 145.5 -31t107.5 -85t66.5 -127t22.5 -157q0 -59 -15.5 -125.5t-50.5 -130t-92 -118t-141 -89.5q49 -47 107.5 -86t117.5 -75q35 -23 47 -46.5t12 -41.5q0 -51 -33.5 -84t-86.5 -33q-16 0 -45 8t-64 29q-96 53 -179 126.5t-149 159.5q-127 4 -227 53.5 t-170 129.5t-107.5 183t-37.5 214zM719 377q0 -119 39 -215q49 18 84 51t56.5 71t30.5 78.5t9 75.5q0 78 -18.5 128t-77.5 50q-53 0 -88 -63t-35 -176z" />
<glyph unicode="&#x4aa;" horiz-adv-x="1214" d="M86 702q0 150 34 286t106.5 240.5t188 166t279.5 61.5q129 0 230.5 -47t173.5 -119q33 -33 60.5 -73.5t27.5 -81.5q0 -59 -40 -88t-85 -29q-35 0 -59.5 21.5t-53.5 50.5q-23 23 -47 46t-55 41.5t-70 31t-88 12.5q-92 0 -154.5 -41t-102.5 -111t-57.5 -162t-17.5 -192 q0 -104 17.5 -198.5t56.5 -164t99.5 -110.5t144.5 -41q96 0 153.5 43t104.5 102q18 23 45 50.5t67 27.5q47 0 85 -33t38 -86q0 -78 -77 -162q-57 -59 -130 -105t-180 -63q-47 -47 -79.5 -93t-32.5 -93t21.5 -64.5t45.5 -17.5q35 0 51.5 11.5t38.5 11.5q27 0 43.5 -27 t16.5 -57q0 -20 -4 -40t-21 -38q-25 -27 -64.5 -39t-84.5 -12q-68 0 -113 19.5t-72.5 52t-39 72.5t-11.5 81q0 78 31 134t78 93q-143 14 -238.5 81t-153 167t-82 226t-24.5 259z" />
<glyph unicode="&#x4ab;" horiz-adv-x="997" d="M70 518q0 137 34.5 246.5t99 184.5t156 115t205.5 40q94 0 170 -28.5t127 -71.5t79 -90.5t28 -84.5q0 -53 -36 -85.5t-89 -32.5q-35 0 -59.5 20.5t-47.5 44.5q-37 41 -79 69.5t-109 28.5q-74 0 -117 -36.5t-66.5 -90t-29.5 -114t-6 -107.5q0 -53 8 -111.5t32.5 -107.5 t67.5 -81.5t111 -32.5q78 0 121 32.5t71 61.5q27 27 46.5 42t52.5 15q41 0 77.5 -32.5t36.5 -80.5q0 -35 -22.5 -74.5t-64.5 -76.5t-102 -65.5t-136 -41.5q-47 -45 -79 -91t-32 -93t21.5 -64.5t46.5 -17.5q35 0 51 11.5t39 11.5q27 0 43 -27t16 -57q0 -20 -4 -40t-20 -38 q-25 -27 -65 -39t-85 -12q-68 0 -113 19.5t-72.5 52t-38.5 72.5t-11 81q0 78 32.5 135t79.5 96q-102 16 -172.5 67.5t-113.5 126.5t-62.5 165t-19.5 186z" />
<glyph unicode="&#x4ac;" horiz-adv-x="1110" d="M8 1305q0 49 23.5 82.5t70.5 33.5h904q47 0 70.5 -32.5t23.5 -81.5t-21.5 -84t-77.5 -35h-325v-942h80q74 0 100.5 -37t26.5 -84v-365q0 -47 -27 -83.5t-100 -36.5q-70 0 -100.5 28.5t-30.5 91.5v240h-76q-131 0 -131 115v1073h-312q-53 0 -75.5 33.5t-22.5 83.5z" />
<glyph unicode="&#x4ad;" horiz-adv-x="866" d="M6 961q0 53 23.5 81.5t87.5 28.5h633q111 0 110 -110q0 -53 -24.5 -83t-87.5 -30h-203v-627h41q41 0 65.5 -9t36.5 -25.5t15.5 -37t3.5 -43.5v-292q0 -23 -3.5 -43.5t-15.5 -37t-36.5 -25.5t-65.5 -9q-57 0 -89 24.5t-32 88.5v188h-41q-61 0 -92 24.5t-31 88.5v735h-182 q-66 0 -89.5 29.5t-23.5 83.5z" />
<glyph unicode="&#x4ae;" horiz-adv-x="1116" d="M10 1317q0 49 31 84t96 35q53 0 81 -25t48 -57l293 -490l287 469q25 41 52.5 72t80.5 31t91 -29t38 -78q0 -18 -7 -43.5t-20 -44.5l-401 -618v-519q0 -47 -27.5 -82.5t-99.5 -35.5q-131 0 -131 118v519l-383 606q-29 45 -29 88z" />
<glyph unicode="&#x4af;" d="M14 977q0 53 37 84t103 31q55 0 83.5 -24t41.5 -64l208 -656l226 653q16 47 40.5 69t73.5 22q66 0 100 -34t34 -83q0 -16 -2.5 -38t-12.5 -44l-332 -825v-385q0 -63 -29.5 -91t-97.5 -28q-123 0 -122 112v347l-334 872q-12 31 -14.5 49.5t-2.5 32.5z" />
<glyph unicode="&#x4b0;" horiz-adv-x="1116" d="M10 1317q0 49 31 84t96 35q53 0 81 -25t48 -57q78 -123 149.5 -262.5t143.5 -268.5q72 129 143.5 261.5t143.5 248.5q25 41 52.5 72t80.5 31t91 -29t38 -78q0 -18 -7 -43.5t-20 -44.5l-311 -479h207q45 0 69.5 -36t24.5 -83t-22.5 -84t-75.5 -37h-293v-418 q0 -47 -27.5 -82.5t-99.5 -35.5q-131 0 -131 118v418h-277q-55 0 -76.5 37t-21.5 84t22.5 83t73.5 36h191l-295 467q-29 45 -29 88z" />
<glyph unicode="&#x4b1;" d="M12 117q0 47 23.5 81.5t73.5 34.5h174l-252 662q-12 31 -14.5 49.5t-2.5 32.5q0 53 37 84t103 31q55 0 83.5 -24t41.5 -64l155 -492q16 -47 29.5 -112.5t23.5 -127.5q8 66 24.5 131.5t33.5 112.5l168 485q16 47 40.5 69t73.5 22q66 0 100 -34t34 -83q0 -16 -2.5 -38 t-12.5 -44l-266 -660h188q47 0 72 -34.5t25 -81.5t-22.5 -82t-78.5 -35h-250v-317q0 -63 -29.5 -91t-97.5 -28q-123 0 -122 112v324h-252q-55 0 -78 35t-23 82z" />
<glyph unicode="&#x4b2;" horiz-adv-x="1114" d="M27 102q0 43 22 76l357 535l-326 532q-23 35 -23 72q0 51 37 85t96 34q49 0 75 -25t48 -63l246 -422l254 420q23 37 48.5 63.5t70.5 26.5q59 0 94 -33t35 -84q0 -16 -4 -32.5t-17 -35.5l-333 -524l360 -549q20 -33 20 -69v-349q0 -47 -26.5 -83.5t-99.5 -36.5 q-70 0 -101 28.5t-31 91.5v310l-278 432l-277 -439q-23 -37 -47 -57t-65 -20q-70 0 -102.5 36.5t-32.5 79.5z" />
<glyph unicode="&#x4b3;" horiz-adv-x="894" d="M8 98q0 25 12.5 52.5t30.5 54.5l232 346l-236 342q-12 18 -17 37.5t-5 38.5q0 47 36.5 85t96.5 38q41 0 69.5 -21.5t51.5 -60.5l165 -269l152 260q23 37 47.5 64t75.5 27q59 0 93 -34t34 -81q0 -45 -27 -84l-217 -332l242 -379q25 -37 24 -80v-288q0 -23 -3 -43.5 t-15 -37t-37 -25.5t-65 -9q-57 0 -89 24.5t-32 88.5v231l-191 301l-180 -287q-18 -29 -47 -50t-76 -21q-63 0 -94 33.5t-31 78.5z" />
<glyph unicode="&#x4b4;" horiz-adv-x="1439" d="M-33 1305q0 49 23.5 82.5t70.5 33.5h281h18h314q47 0 70.5 -32.5t23.5 -81.5t-21.5 -84t-76.5 -35h-183v-950h467v1077q0 121 131 121q74 0 100.5 -36t26.5 -83v-1075h74q55 0 91 -27t36 -88v-334q0 -47 -26.5 -84t-100.5 -37q-70 0 -100.5 29t-30.5 92v207h-795 q-59 0 -95 26.5t-36 88.5v1073h-163q-53 0 -76 33.5t-23 83.5z" />
<glyph unicode="&#x4b5;" horiz-adv-x="1232" d="M-12 961q0 53 23.5 81.5t86.5 28.5h207h17h14h213q111 0 110 -110q0 -53 -24.5 -83t-87.5 -30h-107v-625h363v758q0 61 28.5 86t94.5 25t92 -28t26 -83v-758h43q59 0 89 -23.5t30 -84.5v-299q0 -63 -31.5 -89t-87.5 -26q-63 0 -90.5 27.5t-27.5 89.5v182h-654 q-57 0 -85.5 24.5t-28.5 84.5v739h-101q-66 0 -89 29.5t-23 83.5z" />
<glyph unicode="&#x4b6;" horiz-adv-x="1302" d="M88 1001v320q0 61 36 88t95 27q55 0 91 -27t36 -88v-283q0 -55 10.5 -96t37 -67.5t73.5 -40t121 -13.5q59 0 114.5 6.5t120.5 20.5v473q0 61 36 88t95 27q55 0 91 -27t36 -88v-1075h78q74 0 100.5 -37t26.5 -84v-365q0 -47 -26.5 -83.5t-100.5 -36.5q-70 0 -100.5 28.5 t-30.5 91.5v240h-74q-70 0 -100.5 28.5t-30.5 92.5v489q-70 -10 -133 -18t-129 -8q-115 0 -203 21.5t-147 70.5t-91 129t-32 196z" />
<glyph unicode="&#x4b7;" horiz-adv-x="1062" d="M78 739v248q0 55 31.5 80t85.5 25q59 0 90.5 -25t31.5 -80v-205q0 -45 5.5 -76.5t21.5 -52t47 -31t84 -10.5q84 0 174 19v348q0 63 33 88t88 25t89 -25t34 -88v-758h33q41 0 65.5 -9t36.5 -25.5t15.5 -37t3.5 -43.5v-292q0 -23 -3.5 -43.5t-15.5 -37t-36.5 -25.5 t-65.5 -9q-57 0 -89 24.5t-32 88.5v188h-33q-51 0 -87 24.5t-36 84.5v313q-109 -20 -215 -21q-188 0 -272 75t-84 263z" />
<glyph unicode="&#x4b8;" horiz-adv-x="1214" d="M88 1001v320q0 61 36 88t95 27q55 0 91 -27t36 -88v-283q0 -55 10.5 -96t37 -67.5t73.5 -40.5l4 -3v168q0 59 30.5 85t84.5 26q119 0 119 -106v-177q53 6 118 21v473q0 61 36 88t95 27q55 0 91 -27t36 -88v-1215q0 -47 -26.5 -83.5t-100.5 -36.5q-70 0 -100.5 28.5 t-30.5 91.5v504q-61 -10 -118 -18v-182q0 -59 -30 -85t-83 -26q-121 0 -121 107v180q-61 6 -113 18q-88 23 -147 72t-91 129t-32 196z" />
<glyph unicode="&#x4b9;" horiz-adv-x="1071" d="M78 739v248q0 55 31.5 80t85.5 25q59 0 90.5 -25t31.5 -80v-205q0 -45 6.5 -76.5t24.5 -52.5q18 -20 51 -30v233q0 61 30 87t83 26q117 0 117 -109v-242q39 4 80 13v348q0 63 32.5 88t87.5 25t89 -25t34 -88v-885q0 -109 -121 -108q-51 0 -86.5 24.5t-35.5 83.5v328 q-41 -6 -80 -12v-144q0 -59 -30 -84.5t-83 -25.5q-117 0 -117 106v139q-74 4 -125 17q-70 18 -112.5 58t-63 104.5t-20.5 158.5z" />
<glyph unicode="&#x4ba;" horiz-adv-x="1214" d="M133 100v1215q0 47 26.5 84t100.5 37q70 0 100.5 -29t30.5 -92v-438q70 10 133.5 18t128.5 8q115 0 203 -21.5t147.5 -70.5t91 -129t31.5 -197v-385q0 -61 -35.5 -87.5t-95.5 -26.5q-55 0 -91 26.5t-36 87.5v349q0 55 -10 96t-36.5 67.5t-74 40t-120.5 13.5 q-59 0 -114.5 -6.5t-121.5 -20.5v-539q0 -61 -36 -87.5t-95 -26.5q-55 0 -91 26.5t-36 87.5z" />
<glyph unicode="&#x4bb;" horiz-adv-x="1107" d="M119 100v1217q0 55 30.5 87t100.5 32q49 0 87 -25t38 -96v-375q35 55 105.5 103.5t172.5 48.5q98 0 161 -31t108 -94q49 -70 57 -158t8 -164v-547q0 -59 -30.5 -85.5t-96.5 -26.5q-55 0 -91 25.5t-36 86.5v551q0 88 -16 131q-16 41 -51 57.5t-82 16.5q-49 0 -84 -16.5 t-59.5 -41t-38 -53t-17.5 -53.5q-8 -37 -9 -84t-1 -80v-422q0 -63 -30 -90.5t-101 -27.5q-57 0 -91 26.5t-34 87.5z" />
<glyph unicode="&#x4bc;" horiz-adv-x="1742" d="M4 911q0 51 7 100.5t24 88.5q16 39 51 64.5t80 25.5t75.5 -21.5t30.5 -58.5q0 -20 -6 -36.5t-13 -35t-13.5 -41t-6.5 -53.5q0 -53 33 -80.5t84 -27.5h72q8 72 29 143q39 135 115.5 241.5t195.5 171t278 64.5q147 0 263 -53t196 -152.5t121 -239t41 -311.5 q0 -57 -33 -78.5t-92 -21.5h-842q8 -84 32 -156.5t66 -125t107.5 -82t157.5 -29.5q45 0 78.5 6t64.5 21.5t60.5 42t66.5 67.5q33 37 58.5 59.5t60.5 22.5q47 0 83 -37t36 -86q0 -78 -70 -158q-59 -70 -170.5 -125t-265.5 -55q-160 0 -281 56.5t-201.5 155.5t-121.5 235 q-27 90 -37 188h-72q-66 0 -127 19.5t-109.5 57.5t-77 96t-28.5 138zM696 836h686q-14 166 -103 270t-239 104q-82 0 -143 -30.5t-104 -81.5t-67 -120t-30 -142z" />
<glyph unicode="&#x4bd;" horiz-adv-x="1325" d="M0 731q0 41 10 86t31 76q27 39 86 39q47 0 73.5 -16.5t26.5 -57.5q0 -27 -6 -46t-6 -48q0 -35 13.5 -63.5t60.5 -28.5h65q14 88 50 165.5t94.5 137t139.5 94.5t185 35q203 0 322 -135t119 -396q0 -59 -33 -81.5t-92 -22.5h-535q4 -135 63.5 -208t170.5 -73 q66 0 103.5 15.5t82.5 44.5l49 33q27 16 57 16q39 0 72 -35t33 -86q0 -53 -41 -93t-102.5 -66.5t-132 -39t-130.5 -12.5q-221 0 -347 128t-140 376h-43q-299 0 -299 262zM612 672h398q0 43 -11.5 82t-35 68.5t-60.5 48t-86 18.5q-78 0 -136 -56.5t-69 -160.5z" />
<glyph unicode="&#x4be;" horiz-adv-x="1742" d="M4 911q0 51 7 100.5t24 88.5q16 39 51 64.5t80 25.5t75.5 -21.5t30.5 -58.5q0 -20 -6 -36.5t-13 -35t-13.5 -41t-6.5 -53.5q0 -53 33 -80.5t84 -27.5h72q4 35 11 71.5t18 71.5q29 100 79 187t123.5 151.5t170 101.5t216.5 37q147 0 263 -53t196 -152.5t121 -239 t41 -311.5q0 -57 -33 -78.5t-92 -21.5h-842q8 -84 32 -156.5t67 -125t107.5 -82t156.5 -29.5q45 0 78.5 6t64.5 21.5t60.5 42t66.5 67.5q33 37 58.5 59.5t60.5 22.5q47 0 83 -37t36 -86q0 -80 -70 -158q-47 -53 -125 -101t-184 -67v-227q0 -59 -33 -84.5t-92 -25.5 q-133 0 -133 106v229q-186 31 -303 147t-170 290q-27 88 -37 188h-72q-66 0 -127 19.5t-109.5 57.5t-77 96t-28.5 138zM696 836h686q-14 166 -103 270t-239 104q-82 0 -143 -30.5t-104 -81.5t-67 -120t-30 -142z" />
<glyph unicode="&#x4bf;" horiz-adv-x="1325" d="M0 731q0 41 10 86t31 76q27 39 86 39q47 0 73.5 -16.5t26.5 -57.5q0 -27 -6 -46t-6 -48q0 -35 13.5 -63.5t60.5 -28.5h65q14 88 50 165.5t94.5 137t139.5 94.5t185 35q203 0 322 -135t119 -396q0 -59 -33 -81.5t-92 -22.5h-535q4 -135 63.5 -208t170.5 -73 q66 0 103.5 15.5t82.5 44.5l49 33q27 16 57 16q39 0 72 -35t33 -86q0 -41 -24.5 -73.5t-63.5 -57.5t-88 -42t-101 -26v-178q0 -55 -31.5 -77.5t-90.5 -22.5q-66 0 -94.5 22.5t-28.5 75.5v178q-168 31 -263.5 156t-107.5 338h-43q-299 0 -299 262zM612 672h398q0 43 -11.5 82 t-35 68.5t-60.5 48t-86 18.5q-78 0 -136 -56.5t-69 -160.5z" />
<glyph unicode="&#x4c0;" horiz-adv-x="524" d="M133 106v1215q0 61 36 88t95 27q55 0 91 -27t36 -88v-1215q0 -47 -26.5 -83.5t-100.5 -36.5q-70 0 -100.5 28.5t-30.5 91.5z" />
<glyph unicode="&#x4c1;" horiz-adv-x="1755" d="M27 111q0 16 7 32.5t17 30.5l336 559l-272 479q-16 29 -28.5 60t-12.5 53q0 27 12 47.5t32.5 34.5t45 21.5t47.5 7.5q39 0 62.5 -19.5t41.5 -54.5l295 -524h140v483q0 61 35.5 88t95.5 27q55 0 91 -27t36 -88v-483h137l295 524q18 35 41.5 54.5t62.5 19.5q23 0 47.5 -7.5 t44 -21.5t32.5 -34.5t13 -47.5q0 -23 -12 -53.5t-29 -59.5l-272 -479l336 -559q10 -14 17.5 -30.5t7.5 -32.5q0 -47 -40 -86t-106 -39q-43 0 -69.5 22.5t-49.5 61.5l-319 534h-137v-498q0 -47 -27 -83.5t-100 -36.5q-70 0 -100.5 28.5t-30.5 91.5v498h-140l-319 -534 q-23 -39 -49.5 -61.5t-69.5 -22.5q-66 0 -105.5 38.5t-39.5 86.5zM576 1739q0 45 29.5 66.5t76.5 21.5q31 0 47.5 -15t28.5 -46q16 -45 38 -65.5t77 -20.5q53 0 77.5 23.5t39.5 66.5q10 29 24.5 43t44.5 14q53 0 81 -23.5t28 -62.5t-17.5 -78t-54.5 -70.5t-92 -51 t-131 -19.5q-78 0 -134.5 19.5t-92 50t-53 69.5t-17.5 78z" />
<glyph unicode="&#x4c2;" horiz-adv-x="1335" d="M16 92q0 27 15.5 54.5t27.5 50.5l199 360l-172 315q-16 31 -28.5 61t-12.5 54q0 41 39 73t90 32q35 0 56.5 -13.5t37.5 -48.5l191 -381h88v334q0 59 32.5 84t88.5 25q121 0 120 -109v-334h89l196 381q33 61 94 62q49 0 87 -26t38 -67q0 -29 -11 -55t-28 -57l-174 -336 l224 -401q16 -29 16 -60q0 -47 -40 -75.5t-83 -28.5q-47 0 -67.5 16t-41.5 51l-200 371h-99v-324q0 -23 -3 -43t-15 -36.5t-36.5 -25.5t-65.5 -9q-57 0 -89 24.5t-32 87.5v326h-98l-205 -371q-18 -35 -39 -51t-68 -16q-51 0 -86 32.5t-35 73.5zM377 1415q0 45 29.5 66.5 t76.5 21.5q31 0 47.5 -15t28.5 -46q16 -45 38 -65.5t77 -20.5q53 0 77.5 23.5t39.5 66.5q10 29 24.5 43t44.5 14q53 0 81 -23.5t28 -62.5t-17.5 -78t-54.5 -70.5t-92 -51t-131 -19.5q-78 0 -134.5 19.5t-92 50t-53 69.5t-17.5 78z" />
<glyph unicode="&#x4c3;" horiz-adv-x="1169" d="M133 106v1215q0 61 36 88t95 27q55 0 91 -27t36 -88v-483h129l344 524q20 33 43 53.5t62 20.5q23 0 48 -8.5t45.5 -23.5t34 -36.5t13.5 -48.5q0 -23 -14.5 -51.5t-30.5 -55.5l-315 -477l378 -561q25 -31 25 -63v-240q0 -109 -31.5 -173.5t-78 -98t-97.5 -45t-88 -11.5 q-111 0 -174 25q-94 37 -94 119q0 18 4 37.5t15.5 36t28.5 27.5t42 11q35 0 66.5 -18.5t78.5 -18.5q33 0 51.5 22.5t18.5 94.5v182l-375 543h-129v-498q0 -47 -26.5 -83.5t-100.5 -36.5q-70 0 -100.5 28.5t-30.5 91.5z" />
<glyph unicode="&#x4c4;" horiz-adv-x="958" d="M119 98v885q0 57 32.5 83t88.5 26q119 0 118 -109v-336h82l248 387q18 29 37.5 43.5t52.5 14.5q53 0 91 -33t38 -72q0 -14 -5 -32.5t-17 -36.5l-240 -365l260 -389q12 -18 20.5 -34.5t8.5 -33.5v-227q0 -70 -17.5 -129t-53.5 -103.5t-88 -69t-122 -24.5q-49 0 -97 6.5 t-87 22.5t-62.5 43t-23.5 70q0 41 22.5 75.5t67.5 34.5q41 0 74 -20.5t76 -20.5q70 0 69 113v188l-250 375h-84v-332q0 -12 -1 -31.5t-12 -38t-35.5 -30.5t-71.5 -12q-59 0 -89 26.5t-30 85.5z" />
<glyph unicode="&#x4c5;" horiz-adv-x="1425" d="M-4 92q0 115 104 127q35 4 61.5 14.5t47 33t36 60.5t27.5 97q12 63 21.5 114.5t15.5 100.5t12.5 102.5t12.5 120.5q6 63 10 119.5t8 111t7 111t8 119.5q6 113 120 113h596q55 0 91 -27t36 -88v-1075h68q55 0 93 -39t38 -94q0 -16 -2 -21l-92 -346q-27 -106 -127 -106 q-55 0 -93 33.5t-38 88.5q0 20 6 45l49 193h-29q-70 0 -100.5 28.5t-30.5 92.5v1077h-329l-25 -324q-6 -74 -15.5 -158.5t-22.5 -168.5t-29.5 -162t-36.5 -137q-29 -82 -69 -133.5t-87 -80t-99.5 -38.5t-107.5 -10q-43 0 -69.5 9t-41 24.5t-19.5 35t-5 37.5z" />
<glyph unicode="&#x4c6;" horiz-adv-x="1120" d="M-4 94q0 41 18.5 68.5t71.5 34.5q41 4 62.5 37.5t35.5 117.5q12 68 16.5 135.5t8.5 128.5l16 349q6 106 115 106h491q53 0 86 -23.5t33 -82.5v-744h43q47 0 81 -34.5t34 -84.5q0 -8 -4 -24l-76 -285q-25 -94 -117 -94q-47 0 -80.5 30.5t-33.5 80.5q0 18 6 36l41 154h-13 q-61 0 -90.5 24.5t-29.5 84.5v739h-258l-11 -242q-4 -104 -15 -213.5t-43 -201t-94.5 -148.5t-168.5 -57q-78 0 -101.5 28.5t-23.5 79.5z" />
<glyph unicode="&#x4c7;" horiz-adv-x="1290" d="M133 106v1215q0 61 36 88t95 27q55 0 91 -27t36 -88v-469h508v467q0 63 36 90t95 27q57 0 92 -27t35 -90v-1448q0 -109 -31.5 -173.5t-78 -98t-97.5 -45t-88 -11.5q-111 0 -174 25q-94 37 -94 119q0 18 4 37.5t15.5 36t28.5 27.5t42 11q35 0 66.5 -18.5t78.5 -18.5 q33 0 51.5 22.5t18.5 94.5v735h-508v-508q0 -47 -26.5 -83.5t-100.5 -36.5q-70 0 -100.5 28.5t-30.5 91.5z" />
<glyph unicode="&#x4c8;" horiz-adv-x="1107" d="M119 98v883q0 63 29.5 87t89.5 24q59 0 89.5 -24t30.5 -87v-322h387v322q0 63 34 87t89 24t88 -24t33 -87v-1112q0 -70 -17.5 -129t-53 -103.5t-88 -69t-121.5 -24.5q-49 0 -97.5 6.5t-87.5 22.5t-62.5 43t-23.5 70q0 41 22.5 75.5t67.5 34.5q41 0 74 -20.5t76 -20.5 q68 0 67 113v569h-387v-338q0 -55 -27.5 -83.5t-92.5 -28.5q-61 0 -90 24.5t-29 87.5z" />
<glyph unicode="&#x4c9;" horiz-adv-x="1368" d="M133 106v1215q0 61 36 88t95 27q55 0 91 -27t36 -88v-469h508v467q0 63 36 90t95 27q57 0 92 -27t35 -90v-1073h68q55 0 93 -39t38 -94q0 -14 -2 -21l-92 -346q-14 -53 -47 -79.5t-80 -26.5q-55 0 -93 33.5t-38 88.5q0 20 6 45l49 193h-29q-131 0 -131 121v493h-508v-508 q0 -47 -26.5 -83.5t-100.5 -36.5q-70 0 -100.5 28.5t-30.5 91.5z" />
<glyph unicode="&#x4ca;" horiz-adv-x="1159" d="M119 98v883q0 63 29.5 87t89.5 24q59 0 89.5 -24t30.5 -87v-322h387v322q0 63 34 87t89 24t88 -24t33 -87v-760h43q47 0 81 -34.5t34 -84.5q0 -8 -4 -24l-76 -285q-25 -94 -117 -94q-47 0 -80.5 30.5t-33.5 80.5q0 18 6 36l41 154h-15q-59 0 -91 24.5t-32 88.5v323h-387 v-338q0 -55 -27.5 -83.5t-92.5 -28.5q-61 0 -90 24.5t-29 87.5z" />
<glyph unicode="&#x4cb;" horiz-adv-x="1214" d="M88 1001v320q0 61 36 88t95 27q55 0 91 -27t36 -88v-283q0 -55 10.5 -96t37 -67.5t73.5 -40t121 -13.5q59 0 114.5 6.5t120.5 20.5v473q0 61 36 88t95 27q55 0 91 -27t36 -88v-1200q0 -47 -26.5 -84t-100.5 -37h-77v-240q0 -63 -31 -91.5t-101 -28.5q-74 0 -100.5 36.5 t-26.5 83.5v365q0 47 27 84t100 37h78v364q-70 -10 -133 -18t-129 -8q-115 0 -203 21.5t-147 70.5t-91 129t-32 196z" />
<glyph unicode="&#x4cc;" horiz-adv-x="1011" d="M78 739v248q0 55 31.5 80t85.5 25q59 0 90.5 -25t31.5 -80v-205q0 -45 5.5 -76.5t21.5 -52t47 -31t84 -10.5q84 0 174 19v348q0 63 33 88t88 25t89 -25t34 -88v-870q0 -109 -121 -109h-35v-188q0 -63 -31.5 -88t-89.5 -25q-41 0 -65.5 9t-36.5 25.5t-15 37t-3 43.5v292 q0 23 3 43.5t15 37t36.5 25.5t65.5 9h33v201q-57 -10 -109.5 -15.5t-105.5 -5.5q-94 0 -161.5 17.5t-110.5 57.5t-63.5 104.5t-20.5 158.5z" />
<glyph unicode="&#x4cd;" horiz-adv-x="1693" d="M133 106v1188q0 76 42 109t128 33q90 0 130 -34t59 -95l317 -1014l299 1005q23 74 69 106t136 32q86 0 126 -32t40 -97v-1061h67q55 0 93 -39t38 -94q0 -14 -2 -21l-92 -346q-14 -53 -47 -79.5t-80 -26.5q-55 0 -93 33.5t-38 88.5q0 20 6 45l49 193h-28q-66 0 -93.5 28.5 t-27.5 88.5v876l-289 -893q-16 -53 -53 -78.5t-84 -25.5q-66 0 -100.5 29.5t-51.5 83.5l-274 862v-871q0 -47 -26.5 -80.5t-98.5 -33.5q-68 0 -94.5 28.5t-26.5 91.5z" />
<glyph unicode="&#x4ce;" horiz-adv-x="1339" d="M119 90v879q0 70 32.5 96.5t108.5 26.5q68 0 98.5 -26t47.5 -69l239 -702l236 696q16 51 46.5 76t104.5 25q76 0 106.5 -27t30.5 -94v-750h43q47 0 81 -34.5t34 -84.5q0 -8 -4 -24l-76 -285q-25 -94 -117 -94q-47 0 -80.5 30.5t-33.5 80.5q0 18 6 36l41 154h-8 q-63 0 -88 24.5t-25 79.5v492l-186 -518q-29 -80 -113 -80q-55 0 -81.5 23.5t-39.5 58.5l-176 504v-496q0 -51 -23.5 -76.5t-89.5 -25.5q-63 0 -88.5 22.5t-25.5 81.5z" />
<glyph unicode="&#x4cf;" horiz-adv-x="524" d="M133 106v1215q0 61 36 88t95 27q55 0 91 -27t36 -88v-1215q0 -47 -26.5 -83.5t-100.5 -36.5q-70 0 -100.5 28.5t-30.5 91.5z" />
<glyph unicode="&#x4d0;" horiz-adv-x="1169" d="M23 104q0 16 3 34t9 32l403 1163q20 59 61.5 81t88.5 22t86 -19.5t61 -81.5l402 -1163q10 -27 10 -61q0 -51 -30 -88t-95 -37q-90 0 -123 82l-74 194h-485l-68 -196q-14 -43 -44.5 -61.5t-65.5 -18.5q-74 0 -106.5 33.5t-32.5 84.5zM291 1739q0 45 29.5 66.5t76.5 21.5 q31 0 47.5 -15t28.5 -46q16 -45 38 -65.5t77 -20.5q53 0 77.5 23.5t39.5 66.5q10 29 24.5 43t44.5 14q53 0 81 -23.5t28 -62.5t-17.5 -78t-54.5 -70.5t-92 -51t-131 -19.5q-78 0 -134.5 19.5t-92 50t-53 69.5t-17.5 78zM412 485h336l-168 580z" />
<glyph unicode="&#x4d1;" horiz-adv-x="1046" d="M61 266q0 88 28 151.5t75 106.5t107.5 68.5t125.5 38.5q72 14 135.5 22.5t147.5 14.5v57q0 31 -6 60.5t-24.5 54t-51.5 39t-84 14.5q-53 0 -99 -20.5t-106 -65.5q-23 -16 -44 -30.5t-56 -14.5q-20 0 -39.5 9t-35 24.5t-26 36t-10.5 40.5q0 39 17.5 65t64.5 60 q72 53 163 80t177 27q215 0 311.5 -93t96.5 -286v-627q0 -59 -31 -85.5t-96 -26.5q-55 0 -87 25.5t-32 86.5v27q-20 -29 -46 -55.5t-62.5 -48t-84 -35t-110.5 -13.5q-147 0 -232.5 74t-85.5 219zM236 1415q0 45 29.5 66.5t76.5 21.5q31 0 47.5 -15t28.5 -46q16 -45 38 -65.5 t77 -20.5q53 0 77.5 23.5t39.5 66.5q10 29 24.5 43t44.5 14q53 0 81 -23.5t28 -62.5t-17.5 -78t-54.5 -70.5t-92 -51t-131 -19.5q-78 0 -134.5 19.5t-92 50t-53 69.5t-17.5 78zM309 297q0 -47 28 -82t99 -35q55 0 100.5 18.5t77 49.5t49 71.5t17.5 88.5v81 q-72 -8 -135.5 -18t-93.5 -18q-82 -20 -112 -63.5t-30 -92.5z" />
<glyph unicode="&#x4d2;" horiz-adv-x="1169" d="M23 104q0 16 3 34t9 32l403 1163q20 59 61.5 81t88.5 22t86 -19.5t61 -81.5l402 -1163q10 -27 10 -61q0 -51 -30 -88t-95 -37q-90 0 -123 82l-74 194h-485l-68 -196q-14 -43 -44.5 -61.5t-65.5 -18.5q-74 0 -106.5 33.5t-32.5 84.5zM242 1673q0 61 36.5 100t96.5 39 q51 0 92 -33.5t41 -105.5q0 -63 -37 -101t-96 -38t-96 38t-37 101zM412 485h336l-168 580zM672 1673q0 61 37 100t96 39q49 0 91 -33.5t42 -105.5q0 -63 -37 -101t-96 -38t-96 38t-37 101z" />
<glyph unicode="&#x4d3;" horiz-adv-x="1046" d="M61 266q0 88 28 151.5t75 106.5t107.5 68.5t125.5 38.5q72 14 135.5 22.5t147.5 14.5v57q0 31 -6 60.5t-24.5 54t-51.5 39t-84 14.5q-53 0 -99 -20.5t-106 -65.5q-23 -16 -44 -30.5t-56 -14.5q-20 0 -39.5 9t-35 24.5t-26 36t-10.5 40.5q0 39 17.5 65t64.5 60 q72 53 163 80t177 27q215 0 311.5 -93t96.5 -286v-627q0 -59 -31 -85.5t-96 -26.5q-55 0 -87 25.5t-32 86.5v27q-20 -29 -46 -55.5t-62.5 -48t-84 -35t-110.5 -13.5q-147 0 -232.5 74t-85.5 219zM168 1366q0 61 36.5 100t96.5 39q51 0 92 -33.5t41 -105.5q0 -63 -37 -101 t-96 -38t-96 38t-37 101zM309 297q0 -47 28 -82t99 -35q55 0 100.5 18.5t77 49.5t49 71.5t17.5 88.5v81q-72 -8 -135.5 -18t-93.5 -18q-82 -20 -112 -63.5t-30 -92.5zM598 1366q0 61 37 100t96 39q49 0 91 -33.5t42 -105.5q0 -63 -37 -101t-96 -38t-96 38t-37 101z" />
<glyph unicode="&#x4d4;" horiz-adv-x="1685" d="M20 94q0 16 3.5 33.5t9.5 32.5l532 1179q23 53 53.5 70.5t73.5 17.5h850q102 0 103 -118q0 -53 -21.5 -86t-75.5 -33h-538v-354h487q98 0 98 -113q0 -53 -21.5 -88t-76.5 -35h-487v-358h549q43 0 64.5 -33t21.5 -88q0 -53 -21.5 -87t-77.5 -34h-688q-100 0 -100 109v239 h-365l-123 -293q-35 -80 -110 -80q-74 0 -107 34t-33 85zM489 571h269v637z" />
<glyph unicode="&#x4d5;" horiz-adv-x="1665" d="M61 268q0 88 28 151.5t75 106.5t107.5 67.5t125.5 39.5q72 14 135.5 22.5t147.5 14.5v55q0 31 -6 60.5t-24.5 53t-51.5 39t-84 15.5q-53 0 -99 -20.5t-106 -67.5q-23 -16 -44 -30.5t-56 -14.5q-41 0 -76 33.5t-35 78.5q0 39 17.5 64t64.5 59q74 53 164 81t176 28 q119 0 200 -38t128 -103q55 66 137 103.5t193 37.5q94 0 171.5 -35t134 -102.5t87.5 -167t31 -228.5q0 -59 -33 -80.5t-92 -21.5h-535q4 -135 62.5 -208t171.5 -73q66 0 103.5 15.5t82.5 46.5l49 33q25 16 57 16q39 0 72 -36t33 -87q0 -53 -41 -93t-102.5 -66.5t-132 -39 t-130.5 -12.5q-274 0 -397 185q-72 -98 -170 -137.5t-221 -39.5q-147 0 -232.5 74t-85.5 221zM309 299q0 -47 28 -83t99 -36q55 0 100.5 20.5t77 53.5t49 76t17.5 88v71q-72 -8 -135.5 -18t-93.5 -18q-82 -23 -112 -64t-30 -90zM950 672h398q0 41 -11.5 80t-35 69.5 t-60.5 49t-86 18.5q-78 0 -136 -57.5t-69 -159.5z" />
<glyph unicode="&#x4d6;" horiz-adv-x="1060" d="M133 109v1210q0 45 26.5 73.5t73.5 28.5h685q102 0 102 -118q0 -53 -21.5 -86t-74.5 -33h-533v-348h481q98 0 99 -113q0 -53 -21.5 -88t-77.5 -35h-481v-358h543q43 0 64.5 -33t21.5 -88q0 -53 -21.5 -87t-76.5 -34h-689q-100 0 -100 109zM285 1739q0 45 29.5 66.5 t76.5 21.5q31 0 47.5 -15t28.5 -46q16 -45 38 -65.5t77 -20.5q53 0 77.5 23.5t39.5 66.5q10 29 24.5 43t44.5 14q53 0 81 -23.5t28 -62.5t-17.5 -78t-54.5 -70.5t-92 -51t-131 -19.5q-78 0 -134.5 19.5t-92 50t-53 69.5t-17.5 78z" />
<glyph unicode="&#x4d7;" horiz-adv-x="1054" d="M70 526q0 109 27.5 212.5t87 185.5t149.5 131t217 49q201 0 320.5 -136.5t119.5 -394.5q0 -59 -32.5 -81.5t-92.5 -22.5h-534q4 -135 63.5 -208t169.5 -73q66 0 104 15.5t83 44.5l49 33q25 16 57 16q39 0 72 -35t33 -86q0 -53 -41 -93t-102.5 -66.5t-132.5 -39 t-130 -12.5q-231 0 -359 143.5t-128 417.5zM266 1415q0 45 29.5 66.5t76.5 21.5q31 0 47.5 -15t28.5 -46q16 -45 38 -65.5t77 -20.5q53 0 77.5 23.5t39.5 66.5q10 29 24.5 43t44.5 14q53 0 81 -23.5t28 -62.5t-17.5 -78t-54.5 -70.5t-92 -51t-131 -19.5q-78 0 -134.5 19.5 t-92 50t-53 69.5t-17.5 78zM340 672h397q0 43 -11 82t-34.5 68.5t-60.5 48t-86 18.5q-78 0 -136.5 -57.5t-68.5 -159.5z" />
<glyph unicode="&#x4d8;" horiz-adv-x="1415" d="M82 735q0 57 32.5 79t92.5 22h842q-10 84 -33 153.5t-65 119.5t-107.5 77.5t-157.5 27.5q-45 0 -79 -6t-64.5 -21.5t-60 -42t-66.5 -67.5q-33 -37 -58.5 -59.5t-60.5 -22.5q-47 0 -83 37t-36 86q0 78 70 158q59 70 170.5 125t265.5 55q160 0 280.5 -56.5t201.5 -155.5 t122 -235.5t41 -295.5q0 -139 -38 -272.5t-114.5 -240t-195.5 -171t-279 -64.5q-147 0 -262.5 55.5t-195.5 157t-121 243.5t-41 314zM360 600q6 -84 33 -154.5t71 -123t104 -82t134 -29.5q82 0 143.5 32.5t104.5 87t66.5 125t30.5 144.5h-687z" />
<glyph unicode="&#x4d9;" horiz-adv-x="1054" d="M63 496q0 59 33 81.5t92 22.5h535q-4 135 -63.5 208t-170.5 73q-66 0 -103.5 -15.5t-82.5 -44.5l-49 -33q-25 -16 -57 -16q-39 0 -72 35t-33 86q0 53 41 93t102.5 66.5t132 39t130.5 12.5q231 0 359 -143.5t128 -417.5q0 -109 -27.5 -212.5t-87 -185.5t-149.5 -131 t-217 -49q-201 0 -321 136.5t-120 394.5zM317 397q0 -43 11.5 -82t35 -68.5t60.5 -48t86 -18.5q78 0 136.5 57.5t68.5 159.5h-398z" />
<glyph unicode="&#x4da;" horiz-adv-x="1415" d="M82 735q0 57 32.5 79t92.5 22h842q-10 84 -33 153.5t-65 119.5t-107.5 77.5t-157.5 27.5q-45 0 -79 -6t-64.5 -21.5t-60 -42t-66.5 -67.5q-33 -37 -58.5 -59.5t-60.5 -22.5q-47 0 -83 37t-36 86q0 78 70 158q59 70 170.5 125t265.5 55q160 0 280.5 -56.5t201.5 -155.5 t122 -235.5t41 -295.5q0 -139 -38 -272.5t-114.5 -240t-195.5 -171t-279 -64.5q-147 0 -262.5 55.5t-195.5 157t-121 243.5t-41 314zM360 600q6 -84 33 -154.5t71 -123t104 -82t134 -29.5q82 0 143.5 32.5t104.5 87t66.5 125t30.5 144.5h-687zM361 1673q0 61 36.5 100 t96.5 39q51 0 92 -33.5t41 -105.5q0 -63 -37 -101t-96 -38t-96 38t-37 101zM791 1673q0 61 37 100t96 39q49 0 91 -33.5t42 -105.5q0 -63 -37 -101t-96 -38t-96 38t-37 101z" />
<glyph unicode="&#x4db;" horiz-adv-x="1054" d="M63 496q0 59 33 81.5t92 22.5h535q-4 135 -63.5 208t-170.5 73q-66 0 -103.5 -15.5t-82.5 -44.5l-49 -33q-25 -16 -57 -16q-39 0 -72 35t-33 86q0 53 41 93t102.5 66.5t132 39t130.5 12.5q231 0 359 -143.5t128 -417.5q0 -109 -27.5 -212.5t-87 -185.5t-149.5 -131 t-217 -49q-201 0 -321 136.5t-120 394.5zM178 1366q0 61 36.5 100t96.5 39q51 0 92 -33.5t41 -105.5q0 -63 -37 -101t-96 -38t-96 38t-37 101zM317 397q0 -43 11.5 -82t35 -68.5t60.5 -48t86 -18.5q78 0 136.5 57.5t68.5 159.5h-398zM608 1366q0 61 37 100t96 39 q49 0 91 -33.5t42 -105.5q0 -63 -37 -101t-96 -38t-96 38t-37 101z" />
<glyph unicode="&#x4dc;" horiz-adv-x="1755" d="M27 111q0 16 7 32.5t17 30.5l336 559l-272 479q-16 29 -28.5 60t-12.5 53q0 27 12 47.5t32.5 34.5t45 21.5t47.5 7.5q39 0 62.5 -19.5t41.5 -54.5l295 -524h140v483q0 61 35.5 88t95.5 27q55 0 91 -27t36 -88v-483h137l295 524q18 35 41.5 54.5t62.5 19.5q23 0 47.5 -7.5 t44 -21.5t32.5 -34.5t13 -47.5q0 -23 -12 -53.5t-29 -59.5l-272 -479l336 -559q10 -14 17.5 -30.5t7.5 -32.5q0 -47 -40 -86t-106 -39q-43 0 -69.5 22.5t-49.5 61.5l-319 534h-137v-498q0 -47 -27 -83.5t-100 -36.5q-70 0 -100.5 28.5t-30.5 91.5v498h-140l-319 -534 q-23 -39 -49.5 -61.5t-69.5 -22.5q-66 0 -105.5 38.5t-39.5 86.5zM535 1673q0 61 36.5 100t96.5 39q51 0 92 -33.5t41 -105.5q0 -63 -37 -101t-96 -38t-96 38t-37 101zM965 1673q0 61 37 100t96 39q49 0 91 -33.5t42 -105.5q0 -63 -37 -101t-96 -38t-96 38t-37 101z" />
<glyph unicode="&#x4dd;" horiz-adv-x="1335" d="M16 92q0 27 15.5 54.5t27.5 50.5l199 360l-172 315q-16 31 -28.5 61t-12.5 54q0 41 39 73t90 32q35 0 56.5 -13.5t37.5 -48.5l191 -381h88v334q0 59 32.5 84t88.5 25q121 0 120 -109v-334h89l196 381q33 61 94 62q49 0 87 -26t38 -67q0 -29 -11 -55t-28 -57l-174 -336 l224 -401q16 -29 16 -60q0 -47 -40 -75.5t-83 -28.5q-47 0 -67.5 16t-41.5 51l-200 371h-99v-324q0 -23 -3 -43t-15 -36.5t-36.5 -25.5t-65.5 -9q-57 0 -89 24.5t-32 87.5v326h-98l-205 -371q-18 -35 -39 -51t-68 -16q-51 0 -86 32.5t-35 73.5zM324 1366q0 61 36.5 100 t96.5 39q51 0 92 -33.5t41 -105.5q0 -63 -37 -101t-96 -38t-96 38t-37 101zM754 1366q0 61 37 100t96 39q49 0 91 -33.5t42 -105.5q0 -63 -37 -101t-96 -38t-96 38t-37 101z" />
<glyph unicode="&#x4de;" horiz-adv-x="1112" d="M6 244q0 27 13.5 51t34 42.5t45 30t46.5 11.5q29 0 54.5 -16.5t50.5 -40.5q18 -18 40.5 -40t54.5 -40.5t78 -29.5t114 -11q117 0 178 51t61 156q0 111 -71.5 157.5t-210.5 46.5h-156q-57 0 -76.5 34t-19.5 83q0 47 19.5 80t76.5 33h176q117 0 175.5 57t58.5 150 q0 72 -47.5 121t-159.5 49q-53 0 -92 -10.5t-68 -27t-49.5 -36t-38.5 -37.5q-29 -31 -53.5 -52.5t-65.5 -21.5q-45 0 -84 33t-39 84q0 35 18.5 67t36.5 52q25 27 63 58.5t93 60t130 48t173 19.5q117 0 201 -30.5t139.5 -83t81 -122t25.5 -149.5q0 -104 -52.5 -190 t-134.5 -138q106 -41 166 -126t60 -201q0 -219 -130 -335t-384 -116q-135 0 -229.5 27.5t-155.5 68.5q-80 51 -113 97.5t-33 85.5zM187 1673q0 61 36.5 100t96.5 39q51 0 92 -33.5t41 -105.5q0 -63 -37 -101t-96 -38t-96 38t-37 101zM617 1673q0 61 37 100t96 39 q49 0 91 -33.5t42 -105.5q0 -63 -37 -101t-96 -38t-96 38t-37 101z" />
<glyph unicode="&#x4df;" horiz-adv-x="892" d="M16 184q0 23 11.5 44.5t29 38t39 26.5t41.5 10q29 0 49.5 -13.5t40.5 -33.5q27 -29 77 -55.5t126 -26.5t118 34t42 93q0 66 -42 105.5t-124 39.5h-143q-61 0 -83 32t-22 75q0 39 21.5 70.5t83.5 31.5h139q70 0 107.5 35t37.5 96q0 104 -127 105q-72 0 -110.5 -21.5 t-75.5 -54.5q-18 -16 -38.5 -32.5t-51.5 -16.5q-43 0 -82 32.5t-39 80.5q0 29 15.5 53t31.5 43q20 20 53 42.5t78 42t102.5 32t127.5 12.5q100 0 168.5 -23.5t111.5 -64.5t61.5 -94.5t18.5 -110.5q0 -78 -40 -144.5t-101 -105.5q84 -37 126 -105.5t42 -150.5 q0 -160 -106.5 -250t-309.5 -90q-74 0 -129 11.5t-96 27.5t-70 35.5t-49 36.5q-59 51 -60 108zM97 1366q0 61 36.5 100t96.5 39q51 0 92 -33.5t41 -105.5q0 -63 -37 -101t-96 -38t-96 38t-37 101zM527 1366q0 61 37 100t96 39q49 0 91 -33.5t42 -105.5q0 -63 -37 -101 t-96 -38t-96 38t-37 101z" />
<glyph unicode="&#x4e0;" horiz-adv-x="1085" d="M35 229q0 59 37 97.5t88 38.5q37 0 62.5 -21.5t62.5 -54.5q35 -29 75.5 -57.5t108.5 -28.5q106 0 173 52t67 175q0 57 -22.5 98t-58.5 67t-82 37t-93 11h-39q-47 0 -67.5 36t-20.5 79q0 47 22.5 81.5t46.5 63.5l240 273h-477q-55 0 -79 36.5t-24 83.5t25.5 86t77.5 39 h735q47 0 83 -25.5t36 -84.5q0 -47 -20.5 -81t-55.5 -71l-279 -311q141 -39 225.5 -144.5t84.5 -279.5q0 -115 -38 -200t-105.5 -143t-160 -87t-198.5 -29q-78 0 -136.5 12.5t-102.5 33t-77.5 45t-58.5 48.5q-20 18 -37.5 54t-17.5 71z" />
<glyph unicode="&#x4e1;" horiz-adv-x="976" d="M0 -119q0 53 37 86t82 33q37 0 60.5 -18.5t47.5 -51.5q47 -63 103.5 -105t130.5 -42q39 0 73.5 14.5t62.5 43t44 70.5t16 99q0 37 -11 75t-37.5 68.5t-68.5 50t-104 19.5h-125q-43 0 -68.5 30t-25.5 77t20.5 86t45.5 67l301 365h-398q-66 0 -89 29.5t-23 83.5 q0 53 23.5 81.5t86.5 28.5h621q111 0 110 -102q0 -47 -15 -79t-40 -61l-328 -397q383 -63 383 -430q0 -106 -36.5 -188t-100 -138.5t-146.5 -86t-175 -29.5q-82 0 -145.5 16t-110.5 41t-80 53.5t-53 55.5q-29 35 -48.5 74.5t-19.5 80.5z" />
<glyph unicode="&#x4e2;" horiz-adv-x="1296" d="M133 117v1200q0 66 35 92.5t92 26.5q59 0 92 -27t33 -92v-873l500 899q33 59 68.5 76t76.5 17q57 0 95 -32t38 -101v-1197q0 -63 -30.5 -91.5t-100.5 -28.5q-74 0 -98.5 36.5t-24.5 83.5v836l-508 -870q-51 -86 -143 -86q-43 0 -67.5 12t-37 30.5t-16.5 42t-4 46.5z M310 1675q0 57 21.5 85t74.5 28h489q53 0 72.5 -27.5t19.5 -85.5q0 -63 -23.5 -85.5t-70.5 -22.5h-489q-45 0 -69.5 23.5t-24.5 84.5z" />
<glyph unicode="&#x4e3;" horiz-adv-x="1101" d="M119 100v879q0 63 31.5 88t87.5 25q59 0 89.5 -25t30.5 -88v-580l383 619q27 43 54.5 58.5t64.5 15.5q57 0 90 -26t33 -91v-877q0 -63 -30.5 -87.5t-92.5 -24.5q-66 0 -92.5 28.5t-26.5 83.5v559l-372 -598q-27 -41 -57.5 -57t-75.5 -16q-72 0 -94.5 30.5t-22.5 83.5z M211 1368q0 57 21.5 85t74.5 28h490q53 0 72.5 -28t19.5 -85q0 -63 -23.5 -85.5t-70.5 -22.5h-490q-45 0 -69.5 23.5t-24.5 84.5z" />
<glyph unicode="&#x4e4;" horiz-adv-x="1296" d="M133 117v1200q0 66 35 92.5t92 26.5q59 0 92 -27t33 -92v-873l500 899q33 59 68.5 76t76.5 17q57 0 95 -32t38 -101v-1197q0 -63 -30.5 -91.5t-100.5 -28.5q-74 0 -98.5 36.5t-24.5 83.5v836l-508 -870q-51 -86 -143 -86q-43 0 -67.5 12t-37 30.5t-16.5 42t-4 46.5z M299 1673q0 61 36.5 100t96.5 39q51 0 92 -33.5t41 -105.5q0 -63 -37 -101t-96 -38t-96 38t-37 101zM729 1673q0 61 37 100t96 39q49 0 91 -33.5t42 -105.5q0 -63 -37 -101t-96 -38t-96 38t-37 101z" />
<glyph unicode="&#x4e5;" horiz-adv-x="1101" d="M119 100v879q0 63 31.5 88t87.5 25q59 0 89.5 -25t30.5 -88v-580l383 619q27 43 54.5 58.5t64.5 15.5q57 0 90 -26t33 -91v-877q0 -63 -30.5 -87.5t-92.5 -24.5q-66 0 -92.5 28.5t-26.5 83.5v559l-372 -598q-27 -41 -57.5 -57t-75.5 -16q-72 0 -94.5 30.5t-22.5 83.5z M203 1366q0 61 36.5 100t96.5 39q51 0 92 -33.5t41 -105.5q0 -63 -37 -101t-96 -38t-96 38t-37 101zM633 1366q0 61 37 100t96 39q49 0 91 -33.5t42 -105.5q0 -63 -37 -101t-96 -38t-96 38t-37 101z" />
<glyph unicode="&#x4e6;" horiz-adv-x="1417" d="M86 696q0 166 44 305.5t125 240.5t196 157.5t258 56.5q150 0 265.5 -55t195 -154.5t120.5 -237t41 -300.5q0 -168 -43 -305.5t-124 -234.5t-196.5 -150.5t-258.5 -53.5q-152 0 -267.5 52.5t-194.5 147.5t-120 230t-41 301zM356 702q0 -231 87.5 -363t265.5 -132t265 132 t87 363q0 111 -21.5 204t-65.5 161t-110.5 105.5t-154.5 37.5q-90 0 -156 -37.5t-110 -105.5t-65.5 -161t-21.5 -204zM361 1673q0 61 36.5 100t96.5 39q51 0 92 -33.5t41 -105.5q0 -63 -37 -101t-96 -38t-96 38t-37 101zM791 1673q0 61 37 100t96 39q49 0 91 -33.5 t42 -105.5q0 -63 -37 -101t-96 -38t-96 38t-37 101z" />
<glyph unicode="&#x4e7;" horiz-adv-x="1122" d="M70 535q0 131 35.5 236.5t101 179t156 113.5t200.5 40q111 0 201 -36t154.5 -106.5t99.5 -177t35 -245.5q0 -133 -36 -239.5t-100.5 -180.5t-154.5 -114t-201 -40q-115 0 -205 40t-154.5 114t-98 179.5t-33.5 236.5zM213 1366q0 61 36.5 100t96.5 39q51 0 92 -33.5 t41 -105.5q0 -63 -37 -101t-96 -38t-96 38t-37 101zM332 537q0 -174 61.5 -261.5t167.5 -87.5q111 0 173.5 86t62.5 256q0 174 -61.5 259t-174.5 85q-106 0 -167.5 -84.5t-61.5 -252.5zM643 1366q0 61 37 100t96 39q49 0 91 -33.5t42 -105.5q0 -63 -37 -101t-96 -38t-96 38 t-37 101z" />
<glyph unicode="&#x4e8;" horiz-adv-x="1417" d="M86 696q0 166 44 305.5t125 240.5t196 157.5t258 56.5q150 0 265.5 -55t195 -154.5t120.5 -237t41 -300.5q0 -168 -43 -305.5t-124 -234.5t-196.5 -150.5t-258.5 -53.5q-152 0 -267.5 52.5t-194.5 147.5t-120 230t-41 301zM360 600q16 -186 102.5 -289.5t246.5 -103.5 t244.5 103.5t103.5 289.5h-697zM365 838h686q-23 166 -107.5 269t-234.5 103q-152 0 -237 -103t-107 -269z" />
<glyph unicode="&#x4e9;" horiz-adv-x="1122" d="M70 535q0 131 35.5 236.5t101 179t156 113.5t200.5 40q111 0 201 -36t154.5 -106.5t99.5 -177t35 -245.5q0 -133 -36 -239.5t-100.5 -180.5t-154.5 -114t-201 -40q-115 0 -205 40t-154.5 114t-98 179.5t-33.5 236.5zM338 635h450q-34 239 -227 239q-92 0 -149.5 -60 t-73.5 -179zM340 424q18 -119 75.5 -177.5t145.5 -58.5q92 0 150.5 58.5t76.5 177.5h-448z" />
<glyph unicode="&#x4ea;" horiz-adv-x="1417" d="M86 696q0 166 44 305.5t125 240.5t196 157.5t258 56.5q150 0 265.5 -55t195 -154.5t120.5 -237t41 -300.5q0 -168 -43 -305.5t-124 -234.5t-196.5 -150.5t-258.5 -53.5q-152 0 -267.5 52.5t-194.5 147.5t-120 230t-41 301zM360 600q16 -186 102.5 -289.5t246.5 -103.5 t244.5 103.5t103.5 289.5h-697zM361 1673q0 61 36.5 100t96.5 39q51 0 92 -33.5t41 -105.5q0 -63 -37 -101t-96 -38t-96 38t-37 101zM365 838h686q-23 166 -107.5 269t-234.5 103q-152 0 -237 -103t-107 -269zM791 1673q0 61 37 100t96 39q49 0 91 -33.5t42 -105.5 q0 -63 -37 -101t-96 -38t-96 38t-37 101z" />
<glyph unicode="&#x4eb;" horiz-adv-x="1122" d="M70 535q0 131 35.5 236.5t101 179t156 113.5t200.5 40q111 0 201 -36t154.5 -106.5t99.5 -177t35 -245.5q0 -133 -36 -239.5t-100.5 -180.5t-154.5 -114t-201 -40q-115 0 -205 40t-154.5 114t-98 179.5t-33.5 236.5zM213 1366q0 61 36.5 100t96.5 39q51 0 92 -33.5 t41 -105.5q0 -63 -37 -101t-96 -38t-96 38t-37 101zM338 635h450q-34 239 -227 239q-92 0 -149.5 -60t-73.5 -179zM340 424q18 -119 75.5 -177.5t145.5 -58.5q92 0 150.5 58.5t76.5 177.5h-448zM643 1366q0 61 37 100t96 39q49 0 91 -33.5t42 -105.5q0 -63 -37 -101t-96 -38 t-96 38t-37 101z" />
<glyph unicode="&#x4ec;" horiz-adv-x="1257" d="M43 295q0 27 12.5 50.5t30.5 38.5t39.5 24.5t40.5 9.5q47 0 72.5 -22.5t64.5 -69.5q59 -72 117.5 -98.5t142.5 -26.5q78 0 136.5 29.5t99.5 84t64.5 127t31.5 158.5h-510q-55 0 -76.5 35t-21.5 88q0 113 98 113h510q-8 86 -31.5 155.5t-61.5 120.5t-93.5 79t-126.5 28 q-84 0 -144.5 -30t-124.5 -89q-35 -35 -65.5 -57.5t-79.5 -22.5q-53 0 -89 32.5t-36 82.5q0 41 22.5 79.5t61.5 73.5q86 78 198.5 123t264.5 45q162 0 272.5 -57.5t179 -155.5t99 -230t30.5 -282q0 -147 -31.5 -285.5t-104 -245t-192.5 -171t-296 -64.5q-74 0 -140.5 14.5 t-122 39t-99.5 56t-72 66.5q-35 41 -52.5 77t-17.5 77zM250 1673q0 61 36.5 100t96.5 39q51 0 92 -33.5t41 -105.5q0 -63 -37 -101t-96 -38t-96 38t-37 101zM680 1673q0 61 37 100t96 39q49 0 91 -33.5t42 -105.5q0 -63 -37 -101t-96 -38t-96 38t-37 101z" />
<glyph unicode="&#x4ed;" horiz-adv-x="1021" d="M61 860q0 37 31 79t88.5 79t135 61.5t173.5 24.5q223 0 343 -139.5t120 -417.5q0 -104 -25.5 -209t-83 -187.5t-150.5 -134t-230 -51.5q-98 0 -187.5 31t-154.5 96q-55 55 -55 113q0 47 35.5 83t80.5 36q29 0 46.5 -12.5t39.5 -35.5q31 -33 75 -60.5t122 -27.5 q55 0 96 19.5t67.5 53.5t41 77t16.5 90h-311q-109 0 -109 109q0 59 26.5 83.5t80.5 24.5h313q-4 43 -15.5 84t-35 75t-60 54.5t-92.5 20.5q-68 0 -112.5 -20.5t-94.5 -57.5q-25 -18 -48 -34.5t-56 -16.5q-53 0 -82 31.5t-29 78.5zM146 1366q0 61 36.5 100t96.5 39 q51 0 92 -33.5t41 -105.5q0 -63 -37 -101t-96 -38t-96 38t-37 101zM576 1366q0 61 37 100t96 39q49 0 91 -33.5t42 -105.5q0 -63 -37 -101t-96 -38t-96 38t-37 101z" />
<glyph unicode="&#x4ee;" horiz-adv-x="1114" d="M6 1317q0 27 13.5 48t35 36.5t48 25t53.5 9.5q45 0 64.5 -19.5t35.5 -54.5l319 -653l287 643q16 37 40 60.5t67 23.5q53 0 96 -29t43 -76q0 -23 -8 -49.5t-19 -48.5l-336 -731q-72 -154 -127 -254.5t-112 -158.5t-123 -80.5t-156 -22.5q-72 0 -103.5 26.5t-31.5 83.5 q0 47 26.5 86t98.5 39q53 0 85 16.5t60 67.5l74 137l-403 789q-10 18 -18.5 43.5t-8.5 42.5zM218 1675q0 57 21.5 85t74.5 28h489q53 0 72.5 -27.5t19.5 -85.5q0 -63 -23.5 -85.5t-70.5 -22.5h-489q-45 0 -69.5 23.5t-24.5 84.5z" />
<glyph unicode="&#x4ef;" d="M14 977q0 53 37 84t103 31q55 0 82.5 -24t42.5 -64l210 -629l224 626q16 47 41.5 69t74.5 22q66 0 99 -34t33 -83q0 -16 -3.5 -38t-13.5 -44l-481 -1223q-23 -53 -54.5 -83.5t-78.5 -30.5q-61 0 -93 35.5t-32 78.5q0 25 8 52.5t18 48.5l123 290l-323 834 q-12 31 -14.5 49.5t-2.5 32.5zM143 1368q0 57 21.5 85t74.5 28h490q53 0 72.5 -28t19.5 -85q0 -63 -23.5 -85.5t-70.5 -22.5h-490q-45 0 -69.5 23.5t-24.5 84.5z" />
<glyph unicode="&#x4f0;" horiz-adv-x="1114" d="M6 1317q0 27 13.5 48t35 36.5t48 25t53.5 9.5q45 0 64.5 -19.5t35.5 -54.5l319 -653l287 643q16 37 40 60.5t67 23.5q53 0 96 -29t43 -76q0 -23 -8 -49.5t-19 -48.5l-336 -731q-72 -154 -127 -254.5t-112 -158.5t-123 -80.5t-156 -22.5q-72 0 -103.5 26.5t-31.5 83.5 q0 47 26.5 86t98.5 39q53 0 85 16.5t60 67.5l74 137l-403 789q-10 18 -18.5 43.5t-8.5 42.5zM209 1673q0 61 36.5 100t96.5 39q51 0 92 -33.5t41 -105.5q0 -63 -37 -101t-96 -38t-96 38t-37 101zM639 1673q0 61 37 100t96 39q49 0 91 -33.5t42 -105.5q0 -63 -37 -101 t-96 -38t-96 38t-37 101z" />
<glyph unicode="&#x4f1;" d="M14 956q0 53 37 84t103 31q55 0 82.5 -23.5t42.5 -64.5l210 -608l224 606q16 47 41.5 68.5t74.5 21.5q66 0 99 -33.5t33 -83.5q0 -16 -3.5 -37.5t-13.5 -44.5l-481 -1202q-23 -53 -54.5 -83.5t-78.5 -30.5q-61 0 -93 35.5t-32 78.5q0 25 8 52.5t18 48.5l123 290l-323 813 q-12 31 -14.5 49.5t-2.5 32.5zM156 1366q0 61 36.5 100t96.5 39q51 0 92 -33.5t41 -105.5q0 -63 -37 -101t-96 -38t-96 38t-37 101zM586 1366q0 61 37 100t96 39q49 0 91 -33.5t42 -105.5q0 -63 -37 -101t-96 -38t-96 38t-37 101z" />
<glyph unicode="&#x4f2;" horiz-adv-x="1114" d="M6 1317q0 27 13.5 48t35 36.5t48 25t53.5 9.5q45 0 64.5 -19.5t35.5 -54.5l319 -653l287 643q16 37 40 60.5t67 23.5q53 0 96 -29t43 -76q0 -23 -8 -49.5t-19 -48.5l-336 -731q-72 -154 -127 -254.5t-112 -158.5t-123 -80.5t-156 -22.5q-72 0 -103.5 26.5t-31.5 83.5 q0 47 26.5 86t98.5 39q53 0 85 16.5t60 67.5l74 137l-403 789q-10 18 -18.5 43.5t-8.5 42.5zM182 1622q0 47 45 86l137 121q31 27 60.5 44t54.5 17q27 0 48.5 -12t37.5 -31.5t25.5 -43t9.5 -48.5q0 -55 -59 -92l-191 -115q-18 -10 -37.5 -17t-42.5 -7q-37 0 -62.5 28.5 t-25.5 69.5zM624 1622q0 47 46 86l137 121q31 27 60.5 44t53.5 17q27 0 48.5 -12t38 -31.5t25.5 -43t9 -48.5q0 -55 -59 -92l-191 -115q-18 -10 -37.5 -17t-41.5 -7q-37 0 -63 28.5t-26 69.5z" />
<glyph unicode="&#x4f3;" d="M14 956q0 53 37 84t103 31q55 0 82.5 -23.5t42.5 -64.5l210 -608l224 606q16 47 41.5 68.5t74.5 21.5q66 0 99 -33.5t33 -83.5q0 -16 -3.5 -37.5t-13.5 -44.5l-481 -1202q-23 -53 -54.5 -83.5t-78.5 -30.5q-61 0 -93 35.5t-32 78.5q0 25 8 52.5t18 48.5l123 290l-323 813 q-12 31 -14.5 49.5t-2.5 32.5zM164 1280q0 39 29 80l120 164q33 43 63 60.5t64 17.5q53 0 87 -36t34 -79q0 -45 -37 -82l-168 -158q-23 -20 -46 -34.5t-56 -14.5q-35 0 -62.5 21.5t-27.5 60.5zM557 1280q0 16 6 36.5t23 43.5l121 164q31 43 61.5 60.5t65.5 17.5 q53 0 86.5 -36t33.5 -79q0 -45 -38 -82l-168 -158q-20 -20 -44 -34.5t-57 -14.5q-37 0 -63.5 21.5t-26.5 60.5z" />
<glyph unicode="&#x4f4;" horiz-adv-x="1214" d="M88 1001v320q0 61 36 88t95 27q55 0 91 -27t36 -88v-283q0 -55 10.5 -96t37 -67.5t73.5 -40t121 -13.5q59 0 114.5 6.5t120.5 20.5v473q0 61 36 88t95 27q55 0 91 -27t36 -88v-1215q0 -47 -26.5 -83.5t-100.5 -36.5q-70 0 -100.5 28.5t-30.5 91.5v504q-70 -10 -133 -18 t-129 -8q-115 0 -203 21.5t-147 70.5t-91 129t-32 196zM238 1673q0 61 36.5 100t96.5 39q51 0 92 -33.5t41 -105.5q0 -63 -37 -101t-96 -38t-96 38t-37 101zM668 1673q0 61 37 100t96 39q49 0 91 -33.5t42 -105.5q0 -63 -37 -101t-96 -38t-96 38t-37 101z" />
<glyph unicode="&#x4f5;" horiz-adv-x="1011" d="M78 739v248q0 55 31.5 80t85.5 25q59 0 90.5 -25t31.5 -80v-205q0 -45 5.5 -76.5t21.5 -52t47 -31t84 -10.5q84 0 174 19v348q0 63 33 88t88 25t89 -25t34 -88v-885q0 -109 -121 -108q-51 0 -87 24.5t-36 83.5v328q-57 -10 -109.5 -15.5t-105.5 -5.5q-94 0 -161.5 17.5 t-110.5 57.5t-63.5 104.5t-20.5 158.5zM137 1366q0 61 36.5 100t96.5 39q51 0 92 -33.5t41 -105.5q0 -63 -37 -101t-96 -38t-96 38t-37 101zM567 1366q0 61 37 100t96 39q49 0 91 -33.5t42 -105.5q0 -63 -37 -101t-96 -38t-96 38t-37 101z" />
<glyph unicode="&#x4f6;" horiz-adv-x="1015" d="M133 121v1198q0 45 26.5 73.5t73.5 28.5h685q102 0 102 -118q0 -53 -21.5 -86t-74.5 -33h-533v-938h78q74 0 100.5 -37t26.5 -84v-365q0 -47 -26.5 -83.5t-100.5 -36.5q-70 0 -100.5 28.5t-30.5 91.5v240h-74q-70 0 -100.5 28.5t-30.5 92.5z" />
<glyph unicode="&#x4f7;" horiz-adv-x="829" d="M119 115v846q0 55 30.5 82.5t83.5 27.5h467q61 0 87 -24.5t26 -85.5q0 -53 -24.5 -83t-88.5 -30h-340v-627h33q41 0 65.5 -9t37 -25.5t15.5 -37t3 -43.5v-292q0 -23 -3 -43.5t-15.5 -37t-37 -25.5t-65.5 -9q-57 0 -89 24.5t-32 88.5v188h-32q-59 0 -90 25.5t-31 89.5z " />
<glyph unicode="&#x4f8;" horiz-adv-x="1722" d="M133 121v1196q0 57 28.5 88t100.5 31t100.5 -30t28.5 -85v-432h254q104 0 194.5 -20.5t157 -70.5t104.5 -133t38 -208q0 -217 -135.5 -337t-399.5 -120h-366q-55 6 -80 34.5t-25 86.5zM391 229h260q55 0 93 17.5t62.5 48.5t36 69.5t11.5 81.5t-10 82t-35 70t-68 48.5 t-108 17.5h-242v-435zM547 1673q0 61 36.5 100t96.5 39q51 0 92 -33.5t41 -105.5q0 -63 -37 -101t-96 -38t-96 38t-37 101zM977 1673q0 61 37 100t96 39q49 0 91 -33.5t42 -105.5q0 -63 -37 -101t-96 -38t-96 38t-37 101zM1331 106v1215q0 61 36 88t95 27q55 0 91 -27 t36 -88v-1215q0 -47 -26.5 -83.5t-100.5 -36.5q-70 0 -100.5 28.5t-30.5 91.5z" />
<glyph unicode="&#x4f9;" horiz-adv-x="1419" d="M119 104v877q0 59 29.5 85t87.5 26q66 0 93 -25t27 -84v-297h156q86 0 161 -14.5t132 -52t90 -102t33 -165.5q0 -166 -102.5 -259t-301.5 -93h-291q-53 0 -83.5 25.5t-30.5 78.5zM356 205h160q90 0 128 38t38 101q0 61 -37 99t-141 38h-148v-276zM383 1366q0 61 36.5 100 t96.5 39q51 0 92 -33.5t41 -105.5q0 -63 -37 -101t-96 -38t-96 38t-37 101zM813 1366q0 61 37 100t96 39q49 0 91 -33.5t42 -105.5q0 -63 -37 -101t-96 -38t-96 38t-37 101zM1059 98v875q0 63 27.5 91t93.5 28q59 0 89.5 -25t30.5 -90v-877q0 -66 -30.5 -90t-89.5 -24 q-63 0 -92 24.5t-29 87.5z" />
<glyph unicode="&#x2000;" horiz-adv-x="945" />
<glyph unicode="&#x2001;" horiz-adv-x="1890" />
<glyph unicode="&#x2002;" horiz-adv-x="945" />
<glyph unicode="&#x2003;" horiz-adv-x="1890" />
<glyph unicode="&#x2004;" horiz-adv-x="630" />
<glyph unicode="&#x2005;" horiz-adv-x="472" />
<glyph unicode="&#x2006;" horiz-adv-x="315" />
<glyph unicode="&#x2007;" horiz-adv-x="315" />
<glyph unicode="&#x2008;" horiz-adv-x="236" />
<glyph unicode="&#x2009;" horiz-adv-x="378" />
<glyph unicode="&#x200a;" horiz-adv-x="105" />
<glyph unicode="&#x2010;" horiz-adv-x="600" d="M25 520q0 57 18 97t72 40h370q53 0 73 -39.5t20 -97.5q0 -63 -24 -99t-71 -36h-370q-45 2 -66.5 38t-21.5 97z" />
<glyph unicode="&#x2011;" horiz-adv-x="600" d="M25 520q0 57 18 97t72 40h370q53 0 73 -39.5t20 -97.5q0 -63 -24 -99t-71 -36h-370q-45 2 -66.5 38t-21.5 97z" />
<glyph unicode="&#x2012;" horiz-adv-x="600" d="M25 520q0 57 18 97t72 40h370q53 0 73 -39.5t20 -97.5q0 -63 -24 -99t-71 -36h-370q-45 2 -66.5 38t-21.5 97z" />
<glyph unicode="&#x2013;" horiz-adv-x="1024" d="M37 502q0 57 19.5 96t70.5 39h741q51 0 70.5 -39t19.5 -96q0 -127 -94 -127h-739q-88 2 -88 127z" />
<glyph unicode="&#x2014;" horiz-adv-x="2048" d="M98 504q0 57 19.5 95t70.5 38h1663q51 0 71 -38t20 -95q0 -129 -95 -129h-1661q-88 2 -88 129z" />
<glyph unicode="&#x2018;" horiz-adv-x="475" d="M74 1006q0 119 44 234.5t130 193.5q27 25 57 24q35 0 66 -26q27 -25 26 -62q0 -35 -32 -67q-33 -35 -65 -81t-36 -112q55 -4 92 -47t37 -102q0 -82 -43 -127.5t-112 -45.5q-76 0 -120 57.5t-44 160.5z" />
<glyph unicode="&#x2019;" horiz-adv-x="485" d="M86 872q0 31 33 68q33 35 65.5 81t36.5 112q-55 4 -92 47t-37 102q0 82 42 127t112 45q76 0 121 -57.5t45 -159.5q0 -119 -45 -234.5t-131 -193.5q-29 -25 -58 -25q-33 0 -63 27q-29 25 -29 61z" />
<glyph unicode="&#x201a;" horiz-adv-x="450" d="M61 -272q0 35 33 67q31 35 64 81t37 112q-55 4 -92 47t-37 102q0 82 43 127t112 45q74 0 119 -57t45 -160q0 -119 -45 -234.5t-131 -193.5q-29 -25 -55 -24q-35 0 -66 26q-27 25 -27 62z" />
<glyph unicode="&#x201c;" horiz-adv-x="909" d="M84 1006q0 119 44 234.5t130 193.5q27 25 57 24q35 0 66 -26q27 -25 26 -62q0 -35 -32 -67q-33 -35 -65 -81t-36 -112q55 -4 92 -47t37 -102q0 -82 -43 -127.5t-112 -45.5q-76 0 -120 57.5t-44 160.5zM516 1006q0 119 44 234.5t130 193.5q27 25 57 24q35 0 66 -26 q27 -25 26 -62q0 -35 -32 -67q-33 -35 -65 -81t-36 -112q55 -4 92 -47t37 -102q0 -82 -43 -127.5t-112 -45.5q-76 0 -120 57.5t-44 160.5z" />
<glyph unicode="&#x201d;" horiz-adv-x="917" d="M96 872q0 31 33 68q33 35 65.5 81t36.5 112q-55 4 -92 47t-37 102q0 82 42 127t112 45q76 0 121 -57.5t45 -159.5q0 -119 -45 -234.5t-131 -193.5q-29 -25 -58 -25q-33 0 -63 27q-29 25 -29 61zM528 872q0 31 33 68q33 35 65.5 81t36.5 112q-55 4 -92 47t-37 102 q0 82 42 127t112 45q76 0 121 -57.5t45 -159.5q0 -119 -45 -234.5t-131 -193.5q-29 -25 -58 -25q-33 0 -63 27q-29 25 -29 61z" />
<glyph unicode="&#x201e;" horiz-adv-x="882" d="M67 -272q0 35 33 67q31 35 64 81t37 112q-55 4 -92 47t-37 102q0 82 43 127t112 45q74 0 119 -57t45 -160q0 -119 -45 -234.5t-131 -193.5q-29 -25 -55 -24q-35 0 -66 26q-27 25 -27 62zM501 -272q0 35 33 67q31 35 64 81t37 112q-55 4 -92 47t-37 102q0 82 43 127 t112 45q74 0 119 -57t45 -160q0 -119 -45 -234.5t-131 -193.5q-29 -25 -55 -24q-35 0 -66 26q-27 25 -27 62z" />
<glyph unicode="&#x2026;" horiz-adv-x="1669" d="M147 129q0 72 45.5 118t112.5 46q70 0 112 -46t42 -118t-43 -120t-111 -48t-113 48t-45 120zM692 129q0 72 45.5 118t112.5 46q70 0 112 -46t42 -118t-43 -120t-111 -48t-113 48t-45 120zM1222 129q0 72 45.5 118t112.5 46q70 0 112 -46t42 -118t-43 -120t-111 -48 t-113 48t-45 120z" />
<glyph unicode="&#x202f;" horiz-adv-x="378" />
<glyph unicode="&#x2039;" horiz-adv-x="555" d="M35 553q0 23 8 42t18 36l248 315q35 47 86 47q20 0 41 -10t37 -26.5t27.5 -38t11.5 -46.5q0 -23 -10 -43t-33 -51l-170 -217l168 -225q23 -29 31 -48.5t8 -41.5q0 -25 -11.5 -46.5t-27.5 -38t-36.5 -26.5t-41.5 -10q-49 0 -88 49l-235 293q-31 41 -31 86z" />
<glyph unicode="&#x203a;" horiz-adv-x="555" d="M43 872q0 25 10 46.5t26.5 38t37 26.5t41.5 10q53 0 88 -47l246 -315q12 -16 20 -36t8 -42q0 -47 -33 -86l-233 -293q-37 -49 -88 -49q-20 0 -41 10t-38 26.5t-28.5 38t-11.5 46.5q0 23 8 42t31 48l170 225l-172 217q-23 29 -32 50.5t-9 43.5z" />
<glyph unicode="&#x205f;" horiz-adv-x="472" />
<glyph unicode="&#x20ac;" horiz-adv-x="1105" d="M-10 526q0 37 14 60.5t45 23.5h115q-2 23 -2 52v98h-111q-31 0 -46 26.5t-15 61.5q0 37 14 61.5t45 24.5h129q12 104 50 193.5t99.5 155t146.5 102t194 36.5q123 0 208 -39t140 -104q27 -31 48 -74t21 -90t-29.5 -80t-82.5 -33q-39 0 -63.5 19.5t-47.5 60.5 q-41 68 -87 92.5t-109 24.5q-100 0 -161 -68.5t-73 -195.5h307q66 0 66 -82q0 -53 -17.5 -72.5t-50.5 -19.5h-323v-94q0 -31 2 -56h317q35 0 50.5 -22.5t15.5 -63.5q0 -53 -20.5 -70.5t-53.5 -17.5h-276q10 -111 72.5 -182.5t154.5 -71.5q61 0 103 18.5t91 90.5 q29 39 50.5 58.5t50.5 19.5q39 0 76.5 -31t37.5 -78t-21.5 -87t-55.5 -81q-49 -59 -136.5 -95t-197.5 -36q-111 0 -196 36t-145.5 99.5t-96 150.5t-50.5 189h-135q-31 0 -46 28t-15 62z" />
<glyph unicode="&#x2122;" horiz-adv-x="1646" d="M33 1346q0 29 12 55t37 26h528q27 0 39.5 -26.5t12.5 -54.5q0 -29 -12.5 -57.5t-41.5 -28.5h-178v-572q0 -31 -21.5 -52.5t-68.5 -21.5q-39 0 -62.5 18.5t-23.5 53.5v574h-168q-29 0 -41 28.5t-12 57.5zM731 682v664q0 43 35 66.5t88 23.5t96 -18.5t56 -69.5l129 -508 l125 499q10 45 51 71t98 26q53 0 90 -19.5t37 -60.5v-678q0 -31 -21.5 -50.5t-62.5 -19.5q-88 0 -88 72v547l-131 -510q-16 -59 -98 -60q-47 0 -71 19.5t-32 50.5l-129 492v-543q0 -29 -21.5 -48.5t-66.5 -19.5q-84 0 -84 74z" />
<glyph unicode="&#x25fc;" horiz-adv-x="1075" d="M0 0v1075h1075v-1075h-1075z" />
</font>
</defs>
</svg>
