<?xml version="1.0" standalone="no"?>
<!DOCTYPE svg PUBLIC "-//W3C//DTD SVG 1.1//EN" "http://www.w3.org/Graphics/SVG/1.1/DTD/svg11.dtd" >
<svg xmlns="http://www.w3.org/2000/svg">
<metadata></metadata>
<defs>
<font id="tondo_corplight" horiz-adv-x="1249" >
<font-face units-per-em="2048" ascent="1638" descent="-410" />
<missing-glyph horiz-adv-x="501" />
<glyph unicode="&#xd;" horiz-adv-x="501" />
<glyph horiz-adv-x="0" />
<glyph horiz-adv-x="0" />
<glyph unicode=" " horiz-adv-x="501" d="M0 0z" />
<glyph unicode="!" horiz-adv-x="534" d="M160 68q0 43 29.5 74.5t74.5 31.5t76 -31.5t31 -74.5q0 -41 -31 -73t-76 -32t-74.5 32t-29.5 73zM199 1102v270q0 35 18.5 49.5t50.5 14.5q33 0 52.5 -14.5t19.5 -49.5v-270l-27 -682q-2 -29 -13 -38t-34 -9q-20 0 -30.5 9t-12.5 38z" />
<glyph unicode="&#x22;" horiz-adv-x="684" d="M84 1290v82q0 35 18 49.5t51 14.5t52.5 -13.5t19.5 -48.5v-82l-25 -274q-4 -29 -15 -38t-34 -9t-32 9t-13 38zM406 1290v82q0 35 18 49.5t51 14.5t52.5 -13.5t19.5 -48.5v-82l-25 -274q-4 -29 -15 -38t-34 -9t-32 9t-13 38z" />
<glyph unicode="#" horiz-adv-x="1306" d="M76 492q0 25 8 37t31 12h231l47 352h-278q-23 0 -31 13.5t-8 37.5q0 23 8 36t31 13h293l53 375q4 33 18.5 44t38.5 11q20 0 35.5 -12t11.5 -35l-53 -383h360l52 375q4 33 16 44t41 11q23 0 37 -12t10 -35l-53 -383h217q25 0 33 -13t8 -36q0 -25 -8 -38t-33 -13h-231 l-48 -352h279q25 0 33 -12.5t8 -36.5q0 -23 -8 -37.5t-33 -14.5h-295l-55 -399q-4 -33 -18.5 -44t-39.5 -11q-23 0 -37 11t-10 46l58 397h-361l-55 -399q-4 -33 -17.5 -44t-37.5 -11q-20 0 -37 11t-13 46l58 397h-217q-23 0 -31 14.5t-8 37.5zM449 541h360l49 352h-362z" />
<glyph unicode="$" d="M86 227q0 23 24.5 41.5t41.5 18.5q18 0 29.5 -10.5t31.5 -28.5t49 -44t71 -49.5t98 -43t134 -25.5v573l-26 7q-102 25 -176 57.5t-121 75.5t-69.5 100t-22.5 135q0 72 27.5 134.5t80.5 111.5t130 80t177 37v121q0 35 12.5 48t40.5 13q29 0 42.5 -13.5t13.5 -47.5v-121 q92 -6 161.5 -27.5t122 -50.5t86 -58.5t52.5 -52.5q29 -39 28 -61q0 -23 -18.5 -40t-40.5 -17q-14 0 -27.5 6t-31.5 26q-18 18 -45 44t-66 49.5t-93 43t-128 25.5v-528l108 -27q82 -20 146.5 -49t109.5 -73t68.5 -103.5t23.5 -141.5q0 -92 -33.5 -161.5t-94 -117.5 t-144.5 -74.5t-184 -31.5v-102q0 -35 -13.5 -47t-42.5 -12t-41 12t-12 47v102q-90 6 -159.5 24.5t-122 44.5t-90 54.5t-64.5 53.5q-43 41 -43 73zM283 1040q0 -45 12 -82.5t44 -70.5t86 -59.5t140 -47.5v506q-82 -6 -136 -30.5t-87 -59.5t-46 -76t-13 -80zM674 84 q141 8 232 73.5t91 194.5q0 111 -69.5 173.5t-229.5 101.5l-24 6v-549z" />
<glyph unicode="%" horiz-adv-x="1933" d="M90 971q0 217 88 333.5t242 116.5q152 0 240 -115.5t88 -332.5t-88.5 -336t-239.5 -119q-160 0 -245 118t-85 335zM211 969q0 -166 50 -255t159 -89q104 0 155.5 90t51.5 256q0 160 -51.5 253t-155.5 93q-109 0 -159 -94.5t-50 -253.5zM565 8q0 16 10 37l668 1358 q16 33 39 33t48.5 -13.5t25.5 -33.5q0 -8 -2 -18.5t-11 -27.5l-663 -1343q-8 -16 -18.5 -25.5t-28.5 -9.5q-33 0 -50.5 13.5t-17.5 29.5zM1186 418q0 217 88 333.5t242 116.5q152 0 239.5 -115.5t87.5 -332.5t-88 -336t-239 -119q-160 0 -245 118t-85 335zM1307 416 q0 -166 50 -255t159 -89q104 0 155 90t51 256q0 160 -51 253t-155 93q-109 0 -159 -94.5t-50 -253.5z" />
<glyph unicode="&#x26;" horiz-adv-x="1400" d="M94 377q0 154 91 262.5t245 187.5q-37 49 -62.5 88t-43 75t-24.5 71t-7 78q0 68 24.5 123t69.5 94t105.5 59.5t132.5 20.5q90 0 152.5 -23.5t100 -62.5t55 -86t17.5 -95q0 -72 -26.5 -126t-73.5 -98t-110.5 -81t-137.5 -73q43 -53 85 -103.5t88 -101.5t99.5 -106.5 t120.5 -117.5q47 76 71 144.5t34 97.5q10 39 43 39q16 0 42.5 -11t26.5 -30q0 -16 -10 -53q-4 -14 -13 -42t-24.5 -63.5t-35 -76.5t-44.5 -80q45 -41 105.5 -93t138.5 -118q16 -14 20.5 -22.5t4.5 -18.5q0 -29 -18.5 -47.5t-41.5 -18.5q-10 0 -22 6.5t-23 14.5 q-66 51 -122 100t-113 100q-96 -104 -213 -163.5t-252 -59.5q-117 0 -203 32t-141 87t-83 130t-28 161zM219 379q0 -147 90 -227t240 -80q119 0 218 56t165 136q-115 111 -231.5 235.5t-208.5 245.5q-59 -33 -108.5 -69.5t-86.5 -80.5t-57.5 -97.5t-20.5 -118.5zM416 1137 q0 -72 34.5 -131.5t88.5 -133.5q57 29 110 57.5t94 62.5t66 75t25 90q0 31 -10.5 63.5t-34 59.5t-63.5 44t-99 17q-100 0 -155.5 -56t-55.5 -148z" />
<glyph unicode="'" horiz-adv-x="358" d="M109 1290v82q0 35 18 49.5t51 14.5t52.5 -13.5t19.5 -48.5v-82l-25 -274q-4 -29 -15 -38t-34 -9t-32 9t-13 38z" />
<glyph unicode="(" horiz-adv-x="729" d="M131 643q0 160 36 298t98.5 253t147.5 206t183 156q31 20 55 21q16 0 29.5 -14.5t13.5 -32.5q0 -20 -24 -39q-121 -96 -200 -199.5t-125 -211t-65.5 -218t-19.5 -219.5t20.5 -221.5t67.5 -222t127 -214t201 -198.5q10 -8 18 -17.5t8 -19.5q0 -16 -14 -32.5t-31 -16.5 q-12 0 -24 6t-27 14q-102 61 -188 153.5t-150.5 209.5t-100.5 258t-36 301z" />
<glyph unicode=")" horiz-adv-x="729" d="M27 -250q0 10 8 19.5t18 17.5q121 94 201 198.5t127 214t67.5 222t20.5 221.5t-19.5 219.5t-65.5 218t-125 211t-200 199.5q-25 18 -24 39q0 18 13 32.5t30 14.5q25 0 55 -21q98 -66 183 -156.5t147.5 -205.5t98.5 -253t36 -298t-36 -301t-100.5 -258t-150.5 -209 t-188 -154q-14 -8 -26.5 -14t-24.5 -6q-16 0 -30.5 16.5t-14.5 32.5z" />
<glyph unicode="*" horiz-adv-x="753" d="M45 1204q0 23 11.5 39.5t27.5 16.5q4 0 11 -2.5t11 -4.5l226 -82v246q0 23 15 31t32 8q16 0 31.5 -8t15.5 -31v-246l219 82q6 2 11.5 3t11.5 1q20 0 30.5 -18t10.5 -35q0 -29 -25 -37l-231 -84l149 -194q10 -14 10 -23q0 -18 -17 -32.5t-36 -14.5q-23 0 -33 17l-149 192 l-150 -192q-12 -18 -30 -19q-20 0 -38 14.5t-18 32.5q0 16 13 31l147 188l-231 84q-25 8 -25 37z" />
<glyph unicode="+" d="M174 694q0 27 9.5 42.5t35.5 15.5h348v370q0 33 19.5 44.5t42.5 11.5q27 0 43 -11.5t16 -44.5v-370h352q27 0 36 -15.5t9 -42.5q0 -29 -9 -43t-36 -14h-352v-371q0 -33 -16.5 -44t-42.5 -11q-23 0 -42.5 11t-19.5 44v371h-348q-27 0 -36 14.5t-9 42.5z" />
<glyph unicode="," horiz-adv-x="366" d="M94 106q0 41 26.5 68t69.5 27t75 -28.5t32 -102.5q0 -80 -29.5 -156t-77.5 -135q-14 -14 -24 -22.5t-27 -8.5q-16 0 -29.5 10.5t-13.5 22.5t6.5 21.5t16.5 25.5q29 35 48 75t28 99q-53 4 -77 36t-24 68z" />
<glyph unicode="-" horiz-adv-x="542" d="M49 528q0 63 53 64h336q55 0 56 -64q0 -66 -56 -65h-336q-53 0 -53 65z" />
<glyph unicode="." horiz-adv-x="385" d="M94 86q0 41 29 72.5t70 31.5q39 0 68.5 -31.5t29.5 -72.5t-30 -71.5t-68 -30.5q-41 0 -70 30.5t-29 71.5z" />
<glyph unicode="/" horiz-adv-x="907" d="M29 29q0 16 20 55l717 1315q10 16 20.5 26.5t26.5 10.5q25 0 45.5 -14.5t20.5 -32.5q0 -10 -4.5 -22.5t-14.5 -33.5l-717 -1315q-10 -16 -19 -25t-26 -9q-27 0 -48 13t-21 32z" />
<glyph unicode="0" d="M102 711q0 350 137.5 530t385.5 180q250 0 386 -180t136 -530q0 -352 -136.5 -544t-385.5 -192q-248 0 -385.5 189.5t-137.5 546.5zM233 711q0 -139 25 -254t74 -198t121.5 -129t171.5 -46q98 0 171.5 45t123 128t74 198t24.5 256q0 135 -24.5 244.5t-74 188.5t-123 122 t-171.5 43t-171 -43t-122 -121t-74 -188.5t-25 -245.5z" />
<glyph unicode="1" d="M246 51q0 53 41 53h309v1137q-27 -23 -86 -65.5t-117 -75.5q-59 -35 -88 -35q-25 0 -36 22.5t-11 45.5q0 14 6 24t29 21q27 14 62.5 34.5t72.5 44t72 48t63 49.5q20 16 35.5 24t48.5 8q72 0 72 -63v-1219h305q25 0 33 -14t8 -39t-8 -38t-33 -13h-737q-41 0 -41 51z" />
<glyph unicode="2" d="M145 1092q0 16 7.5 37.5t17.5 37.5q14 29 45 73t84 84t129 68.5t178 28.5q197 0 312.5 -101t115.5 -298q0 -70 -17.5 -132.5t-49 -120.5t-79.5 -116.5t-110 -120.5q-96 -98 -207.5 -203.5t-257.5 -222.5h713q23 0 32 -15t9 -40q0 -51 -41 -51h-790q-37 0 -52.5 17.5 t-15.5 52.5q0 29 10 53t33 41q33 25 90 77t118.5 108.5t118 108.5t85.5 81q66 61 117 117.5t86.5 113.5t55 116.5t19.5 129.5q0 154 -81 224.5t-226 70.5q-86 0 -144.5 -25.5t-95.5 -62.5t-58.5 -77t-33.5 -67q-10 -25 -20.5 -31t-24.5 -6q-72 0 -72 50z" />
<glyph unicode="3" d="M109 279q0 27 26.5 44t46.5 17q27 0 49 -41q12 -25 35 -61.5t65 -71.5t106.5 -59.5t156.5 -24.5q358 0 358 311q0 147 -97 213t-275 66h-23q-25 0 -33 15t-8 40t8 40t33 15h25q160 0 244.5 78t84.5 201q0 125 -77.5 188.5t-229.5 63.5q-88 0 -147.5 -24.5t-98.5 -57.5 t-58 -65.5t-28 -51.5q-10 -23 -20 -32t-27 -9q-35 0 -54 14.5t-19 38.5q0 16 8 36t16 32q12 20 41 58t80 76t129 65.5t186 27.5q205 0 315.5 -91t110.5 -255q0 -113 -63.5 -204t-186.5 -138q135 -29 215 -109.5t80 -234.5q0 -102 -37.5 -180t-102 -130t-150.5 -78t-185 -26 q-119 0 -202.5 28t-138 64.5t-84.5 73t-40 52.5q-16 25 -25 44t-9 42z" />
<glyph unicode="4" d="M121 393q0 23 9 43.5t28 44.5l616 856q18 25 40 37t56 12q31 0 50.5 -13t19.5 -48v-895h143q25 0 33 -15.5t8 -37.5q0 -27 -8 -41t-33 -14h-143v-277q0 -35 -17.5 -47t-45.5 -12q-27 0 -41.5 12t-14.5 47v277h-626q-39 0 -56.5 19t-17.5 52zM252 430h569v803z" />
<glyph unicode="5" d="M162 268q0 27 24.5 40.5t44.5 13.5q14 0 26.5 -9.5t23.5 -31.5q10 -23 29.5 -57t57.5 -66.5t96 -55t144 -22.5q92 0 159 28.5t110 81t64.5 124t21.5 159.5q0 188 -90.5 276.5t-235.5 88.5q-53 0 -98 -12.5t-80 -30t-61 -35t-40 -27.5q-23 -16 -43 -26.5t-45 -10.5 q-63 0 -63 60v8l31 555q2 35 20 51t47 16h670q25 0 33 -13t8 -40t-8.5 -42t-32.5 -15h-633l-25 -465q25 23 59 46.5t77 44t93 32.5t107 12q115 0 197 -36t135 -99t77.5 -149.5t24.5 -186.5q0 -123 -35.5 -216t-98 -156.5t-149.5 -95.5t-188 -32q-109 0 -182.5 24 t-122.5 55.5t-76.5 65.5t-41.5 56q-12 20 -21.5 43t-9.5 49z" />
<glyph unicode="6" d="M154 618q0 158 22.5 303.5t82.5 256t164.5 177t268.5 66.5q78 0 137.5 -14t100.5 -32.5t65.5 -36t32.5 -23.5q25 -23 25 -49q0 -23 -14.5 -41.5t-37.5 -18.5t-41 11.5t-40 25.5q-35 23 -88.5 48.5t-147.5 25.5q-182 0 -284.5 -141.5t-110.5 -421.5q66 92 167 138t212 46 q217 0 333.5 -127t116.5 -346q0 -104 -31.5 -194.5t-92 -156t-147.5 -102.5t-196 -37q-260 0 -378.5 159t-118.5 484zM291 463q0 -72 21.5 -141.5t65.5 -124t110.5 -88t156.5 -33.5q92 0 158.5 31.5t109.5 86t62.5 124t19.5 143.5q0 80 -18.5 147.5t-60.5 116.5t-108.5 77.5 t-162.5 28.5q-92 0 -159.5 -28.5t-110.5 -78.5t-63.5 -117.5t-20.5 -143.5z" />
<glyph unicode="7" d="M145 1120v201q0 35 18.5 50t47.5 15h872q66 0 66 -69q0 -25 -7 -51.5t-28 -61.5q-74 -129 -145.5 -273.5t-141 -296t-134.5 -307t-124 -311.5q-10 -31 -34 -30q-27 0 -55.5 10t-28.5 33q0 12 6 29.5t12 31.5q57 137 112.5 272.5t119 278.5t139 299t174.5 332h-760v-152 q0 -29 -15.5 -38t-39.5 -9q-25 0 -39.5 9.5t-14.5 37.5z" />
<glyph unicode="8" d="M119 369q0 135 77.5 231t231.5 137q-127 41 -189.5 126t-62.5 192q0 100 41 169.5t105.5 113.5t144.5 63.5t156 19.5q78 0 156.5 -17.5t143 -58t105.5 -107.5t41 -165q0 -117 -68.5 -204t-183.5 -132q141 -27 225 -123t84 -233q0 -72 -25.5 -144.5t-85 -131t-155.5 -94.5 t-237 -36t-238.5 35t-156 90.5t-84 126t-25.5 142.5zM246 375q0 -86 32.5 -143.5t86 -92.5t121 -50t137.5 -15q68 0 135 16t121.5 52t87 94.5t32.5 144.5q0 82 -32.5 139.5t-85 94t-121 53t-137.5 16.5q-70 0 -137.5 -17.5t-121 -55.5t-86 -96t-32.5 -140zM297 1057 q0 -70 29.5 -120t76 -84t104.5 -50.5t116 -16.5q57 0 116.5 16.5t105.5 50.5t75.5 85t29.5 121q0 49 -16 96t-54 84t-101.5 60.5t-155.5 23.5t-154.5 -23.5t-100.5 -61.5t-54.5 -85t-16.5 -96z" />
<glyph unicode="9" d="M137 932q0 104 32 194.5t92.5 156t147.5 102t195 36.5q258 0 377 -161.5t119 -489.5q0 -158 -22.5 -301t-82 -253t-164 -175.5t-268.5 -65.5q-78 0 -137 12.5t-100 30t-65.5 34t-33.5 22.5q-25 23 -24 49q0 23 16.5 43t38.5 20q23 0 40 -12t40 -27q35 -23 85 -45t148 -22 q182 0 284.5 137t111.5 418q-66 -92 -167.5 -138t-211.5 -46q-109 0 -192 33.5t-141 97t-88 152.5t-30 198zM260 936q0 -80 18.5 -148.5t60.5 -121t108.5 -82t162.5 -29.5q92 0 159 30.5t110 83t62.5 121t19.5 144.5q0 72 -20.5 141.5t-63.5 123.5t-110 88t-157 34 q-92 0 -158.5 -32t-109.5 -86t-62.5 -123.5t-19.5 -143.5z" />
<glyph unicode=":" horiz-adv-x="385" d="M94 86q0 41 29 72.5t70 31.5q39 0 68.5 -31.5t29.5 -72.5t-30 -71.5t-68 -30.5q-41 0 -70 30.5t-29 71.5zM94 881q0 41 29 72.5t70 31.5q39 0 68.5 -31.5t29.5 -72.5t-30 -71.5t-68 -30.5q-41 0 -70 30.5t-29 71.5z" />
<glyph unicode=";" horiz-adv-x="372" d="M98 106q0 41 26.5 68t69.5 27t75 -28.5t32 -102.5q0 -80 -29.5 -156t-77.5 -135q-14 -14 -24 -22.5t-27 -8.5q-16 0 -29.5 10.5t-13.5 22.5t6.5 21.5t16.5 25.5q29 35 48 75t28 99q-53 4 -77 36t-24 68zM98 881q0 41 29 72.5t70 31.5q39 0 68.5 -31.5t29.5 -72.5 t-30 -71.5t-68 -30.5q-41 0 -70 30.5t-29 71.5z" />
<glyph unicode="&#x3c;" d="M172 705q0 23 7 39t30 26l795 395q16 8 24 10.5t14 2.5q16 0 30.5 -25t14.5 -53q0 -23 -28 -39l-731 -359l731 -354q31 -14 31 -39q0 -29 -14.5 -54.5t-31.5 -25.5q-8 0 -16 2t-24 11l-795 397q-37 20 -37 66z" />
<glyph unicode="=" d="M174 485q0 27 9.5 41.5t35.5 14.5h821q27 0 36 -14.5t9 -41.5q0 -29 -9 -43t-36 -14h-821q-27 0 -36 14.5t-9 42.5zM174 924q0 27 9.5 42t35.5 15h821q27 0 36 -15.5t9 -41.5q0 -29 -9 -43.5t-36 -14.5h-821q-27 0 -36 14.5t-9 43.5z" />
<glyph unicode="&#x3e;" d="M172 309q0 25 31 39l731 354l-731 359q-29 16 -29 39q0 29 14.5 53.5t30.5 24.5q6 0 14.5 -2t24.5 -11l795 -395q23 -10 30 -26.5t7 -38.5q0 -45 -37 -66l-795 -397q-16 -8 -24.5 -10.5t-16.5 -2.5q-16 0 -30.5 26t-14.5 54z" />
<glyph unicode="?" horiz-adv-x="1089" d="M100 1118q0 31 25 84q12 25 38.5 67t78 84t128 72.5t187.5 30.5q94 0 174 -22.5t137.5 -68.5t89 -115.5t31.5 -162.5q0 -76 -20.5 -133t-54 -102t-75.5 -81t-85 -66q-53 -39 -87 -70t-52.5 -58.5t-25.5 -58.5t-7 -69q0 -33 -13.5 -44.5t-40.5 -11.5q-25 0 -41 11.5 t-16 44.5v24q0 57 16.5 101t44 79t62.5 62.5t70 54.5q39 29 73.5 57.5t62 65.5t44 83t16.5 107q0 137 -88 200t-225 63q-88 0 -147.5 -27t-96.5 -64.5t-56.5 -77.5t-27.5 -67q-8 -29 -23.5 -35t-31.5 -6q-23 0 -43.5 13.5t-20.5 35.5zM408 70q0 43 29.5 74.5t74.5 31.5 t75.5 -31.5t30.5 -74.5q0 -41 -30.5 -73t-75.5 -32t-74.5 32t-29.5 73z" />
<glyph unicode="@" horiz-adv-x="1896" d="M100 418q0 193 64.5 352.5t178.5 275t268.5 179t336.5 63.5q193 0 349.5 -63.5t267 -171t171 -249.5t60.5 -302q0 -170 -40 -274.5t-100.5 -162t-128 -78t-122.5 -20.5q-84 0 -142.5 38t-68.5 132q-53 -92 -131 -131t-170 -39q-90 0 -160.5 34t-120 95.5t-76 148.5 t-26.5 193q0 100 27.5 185.5t79 146.5t124 96t160.5 35q115 0 184.5 -54t116.5 -128v96q0 31 14.5 42t36.5 11q27 0 41.5 -11t14.5 -42v-629q0 -45 22.5 -81.5t89.5 -36.5q45 0 91.5 20.5t83 70.5t59 134t22.5 213q0 125 -51 245.5t-146.5 214t-229.5 151t-302 57.5 q-152 0 -282.5 -54.5t-227 -154t-151 -238.5t-54.5 -311t61.5 -311.5t169 -237.5t253 -151.5t313.5 -53.5q135 0 215 18.5t109 28.5q33 10 44 12.5t21 2.5q23 -2 32 -25t9 -41q0 -39 -35 -51q-29 -10 -132 -34t-277 -24q-195 0 -362 59.5t-289.5 171t-193.5 272.5t-71 366z M641 438q0 -72 13.5 -137t45 -115.5t83 -80t128.5 -29.5q68 0 120 25.5t88 72.5t54.5 112.5t18.5 145.5q0 72 -19.5 137.5t-54.5 115.5t-86 80t-114 30q-78 0 -130.5 -28t-85 -77t-47 -113.5t-14.5 -138.5z" />
<glyph unicode="A" horiz-adv-x="1355" d="M41 35q0 4 1 11t7 22l547 1314q23 53 86 54q31 0 48.5 -12.5t25.5 -30.5l549 -1319q10 -27 10 -37q0 -27 -23.5 -39t-46.5 -12t-34 11t-17 26l-168 399h-698l-172 -402q-17 -34 -50 -34q-27 0 -46 11t-19 38zM375 528h604l-301 770z" />
<glyph unicode="B" horiz-adv-x="1269" d="M170 66v1290q0 35 18.5 50t47.5 15h376q276 0 405.5 -85t129.5 -277q0 -125 -63.5 -205t-184.5 -119q86 -18 143.5 -52t92 -79t49 -99t14.5 -114q0 -391 -526 -391h-436q-29 0 -47.5 15.5t-18.5 50.5zM293 113h371q217 0 309 67.5t92 206.5q0 70 -20.5 123t-70.5 87 t-132 51.5t-205 17.5h-344v-553zM293 776h295q219 0 323.5 63.5t104.5 200.5q0 70 -20.5 120t-67.5 83t-126 49.5t-196 16.5h-313v-533z" />
<glyph unicode="C" horiz-adv-x="1404" d="M104 707q0 170 47.5 308t134.5 236.5t209.5 151.5t272.5 53q98 0 174 -21.5t131 -51t91 -61.5t55 -50q35 -41 64.5 -93.5t29.5 -93.5q0 -33 -26.5 -44t-43.5 -11q-31 0 -51 41q-23 45 -57.5 93t-85 86t-119 62.5t-160.5 24.5q-129 0 -227.5 -46t-166 -130t-101 -199.5 t-33.5 -254.5q0 -137 33.5 -252t101 -198t166 -129t227.5 -46q104 0 178 30.5t123 73.5t79 88t44 76q27 55 59 56q18 0 44 -12.5t26 -43.5q0 -41 -29.5 -93t-64.5 -93q-16 -18 -50 -51t-91.5 -66t-136.5 -57.5t-183 -24.5q-158 0 -280.5 52.5t-207.5 148.5t-130.5 233.5 t-45.5 307.5z" />
<glyph unicode="D" horiz-adv-x="1439" d="M170 66v1290q0 65 66 65h2h395q158 0 288 -43t222 -130t143 -221t51 -318q0 -182 -51 -315.5t-143 -220.5t-222 -130t-288 -43h-395q-68 0 -68 66zM295 113h323q131 0 239 35.5t183.5 109.5t117.5 186.5t42 264.5q0 154 -43 266t-119.5 186t-183 111t-236.5 37h-323 v-1196z" />
<glyph unicode="E" horiz-adv-x="1206" d="M170 66v1290q0 65 64 65h2h839q47 0 47 -55q0 -57 -47 -57h-780v-527h739q47 0 47 -55q0 -57 -47 -57h-739v-557h780q47 0 47 -56q0 -57 -47 -57h-839q-66 0 -66 66z" />
<glyph unicode="F" horiz-adv-x="1128" d="M170 47v1309q0 65 64 65h2h796q47 0 47 -55q0 -57 -47 -57h-737v-529h676q47 0 47 -55q0 -57 -47 -57h-676v-621q0 -35 -17.5 -48t-46.5 -13t-45 13t-16 48z" />
<glyph unicode="G" horiz-adv-x="1470" d="M104 696q0 145 38 282.5t119 243t210 170t311 64.5q135 0 252 -46t195 -134q35 -41 60.5 -83t25.5 -79q0 -33 -24.5 -43t-43.5 -10q-35 0 -59 45q-70 119 -168 176t-238 57q-121 0 -220 -39.5t-171 -119.5t-110.5 -201t-38.5 -283q0 -305 126 -461.5t380 -156.5 q86 0 172 33.5t154.5 100.5t111.5 167t43 233h-375q-45 0 -45 58q0 55 45 55h434q29 0 47.5 -15.5t18.5 -50.5v-626q0 -27 -19.5 -37t-44.5 -10t-42 10t-19 37v205q-25 -45 -68 -93.5t-104.5 -88.5t-145.5 -65.5t-190 -25.5q-152 0 -267.5 50.5t-193.5 145.5t-117 230 t-39 305z" />
<glyph unicode="H" horiz-adv-x="1454" d="M170 47v1327q0 35 16.5 48.5t46.5 13.5q29 0 45.5 -13.5t16.5 -48.5v-561h864v561q0 35 16.5 48.5t45.5 13.5t46 -13.5t17 -48.5v-1327q0 -35 -17.5 -48t-45.5 -13q-29 0 -45.5 13t-16.5 48v653h-864v-653q0 -35 -16.5 -48t-45.5 -13q-31 0 -47 13t-16 48z" />
<glyph unicode="I" horiz-adv-x="462" d="M170 47v1327q0 35 16.5 48.5t44.5 13.5q29 0 45.5 -13.5t16.5 -48.5v-1327q0 -35 -16.5 -48t-45.5 -13t-45 13t-16 48z" />
<glyph unicode="J" horiz-adv-x="1081" d="M61 287q4 33 29 44t45 11q37 0 58 -63q10 -31 29.5 -67t53 -65.5t86 -50t130.5 -20.5q172 0 241.5 90t69.5 274v934q0 35 16.5 48.5t44.5 13.5q29 0 45.5 -13.5t16.5 -48.5v-952q0 -231 -105.5 -344t-333.5 -113q-104 0 -177.5 25.5t-122 63.5t-75 83t-38.5 82 q-8 20 -10.5 35.5t-2.5 32.5z" />
<glyph unicode="K" horiz-adv-x="1300" d="M170 47v1327q0 35 16.5 48.5t46.5 13.5q29 0 45.5 -13.5t16.5 -48.5v-694l770 729q27 27 47 27q25 0 43.5 -19.5t18.5 -40.5q0 -10 -6.5 -22.5t-24.5 -28.5l-492 -473l592 -764q10 -10 13.5 -21.5t3.5 -19.5q0 -27 -19.5 -43t-44.5 -16q-20 0 -34.5 10t-28.5 27l-582 739 l-256 -238v-479q0 -35 -16.5 -48t-45.5 -13q-31 0 -47 13t-16 48z" />
<glyph unicode="L" horiz-adv-x="1122" d="M170 66v1308q0 35 16.5 48.5t44.5 13.5q29 0 45.5 -13.5t16.5 -48.5v-1261h739q47 0 47 -56q0 -57 -47 -57h-796q-66 0 -66 66z" />
<glyph unicode="M" horiz-adv-x="1769" d="M170 43v1309q0 47 23.5 65.5t66.5 18.5q41 0 63.5 -14.5t38.5 -51.5l527 -1210l512 1198q16 35 39.5 56.5t70.5 21.5q41 0 64.5 -18.5t23.5 -65.5v-1309q0 -33 -15 -45t-42 -12q-29 0 -45 12t-16 45v1212l-514 -1192q-10 -25 -31 -41t-51 -16q-33 0 -51.5 16.5 t-28.5 40.5l-518 1178v-1198q0 -33 -15.5 -45t-44.5 -12t-43 12t-14 45z" />
<glyph unicode="N" horiz-adv-x="1449" d="M170 43v1327q0 37 21.5 51.5t56.5 14.5q37 0 56.5 -14.5t47.5 -55.5l809 -1198v1210q0 33 15.5 45.5t44.5 12.5t44 -12.5t15 -45.5v-1327q0 -37 -21.5 -51t-58.5 -14q-39 0 -61.5 19.5t-44.5 49.5l-805 1194v-1206q0 -33 -15.5 -45t-44.5 -12t-44 12t-15 45z" />
<glyph unicode="O" horiz-adv-x="1548" d="M104 713q0 174 48.5 311t136.5 233.5t212 147.5t273 51q150 0 272.5 -51t211 -147.5t137.5 -233.5t49 -311t-49 -312.5t-137.5 -235.5t-211 -148.5t-272.5 -51.5t-273.5 51.5t-211.5 148.5t-136.5 235.5t-48.5 312.5zM242 713q0 -143 33.5 -259t101 -199t167 -128 t230.5 -45t230.5 45t167 128t101.5 198.5t34 259.5q0 141 -34 256.5t-101.5 197.5t-167 127t-230.5 45t-230.5 -45t-167 -127t-101 -197.5t-33.5 -256.5z" />
<glyph unicode="P" horiz-adv-x="1226" d="M170 47v1309q0 65 64 65h2h378q274 0 402.5 -108.5t128.5 -308.5q0 -55 -19.5 -128t-75 -136.5t-154.5 -107.5t-259 -44h-342v-541q0 -35 -18.5 -48t-47.5 -13t-44 13t-15 48zM295 696h295q121 0 201.5 22.5t129 62.5t68 97.5t19.5 125.5t-19.5 124t-65.5 98t-123 64.5 t-192 22.5h-313v-617z" />
<glyph unicode="Q" horiz-adv-x="1548" d="M104 711q0 174 48.5 312t136.5 234.5t212 147.5t273 51q150 0 272.5 -51t211 -147.5t137.5 -234.5t49 -312q0 -221 -78 -382t-213 -253l127 -197q20 -33 20 -47q0 -23 -21.5 -38t-41.5 -15q-14 0 -22.5 8t-24.5 31l-131 205q-133 -57 -285 -58q-150 0 -273.5 51.5 t-211.5 147.5t-136.5 234.5t-48.5 312.5zM242 711q0 -143 33.5 -259t101 -198t167 -127t230.5 -45q61 0 115.5 10t101.5 29l-104 172q-23 37 -23 53q0 23 22.5 38t41.5 15q14 0 23.5 -7t23.5 -30l115 -186q106 80 161.5 216t55.5 319q0 141 -34 257.5t-101.5 198.5t-167 127 t-230.5 45t-230.5 -45t-167 -127t-101 -198.5t-33.5 -257.5z" />
<glyph unicode="R" horiz-adv-x="1261" d="M170 47v1309q0 35 18.5 50t49.5 15h383q276 0 401 -99t125 -300q0 -45 -11.5 -98.5t-42 -104.5t-87 -96t-146.5 -74l301 -563q10 -16 12.5 -26.5t2.5 -18.5q0 -27 -20.5 -41t-49.5 -14q-20 0 -33.5 12t-30.5 43l-311 586h-436v-580q0 -35 -18.5 -48t-47.5 -13t-44 13 t-15 48zM295 735h336q106 0 179 18.5t117 55.5t63.5 90t19.5 123q0 68 -19.5 122t-65.5 91t-123 57.5t-194 20.5h-313v-578z" />
<glyph unicode="S" horiz-adv-x="1247" d="M92 217q0 23 23.5 41t40.5 18q18 0 29.5 -10t31.5 -28q25 -23 57.5 -50.5t83 -53t120 -43t167.5 -17.5q76 0 141.5 17.5t113.5 53t74.5 88t26.5 119.5q0 111 -69.5 185.5t-229.5 113.5l-159 39q-102 25 -176 58.5t-121 79.5t-69.5 106.5t-22.5 140.5q0 76 28.5 145.5 t87 122t147.5 83t208 30.5q111 0 191.5 -20.5t137 -50t92 -62.5t54.5 -57q28 -38 28 -60q0 -25 -18 -42t-41 -17q-14 0 -28.5 5t-30.5 28q-16 20 -45 47.5t-75 54.5t-112.5 45.5t-159.5 18.5q-96 0 -160.5 -26t-102.5 -64.5t-53 -85t-15 -87.5q0 -47 12 -88t45 -75.5 t89 -64.5t142 -50l211 -51q166 -41 257.5 -134.5t91.5 -257.5q0 -96 -37 -170.5t-103.5 -125t-159 -76t-202.5 -25.5q-115 0 -199 19.5t-145.5 47t-100 59.5t-59.5 54q-23 23 -30 39.5t-7 32.5z" />
<glyph unicode="T" horiz-adv-x="1210" d="M20 1366q0 55 48 55h1073q29 0 39 -14t10 -41q0 -29 -10.5 -43t-38.5 -14h-475v-1262q0 -35 -16.5 -48t-45.5 -13t-45 13t-16 48v1262h-475q-47 0 -48 57z" />
<glyph unicode="U" horiz-adv-x="1433" d="M160 512v862q0 35 16.5 48.5t46.5 13.5q29 0 45.5 -13.5t16.5 -48.5v-846q0 -217 108.5 -332.5t308.5 -115.5q215 0 331 106.5t116 331.5v856q0 35 15.5 48.5t43.5 13.5q31 0 48.5 -13.5t17.5 -48.5v-862q0 -262 -143.5 -404.5t-421.5 -142.5q-272 0 -410.5 138.5 t-138.5 408.5z" />
<glyph unicode="V" horiz-adv-x="1298" d="M51 1380q0 27 24.5 41.5t53.5 14.5q31 0 43 -35l477 -1260l481 1260q12 35 44 35q27 0 50 -12.5t23 -37.5q0 -10 -6 -27.5t-14 -37.5l-504 -1296q-14 -39 -76 -39q-35 0 -52 10t-26 31l-497 1286q-8 18 -14.5 35.5t-6.5 31.5z" />
<glyph unicode="W" horiz-adv-x="1912" d="M61 1384q0 27 25 39.5t55 12.5q29 0 41 -37l348 -1252l357 1237q16 51 71 52q31 0 47.5 -12.5t24.5 -37.5l356 -1239l349 1252q8 37 45 37q27 0 49 -11.5t22 -38.5q0 -16 -5 -36.5t-11 -38.5l-369 -1274q-16 -51 -80 -51q-66 0 -83 61l-349 1186l-346 -1196 q-8 -25 -30.5 -38t-53.5 -13q-33 0 -54 13t-32 48l-364 1270q-4 16 -8.5 35.5t-4.5 31.5z" />
<glyph unicode="X" horiz-adv-x="1267" d="M43 37q0 14 6 25.5t14 21.5l496 651l-450 594q-10 12 -17.5 27.5t-7.5 25.5q0 27 22.5 41.5t43.5 14.5q16 0 30.5 -9.5t24.5 -23.5l432 -574l440 578q12 16 22.5 22.5t24.5 6.5q18 0 40 -14.5t22 -41.5q0 -23 -25 -53l-450 -588l485 -643q29 -37 29 -57q0 -23 -21.5 -39 t-44.5 -16q-14 0 -26.5 7t-30.5 30l-469 618l-479 -629q-12 -16 -25.5 -21t-24.5 -5q-23 0 -42 14t-19 37z" />
<glyph unicode="Y" horiz-adv-x="1220" d="M35 1376q0 27 20.5 43.5t42.5 16.5q27 0 45 -27l473 -641l457 633q23 35 51 35q18 0 40 -12.5t22 -39.5q0 -10 -6 -25.5t-17 -29.5l-489 -676v-606q0 -35 -16.5 -48t-45.5 -13t-46 13t-17 48v610l-492 668q-8 10 -15 24.5t-7 26.5z" />
<glyph unicode="Z" horiz-adv-x="1177" d="M53 68q0 37 41 92l864 1149h-808q-47 0 -48 57q0 55 48 55h894q68 0 68 -67q0 -39 -41 -92l-866 -1149h872q47 0 47 -56q0 -57 -47 -57h-956q-68 0 -68 68z" />
<glyph unicode="[" horiz-adv-x="559" d="M170 -211v1657q0 35 18.5 50t49.5 15h245q37 0 37 -49q0 -23 -8 -37t-29 -14h-196v-1587h196q37 0 37 -51q0 -23 -8 -37.5t-29 -14.5h-245q-31 0 -49.5 16.5t-18.5 51.5z" />
<glyph unicode="\" horiz-adv-x="907" d="M29 1389q0 18 20.5 32.5t44.5 14.5q16 0 26.5 -10.5t20.5 -26.5l717 -1315q20 -39 21 -55q0 -18 -21.5 -31.5t-48.5 -13.5q-16 0 -25.5 9t-19.5 25l-717 1315q-10 20 -14 32.5t-4 23.5z" />
<glyph unicode="]" horiz-adv-x="559" d="M39 -227q0 51 37 51h196v1587h-196q-20 0 -28.5 14.5t-8.5 36.5q0 49 37 49h246q31 0 49 -15t18 -50v-1657q0 -35 -18.5 -51.5t-48.5 -16.5h-246q-20 0 -28.5 14.5t-8.5 37.5z" />
<glyph unicode="^" horiz-adv-x="956" d="M86 729q0 14 16 45l299 600q12 25 30 36t48 11q33 0 51.5 -12t28.5 -35l299 -600q10 -16 12 -26.5t2 -18.5q0 -23 -19 -36t-42 -13t-32 10t-17 27l-283 571l-282 -571q-8 -16 -17.5 -26.5t-32.5 -10.5t-42 13.5t-19 35.5z" />
<glyph unicode="_" horiz-adv-x="995" d="M6 -383q0 23 8.5 37t32.5 14h901q25 0 33 -14t8 -37q0 -25 -8 -39t-33 -14h-901q-25 0 -33 14t-8 39z" />
<glyph unicode="`" horiz-adv-x="765" d="M184 1464q0 27 19.5 48.5t54.5 21.5q23 0 41 -15.5t47 -50.5l156 -190q20 -23 20 -47q0 -16 -12 -27.5t-31 -11.5q-23 0 -38 10t-31 27l-187 166q-16 16 -27.5 33.5t-11.5 35.5z" />
<glyph unicode="a" horiz-adv-x="1122" d="M102 268q0 76 28 139.5t96.5 109.5t184 72.5t294.5 28.5l147 3v67q0 135 -68.5 201.5t-222.5 66.5q-61 0 -106 -12t-79 -30.5t-57.5 -40t-42.5 -39.5q-20 -20 -32.5 -27.5t-24.5 -7.5q-23 0 -40 13t-17 36q0 18 9 34.5t34 39.5q41 41 89 68.5t95 43t90 21.5t78 6 q113 0 191.5 -27.5t127 -76t70 -112t21.5 -132.5v-682q0 -45 -60 -45q-41 0 -49 20.5t-8 56.5v127q-29 -41 -67 -77.5t-87 -65.5t-111.5 -45t-140.5 -16q-178 0 -260 77.5t-82 204.5zM227 279q0 -98 55.5 -145.5t186.5 -47.5q55 0 106.5 15.5t96.5 40t79.5 58t59.5 70.5 q41 66 41 160v90l-154 -2q-145 -2 -236 -19.5t-143.5 -48t-72 -74.5t-19.5 -97z" />
<glyph unicode="b" horiz-adv-x="1189" d="M156 41v1333q0 35 14 48.5t43 13.5t44 -13.5t15 -48.5v-514q59 84 151.5 141.5t231.5 57.5q104 0 186.5 -40t138.5 -111.5t86 -171t30 -220.5t-30 -221t-88 -173t-142 -114t-193 -41q-127 0 -223 50.5t-152 160.5v-137q0 -33 -16 -44t-43 -11t-40 11t-13 44zM266 518 q0 -96 22.5 -177t67.5 -140.5t110.5 -92t151.5 -32.5q84 0 150 31.5t110 89t66.5 137.5t22.5 176q0 98 -21.5 178t-64.5 138.5t-106.5 90t-147.5 31.5q-172 0 -266.5 -112.5t-94.5 -317.5z" />
<glyph unicode="c" horiz-adv-x="1036" d="M90 516q0 121 32 221.5t93 172t149.5 111.5t202.5 40q86 0 150.5 -21.5t110.5 -53.5t76 -69.5t46 -70.5q6 -16 11.5 -27.5t5.5 -27.5q0 -27 -20.5 -43.5t-43.5 -16.5q-14 0 -25.5 6t-25.5 35q-8 14 -25.5 44t-51.5 59.5t-84 51t-124 21.5q-176 0 -262 -115.5t-86 -314.5 q0 -203 86 -322.5t262 -119.5q68 0 116 18.5t80 43t50 50.5l31 48q18 33 29.5 43t27.5 10q23 0 43.5 -16.5t20.5 -39.5q0 -20 -15 -47q-12 -20 -38.5 -57t-72.5 -74t-114 -63.5t-158 -26.5q-123 0 -213 40t-148.5 112.5t-87 174t-28.5 224.5z" />
<glyph unicode="d" horiz-adv-x="1187" d="M92 516q0 121 31 221.5t89 172t144 111.5t195 40q131 0 218 -52.5t146 -136.5v502q0 35 15.5 48.5t44.5 13.5t43 -13.5t14 -48.5v-1333q0 -33 -13 -44t-40 -11t-43 11t-16 44v137q-55 -111 -151.5 -162t-223.5 -51q-109 0 -193 41t-142 115t-88 174t-30 221zM221 510 q0 -96 22.5 -177t66.5 -138.5t109.5 -89t149.5 -31.5q86 0 151.5 33.5t111 93t68 140.5t22.5 177q0 205 -98.5 318.5t-266.5 113.5q-84 0 -147.5 -31.5t-105.5 -90t-62.5 -139.5t-20.5 -179z" />
<glyph unicode="e" horiz-adv-x="1116" d="M90 514q0 119 34 220.5t97.5 173t152.5 112.5t199 41q113 0 199 -40t144.5 -108.5t88 -162t29.5 -199.5q0 -27 -15 -38t-40 -11h-764q4 -205 97.5 -317.5t267.5 -112.5q70 0 117.5 15t81.5 39t56.5 51.5t38.5 51.5q12 16 20.5 24.5t25.5 8.5q20 0 40.5 -12t20.5 -35 q0 -25 -20 -53q-18 -29 -48 -62.5t-76 -63.5t-109.5 -50.5t-147.5 -20.5q-121 0 -212.5 40t-152.5 112.5t-93 173t-32 223.5zM219 598h696q-6 72 -29.5 136.5t-65.5 113.5t-103.5 78.5t-145.5 29.5t-147.5 -28.5t-106.5 -77.5t-67.5 -114.5t-30.5 -137.5z" />
<glyph unicode="f" horiz-adv-x="606" d="M31 973q0 25 8 39t33 14h131v158q0 121 74.5 196.5t216.5 75.5q39 0 77.5 -7t67.5 -19.5t47.5 -30t18.5 -37.5q0 -27 -11.5 -43t-27.5 -16q-12 0 -27.5 7t-34.5 17q-23 12 -48.5 22.5t-66.5 10.5q-72 0 -121 -41t-49 -150v-143h224q41 0 41 -53q0 -51 -41 -51h-224v-877 q0 -35 -15 -47t-44 -12t-43 12t-14 47v877h-131q-25 0 -33 14t-8 37z" />
<glyph unicode="g" horiz-adv-x="1189" d="M94 516q0 121 31 221.5t89 172t144 111.5t195 40q131 0 219 -52.5t146 -140.5v113q0 35 15 48t44 13t43 -13t14 -48v-995q0 -221 -127 -332t-340 -111q-84 0 -157.5 16.5t-124.5 39.5q-47 20 -76 40.5t-29 53.5q0 25 16.5 47t39.5 22q18 0 38.5 -13t47.5 -28 q43 -25 102 -47t145 -22q70 0 132.5 18.5t110.5 59.5t75.5 106.5t27.5 159.5v182q-55 -111 -148 -160t-220 -49q-109 0 -193 41t-142 113t-88 172t-30 221zM223 510q0 -96 22.5 -176t66.5 -137.5t109.5 -88t149.5 -30.5q86 0 151.5 32.5t111 91t68 139.5t22.5 177 q0 205 -98.5 318.5t-266.5 113.5q-84 0 -147.5 -31.5t-105.5 -90t-62.5 -139.5t-20.5 -179z" />
<glyph unicode="h" horiz-adv-x="1171" d="M156 45v1335q0 33 17 44.5t42 11.5q27 0 44 -11.5t17 -44.5v-571q12 27 38 70t72 84t114.5 69.5t163.5 28.5q158 0 255 -87t97 -272v-667q0 -49 -55 -49q-63 0 -64 49v622q0 139 -56.5 213t-201.5 74q-96 0 -166 -41t-114 -105.5t-64.5 -145.5t-20.5 -158v-449 q0 -35 -15 -47t-44 -12t-44 12t-15 47z" />
<glyph unicode="i" horiz-adv-x="432" d="M131 1346q0 45 24.5 67.5t59.5 22.5t59.5 -22.5t24.5 -67.5q0 -43 -24.5 -66t-59.5 -23t-59.5 23t-24.5 66zM158 45v936q0 35 14 47t43 12t44 -12t15 -47v-936q0 -35 -15 -47t-44 -12t-43 12t-14 47z" />
<glyph unicode="j" horiz-adv-x="432" d="M-236 -367q0 25 16.5 46.5t33.5 21.5q12 0 22 -4t27 -12q27 -14 55.5 -24.5t71.5 -10.5q76 0 122 41t46 149v1141q0 35 14 47t43 12t44 -12t15 -47v-1163q0 -123 -69.5 -199t-208.5 -76q-45 0 -88 6.5t-76 20.5q-68 29 -68 63zM127 1346q0 45 24.5 67.5t59.5 22.5 t59.5 -22.5t24.5 -67.5q0 -43 -24.5 -66t-59.5 -23t-59.5 23t-24.5 66z" />
<glyph unicode="k" horiz-adv-x="1054" d="M156 45v1350q0 35 15 48t44 13t44 -13t15 -48v-838l566 469q23 16 43 16q23 0 38 -18t15 -37q0 -25 -23 -41l-323 -270l397 -596q16 -25 17 -39q0 -25 -25 -40t-47 -15q-27 0 -49 34l-387 584l-222 -184v-375q0 -35 -15 -47t-44 -12t-44 12t-15 47z" />
<glyph unicode="l" horiz-adv-x="428" d="M156 45v1350q0 35 14 48t43 13t44 -13t15 -48v-1350q0 -35 -15 -47t-44 -12t-43 12t-14 47z" />
<glyph unicode="m" horiz-adv-x="1781" d="M156 45v940q0 33 15 44t40 11q27 0 43 -11t16 -44v-186q12 27 35 71.5t64 86.5t105.5 73t158.5 31q111 0 192.5 -62.5t106.5 -197.5q12 29 37.5 73t70.5 85.5t112 71.5t159 30q68 0 125 -21.5t99 -65.5t66.5 -111.5t24.5 -160.5v-667q0 -49 -55 -49q-63 0 -64 49v622 q0 141 -50 214t-167 73q-90 0 -154.5 -40t-106.5 -104.5t-62.5 -144.5t-20.5 -157v-463q0 -49 -55 -49q-63 0 -64 49v622q0 141 -51 214t-168 73q-88 0 -151.5 -41t-103.5 -105.5t-59.5 -145.5t-19.5 -158v-449q0 -35 -15 -47t-44 -12t-44 12t-15 47z" />
<glyph unicode="n" horiz-adv-x="1171" d="M156 45v940q0 33 15 44t40 11q27 0 43 -11t16 -44v-186q12 27 39 71.5t75 86.5t116.5 73t163.5 31q158 0 255 -87t97 -272v-667q0 -49 -55 -49q-63 0 -64 49v622q0 139 -56.5 213t-201.5 74q-96 0 -166 -41t-114 -105.5t-64.5 -145.5t-20.5 -158v-449q0 -35 -15 -47 t-44 -12t-44 12t-15 47z" />
<glyph unicode="o" horiz-adv-x="1169" d="M90 514q0 129 36 230.5t100.5 172t155.5 107.5t202 37t203 -37t156.5 -107.5t100 -172t35.5 -230.5t-35.5 -231.5t-100 -173t-157 -107.5t-202.5 -37q-111 0 -202 37t-155.5 107.5t-100.5 173t-36 231.5zM219 514q0 -211 94.5 -325.5t270.5 -114.5q178 0 272 114.5 t94 325.5q0 209 -94 324.5t-272 115.5q-176 0 -270.5 -115.5t-94.5 -324.5z" />
<glyph unicode="p" horiz-adv-x="1187" d="M156 -381v1360q0 35 14 48t43 13t44 -13t15 -48v-119q59 84 151.5 142.5t231.5 58.5q104 0 186.5 -40t138.5 -111.5t86 -172t30 -221.5t-30 -221t-88 -174t-142 -115t-193 -41q-127 0 -221 51.5t-150 161.5v-559q0 -33 -17 -44t-44 -11t-41 11t-14 44zM266 518 q0 -96 22.5 -177t67.5 -140.5t110.5 -93t151.5 -33.5q84 0 150 31.5t110 89t66.5 138.5t22.5 177q0 98 -21.5 179t-64.5 139.5t-106.5 90t-147.5 31.5q-172 0 -266.5 -113.5t-94.5 -318.5z" />
<glyph unicode="q" horiz-adv-x="1189" d="M94 516q0 121 31 221.5t89 172t144 111.5t195 40q131 0 218 -52.5t147 -140.5v113q0 35 15 48t44 13t43 -13t14 -48v-1362q0 -33 -15 -44t-42 -11t-43 11t-16 44v559q-55 -111 -149.5 -162t-221.5 -51q-109 0 -193 41t-142 115t-88 174t-30 221zM223 510q0 -96 22.5 -177 t66.5 -138.5t109.5 -89t149.5 -31.5q86 0 151.5 33.5t111 93t68 140.5t22.5 177q0 205 -98.5 318.5t-266.5 113.5q-84 0 -147.5 -31.5t-105.5 -90t-62.5 -139.5t-20.5 -179z" />
<glyph unicode="r" horiz-adv-x="712" d="M156 45v940q0 33 14 44t39 11q27 0 42 -11t15 -44v-192q31 70 75 119t91 78.5t94 43t88 13.5q43 0 61.5 -16.5t18.5 -51.5q0 -37 -16 -52.5t-49 -15.5q-166 0 -260.5 -109.5t-94.5 -322.5v-434q0 -35 -16 -47t-45 -12q-27 0 -42 12t-15 47z" />
<glyph unicode="s" horiz-adv-x="987" d="M94 119q0 23 20.5 43t43.5 20q16 0 31.5 -10t43.5 -27q43 -29 106.5 -53t170.5 -24q123 0 189.5 49t66.5 141q0 33 -6 63.5t-28.5 58.5t-71 49.5t-130.5 37.5l-110 20q-61 12 -114.5 32t-93.5 52.5t-63.5 79.5t-23.5 113q0 137 102.5 217t272.5 80q76 0 134 -12.5 t100 -30t69.5 -34.5t44.5 -30q14 -10 24.5 -24.5t10.5 -28.5q0 -25 -15.5 -41t-36.5 -16q-18 0 -33.5 8t-33.5 20q-45 29 -109.5 56.5t-162.5 27.5q-129 0 -185.5 -53t-56.5 -133q0 -55 42 -103.5t163 -70.5l139 -27q143 -29 219 -99.5t76 -197.5q0 -143 -98.5 -225 t-284.5 -82q-76 0 -138.5 11.5t-109.5 26.5t-80 33t-51 30q-33 25 -33 53z" />
<glyph unicode="t" horiz-adv-x="690" d="M31 973q0 25 8 39t33 14h129v234q0 35 5 50t19 23q16 10 31.5 14.5t34.5 4.5q29 0 28 -35v-291h234q25 0 33 -14.5t8 -38.5q0 -23 -8 -37t-33 -14h-234v-662q0 -109 36 -148.5t122 -39.5q37 0 59.5 7t41.5 17q10 4 20 9.5t20 5.5q16 0 30 -18.5t14 -43.5 q0 -41 -58.5 -62.5t-144.5 -21.5q-133 0 -195.5 65.5t-62.5 188.5v703h-129q-25 0 -33 14t-8 37z" />
<glyph unicode="u" horiz-adv-x="1171" d="M156 324v669q0 49 55 49q63 0 63 -49v-624q0 -139 53.5 -216t198.5 -77q94 0 164 42t116 107.5t68.5 147.5t22.5 159v451q0 35 15.5 47t43.5 12q29 0 44.5 -12t15.5 -47v-942q0 -33 -15.5 -44t-39.5 -11q-27 0 -43.5 11t-16.5 44v182q-12 -29 -38.5 -71.5t-75 -84.5 t-117 -72t-162.5 -30q-162 0 -257 87t-95 272z" />
<glyph unicode="v" horiz-adv-x="1030" d="M39 989q0 27 23.5 40t52.5 13q31 0 47 -43l344 -870l364 870q10 23 23.5 33t28.5 10q25 0 47 -13t22 -36q0 -18 -20 -61l-391 -903q-10 -20 -27.5 -31.5t-50.5 -11.5q-35 0 -51.5 10t-22.5 27l-367 892q-6 16 -14 36t-8 38z" />
<glyph unicode="w" horiz-adv-x="1546" d="M39 989q0 27 23.5 39t50.5 12q18 0 26 -9t13 -25l280 -879l270 860q18 53 86 53q27 0 46.5 -12t25.5 -37l246 -876l289 889q6 16 16 26t29 10q18 0 42.5 -10t24.5 -35q0 -12 -3 -25.5t-7 -23.5l-307 -905q-20 -55 -90 -55t-86 57l-236 831l-262 -833q-16 -55 -92 -55 q-63 0 -80 49l-297 905q-4 10 -6 21.5t-2 27.5z" />
<glyph unicode="x" horiz-adv-x="1005" d="M41 35q0 20 18 43l371 465l-319 401q-18 25 -19 43q0 23 22.5 39t41.5 16q10 0 20 -5t27 -25l303 -385l307 387q14 16 24.5 22t20.5 6q18 0 40 -15t22 -38q0 -14 -5.5 -23.5t-13.5 -19.5l-323 -401l368 -463q18 -23 19 -43q0 -23 -22.5 -38t-41.5 -15q-10 0 -21.5 5 t-27.5 25l-352 443l-353 -447q-10 -12 -20 -19t-27 -7q-18 0 -38.5 13t-20.5 36z" />
<glyph unicode="y" horiz-adv-x="1024" d="M39 989q0 27 23.5 40t52.5 13q27 0 45 -45l346 -833l362 835q16 43 45 43q27 0 49.5 -13t22.5 -36q0 -8 -4 -21.5t-8 -25.5l-588 -1339q-18 -45 -53 -45q-25 0 -42.5 14t-17.5 39q0 16 15 51l153 344l-389 930q-4 10 -8 23.5t-4 25.5z" />
<glyph unicode="z" horiz-adv-x="1007" d="M57 70q0 20 8.5 36.5t28.5 38.5l672 775h-637q-25 0 -34 15t-9 38q0 25 9 39t34 14h711q73 0 73 -68q0 -25 -8 -40t-28 -39l-670 -775h700q25 0 33 -14t8 -39t-8 -38t-33 -13h-776q-41 0 -57.5 18.5t-16.5 51.5z" />
<glyph unicode="{" horiz-adv-x="587" d="M78 623q0 27 8 36t27 13q51 10 85.5 36.5t34.5 92.5v489q0 45 8.5 86t31 72t62.5 48t101 17h78q35 0 35 -49q0 -47 -35 -47h-45q-41 0 -64.5 -11t-36 -30.5t-15.5 -47.5t-3 -60v-412q0 -84 -23.5 -141t-93.5 -92q78 -31 97.5 -91.5t19.5 -142.5v-420q0 -33 3 -60.5 t15.5 -48t36 -31.5t64.5 -11h45q35 0 35 -47q0 -23 -7 -36.5t-28 -13.5h-78q-61 0 -101 18.5t-62.5 49.5t-31 71t-8.5 85v497q0 70 -37.5 96.5t-82.5 32.5q-35 2 -35 52z" />
<glyph unicode="|" horiz-adv-x="475" d="M182 -215v1671q0 35 15.5 47.5t40.5 12.5q27 0 42 -12.5t15 -47.5v-1671q0 -35 -15.5 -48t-41.5 -13q-25 0 -40.5 13t-15.5 48z" />
<glyph unicode="}" horiz-adv-x="587" d="M39 -229q0 47 35 47h45q41 0 64.5 11t35.5 31.5t15.5 48.5t3.5 60v420q0 82 19 142.5t97 91.5q-70 35 -93 92t-23 141v412q0 33 -3.5 60.5t-15.5 47t-35.5 30.5t-64.5 11h-45q-35 0 -35 47q0 49 35 49h78q61 0 101 -17t62.5 -48t30.5 -72t8 -86v-489q0 -66 35 -92.5 t86 -36.5q18 -4 26.5 -13.5t8.5 -35.5q0 -49 -35 -52q-45 -6 -83 -32.5t-38 -96.5v-497q0 -45 -8 -85t-30.5 -71t-62.5 -49.5t-101 -18.5h-78q-20 0 -27.5 13.5t-7.5 36.5z" />
<glyph unicode="~" horiz-adv-x="1161" d="M43 588q0 14 13.5 37.5t52.5 64.5q35 37 87 63.5t107 26.5q59 0 118.5 -19.5t119.5 -47.5l137 -64q43 -20 85 -33.5t89 -13.5q43 0 71.5 18.5t63.5 59.5q18 20 33 32.5t31 12.5q14 0 38.5 -14.5t24.5 -40.5q0 -14 -14.5 -38t-52.5 -65q-33 -35 -83.5 -60.5t-101.5 -25.5 q-63 0 -124.5 17.5t-121.5 46.5l-127 57q-47 23 -88 39t-94 16q-63 0 -102 -33.5t-66 -64.5q-18 -20 -39 -20q-23 0 -40 15t-17 34z" />
<glyph unicode="&#xa0;" horiz-adv-x="501" d="M0 0z" />
<glyph unicode="&#xa2;" horiz-adv-x="1236" d="M180 729q0 111 26.5 204t79 163.5t128 114.5t172.5 57v143q0 35 12 48.5t41 13.5t42 -13.5t13 -48.5v-139q76 -4 134.5 -26.5t100.5 -53.5t68.5 -66.5t42.5 -66.5q6 -16 11.5 -27.5t5.5 -27.5q0 -27 -20.5 -43.5t-43.5 -16.5q-14 0 -25.5 6t-25.5 35q-8 14 -24.5 41 t-45 54.5t-72.5 50t-106 28.5v-868q57 4 98.5 22.5t69 43t45 49t27.5 43.5q18 33 29.5 43t27.5 10q23 0 43.5 -16.5t20.5 -39.5q0 -20 -15 -47q-10 -20 -35.5 -55t-67.5 -69.5t-102.5 -62.5t-140.5 -34v-170q0 -35 -13 -47t-42 -12t-41 12t-12 47v174q-104 12 -181 56.5 t-126.5 116t-74 166.5t-24.5 208zM309 731q0 -182 67.5 -297t209.5 -139v860q-141 -25 -209 -135.5t-68 -288.5z" />
<glyph unicode="&#xa3;" d="M86 731q0 23 8 38t33 15h178q-14 33 -25.5 61.5t-19.5 57.5t-12 58.5t-4 64.5q0 80 27.5 152.5t83 126t137 85t190.5 31.5q102 0 178 -28.5t129 -68.5t84 -84t45 -73q10 -16 17.5 -37.5t7.5 -37.5q0 -49 -72 -50q-14 0 -24.5 6.5t-20.5 30.5q-12 31 -36.5 70t-64.5 75 t-100.5 60.5t-146.5 24.5q-84 0 -140.5 -22.5t-91 -59.5t-50 -86t-15.5 -103q0 -78 18.5 -131t53.5 -123h428q25 0 33 -15t8 -38q0 -25 -8.5 -40t-32.5 -15h-385q20 -59 36.5 -119.5t16.5 -126.5q0 -55 -17.5 -102t-47 -87t-67.5 -74t-79 -63h784q25 0 34 -14t9 -39t-9 -38 t-34 -13h-891q-37 0 -51 16.5t-14 51.5q0 27 8 45t31 30q47 27 87 53.5t68.5 58.5t44 75t15.5 102q0 66 -18.5 123t-49.5 121h-225q-25 0 -33 15.5t-8 39.5z" />
<glyph unicode="&#xa5;" d="M115 1335q0 27 20.5 43.5t42.5 16.5q27 0 45 -27l404 -559l379 551q23 35 51 35q18 0 39.5 -12.5t21.5 -39.5q0 -10 -6 -25t-16 -30l-359 -504h264q25 0 33 -10t8 -35t-8 -36t-33 -11h-317v-243h317q25 0 33 -10.5t8 -35.5t-8 -36t-33 -11h-317v-309q0 -35 -16.5 -48 t-44.5 -13q-29 0 -46.5 13t-17.5 48v309h-311q-25 0 -33 11.5t-8 35.5q0 25 8 35.5t33 10.5h311v243h-311q-25 0 -33 11.5t-8 35.5q0 25 8 35t33 10h254l-365 500q-8 10 -15 24.5t-7 26.5z" />
<glyph unicode="&#xa8;" horiz-adv-x="991" d="M217 1352q0 41 24.5 66.5t65.5 25.5q35 0 64.5 -22.5t29.5 -69.5q0 -43 -26.5 -67.5t-67.5 -24.5t-65.5 24.5t-24.5 67.5zM614 1352q0 41 25 66.5t66 25.5q35 0 63.5 -22.5t28.5 -69.5q0 -43 -24.5 -67.5t-67.5 -24.5q-41 0 -66 24.5t-25 67.5z" />
<glyph unicode="&#xa9;" horiz-adv-x="1761" d="M86 737q0 162 61.5 301.5t169 240.5t252 158.5t312.5 57.5q166 0 311 -57.5t252.5 -158.5t169 -240.5t61.5 -301.5q0 -160 -61.5 -301t-169 -246.5t-252.5 -167t-311 -61.5q-172 0 -318.5 59.5t-252 164t-165 246.5t-59.5 306zM197 737q0 -141 53 -266t146 -217 t218 -146.5t267 -54.5q141 0 266 54.5t218 146.5t147.5 217t54.5 266t-54.5 263t-148.5 211t-218 140.5t-265 51.5t-266.5 -51.5t-218.5 -140.5t-146 -210.5t-53 -263.5zM492 739q0 100 29.5 182.5t83.5 138.5t130 87t168 31q117 0 205 -49.5t135 -127.5q10 -16 17.5 -33.5 t7.5 -33.5q0 -23 -15.5 -37t-44.5 -14q-16 0 -27.5 6t-21.5 26q-16 33 -37.5 61t-52.5 49.5t-74 33.5t-102 12q-72 0 -124 -24.5t-86 -68.5t-51.5 -105.5t-17.5 -133.5q0 -152 71 -244t218 -92q88 0 144.5 29t91.5 94q16 39 43 39q16 0 38.5 -13t22.5 -36q0 -35 -20.5 -66.5 t-44.5 -58.5q-47 -47 -119 -70.5t-164 -23.5q-193 0 -298 119t-105 323z" />
<glyph unicode="&#xab;" horiz-adv-x="1112" d="M102 543q0 14 6.5 24.5t14.5 20.5l307 348q25 29 45 29q23 0 43.5 -20.5t20.5 -43.5q0 -14 -7.5 -26.5t-25.5 -32.5l-260 -291l256 -289q16 -18 22 -29.5t6 -23.5q0 -25 -20.5 -44.5t-42.5 -19.5q-25 0 -51 33l-289 316q-10 10 -17.5 22t-7.5 27zM563 543q0 14 6.5 24.5 t14.5 20.5l307 348q25 29 45 29q23 0 43.5 -20.5t20.5 -43.5q0 -14 -7.5 -26.5t-25.5 -32.5l-260 -291l256 -289q16 -18 22 -29.5t6 -23.5q0 -25 -20.5 -44.5t-42.5 -19.5q-25 0 -51 33l-289 316q-10 10 -17.5 22t-7.5 27z" />
<glyph unicode="&#xad;" horiz-adv-x="542" d="M49 528q0 63 53 64h336q55 0 56 -64q0 -66 -56 -65h-336q-53 0 -53 65z" />
<glyph unicode="&#xae;" horiz-adv-x="1761" d="M86 737q0 162 61.5 301.5t169 240.5t252 158.5t312.5 57.5q166 0 311 -57.5t252.5 -158.5t169 -240.5t61.5 -301.5q0 -160 -61.5 -301t-169 -246.5t-252.5 -167t-311 -61.5q-172 0 -318.5 59.5t-252 164t-165 246.5t-59.5 306zM197 737q0 -141 53 -266t146 -217 t218 -146.5t267 -54.5q141 0 266 54.5t218 146.5t147.5 217t54.5 266t-54.5 263t-148.5 211t-218 140.5t-265 51.5t-266.5 -51.5t-218.5 -140.5t-146 -210.5t-53 -263.5zM602 352v770q0 16 7 28.5t26 12.5h239q170 0 254 -62.5t84 -205.5q0 -72 -34.5 -130t-100.5 -97 l94 -279q4 -10 6.5 -18.5t2.5 -18.5q0 -18 -13.5 -30.5t-40.5 -12.5q-25 0 -34 13.5t-19 39.5l-96 279h-270v-289q0 -43 -50 -43q-25 0 -40 10.5t-15 32.5zM707 735h219q178 0 178 168q0 74 -48 120t-141 46h-208v-334z" />
<glyph unicode="&#xb4;" horiz-adv-x="765" d="M178 1231q0 25 21 47l155 190q29 35 47.5 50.5t40.5 15.5q35 0 54.5 -21.5t19.5 -48.5q0 -18 -11 -35.5t-28 -33.5l-186 -166q-16 -16 -31.5 -26.5t-38.5 -10.5q-18 0 -30.5 11t-12.5 28z" />
<glyph unicode="&#xb8;" horiz-adv-x="923" d="M238 -385q0 18 13 39.5t30 21.5q16 0 45 -16q20 -10 47.5 -20.5t64.5 -10.5q45 0 76 20.5t31 67.5q0 29 -14.5 47.5t-38 28.5t-52 13.5t-57.5 3.5q-33 0 -35 16t4 35l43 139h92l-30 -106q109 -8 154.5 -53.5t45.5 -119.5q0 -78 -53 -132t-166 -54q-63 0 -105 12.5 t-63 24.5q-33 20 -32 43z" />
<glyph unicode="&#xbb;" horiz-adv-x="1112" d="M113 901q0 23 20.5 43.5t42.5 20.5q20 0 45 -29l307 -348q8 -10 14.5 -20.5t6.5 -24.5t-7 -26.5t-18 -22.5l-288 -316q-27 -33 -52 -33q-23 0 -43 19.5t-20 44.5q0 12 6 23.5t23 29.5l256 285l-261 295q-18 20 -25 32.5t-7 26.5zM574 901q0 23 20.5 43.5t42.5 20.5 q20 0 45 -29l307 -348q8 -10 14.5 -20.5t6.5 -24.5t-7 -26.5t-18 -22.5l-288 -316q-27 -33 -52 -33q-23 0 -43 19.5t-20 44.5q0 12 6 23.5t23 29.5l256 285l-261 295q-18 20 -25 32.5t-7 26.5z" />
<glyph unicode="&#x2c6;" horiz-adv-x="958" d="M96 1251q0 16 8.5 28.5t24.5 29.5l154 170q23 23 43 30t43 7q18 0 37.5 -6.5t35.5 -26.5l152 -170q31 -37 31 -66q0 -18 -15.5 -30.5t-31.5 -12.5q-23 0 -36.5 12.5t-41.5 43.5l-138 143l-129 -137q-29 -31 -48 -46.5t-42 -15.5q-25 0 -36 14.5t-11 32.5z" />
<glyph unicode="&#x2da;" horiz-adv-x="958" d="M256 1391q0 45 17.5 85t47 69.5t70.5 47t88 17.5t88 -17.5t71 -47t47 -69.5t17 -85t-17 -85t-47 -70t-71 -47.5t-88 -17.5t-88 17.5t-70.5 47.5t-47 70t-17.5 85zM352 1391q0 -51 38 -91t89 -40t89 40t38 91t-38 91t-89 40t-89 -40t-38 -91z" />
<glyph unicode="&#x2dc;" horiz-adv-x="958" d="M119 1278q0 29 16.5 54.5t34.5 45.5q35 37 70.5 52.5t76.5 15.5q66 0 138 -33l71 -33q23 -10 53.5 -20t57.5 -10q39 0 59.5 23.5t38.5 58.5q8 14 19.5 24t27.5 10t34 -10t18 -33q0 -12 -5 -32q-16 -72 -70.5 -109t-117.5 -37q-41 0 -72.5 7.5t-62.5 21.5l-76 31 q-31 14 -56.5 23t-51.5 9q-37 0 -56.5 -13t-42.5 -44q-14 -20 -23.5 -32.5t-31.5 -12.5q-16 0 -32.5 8t-16.5 35z" />
<glyph unicode="&#x400;" horiz-adv-x="1206" d="M170 66v1290q0 66 66 65h839q47 0 47 -55q0 -57 -47 -57h-780v-527h739q47 0 47 -55q0 -57 -47 -57h-739v-557h780q47 0 47 -56q0 -57 -47 -57h-839q-66 0 -66 66zM389 1745q0 29 21.5 50.5t50.5 21.5q18 0 37.5 -11.5t48.5 -33.5l194 -152q31 -25 31 -47 q0 -16 -13.5 -30.5t-31.5 -14.5q-16 0 -31.5 6t-32.5 16l-219 121q-29 16 -42 32.5t-13 41.5z" />
<glyph unicode="&#x401;" horiz-adv-x="1206" d="M170 66v1290q0 66 66 65h839q47 0 47 -55q0 -57 -47 -57h-780v-527h739q47 0 47 -55q0 -57 -47 -57h-739v-557h780q47 0 47 -56q0 -57 -47 -57h-839q-66 0 -66 66zM328 1647q0 41 24.5 66.5t65.5 25.5q35 0 64.5 -22.5t29.5 -69.5q0 -43 -26.5 -68t-67.5 -25t-65.5 25 t-24.5 68zM783 1647q0 41 24.5 66.5t65.5 25.5q35 0 63.5 -22.5t28.5 -69.5q0 -43 -24.5 -68t-67.5 -25q-41 0 -65.5 25t-24.5 68z" />
<glyph unicode="&#x402;" horiz-adv-x="1425" d="M20 1366q0 55 48 55h876q29 0 39 -14t10 -41q0 -29 -10 -43t-39 -14h-422v-619q12 31 41 74t76 83t114.5 67.5t157.5 27.5q209 0 312.5 -126t103.5 -361q0 -127 -29.5 -219.5t-83 -151.5t-126 -89t-158.5 -30q-115 0 -178.5 29t-77.5 41q-20 18 -21 45q0 20 16.5 40.5 t39.5 20.5q12 0 26.5 -7t30.5 -17q29 -16 67.5 -32.5t98.5 -16.5q49 0 97 17t86 60t61.5 118t23.5 190q0 182 -73.5 280t-227.5 98q-100 0 -172 -41.5t-117 -108.5t-66.5 -148.5t-21.5 -159.5v-326q0 -35 -16.5 -48t-44.5 -13q-29 0 -45.5 13t-16.5 48v1262h-331 q-47 0 -48 57z" />
<glyph unicode="&#x403;" horiz-adv-x="1001" d="M170 47v1309q0 66 66 65h696q29 0 39 -14t10 -41q0 -29 -10 -43t-39 -14h-639v-1262q0 -35 -16.5 -48t-45.5 -13t-45 13t-16 48zM420 1573q0 23 31 47l194 152q29 23 48.5 34t37.5 11q29 0 50.5 -21.5t21.5 -50.5q0 -25 -13.5 -41t-41.5 -33l-219 -121q-16 -10 -32 -16 t-32 -6q-18 0 -31.5 14t-13.5 31z" />
<glyph unicode="&#x404;" horiz-adv-x="1404" d="M104 707q0 170 47.5 308t134.5 236.5t209.5 151.5t272.5 53q98 0 174 -21.5t131 -51t91 -61.5t55 -50q35 -41 64.5 -93.5t29.5 -93.5q0 -33 -26.5 -44t-43.5 -11q-31 0 -51 41q-23 45 -57.5 93t-85 86t-119 62.5t-160.5 24.5q-121 0 -215 -41t-160.5 -114.5t-104.5 -176 t-46 -227.5h700q47 0 47 -55q0 -57 -47 -57h-702q4 -129 40.5 -236.5t103.5 -184.5t163 -120t221 -43q104 0 178 30.5t123 73.5t79 88t44 76q27 55 59 56q18 0 44 -12.5t26 -43.5q0 -41 -29.5 -93t-64.5 -93q-16 -18 -50 -51t-91.5 -66t-136.5 -57.5t-183 -24.5 q-158 0 -280.5 52.5t-207.5 148.5t-130.5 233.5t-45.5 307.5z" />
<glyph unicode="&#x405;" horiz-adv-x="1247" d="M92 217q0 23 23.5 41t40.5 18q18 0 29.5 -10t31.5 -28q25 -23 57.5 -50.5t83 -53t120 -43t167.5 -17.5q76 0 141.5 17.5t113.5 53t74.5 88t26.5 119.5q0 111 -69.5 185.5t-229.5 113.5l-159 39q-102 25 -176 58.5t-121 79.5t-69.5 106.5t-22.5 140.5q0 76 28.5 145.5 t87 122t147.5 83t208 30.5q111 0 191.5 -20.5t137 -50t92 -62.5t54.5 -57q29 -39 28 -62q0 -23 -18 -40t-41 -17q-14 0 -28.5 5t-30.5 28q-16 20 -45 47.5t-75 54.5t-112.5 45.5t-159.5 18.5q-96 0 -160.5 -26t-102.5 -64.5t-53 -85t-15 -87.5q0 -47 12 -88t45 -75.5 t89 -64.5t142 -50l211 -51q166 -41 257.5 -134.5t91.5 -257.5q0 -96 -37 -170.5t-103.5 -125t-159 -76t-202.5 -25.5q-115 0 -199 19.5t-145.5 47t-100 59.5t-59.5 54q-23 23 -30 39.5t-7 32.5z" />
<glyph unicode="&#x406;" horiz-adv-x="462" d="M170 47v1327q0 35 16.5 48.5t44.5 13.5q29 0 45.5 -13.5t16.5 -48.5v-1327q0 -35 -16.5 -48t-45.5 -13t-45 13t-16 48z" />
<glyph unicode="&#x407;" horiz-adv-x="462" d="M-78 1647q0 41 24.5 66.5t65.5 25.5q35 0 64.5 -22.5t29.5 -69.5q0 -43 -26.5 -68t-67.5 -25t-65.5 25t-24.5 68zM170 47v1327q0 35 16.5 48.5t44.5 13.5q29 0 45.5 -13.5t16.5 -48.5v-1327q0 -35 -16.5 -48t-45.5 -13t-45 13t-16 48zM377 1647q0 41 24.5 66.5t65.5 25.5 q35 0 63.5 -22.5t28.5 -69.5q0 -43 -24.5 -68t-67.5 -25q-41 0 -65.5 25t-24.5 68z" />
<glyph unicode="&#x408;" horiz-adv-x="1081" d="M61 287q4 33 29 44t45 11q37 0 58 -63q10 -31 29.5 -67t53 -65.5t86 -50t130.5 -20.5q172 0 241.5 90t69.5 274v934q0 35 16.5 48.5t44.5 13.5q29 0 45.5 -13.5t16.5 -48.5v-952q0 -231 -105.5 -344t-333.5 -113q-104 0 -177.5 25.5t-122 63.5t-75 83t-38.5 82 q-8 20 -10.5 35.5t-2.5 32.5z" />
<glyph unicode="&#x409;" horiz-adv-x="2043" d="M20 35q0 29 13.5 46t52.5 17q41 0 68.5 13.5t46 42t33 72.5t26.5 104q29 127 47.5 262t32.5 270q14 129 20.5 249t14.5 249q2 35 17.5 48t45.5 13h652q27 0 44 -12t17 -49v-547h268q106 0 202.5 -16.5t170.5 -59.5t117 -117.5t43 -193.5q0 -207 -131 -316.5t-400 -109.5 h-327q-29 0 -47.5 15.5t-18.5 50.5v1243h-530q-10 -113 -18.5 -217.5t-18.5 -217.5q-6 -74 -16.5 -160.5t-24.5 -175.5t-30.5 -173t-37.5 -152q-33 -111 -91 -169t-173 -58q-68 0 -68 49zM1151 113h262q217 0 309.5 78t92.5 219q0 70 -20.5 124t-69 91t-128 56t-196.5 19 h-250v-587z" />
<glyph unicode="&#x40a;" horiz-adv-x="2131" d="M170 47v1327q0 35 16.5 48.5t46.5 13.5q29 0 45.5 -13.5t16.5 -48.5v-561h821v561q0 35 16.5 48.5t45.5 13.5q27 0 44 -12.5t17 -49.5v-561h268q106 0 202.5 -16.5t170.5 -59.5t117 -117.5t43 -193.5q0 -207 -131 -316.5t-400 -109.5h-327q-29 0 -47.5 15.5t-18.5 50.5 v634h-821v-653q0 -35 -16.5 -48t-45.5 -13q-31 0 -47 13t-16 48zM1239 113h262q217 0 309.5 78t92.5 219q0 70 -20.5 124t-69 91t-128 56t-196.5 19h-250v-587z" />
<glyph unicode="&#x40b;" horiz-adv-x="1433" d="M20 1366q0 55 48 55h876q29 0 39 -14t10 -41q0 -29 -10 -43t-39 -14h-422v-580q12 31 41 74t76 83t114.5 68.5t157.5 28.5q158 0 255.5 -87t97.5 -271v-592q0 -49 -56 -49q-63 0 -63 49v547q0 139 -56.5 212.5t-201.5 73.5q-96 0 -166 -40t-114 -104.5t-64.5 -144 t-20.5 -157.5v-373q0 -35 -16.5 -48t-44.5 -13q-29 0 -45.5 13t-16.5 48v1262h-331q-47 0 -48 57z" />
<glyph unicode="&#x40c;" horiz-adv-x="1210" d="M170 47v1327q0 35 16.5 48.5t46.5 13.5q29 0 45.5 -13.5t16.5 -48.5v-600h242l460 635q10 14 20.5 20.5t26.5 6.5q25 0 43.5 -16.5t18.5 -37.5q0 -18 -27 -57l-417 -586l479 -653q12 -16 15 -27.5t3 -19.5q0 -27 -20.5 -40t-42.5 -13q-25 0 -37 9t-35 38l-471 631h-258 v-617q0 -35 -16.5 -48t-45.5 -13q-31 0 -47 13t-16 48zM520 1573q0 23 31 47l194 152q29 23 48.5 34t37.5 11q29 0 50.5 -21.5t21.5 -50.5q0 -25 -13.5 -41t-41.5 -33l-219 -121q-16 -10 -32 -16t-32 -6q-18 0 -31.5 14t-13.5 31z" />
<glyph unicode="&#x40d;" horiz-adv-x="1409" d="M170 55v1323q0 33 15.5 45.5t43.5 12.5q29 0 44.5 -12.5t15.5 -45.5v-1224l768 1212q27 41 47 55.5t57 14.5q35 0 56.5 -14.5t21.5 -51.5v-1327q0 -33 -15.5 -45t-43.5 -12q-29 0 -44.5 12t-15.5 45v1214l-764 -1202q-20 -33 -43.5 -51t-62.5 -18q-37 0 -58.5 16 t-21.5 53zM485 1745q0 29 21.5 50.5t50.5 21.5q18 0 37.5 -11.5t48.5 -33.5l194 -152q31 -25 31 -47q0 -16 -13.5 -30.5t-31.5 -14.5q-16 0 -31.5 6t-32.5 16l-219 121q-29 16 -42 32.5t-13 41.5z" />
<glyph unicode="&#x40e;" horiz-adv-x="1126" d="M31 1380q0 27 24.5 41.5t46.5 14.5q14 0 25.5 -5.5t19.5 -21.5l449 -860l393 852q16 35 51 35q18 0 42 -12.5t24 -39.5t-19 -63l-374 -801q-41 -88 -81 -164.5t-89 -162.5q-37 -63 -74 -103.5t-77 -64t-86 -31.5t-101 -8q-68 0 -68 49q0 29 13.5 46t52.5 17q35 0 63.5 2 t53 12.5t48 35t48.5 67.5l110 197l-475 905q-8 16 -14 33.5t-6 29.5zM287 1761q0 59 70 59q14 0 26.5 -7t16.5 -30q6 -31 17 -58.5t32.5 -49t55.5 -33.5t85 -12q49 0 82 14t52.5 35.5t30.5 48.5t17 51q6 25 18.5 34t35.5 9q33 0 48 -13t15 -48q0 -37 -17.5 -79t-54 -76 t-94 -56.5t-137.5 -22.5q-86 0 -143.5 22.5t-92 56.5t-49 76t-14.5 79z" />
<glyph unicode="&#x40f;" horiz-adv-x="1361" d="M170 61v1313q0 35 16.5 48.5t46.5 13.5q29 0 45.5 -13.5t16.5 -48.5v-1261h772v1261q0 35 16.5 48.5t44.5 13.5q29 0 46.5 -13.5t17.5 -48.5v-1313q0 -35 -16.5 -48t-47.5 -13h-362v-276q0 -35 -17.5 -48.5t-46.5 -13.5t-45 13.5t-16 48.5v276h-408q-31 0 -47 13.5 t-16 47.5z" />
<glyph unicode="&#x410;" horiz-adv-x="1355" d="M41 35q0 4 1 11t7 22l547 1314q23 53 86 54q31 0 48.5 -12.5t25.5 -30.5l549 -1319q10 -27 10 -37q0 -27 -23.5 -39t-46.5 -12t-34 11t-17 26l-168 399h-698l-172 -402q-17 -34 -50 -34q-27 0 -46 11t-19 38zM375 528h604l-301 770z" />
<glyph unicode="&#x411;" horiz-adv-x="1228" d="M170 66v1290q0 66 66 65h739q29 0 39 -14t10 -41q0 -29 -10 -43t-39 -14h-682v-490h307q104 0 201.5 -17.5t171.5 -62.5t119 -120.5t45 -194.5q0 -207 -129 -315.5t-398 -108.5h-374q-29 0 -47.5 15.5t-18.5 50.5zM293 113h309q217 0 309.5 79t92.5 218q0 70 -20.5 125 t-69 94t-128 58.5t-196.5 19.5h-297v-594z" />
<glyph unicode="&#x412;" horiz-adv-x="1269" d="M170 66v1290q0 35 18.5 50t47.5 15h376q276 0 405.5 -85t129.5 -277q0 -125 -63.5 -205t-184.5 -119q86 -18 143.5 -52t92 -79t49 -99t14.5 -114q0 -391 -526 -391h-436q-29 0 -47.5 15.5t-18.5 50.5zM293 113h371q217 0 309 67.5t92 206.5q0 70 -20.5 123t-70.5 87 t-132 51.5t-205 17.5h-344v-553zM293 776h295q219 0 323.5 63.5t104.5 200.5q0 70 -20.5 120t-67.5 83t-126 49.5t-196 16.5h-313v-533z" />
<glyph unicode="&#x413;" horiz-adv-x="1001" d="M170 47v1309q0 66 66 65h696q29 0 39 -14t10 -41q0 -29 -10 -43t-39 -14h-639v-1262q0 -35 -16.5 -48t-45.5 -13t-45 13t-16 48z" />
<glyph unicode="&#x414;" horiz-adv-x="1437" d="M31 51q0 35 16 48.5t47 13.5h121q41 86 67.5 178t44 189.5t28 194.5t20.5 191q12 129 19 247t16 247q2 35 18 48t47 13h672q29 0 46 -13t17 -48v-1247h113q29 0 46 -13.5t17 -48.5v-327q0 -35 -17 -48.5t-46 -13.5t-45 13.5t-16 48.5v276h-1106v-276q0 -35 -16.5 -48.5 t-45.5 -13.5q-31 0 -47 13.5t-16 48.5v327zM354 113h731v1196h-550q-8 -113 -14.5 -224t-20.5 -256q-8 -80 -20.5 -173t-30 -187t-41 -186.5t-54.5 -169.5z" />
<glyph unicode="&#x415;" horiz-adv-x="1206" d="M170 66v1290q0 66 66 65h839q47 0 47 -55q0 -57 -47 -57h-780v-527h739q47 0 47 -55q0 -57 -47 -57h-739v-557h780q47 0 47 -56q0 -57 -47 -57h-839q-66 0 -66 66z" />
<glyph unicode="&#x416;" horiz-adv-x="1789" d="M51 39q0 8 4 19.5t15 27.5l389 651l-334 584q-25 39 -25 59t20.5 38t49.5 18q27 0 43 -27l369 -635h249v600q0 35 16.5 48.5t47.5 13.5q29 0 45 -13.5t16 -48.5v-600h261l360 635q16 27 43 27q29 0 46 -15.5t17 -36.5q0 -20 -22 -59l-324 -586l383 -653q16 -31 17 -47 q0 -27 -19.5 -40t-46.5 -13q-23 0 -34 8t-29 39l-375 631h-277v-617q0 -35 -16 -48t-45 -13q-31 0 -47.5 13t-16.5 48v617h-276l-371 -631q-16 -29 -29.5 -38t-35.5 -9q-23 0 -45.5 13t-22.5 40z" />
<glyph unicode="&#x417;" horiz-adv-x="1189" d="M51 209q0 27 21.5 45t44.5 18q16 0 28.5 -10t32.5 -31q20 -20 53 -47.5t81 -52.5t114 -42t156 -17q193 0 289 80.5t96 224.5q0 80 -32 136t-88 91t-133 51.5t-165 16.5h-203q-25 0 -33 15t-8 40t8.5 40t32.5 15h215q80 0 146.5 21.5t114.5 60.5t76 94.5t28 124.5 q0 53 -16.5 101.5t-55.5 84.5t-105.5 57.5t-164.5 21.5q-74 0 -132.5 -18.5t-103.5 -45.5t-77.5 -57.5t-57.5 -55.5q-16 -16 -29.5 -25t-29.5 -9q-25 0 -45.5 15t-20.5 40q0 23 12.5 41t28.5 35q16 16 53 48t95.5 62.5t140.5 54t190 23.5q125 0 211 -28.5t137.5 -78t74 -114 t22.5 -135.5q0 -137 -74 -231.5t-211 -135.5q154 -16 242 -103t88 -241q0 -207 -131 -315.5t-392 -108.5q-102 0 -180 17.5t-135 42t-94 51.5t-60 45q-55 49 -55 88z" />
<glyph unicode="&#x418;" horiz-adv-x="1409" d="M170 55v1323q0 33 15.5 45.5t43.5 12.5q29 0 44.5 -12.5t15.5 -45.5v-1224l768 1212q27 41 47 55.5t57 14.5q35 0 56.5 -14.5t21.5 -51.5v-1327q0 -33 -15.5 -45t-43.5 -12q-29 0 -44.5 12t-15.5 45v1214l-764 -1202q-20 -33 -43.5 -51t-62.5 -18q-37 0 -58.5 16 t-21.5 53z" />
<glyph unicode="&#x419;" horiz-adv-x="1409" d="M170 55v1323q0 33 15.5 45.5t43.5 12.5q29 0 44.5 -12.5t15.5 -45.5v-1224l768 1212q27 41 47 55.5t57 14.5q35 0 56.5 -14.5t21.5 -51.5v-1327q0 -33 -15.5 -45t-43.5 -12q-29 0 -44.5 12t-15.5 45v1214l-764 -1202q-20 -33 -43.5 -51t-62.5 -18q-37 0 -58.5 16 t-21.5 53zM424 1761q0 59 70 59q14 0 26.5 -7t16.5 -30q6 -31 17 -58.5t32.5 -49t55.5 -33.5t85 -12q49 0 82 14t52.5 35.5t30.5 48.5t17 51q6 25 18.5 34t35.5 9q33 0 48 -13t15 -48q0 -37 -17.5 -79t-54 -76t-94 -56.5t-137.5 -22.5q-86 0 -143.5 22.5t-92 56.5t-49 76 t-14.5 79z" />
<glyph unicode="&#x41a;" horiz-adv-x="1210" d="M170 47v1327q0 35 16.5 48.5t46.5 13.5q29 0 45.5 -13.5t16.5 -48.5v-600h242l460 635q10 14 20.5 20.5t26.5 6.5q25 0 43.5 -16.5t18.5 -37.5q0 -18 -27 -57l-417 -586l479 -653q12 -16 15 -27.5t3 -19.5q0 -27 -20.5 -40t-42.5 -13q-25 0 -37 9t-35 38l-471 631h-258 v-617q0 -35 -16.5 -48t-45.5 -13q-31 0 -47 13t-16 48z" />
<glyph unicode="&#x41b;" horiz-adv-x="1359" d="M20 35q0 29 13.5 46t52.5 17q82 0 116 57.5t60 178.5q29 127 47.5 260t30.5 268q12 129 19.5 249t15.5 249q2 35 17.5 48t45.5 13h688q29 0 46.5 -13t17.5 -48v-1313q0 -35 -17.5 -48t-46.5 -13t-45 13t-16 48v1262h-567q-10 -113 -17.5 -217.5t-17.5 -217.5 q-6 -74 -17.5 -160.5t-24.5 -174.5t-29.5 -168t-33.5 -142q-35 -123 -95 -183t-175 -60q-68 0 -68 49z" />
<glyph unicode="&#x41c;" horiz-adv-x="1769" d="M170 43v1309q0 47 23.5 65.5t66.5 18.5q41 0 63.5 -14.5t38.5 -51.5l527 -1210l512 1198q16 35 39.5 56.5t70.5 21.5q41 0 64.5 -18.5t23.5 -65.5v-1309q0 -33 -15 -45t-42 -12q-29 0 -45 12t-16 45v1212l-514 -1192q-10 -25 -31 -41t-51 -16q-33 0 -51.5 16.5 t-28.5 40.5l-518 1178v-1198q0 -33 -15.5 -45t-44.5 -12t-43 12t-14 45z" />
<glyph unicode="&#x41d;" horiz-adv-x="1454" d="M170 47v1327q0 35 16.5 48.5t46.5 13.5q29 0 45.5 -13.5t16.5 -48.5v-561h864v561q0 35 16.5 48.5t45.5 13.5t46 -13.5t17 -48.5v-1327q0 -35 -17.5 -48t-45.5 -13q-29 0 -45.5 13t-16.5 48v653h-864v-653q0 -35 -16.5 -48t-45.5 -13q-31 0 -47 13t-16 48z" />
<glyph unicode="&#x41e;" horiz-adv-x="1548" d="M104 713q0 174 48.5 311t136.5 233.5t212 147.5t273 51q150 0 272.5 -51t211 -147.5t137.5 -233.5t49 -311t-49 -312.5t-137.5 -235.5t-211 -148.5t-272.5 -51.5t-273.5 51.5t-211.5 148.5t-136.5 235.5t-48.5 312.5zM242 713q0 -143 33.5 -259t101 -199t167 -128 t230.5 -45t230.5 45t167 128t101.5 198.5t34 259.5q0 141 -34 256.5t-101.5 197.5t-167 127t-230.5 45t-230.5 -45t-167 -127t-101 -197.5t-33.5 -256.5z" />
<glyph unicode="&#x41f;" horiz-adv-x="1413" d="M170 47v1313q0 35 16.5 48t46.5 13h947q29 0 46 -13t17 -48v-1313q0 -35 -17.5 -48t-45.5 -13q-29 0 -45.5 13t-16.5 48v1262h-823v-1262q0 -35 -16.5 -48t-45.5 -13q-31 0 -47 13t-16 48z" />
<glyph unicode="&#x420;" horiz-adv-x="1226" d="M170 47v1309q0 66 66 65h378q274 0 402.5 -108.5t128.5 -308.5q0 -55 -19.5 -128t-75 -136.5t-154.5 -107.5t-259 -44h-342v-541q0 -35 -18.5 -48t-47.5 -13t-44 13t-15 48zM295 696h295q121 0 201.5 22.5t129 62.5t68 97.5t19.5 125.5t-19.5 124t-65.5 98t-123 64.5 t-192 22.5h-313v-617z" />
<glyph unicode="&#x421;" horiz-adv-x="1404" d="M104 707q0 170 47.5 308t134.5 236.5t209.5 151.5t272.5 53q98 0 174 -21.5t131 -51t91 -61.5t55 -50q35 -41 64.5 -93.5t29.5 -93.5q0 -33 -26.5 -44t-43.5 -11q-31 0 -51 41q-23 45 -57.5 93t-85 86t-119 62.5t-160.5 24.5q-129 0 -227.5 -46t-166 -130t-101 -199.5 t-33.5 -254.5q0 -137 33.5 -252t101 -198t166 -129t227.5 -46q104 0 178 30.5t123 73.5t79 88t44 76q27 55 59 56q18 0 44 -12.5t26 -43.5q0 -41 -29.5 -93t-64.5 -93q-16 -18 -50 -51t-91.5 -66t-136.5 -57.5t-183 -24.5q-158 0 -280.5 52.5t-207.5 148.5t-130.5 233.5 t-45.5 307.5z" />
<glyph unicode="&#x422;" horiz-adv-x="1210" d="M20 1366q0 55 48 55h1073q29 0 39 -14t10 -41q0 -29 -10.5 -43t-38.5 -14h-475v-1262q0 -35 -16.5 -48t-45.5 -13t-45 13t-16 48v1262h-475q-47 0 -48 57z" />
<glyph unicode="&#x423;" horiz-adv-x="1126" d="M31 1380q0 27 24.5 41.5t46.5 14.5q14 0 25.5 -5.5t19.5 -21.5l449 -860l393 852q16 35 51 35q18 0 42 -12.5t24 -39.5t-19 -63l-374 -801q-41 -88 -81 -164.5t-89 -162.5q-37 -63 -74 -103.5t-77 -64t-86 -31.5t-101 -8q-68 0 -68 49q0 29 13.5 46t52.5 17q35 0 63.5 2 t53 12.5t48 35t48.5 67.5l110 197l-475 905q-8 16 -14 33.5t-6 29.5z" />
<glyph unicode="&#x424;" horiz-adv-x="1529" d="M102 717q0 143 46.5 249.5t126 177t187 108.5t230.5 46v117q0 35 16.5 48.5t45.5 13.5t45 -13.5t16 -48.5v-117q125 -6 236.5 -40.5t194.5 -103.5t132 -174.5t49 -254.5q0 -145 -49 -251.5t-133 -179.5t-194.5 -111t-235.5 -44v-133q0 -35 -16.5 -48t-44.5 -13 q-29 0 -45.5 13t-16.5 48v135q-123 6 -230.5 42t-187 105.5t-126 175t-46.5 253.5zM238 717q0 -115 33.5 -199t94 -140t144.5 -87t182 -37v932q-100 -8 -184 -39t-143.5 -88.5t-93 -142t-33.5 -199.5zM815 254q102 6 189.5 37t152 87t100 141t35.5 202t-35.5 201t-100 141 t-151.5 87t-190 36v-932z" />
<glyph unicode="&#x425;" horiz-adv-x="1267" d="M43 37q0 14 6 25.5t14 21.5l496 651l-450 594q-10 12 -17.5 27.5t-7.5 25.5q0 27 22.5 41.5t43.5 14.5q16 0 30.5 -9.5t24.5 -23.5l432 -574l440 578q12 16 22.5 22.5t24.5 6.5q18 0 40 -14.5t22 -41.5q0 -23 -25 -53l-450 -588l485 -643q29 -37 29 -57q0 -23 -21.5 -39 t-44.5 -16q-14 0 -26.5 7t-30.5 30l-469 618l-479 -629q-12 -16 -25.5 -21t-24.5 -5q-23 0 -42 14t-19 37z" />
<glyph unicode="&#x426;" horiz-adv-x="1445" d="M170 61v1313q0 35 16.5 48.5t46.5 13.5q29 0 45.5 -13.5t16.5 -48.5v-1261h782v1261q0 35 16.5 48.5t45.5 13.5t46 -13.5t17 -48.5v-1261h129q29 0 46.5 -13.5t17.5 -48.5v-327q0 -35 -17.5 -48.5t-46.5 -13.5t-45 13.5t-16 48.5v276h-1037q-31 0 -47 13.5t-16 47.5z" />
<glyph unicode="&#x427;" horiz-adv-x="1216" d="M113 950v422q0 37 16 50.5t45 13.5t45.5 -13.5t16.5 -48.5v-391q0 -74 9 -130t43 -94t98.5 -57.5t174.5 -19.5q90 0 188.5 14.5t172.5 30.5v647q0 35 17 48.5t46 13.5t45.5 -13.5t16.5 -48.5v-1327q0 -35 -15.5 -48t-44.5 -13t-47 13t-18 48v569q-78 -16 -180.5 -28.5 t-188.5 -12.5q-109 0 -191.5 16.5t-138 57.5t-83 114t-27.5 187z" />
<glyph unicode="&#x428;" horiz-adv-x="1699" d="M170 61v1313q0 35 16.5 48.5t46.5 13.5q29 0 45.5 -13.5t16.5 -48.5v-1261h493v1261q0 35 16.5 48.5t47.5 13.5q29 0 45 -13.5t16 -48.5v-1261h492v1261q0 35 16.5 48.5t44.5 13.5q29 0 46.5 -13.5t17.5 -48.5l-2 -1313q0 -35 -16.5 -48t-47.5 -13h-1231q-31 0 -47 13.5 t-16 47.5z" />
<glyph unicode="&#x429;" horiz-adv-x="1773" d="M170 61v1313q0 35 16.5 48.5t46.5 13.5q29 0 45.5 -13.5t16.5 -48.5v-1261h493v1261q0 35 16.5 48.5t47.5 13.5q29 0 45 -13.5t16 -48.5v-1261h492v1261q0 35 16.5 48.5t44.5 13.5q29 0 46.5 -13.5t17.5 -48.5v-1261h129q29 0 46 -13.5t17 -48.5v-327q0 -35 -17 -48.5 t-46 -13.5t-45.5 13.5t-16.5 48.5v276h-1364q-31 0 -47 13.5t-16 47.5z" />
<glyph unicode="&#x42a;" horiz-adv-x="1394" d="M20 1366q0 27 10.5 41t39.5 14h315q66 0 66 -65v-496h319q106 0 202.5 -20.5t170.5 -68.5t117 -127t43 -198q0 -207 -132.5 -326.5t-398.5 -119.5h-379q-29 0 -47 15.5t-18 50.5v1243h-258q-29 0 -39.5 14t-10.5 43zM451 113h313q109 0 184.5 23.5t123.5 64.5t70.5 99 t22.5 130q0 70 -20.5 129t-68.5 100t-128 65t-196 24h-301v-635z" />
<glyph unicode="&#x42b;" horiz-adv-x="1665" d="M170 66v1308q0 35 16.5 48.5t44.5 13.5q27 0 44.5 -12.5t17.5 -49.5v-514h299q106 0 202.5 -20.5t170 -68.5t116.5 -127t43 -198q0 -207 -132 -326.5t-398 -119.5h-358q-29 0 -47.5 15.5t-18.5 50.5zM293 113h293q109 0 184.5 23.5t123.5 64.5t70.5 99t22.5 130 q0 70 -20.5 129t-68.5 100t-128 65t-197 24h-280v-635zM1372 47v1327q0 35 16.5 48.5t45.5 13.5t45 -13.5t16 -48.5v-1327q0 -35 -16.5 -48t-44.5 -13q-29 0 -45.5 13t-16.5 48z" />
<glyph unicode="&#x42c;" horiz-adv-x="1206" d="M170 66v1308q0 35 16.5 48.5t44.5 13.5q27 0 44.5 -12.5t17.5 -49.5v-514h289q106 0 202.5 -20.5t170 -68.5t116.5 -127t43 -198q0 -207 -132 -326.5t-398 -119.5h-348q-29 0 -47.5 15.5t-18.5 50.5zM293 113h282q109 0 185 23.5t124 64.5t70.5 99t22.5 130 q0 70 -20.5 129t-68.5 100t-128 65t-197 24h-270v-635z" />
<glyph unicode="&#x42d;" horiz-adv-x="1415" d="M90 344q0 31 28.5 47.5t47.5 16.5q32 -1 59 -56q14 -31 43 -77t79 -89t125 -73.5t183 -30.5q123 0 217.5 43t159 121t99 185.5t40.5 234.5h-700q-47 0 -47 57q0 55 47 55h700q-10 264 -138 411.5t-374 147.5q-92 0 -162.5 -24.5t-124 -62.5t-90 -86t-59.5 -93 q-20 -41 -51 -41q-16 0 -44 11.5t-28 43.5q0 35 20.5 77t56.5 83t86 80t110 68q127 63 321 63q141 0 255 -48t195 -140t124 -225.5t43 -303.5q0 -176 -43 -318t-126 -243.5t-206 -157t-285 -55.5q-104 0 -182 20.5t-134 50.5t-93 62.5t-58 59.5q-35 41 -64.5 93t-29.5 93z " />
<glyph unicode="&#x42e;" horiz-adv-x="1982" d="M170 47v1327q0 35 16.5 48.5t44.5 13.5q29 0 45.5 -13.5t16.5 -48.5v-563h311q12 152 63.5 271.5t134.5 202.5t193.5 127t243.5 44q141 0 259 -51t202 -147.5t131 -233.5t47 -311t-47 -312.5t-131 -235.5t-202 -148.5t-259 -51.5t-258 50.5t-201 145.5t-131 231t-49 306 h-307v-651q0 -35 -16.5 -48t-45.5 -13t-45 13t-16 48zM737 713q0 -143 33 -259t95.5 -199t156.5 -128t217 -45t217 45t156.5 128t95.5 198.5t33 259.5q0 141 -33 256.5t-95.5 197.5t-156.5 127t-217 45t-217 -45t-156.5 -127t-95.5 -197.5t-33 -256.5z" />
<glyph unicode="&#x42f;" horiz-adv-x="1263" d="M70 39q0 12 18 47l313 567q-92 31 -147 72t-86 88t-41 98.5t-10 104.5q0 199 119.5 302t394.5 103h395q31 0 49.5 -15t18.5 -50v-1309q0 -35 -15.5 -48t-44.5 -13t-47 13t-18 48v580h-439l-327 -586q-16 -29 -30.5 -42t-35.5 -13q-25 0 -46 14t-21 39zM254 1028 q0 -139 91 -216t298 -77h326v578h-361q-100 0 -167.5 -19.5t-109.5 -55.5t-59.5 -89t-17.5 -121z" />
<glyph unicode="&#x430;" horiz-adv-x="1091" d="M92 268q0 76 27.5 140.5t94.5 112.5t178.5 76t281.5 32l147 2v78q0 135 -70.5 201.5t-226.5 66.5q-66 0 -112.5 -13.5t-78.5 -33t-52.5 -41t-32.5 -35.5q-16 -23 -27.5 -29t-23.5 -6q-23 0 -42.5 13.5t-19.5 35.5q0 18 8.5 34t30.5 40q37 39 84 65.5t95 43t93.5 23.5 t79.5 7q113 0 192 -27.5t127 -75.5t69.5 -111.5t21.5 -133.5v-702q0 -45 -59 -45q-41 0 -49.5 20.5t-8.5 56.5v127q-29 -41 -66.5 -77.5t-87 -64.5t-111.5 -45t-140 -17q-164 0 -243 76.5t-79 205.5zM217 279q0 -96 52.5 -144.5t168.5 -48.5q111 0 203 55.5t139 128.5 q41 63 41 160v100l-153 -2q-137 -2 -224.5 -21.5t-137.5 -52t-69.5 -77.5t-19.5 -98z" />
<glyph unicode="&#x431;" horiz-adv-x="1107" d="M90 561q0 137 15.5 261t60.5 226.5t128 179.5t218 120l141 43q59 18 89 32.5t51 42.5q16 20 25 30.5t26 10.5q23 0 47 -15t24 -40q0 -26 -20 -55q-27 -37 -70 -60.5t-108 -44.5l-158 -47q-86 -25 -145.5 -63.5t-98.5 -92t-60.5 -125t-31.5 -163.5q72 119 165 179t202 60 q92 0 170 -28.5t135 -92t90 -162t33 -237.5q0 -117 -31 -218t-91 -176t-147 -118t-198 -43q-231 0 -346 160t-115 436zM219 508q0 -90 19.5 -170t61.5 -139.5t104.5 -94t148.5 -34.5q88 0 151.5 33.5t104.5 93t60.5 142.5t19.5 179q0 209 -83 312.5t-243 103.5 q-72 0 -134 -31t-108.5 -87t-74 -135t-27.5 -173z" />
<glyph unicode="&#x432;" horiz-adv-x="1030" d="M156 53v955q0 27 16 40t43 13h315q205 0 297.5 -64.5t92.5 -205.5q0 -86 -44.5 -145.5t-121.5 -90.5q57 -14 96 -42t63.5 -62.5t34.5 -75.5t10 -82q0 -145 -94 -219t-293 -74h-356q-27 0 -43 12.5t-16 40.5zM274 94h291q147 0 209 49.5t62 145.5q0 49 -13.5 88 t-47.5 64.5t-89 40t-139 14.5h-273v-402zM274 592h234q147 0 218 43t71 145q0 90 -58.5 138.5t-218.5 48.5h-246v-375z" />
<glyph unicode="&#x433;" horiz-adv-x="802" d="M156 45v961q0 33 17 44t42 11h520q35 0 46.5 -12.5t11.5 -40.5q0 -29 -11.5 -41.5t-46.5 -12.5h-461v-909q0 -35 -15 -47t-44 -12t-44 12t-15 47z" />
<glyph unicode="&#x434;" horiz-adv-x="1222" d="M31 51q0 35 17.5 45t45.5 10h92q31 39 53.5 104.5t37 139.5t22.5 145.5t12 122.5q10 98 15.5 195.5t9.5 196.5q2 51 57 51h543q27 0 42 -11.5t15 -39.5v-904h125q29 0 46.5 -10t17.5 -45v-327q0 -35 -16.5 -48.5t-45.5 -13.5q-57 0 -57 68v270h-913v-270q0 -68 -58 -68 q-29 0 -45 13.5t-16 48.5v327zM322 106h552v848h-421q-4 -72 -9.5 -158.5t-13.5 -172.5q-4 -53 -13 -122t-22.5 -141.5t-31 -139t-41.5 -114.5z" />
<glyph unicode="&#x435;" horiz-adv-x="1116" d="M90 524q0 119 34 221.5t97.5 177t152.5 116.5t199 42q113 0 199 -41t144.5 -111.5t88 -167.5t29.5 -210q0 -27 -15 -38t-40 -11h-764q4 -205 97.5 -317.5t267.5 -112.5q70 0 117.5 15t81.5 39t56.5 51.5t38.5 51.5q12 16 20.5 24.5t25.5 8.5q20 0 40.5 -12t20.5 -35 q0 -25 -20 -53q-18 -29 -48 -62.5t-76 -63.5t-109.5 -50.5t-147.5 -20.5q-121 0 -212.5 42t-152.5 116t-93 176t-32 225zM219 598h696q-6 80 -28.5 148.5t-64.5 120t-104.5 81t-146.5 29.5t-147.5 -32t-106.5 -85t-67.5 -121.5t-30.5 -140.5z" />
<glyph unicode="&#x436;" horiz-adv-x="1400" d="M35 33q0 16 14 41l277 473l-234 424q-10 20 -14 31.5t-4 21.5q0 18 21.5 31.5t41.5 13.5q29 0 45 -31l250 -456h209v432q0 55 61 55q57 0 58 -55v-432h209l254 456q16 31 45 31q20 0 39.5 -13.5t19.5 -31.5q0 -10 -4 -21.5t-14 -31.5l-234 -420l275 -473q14 -25 14 -41 q0 -20 -14.5 -35.5t-40.5 -15.5q-23 0 -35 10t-27 33l-268 454h-219v-438q0 -59 -60 -59q-59 0 -59 59v438h-225l-266 -454q-14 -23 -26.5 -33t-35.5 -10q-27 0 -40 13t-13 34z" />
<glyph unicode="&#x437;" horiz-adv-x="907" d="M41 143q0 23 20.5 40.5t42.5 17.5q14 0 26.5 -9.5t25.5 -21.5q18 -18 41.5 -37.5t55.5 -35t74 -26t99 -10.5q129 0 197.5 56.5t68.5 154.5q0 55 -21.5 97.5t-59.5 69t-89 40t-110 13.5h-144q-29 0 -37 14t-8 37q0 20 8.5 34.5t36.5 14.5h152q106 0 174 55t68 154 q0 37 -10.5 69.5t-35 57t-67.5 40t-111 15.5q-51 0 -92 -12.5t-72.5 -29.5t-53 -37.5t-36.5 -35.5q-10 -10 -23.5 -21t-27.5 -11q-23 0 -42 15t-19 36q0 16 11 32.5t21 26.5q12 12 39 35t70 45.5t102.5 38.5t137.5 16q94 0 156.5 -22.5t101.5 -59t55 -86t16 -102.5 q0 -94 -47 -160.5t-135 -101.5q102 -16 158.5 -89t56.5 -177q0 -150 -101.5 -234t-293.5 -84q-78 0 -134.5 12.5t-96 30t-66.5 36t-41 32.5q-25 23 -33 39t-8 28z" />
<glyph unicode="&#x438;" horiz-adv-x="1157" d="M156 45v965q0 35 14 47t43 12t44 -12.5t15 -46.5v-836l596 846q20 29 32.5 39t41.5 10t44 -12.5t15 -46.5v-965q0 -35 -15 -47t-44 -12t-43 12t-14 47v823l-588 -831q-20 -27 -37.5 -39t-46.5 -12t-43 12t-14 47z" />
<glyph unicode="&#x439;" horiz-adv-x="1157" d="M156 45v965q0 35 14 47t43 12t44 -12.5t15 -46.5v-836l596 846q20 29 32.5 39t41.5 10t44 -12.5t15 -46.5v-965q0 -35 -15 -47t-44 -12t-43 12t-14 47v823l-588 -831q-20 -27 -37.5 -39t-46.5 -12t-43 12t-14 47zM307 1442q0 59 70 59q14 0 26.5 -7t16.5 -30 q6 -31 17 -58.5t32.5 -49t55.5 -33.5t85 -12q49 0 82 14t52.5 35.5t30.5 48.5t17 51q6 25 18.5 34t35.5 9q33 0 48 -13t15 -48q0 -37 -17.5 -79t-54 -76t-94 -56.5t-137.5 -22.5q-86 0 -143.5 22.5t-92 56.5t-49 76t-14.5 79z" />
<glyph unicode="&#x43a;" horiz-adv-x="968" d="M156 45v969q0 55 61 55q57 0 57 -55v-428h189l317 454q23 29 43 29t41 -16.5t21 -32.5q0 -10 -4 -20.5t-17 -28.5l-293 -420l340 -477q10 -14 13.5 -21.5t3.5 -15.5q0 -23 -18.5 -37t-45.5 -14q-20 0 -32.5 9t-28.5 32l-332 460h-197v-442q0 -59 -59 -59t-59 59z" />
<glyph unicode="&#x43b;" horiz-adv-x="1077" d="M10 33q0 20 10.5 36.5t45.5 16.5q55 0 87.5 41t49.5 125q16 84 26.5 180t14.5 189l20 389q2 51 58 51h542q27 0 42.5 -11.5t15.5 -39.5v-971q0 -29 -15.5 -40t-42.5 -11q-29 0 -44 11t-15 40v915h-424l-21 -329q-4 -53 -9 -117t-12 -128.5t-17.5 -123.5t-24.5 -102 q-27 -78 -83 -123t-144 -45q-35 0 -47.5 10t-12.5 37z" />
<glyph unicode="&#x43c;" horiz-adv-x="1355" d="M156 33v968q0 39 20.5 53.5t59.5 14.5q33 0 55 -14.5t33 -36.5l352 -881l356 871q12 29 32.5 45t59.5 16q37 0 56.5 -14.5t19.5 -53.5v-968q0 -27 -15.5 -37t-39.5 -10q-55 0 -55 47v837l-347 -825q-8 -18 -24.5 -31.5t-42.5 -13.5q-29 0 -46.5 13.5t-25.5 31.5l-336 815 v-827q0 -47 -57 -47q-55 0 -55 47z" />
<glyph unicode="&#x43d;" horiz-adv-x="1157" d="M156 45v965q0 35 14 47t43 12t44 -12.5t15 -46.5v-410h613v410q0 35 14 47t43 12t44 -12.5t15 -46.5v-965q0 -35 -15 -47t-44 -12t-43 12t-14 47v453h-613v-453q0 -35 -15 -47t-44 -12t-43 12t-14 47z" />
<glyph unicode="&#x43e;" horiz-adv-x="1169" d="M90 524q0 129 36 232.5t100.5 175.5t155.5 110.5t202 38.5t203 -38.5t156.5 -110.5t100 -175.5t35.5 -232.5t-35.5 -232.5t-100 -176t-157 -111.5t-202.5 -39q-111 0 -202 39t-155.5 111.5t-100.5 176t-36 232.5zM219 524q0 -211 94.5 -330.5t270.5 -119.5 q178 0 272 119.5t94 330.5q0 209 -94 330t-272 121q-176 0 -270.5 -121t-94.5 -330z" />
<glyph unicode="&#x43f;" horiz-adv-x="1150" d="M156 45v961q0 33 17 44t42 11h723q25 0 41 -12.5t16 -42.5v-961q0 -35 -15 -47t-44 -12t-44 12t-15 47v909h-603v-909q0 -35 -15 -47t-44 -12t-44 12t-15 47z" />
<glyph unicode="&#x440;" horiz-adv-x="1185" d="M156 -381v1380q0 35 14 48.5t43 13.5t44 -13.5t15 -48.5v-118q59 84 151.5 142t231.5 58q104 0 186.5 -42t138.5 -115.5t86 -175t30 -222.5t-30 -223t-88 -177t-142 -118t-193 -43q-127 0 -221 51.5t-150 161.5v-559q0 -33 -17 -44t-44 -11t-41 11t-14 44zM266 518 q0 -96 22.5 -177t67.5 -140.5t110.5 -93t151.5 -33.5q84 0 150 33.5t110 93t66.5 141.5t22.5 178q0 98 -21.5 180t-64.5 142.5t-106.5 94.5t-147.5 34q-86 0 -152.5 -33t-113 -92.5t-71 -143.5t-24.5 -184z" />
<glyph unicode="&#x441;" horiz-adv-x="1036" d="M90 526q0 121 32 222.5t93 175t149.5 115.5t202.5 42q86 0 150.5 -21.5t110.5 -53t76 -69.5t46 -71q6 -16 11.5 -27.5t5.5 -27.5q0 -27 -20.5 -43t-43.5 -16q-14 0 -25.5 6t-25.5 35q-8 14 -25.5 43.5t-51.5 59.5t-84 51.5t-124 21.5q-88 0 -153.5 -32t-108.5 -89 t-64.5 -139t-21.5 -181q0 -102 21.5 -185t64.5 -142.5t108.5 -92t153.5 -32.5q68 0 116 18.5t80 43t50 50.5l31 48q18 33 29.5 43t27.5 10q23 0 43.5 -16.5t20.5 -39.5q0 -20 -15 -47q-12 -20 -38.5 -57t-72.5 -74t-114 -63.5t-158 -26.5q-123 0 -213 42t-148.5 117t-87 177 t-28.5 225z" />
<glyph unicode="&#x442;" horiz-adv-x="847" d="M20 1008q0 29 11.5 41t46.5 12h692q35 0 46 -12.5t11 -40.5q0 -29 -11 -41.5t-46 -12.5h-301v-909q0 -35 -15.5 -47t-43.5 -12q-29 0 -44.5 12t-15.5 47v909h-272q-35 0 -46.5 12.5t-11.5 41.5z" />
<glyph unicode="&#x443;" horiz-adv-x="1024" d="M39 1018q0 27 24.5 40t53.5 13q27 0 45 -45l344 -862l362 864q16 43 45 43q27 0 49.5 -13.5t22.5 -35.5q0 -8 -4 -21.5t-8 -25.5l-588 -1368q-18 -45 -53 -45q-25 0 -42.5 14t-17.5 39q0 16 15 51l153 344l-389 959q-4 10 -8 23.5t-4 25.5z" />
<glyph unicode="&#x444;" horiz-adv-x="1656" d="M100 526q0 121 23.5 222.5t70 175t117 115.5t164.5 42q59 0 104.5 -14t80 -40t61.5 -60.5t49 -73.5v481q0 35 14.5 48.5t42.5 13.5q29 0 44.5 -13.5t15.5 -48.5v-481q20 35 48 68.5t66.5 60.5t87 43t109.5 16q94 0 161.5 -42t112 -115.5t64.5 -175t20 -222.5t-22.5 -223 t-67.5 -177t-113.5 -118t-160.5 -43q-59 0 -105.5 13.5t-82 38t-64.5 60.5t-53 81v-535q0 -35 -15.5 -47t-44.5 -12t-43 12t-14 47v535q-53 -86 -118.5 -139.5t-186.5 -53.5q-92 0 -160.5 43t-114 118t-68 177.5t-22.5 222.5zM229 520q0 -96 14.5 -178t45 -141.5t79 -93 t117.5 -33.5q285 0 285 454q0 117 -21.5 200t-59.5 137.5t-92 80t-120 25.5q-70 0 -117 -34t-76.5 -94.5t-42 -142.5t-12.5 -180zM887 528q0 -455 284 -454q70 0 118 33.5t79 93t45 141.5t14 178q0 98 -13 180t-42 142.5t-76 94.5t-116 34q-61 0 -115.5 -25.5t-93.5 -80 t-61.5 -137.5t-22.5 -200z" />
<glyph unicode="&#x445;" horiz-adv-x="1005" d="M41 35q0 20 18 43l367 479l-315 408q-18 25 -19 43q0 23 22.5 39t41.5 16q10 0 20 -5t27 -26l303 -395l307 397q14 16 24.5 22.5t20.5 6.5q18 0 40 -15.5t22 -37.5q0 -14 -5.5 -23.5t-13.5 -19.5l-323 -412l368 -473q18 -23 19 -43q0 -23 -22.5 -38t-41.5 -15 q-10 0 -21.5 5t-27.5 25l-352 453l-353 -457q-10 -12 -20 -19t-27 -7q-18 0 -38.5 13t-20.5 36z" />
<glyph unicode="&#x446;" horiz-adv-x="1208" d="M156 55v955q0 35 15 47t44 12t44 -12.5t15 -46.5v-904h586v904q0 35 15.5 47t44.5 12t44 -12.5t15 -46.5v-904h125q29 0 46 -10t17 -45v-327q0 -35 -16 -48.5t-45 -13.5q-57 0 -57 68v270h-836q-25 0 -41 12.5t-16 42.5z" />
<glyph unicode="&#x447;" horiz-adv-x="1026" d="M92 719v301q0 49 55 49q63 0 64 -49v-260q0 -70 7 -117t30.5 -76.5t71 -42t126.5 -12.5q66 0 148 12.5t158 30.5v455q0 35 15 47t44 12t44 -12.5t15 -46.5v-969q0 -33 -16 -44t-41 -11q-27 0 -44 11t-17 44v408q-96 -20 -175 -29.5t-163 -9.5q-170 0 -246 67.5t-76 241.5 z" />
<glyph unicode="&#x448;" horiz-adv-x="1417" d="M156 55v955q0 35 15 47t44 12t44 -12.5t15 -46.5v-904h371v904q0 35 15.5 47t44.5 12t44 -12.5t15 -46.5v-904h379v904q0 35 15.5 47t43.5 12q29 0 44.5 -12.5t15.5 -46.5v-955q0 -33 -17.5 -44t-42.5 -11h-989q-25 0 -41 12.5t-16 42.5z" />
<glyph unicode="&#x449;" horiz-adv-x="1490" d="M156 55v955q0 35 15 47t44 12t44 -12.5t15 -46.5v-904h371v904q0 35 15.5 47t44.5 12t44 -12.5t15 -46.5v-904h379v904q0 35 15.5 47t43.5 12q29 0 44.5 -12.5t15.5 -46.5v-904h124q29 0 46.5 -10t17.5 -45v-327q0 -35 -16.5 -48.5t-44.5 -13.5q-57 0 -58 68v270h-1118 q-25 0 -41 12.5t-16 42.5z" />
<glyph unicode="&#x44a;" horiz-adv-x="1030" d="M20 1008q0 29 11.5 41t46.5 12h174q53 0 53 -60v-368h213q78 0 155 -11.5t138 -44t99 -94t38 -161.5q0 -145 -95 -233.5t-292 -88.5h-311q-27 0 -43.5 12.5t-16.5 40.5v901h-112q-35 0 -46.5 12.5t-11.5 41.5zM305 96h250q147 0 208.5 61.5t61.5 157.5q0 49 -13 89 t-47 70t-89 45.5t-139 15.5h-232v-439z" />
<glyph unicode="&#x44b;" horiz-adv-x="1370" d="M156 53v957q0 35 14 47t43 12t43 -12.5t14 -46.5v-377h203q78 0 155 -10.5t138 -43t99 -94t38 -161.5q0 -145 -95 -234.5t-292 -89.5h-301q-27 0 -43 12.5t-16 40.5zM270 94h240q147 0 208.5 63.5t61.5 159.5q0 49 -13 89t-47 69t-89.5 44.5t-138.5 15.5h-222v-441z M1098 45v965q0 35 14 47t43 12t44 -12.5t15 -46.5v-965q0 -35 -15 -47t-44 -12t-43 12t-14 47z" />
<glyph unicode="&#x44c;" horiz-adv-x="985" d="M156 53v957q0 35 14 47t43 12t43 -12.5t14 -46.5v-377h203q78 0 155 -11.5t138 -44t99 -94t38 -161.5q0 -145 -95 -233.5t-292 -88.5h-301q-27 0 -43 12.5t-16 40.5zM270 94h240q147 0 208.5 62.5t61.5 158.5q0 49 -13 89t-47 70t-89.5 45.5t-138.5 15.5h-222v-441z" />
<glyph unicode="&#x44d;" horiz-adv-x="1036" d="M70 229q0 23 21.5 41.5t43.5 18.5q16 0 27.5 -10.5t30.5 -42.5q12 -18 32.5 -47t54 -54.5t82.5 -45t121 -19.5q78 0 137.5 29.5t100.5 83t64.5 129t29.5 165.5h-481q-27 0 -40 11.5t-13 41.5q0 55 53 56h481q-10 172 -90 278.5t-238 106.5q-74 0 -128 -21.5t-90 -51.5 t-56 -59.5t-29 -43.5q-14 -29 -25.5 -35t-25.5 -6q-23 0 -43 15t-20 42t16 55q16 31 51 69t85 69.5t118 54t152 22.5q117 0 201.5 -37.5t141 -108.5t84 -170t27.5 -222q0 -127 -27.5 -232.5t-85 -182.5t-148.5 -120t-216 -43q-90 0 -157.5 26.5t-113.5 61.5t-74 72t-40 57 q-14 27 -14 47z" />
<glyph unicode="&#x44e;" horiz-adv-x="1570" d="M156 45v965q0 35 14 47t43 12t44 -12.5t15 -46.5v-420h283q16 229 138 360t333 131q223 0 339 -149.5t116 -407.5q0 -129 -31 -232.5t-90.5 -176t-146.5 -111.5t-197 -39q-225 0 -340 140.5t-123 386.5h-281v-447q0 -35 -15 -47t-44 -12t-43 12t-14 47zM682 524 q0 -209 79 -329.5t255 -120.5t256 120.5t80 329.5q0 104 -19.5 187.5t-59.5 141.5t-103.5 90t-151.5 32q-176 0 -256 -122t-80 -329z" />
<glyph unicode="&#x44f;" horiz-adv-x="993" d="M68 35q0 14 16 41l231 401q-61 20 -100 52t-61.5 68t-30.5 75t-8 76q0 145 87 229t283 84h291q29 0 45.5 -13.5t16.5 -39.5v-971q0 -29 -13.5 -40t-42.5 -11t-45 11t-16 40v416h-291l-246 -424q-12 -20 -24.5 -31.5t-32.5 -11.5q-27 0 -43 14t-16 35zM240 756 q0 -98 61 -155.5t203 -57.5h217v430h-242q-135 0 -187 -61.5t-52 -155.5z" />
<glyph unicode="&#x450;" horiz-adv-x="1116" d="M90 524q0 119 34 221.5t97.5 177t152.5 116.5t199 42q113 0 199 -41t144.5 -111.5t88 -167.5t29.5 -210q0 -27 -15 -38t-40 -11h-764q4 -205 97.5 -317.5t267.5 -112.5q70 0 117.5 15t81.5 39t56.5 51.5t38.5 51.5q12 16 20.5 24.5t25.5 8.5q20 0 40.5 -12t20.5 -35 q0 -25 -20 -53q-18 -29 -48 -62.5t-76 -63.5t-109.5 -50.5t-147.5 -20.5q-121 0 -212.5 42t-152.5 116t-93 176t-32 225zM219 598h696q-6 80 -28.5 148.5t-64.5 120t-104.5 81t-146.5 29.5t-147.5 -32t-106.5 -85t-67.5 -121.5t-30.5 -140.5zM389 1464q0 27 19.5 48.5 t54.5 21.5q23 0 41 -15.5t47 -50.5l156 -190q20 -23 20 -47q0 -16 -12 -27.5t-31 -11.5q-23 0 -38 10t-31 27l-187 166q-16 16 -27.5 33.5t-11.5 35.5z" />
<glyph unicode="&#x451;" horiz-adv-x="1116" d="M90 514q0 119 34 220.5t97.5 173t152.5 112.5t199 41q113 0 199 -40t144.5 -108.5t88 -162t29.5 -199.5q0 -27 -15 -38t-40 -11h-764q4 -205 97.5 -317.5t267.5 -112.5q70 0 117.5 15t81.5 39t56.5 51.5t38.5 51.5q12 16 20.5 24.5t25.5 8.5q20 0 40.5 -12t20.5 -35 q0 -25 -20 -53q-18 -29 -48 -62.5t-76 -63.5t-109.5 -50.5t-147.5 -20.5q-121 0 -212.5 40t-152.5 112.5t-93 173t-32 223.5zM219 598h696q-6 72 -29.5 136.5t-65.5 113.5t-103.5 78.5t-145.5 29.5t-147.5 -28.5t-106.5 -77.5t-67.5 -114.5t-30.5 -137.5zM278 1352 q0 41 24.5 66.5t65.5 25.5q35 0 64.5 -22.5t29.5 -69.5q0 -43 -26.5 -67.5t-67.5 -24.5t-65.5 24.5t-24.5 67.5zM675 1352q0 41 25 66.5t66 25.5q35 0 63.5 -22.5t28.5 -69.5q0 -43 -24.5 -67.5t-67.5 -24.5q-41 0 -66 24.5t-25 67.5z" />
<glyph unicode="&#x452;" horiz-adv-x="1159" d="M0 1221q0 25 8 39t33 14h115v106q0 33 17 44.5t42 11.5q27 0 44 -11.5t17 -44.5v-106h361q25 0 33 -14.5t8 -38.5q0 -23 -8 -37.5t-33 -14.5h-361v-444q12 27 38 71t72 86t114.5 71.5t163.5 29.5q158 0 255 -87t97 -271v-807q0 -123 -69.5 -199t-209.5 -76q-45 0 -88 6.5 t-76 20.5q-68 29 -67 63q0 25 16.5 46.5t32.5 21.5q12 0 22.5 -4t26.5 -12q27 -14 55.5 -24.5t71.5 -10.5q76 0 121 41t45 149v740q0 139 -56.5 212.5t-201.5 73.5q-96 0 -166 -40t-114 -104.5t-64.5 -144t-20.5 -157.5v-377q0 -35 -15 -47t-44 -12t-44 12t-15 47v1126h-115 q-25 0 -33 14.5t-8 37.5z" />
<glyph unicode="&#x453;" horiz-adv-x="802" d="M156 45v961q0 33 17 44t42 11h520q35 0 46.5 -12.5t11.5 -40.5q0 -29 -11.5 -41.5t-46.5 -12.5h-461v-909q0 -35 -15 -47t-44 -12t-44 12t-15 47zM356 1231q0 25 21 47l155 190q29 35 47.5 50.5t40.5 15.5q35 0 54.5 -21.5t19.5 -48.5q0 -18 -11 -35.5t-28 -33.5 l-186 -166q-16 -16 -31.5 -26.5t-38.5 -10.5q-18 0 -30.5 11t-12.5 28z" />
<glyph unicode="&#x454;" horiz-adv-x="1036" d="M90 526q0 121 32 222.5t93 175t149.5 115.5t202.5 42q86 0 150.5 -21.5t110.5 -53t76 -69.5t46 -71q6 -16 11.5 -27.5t5.5 -27.5q0 -27 -20.5 -43t-43.5 -16q-14 0 -25.5 6t-25.5 35q-8 14 -25.5 43.5t-51.5 59.5t-84 51.5t-124 21.5q-164 0 -249 -105.5t-97 -277.5h477 q53 0 54 -56q0 -31 -13.5 -42t-40.5 -11h-477q10 -188 95 -294.5t251 -106.5q68 0 116 18.5t80 43t50 50.5l31 48q18 33 29.5 43t27.5 10q23 0 43.5 -16.5t20.5 -39.5q0 -20 -15 -47q-12 -20 -38.5 -57t-72.5 -74t-114 -63.5t-158 -26.5q-123 0 -213 42t-148.5 117t-87 177 t-28.5 225z" />
<glyph unicode="&#x455;" horiz-adv-x="987" d="M94 119q0 27 19.5 47t42.5 20q16 0 33.5 -10t43.5 -29q37 -27 101.5 -53t175.5 -26q123 0 189.5 49t66.5 141q0 33 -7 65.5t-32 61.5t-74 52.5t-131 35.5l-141 23q-61 10 -112.5 29.5t-90.5 53t-60.5 82t-21.5 113.5q0 68 28 125t79 97t122.5 62.5t159.5 22.5 q80 0 141.5 -12t105.5 -28.5t73 -35t43 -30.5q12 -10 21.5 -22.5t9.5 -26.5q0 -25 -16.5 -46.5t-39.5 -21.5q-18 0 -34.5 9.5t-32.5 23.5q-31 27 -95.5 56.5t-183.5 29.5q-137 0 -196.5 -58.5t-59.5 -138.5q0 -29 7.5 -55.5t29 -50t59 -42t99.5 -28.5l170 -29 q143 -25 223 -100.5t80 -202.5q0 -143 -98.5 -225t-284.5 -82q-78 0 -140.5 10.5t-110.5 25.5t-80 33t-48 32q-33 25 -33 53z" />
<glyph unicode="&#x456;" horiz-adv-x="432" d="M131 1346q0 45 24.5 67.5t59.5 22.5t59.5 -22.5t24.5 -67.5q0 -43 -24.5 -66t-59.5 -23t-59.5 23t-24.5 66zM158 45v965q0 35 14 47t43 12t44 -12.5t15 -46.5v-965q0 -35 -15 -47t-44 -12t-43 12t-14 47z" />
<glyph unicode="&#x457;" horiz-adv-x="432" d="M-41 1352q0 41 24.5 66.5t65.5 25.5q35 0 64.5 -22.5t29.5 -69.5q0 -43 -26.5 -67.5t-67.5 -24.5t-65.5 24.5t-24.5 67.5zM158 45v965q0 35 14 47t43 12t44 -12.5t15 -46.5v-965q0 -35 -15 -47t-44 -12t-43 12t-14 47zM291 1352q0 41 24.5 66.5t65.5 25.5 q35 0 63.5 -22.5t28.5 -69.5q0 -43 -24.5 -67.5t-67.5 -24.5q-41 0 -65.5 24.5t-24.5 67.5z" />
<glyph unicode="&#x458;" horiz-adv-x="432" d="M-236 -367q0 25 16.5 46.5t33.5 21.5q12 0 22 -4t27 -12q27 -14 55.5 -24.5t71.5 -10.5q76 0 122 41t46 149v1170q0 35 14 47t43 12t44 -12.5t15 -46.5v-1192q0 -123 -69.5 -199t-208.5 -76q-45 0 -88 6.5t-76 20.5q-68 29 -68 63zM127 1346q0 45 24.5 67.5t59.5 22.5 t59.5 -22.5t24.5 -67.5q0 -43 -24.5 -66t-59.5 -23t-59.5 23t-24.5 66z" />
<glyph unicode="&#x459;" horiz-adv-x="1626" d="M10 33q0 20 10.5 36.5t45.5 16.5q55 0 87.5 41t49.5 125q16 84 26.5 180t14.5 189l20 389q2 51 58 51h532q29 0 43 -12.5t14 -47.5v-372h203q78 0 155 -10.5t138 -43t99 -93t38 -160.5q0 -145 -95 -233.5t-292 -88.5h-301q-27 0 -43 12.5t-16 40.5v901h-422l-21 -329 q-4 -53 -9 -117t-12 -128.5t-17.5 -123.5t-24.5 -102q-27 -78 -80 -123t-141 -45q-35 0 -47.5 10t-12.5 37zM911 92h240q147 0 208.5 63.5t61.5 159.5q0 49 -13 89t-47 70t-89 45.5t-139 15.5h-222v-443z" />
<glyph unicode="&#x45a;" horiz-adv-x="1693" d="M156 45v965q0 35 14 47t43 12t44 -12.5t15 -46.5v-402h592v402q0 35 14.5 47t43.5 12t43 -12.5t14 -46.5v-402h203q78 0 154.5 -8t138 -38t99.5 -88t38 -159q0 -145 -94.5 -230t-292.5 -85h-301q-27 0 -43.5 12.5t-16.5 40.5v453h-592v-461q0 -35 -15 -47t-44 -12t-43 12 t-14 47zM979 92h240q147 0 208.5 60.5t61.5 156.5q0 49 -13.5 86t-47 61.5t-89 37t-139.5 12.5h-221v-414z" />
<glyph unicode="&#x45b;" horiz-adv-x="1159" d="M0 1221q0 25 8 39t33 14h115v106q0 33 17 44.5t42 11.5q27 0 44 -11.5t17 -44.5v-106h361q25 0 33 -14.5t8 -38.5q0 -23 -8 -37.5t-33 -14.5h-361v-444q12 27 38 71t72 86t114.5 71.5t163.5 29.5q158 0 255 -87t97 -271v-592q0 -49 -55 -49q-63 0 -64 49v547 q0 139 -56.5 212.5t-201.5 73.5q-96 0 -166 -40t-114 -104.5t-64.5 -144t-20.5 -157.5v-377q0 -35 -15 -47t-44 -12t-44 12t-15 47v1126h-115q-25 0 -33 14.5t-8 37.5z" />
<glyph unicode="&#x45c;" horiz-adv-x="968" d="M156 45v969q0 55 61 55q57 0 57 -55v-428h189l317 454q23 29 43 29t41 -16.5t21 -32.5q0 -10 -4 -20.5t-17 -28.5l-293 -420l340 -477q10 -14 13.5 -21.5t3.5 -15.5q0 -23 -18.5 -37t-45.5 -14q-20 0 -32.5 9t-28.5 32l-332 460h-197v-442q0 -59 -59 -59t-59 59z M422 1231q0 25 21 47l155 190q29 35 47.5 50.5t40.5 15.5q35 0 54.5 -21.5t19.5 -48.5q0 -18 -11 -35.5t-28 -33.5l-186 -166q-16 -16 -31.5 -26.5t-38.5 -10.5q-18 0 -30.5 11t-12.5 28z" />
<glyph unicode="&#x45d;" horiz-adv-x="1157" d="M156 45v965q0 35 14 47t43 12t44 -12.5t15 -46.5v-836l596 846q20 29 32.5 39t41.5 10t44 -12.5t15 -46.5v-965q0 -35 -15 -47t-44 -12t-43 12t-14 47v823l-588 -831q-20 -27 -37.5 -39t-46.5 -12t-43 12t-14 47zM321 1464q0 27 19.5 48.5t54.5 21.5q23 0 41 -15.5 t47 -50.5l156 -190q20 -23 20 -47q0 -16 -12 -27.5t-31 -11.5q-23 0 -38 10t-31 27l-187 166q-16 16 -27.5 33.5t-11.5 35.5z" />
<glyph unicode="&#x45e;" horiz-adv-x="1024" d="M39 1018q0 27 24.5 40t53.5 13q27 0 45 -45l344 -862l362 864q16 43 45 43q27 0 49.5 -13.5t22.5 -35.5q0 -8 -4 -21.5t-8 -25.5l-588 -1368q-18 -45 -53 -45q-25 0 -42.5 14t-17.5 39q0 16 15 51l153 344l-389 959q-4 10 -8 23.5t-4 25.5zM227 1442q0 59 70 59 q14 0 26.5 -7t16.5 -30q6 -31 17 -58.5t32.5 -49t55.5 -33.5t85 -12q49 0 82 14t52.5 35.5t30.5 48.5t17 51q6 25 18.5 34t35.5 9q33 0 48 -13t15 -48q0 -37 -17.5 -79t-54 -76t-94 -56.5t-137.5 -22.5q-86 0 -143.5 22.5t-92 56.5t-49 76t-14.5 79z" />
<glyph unicode="&#x45f;" horiz-adv-x="1140" d="M156 55v955q0 35 15 47t44 12t44 -12.5t15 -46.5v-904h592v904q0 35 15.5 47t44.5 12t44 -12.5t15 -46.5v-955q0 -31 -16.5 -43t-40.5 -12h-285v-276q0 -35 -16.5 -48.5t-44.5 -13.5q-57 0 -58 68v270h-309q-25 0 -42 11.5t-17 43.5z" />
<glyph unicode="&#x462;" horiz-adv-x="1435" d="M20 1243q0 55 48 55h331v199q0 35 16.5 48.5t45.5 13.5q27 0 44 -12.5t17 -49.5v-199h422q29 0 39 -14t10 -41q0 -29 -10 -43t-39 -14h-422v-326h289q106 0 202.5 -20.5t170 -68.5t116.5 -127t43 -198q0 -207 -132 -326.5t-398 -119.5h-348q-29 0 -47.5 15.5t-18.5 50.5 v1120h-331q-47 0 -48 57zM522 113h283q109 0 184.5 23.5t123.5 64.5t70.5 99t22.5 130q0 70 -20.5 129t-68.5 100t-128 65t-196 24h-271v-635z" />
<glyph unicode="&#x463;" horiz-adv-x="1112" d="M31 973q0 25 8 39t33 14h211v266q0 35 14 47.5t43 12.5t43 -12.5t14 -47.5v-266h275q25 0 33 -14.5t8 -38.5q0 -23 -8.5 -37t-32.5 -14h-275v-289h203q78 0 154.5 -11.5t138 -44t99.5 -94t38 -161.5q0 -145 -95 -233.5t-292 -88.5h-301q-27 0 -43 12.5t-16 40.5v869h-211 q-25 0 -33 14t-8 37zM397 94h240q147 0 208.5 61.5t61.5 159.5q0 49 -13 89t-47 70t-89.5 45.5t-139.5 15.5h-221v-441z" />
<glyph unicode="&#x472;" horiz-adv-x="1548" d="M104 713q0 174 48.5 311t136.5 233.5t212 147.5t273 51q150 0 272.5 -51t211 -147.5t137.5 -233.5t49 -311t-49 -312.5t-137.5 -235.5t-211 -148.5t-272.5 -51.5t-273.5 51.5t-211.5 148.5t-136.5 235.5t-48.5 312.5zM242 664q5 -115 32 -211q35 -115 102.5 -198 t167 -128t230.5 -45t230.5 45t167 128t100.5 198q29 96 33 211h-1063zM242 776h1063q-6 105 -33 193q-33 117 -100.5 198.5t-167 126.5t-230.5 45t-230.5 -45t-167 -127t-102.5 -198q-25 -88 -32 -193z" />
<glyph unicode="&#x473;" horiz-adv-x="1169" d="M90 524q0 129 36 232.5t100.5 175.5t155.5 110.5t202 38.5t203 -38.5t156.5 -110.5t100 -175.5t35.5 -232.5t-35.5 -232.5t-100 -176t-157 -111.5t-202.5 -39q-111 0 -202 39t-155.5 111.5t-100.5 176t-36 232.5zM219 492q6 -188 94 -299q94 -119 271 -119q178 0 272 119 q86 111 94 299h-731zM221 590h727q-14 162 -92 264q-94 121 -272 121q-176 0 -271 -121q-80 -102 -92 -264z" />
<glyph unicode="&#x474;" horiz-adv-x="1374" d="M51 1380q0 27 24.5 41.5t53.5 14.5q31 0 43 -35l477 -1260q92 295 179 557.5t180 493.5q47 119 112.5 181.5t165.5 62.5q68 0 68 -50q0 -29 -13.5 -46t-52.5 -17q-66 0 -105.5 -60.5t-86.5 -175.5q-98 -236 -184.5 -506.5t-184.5 -555.5q-14 -39 -80 -39q-35 0 -52 10 t-26 31l-497 1286q-8 18 -14.5 35.5t-6.5 31.5z" />
<glyph unicode="&#x475;" horiz-adv-x="1095" d="M39 1030q0 27 23.5 40t52.5 13q31 0 47 -43l344 -911q76 236 147.5 433.5t145.5 344.5q37 72 88 120t139 48q35 0 47 -10t12 -37q0 -20 -10 -36.5t-45 -16.5q-47 0 -83 -42t-70 -120q-78 -180 -146.5 -375.5t-146.5 -408.5q-23 -43 -82 -43q-35 0 -51.5 10t-22.5 27 l-367 933q-6 16 -14 36t-8 38z" />
<glyph unicode="&#x48a;" horiz-adv-x="1409" d="M170 55v1323q0 33 15.5 45.5t43.5 12.5q29 0 44.5 -12.5t15.5 -45.5v-1224l768 1212q27 41 47 55.5t57 14.5q35 0 56.5 -14.5t21.5 -51.5v-1257h125q29 0 46 -13.5t17 -48.5l-79 -327q-8 -37 -20.5 -49.5t-39.5 -12.5q-63 8 -53 72l65 266h-120q-29 -2 -44.5 10.5 t-15.5 44.5v1202l-764 -1202q-20 -33 -43.5 -51t-62.5 -18q-37 0 -58.5 16t-21.5 53zM424 1761q0 59 70 60q14 0 26 -7.5t17 -29.5q6 -31 17 -58.5t32.5 -49t55.5 -34t85 -12.5q49 0 82 14.5t52.5 36t30.5 48t17 51.5t18.5 34t35.5 9q33 0 48 -13.5t15 -48.5 q0 -37 -17.5 -79t-54 -75.5t-94 -56t-137.5 -22.5q-86 0 -143.5 22.5t-92 56t-49 75.5t-14.5 79z" />
<glyph unicode="&#x48b;" horiz-adv-x="1157" d="M156 45v965q0 35 14 47t43 12t44 -12.5t15 -46.5v-836l596 846q20 29 32.5 39t41.5 10t44 -12.5t15 -46.5v-904h125q29 0 46.5 -10t17.5 -45l-80 -327q-8 -37 -20.5 -49.5t-38.5 -12.5q-61 4 -52 68l66 270h-123q-29 0 -43 12.5t-14 46.5v809l-588 -831 q-20 -27 -37.5 -39t-46.5 -12t-43 12t-14 47zM307 1442q0 59 70 59q14 0 26.5 -7t16.5 -30q6 -31 17.5 -58.5t33 -49t55 -33.5t84.5 -12q49 0 82 14t52.5 35.5t30.5 48.5t18 51q6 25 18 34t35 9q33 0 48 -13t15 -48q0 -37 -17.5 -79t-54 -76t-94 -56.5t-137.5 -22.5 q-86 0 -143 22.5t-92 56.5t-49.5 76t-14.5 79z" />
<glyph unicode="&#x48c;" horiz-adv-x="1206" d="M0 1161q0 55 47 56h123v157q0 35 16.5 48.5t44.5 13.5q27 0 44.5 -12.5t17.5 -49.5v-157h180q29 0 39 -14.5t10 -41.5q0 -29 -10 -43t-39 -14h-180v-244h289q106 0 202.5 -20.5t170 -68.5t116.5 -127t43 -198q0 -207 -132 -326.5t-398 -119.5h-348q-29 0 -47.5 15.5 t-18.5 50.5v1038h-123q-47 0 -47 57zM293 113h282q109 0 185 23.5t124 64.5t70.5 99t22.5 130q0 70 -20.5 129t-68.5 100t-128 65t-197 24h-270v-635z" />
<glyph unicode="&#x48d;" horiz-adv-x="1030" d="M31 829q0 25 8 39.5t33 14.5h129v127q0 35 14 47t43 12t43 -12.5t14 -46.5v-127h156q25 0 33 -14.5t8 -39.5q0 -23 -8 -37t-33 -14h-156v-145h203q78 0 155 -11.5t138 -44t99 -94t38 -161.5q0 -145 -95 -233.5t-292 -88.5h-301q-27 0 -43 12.5t-16 40.5v725h-129 q-25 0 -33 14.5t-8 36.5zM315 94h240q147 0 208.5 62.5t61.5 158.5q0 49 -13 89t-47 70t-89 45.5t-139 15.5h-222v-441z" />
<glyph unicode="&#x48e;" horiz-adv-x="1226" d="M170 47v1309q0 66 66 65h378q274 0 402.5 -108.5t128.5 -308.5q0 -55 -19.5 -128t-74.5 -137q-39 -45 -101 -82l125 -196q20 -33 21 -47q0 -23 -21.5 -38.5t-42.5 -15.5q-14 0 -22.5 8.5t-24.5 30.5l-137 213q-88 -25 -211 -24h-342v-541q0 -35 -18.5 -48t-47.5 -13 t-44 13t-15 48zM295 696h295q113 0 192 21l-100 157q-23 37 -23 54q0 23 23 38t41 15q14 0 23.5 -7t23.5 -30l117 -186q18 10 33 22q49 41 68.5 98.5t19.5 125.5t-19.5 124t-65.5 98t-123 64.5t-192 22.5h-313v-617z" />
<glyph unicode="&#x48f;" horiz-adv-x="1185" d="M156 -381v1380q0 35 14 48.5t43 13.5t44 -13.5t15 -48.5v-118q59 84 151.5 142t231.5 58q104 0 186.5 -42t138.5 -115.5t86 -175t30 -222.5t-30 -223t-89 -178q-23 -29 -47 -53l104 -164q20 -33 21 -47q0 -23 -21.5 -38.5t-42.5 -15.5q-14 0 -22 8.5t-25 30.5l-104 164 q-88 -45 -197 -45q-127 0 -221 51.5t-150 161.5v-559q0 -33 -17 -44t-44 -11t-41 11t-14 44zM266 518q0 -96 22.5 -177t67.5 -140.5t110.5 -93t151.5 -33.5q84 0 150 32q4 2 6 5l-133 211q-23 37 -23 53q0 23 23 38t41 15q14 0 23.5 -7t23.5 -30l133 -211q8 10 15 21 q45 59 67.5 141t22.5 178q0 98 -21.5 180t-64.5 142.5t-106.5 94.5t-147.5 34q-86 0 -152.5 -33t-113 -92.5t-71 -143.5t-24.5 -184z" />
<glyph unicode="&#x490;" horiz-adv-x="1005" d="M170 47v1309q0 66 66 65h624v195q0 35 16.5 48t45.5 13t46 -13t17 -48v-246q0 -35 -17.5 -48t-45.5 -13h-629v-1262q0 -35 -16.5 -48t-45.5 -13t-45 13t-16 48z" />
<glyph unicode="&#x491;" horiz-adv-x="813" d="M156 45v961q0 33 17 44t42 11h471v110q0 33 12.5 44.5t40.5 11.5q29 0 41.5 -11.5t12.5 -46.5v-163q0 -27 -12.5 -39.5t-45.5 -12.5h-461v-909q0 -35 -15 -47t-44 -12t-44 12t-15 47z" />
<glyph unicode="&#x492;" horiz-adv-x="1001" d="M-18 723q0 57 47 57h141v576q0 66 66 65h696q29 0 39 -14t10 -41q0 -29 -10 -43t-39 -14h-639v-529h412q47 0 47 -55q0 -57 -47 -57h-412v-621q0 -35 -16.5 -48t-45.5 -13t-45 13t-16 48v621h-141q-47 0 -47 55z" />
<glyph unicode="&#x493;" horiz-adv-x="802" d="M-14 543q0 25 8 39t33 14h129v410q0 33 17 44t42 11h520q35 0 46.5 -12.5t11.5 -40.5q0 -29 -11.5 -41.5t-46.5 -12.5h-461v-358h234q25 0 33 -14.5t8 -38.5q0 -23 -8.5 -37t-32.5 -14h-234v-447q0 -35 -15 -47t-44 -12t-44 12t-15 47v447h-129q-25 0 -33 14t-8 37z" />
<glyph unicode="&#x494;" horiz-adv-x="1204" d="M170 47v1309q0 66 66 65h696q29 0 39 -14t10 -41q0 -29 -10 -43t-39 -14h-639v-502q92 35 169 48t142 13q129 0 222.5 -33.5t154.5 -107.5t90 -189.5t29 -279.5q0 -127 -22.5 -254t-82 -228.5t-164 -166t-268.5 -64.5q-78 0 -137 12.5t-100 30t-65.5 34t-33.5 22.5 q-25 20 -24 49q0 23 16.5 43t38.5 20q23 0 40 -12t40 -27q35 -23 85 -45t148 -22q92 0 168 34.5t130.5 108.5t85 187.5t30.5 273.5q0 272 -97 393t-278 121q-72 0 -146.5 -13.5t-170.5 -58.5v-649q0 -35 -16.5 -48t-45.5 -13t-45 13t-16 48z" />
<glyph unicode="&#x495;" horiz-adv-x="1034" d="M156 45v961q0 33 17 44t42 11h520q35 0 46.5 -12.5t11.5 -40.5q0 -29 -11.5 -41.5t-46.5 -12.5h-461v-440q72 35 133.5 49.5t122.5 14.5q115 0 197 -39t135 -106.5t78 -157t25 -189.5q0 -127 -30 -227.5t-84 -170t-131 -107.5t-173 -38q-70 0 -130.5 14.5t-111.5 36.5 q-47 20 -75.5 41t-28.5 54q0 25 16 47t39 22q18 0 38.5 -13t47.5 -28q43 -25 97.5 -45t109.5 -20q125 0 208 106.5t83 325.5q0 190 -89 287.5t-237 97.5q-66 0 -121 -19.5t-119 -54.5v-350q0 -35 -15 -47t-44 -12t-44 12t-15 47z" />
<glyph unicode="&#x496;" horiz-adv-x="1789" d="M51 39q0 8 4 19.5t15 27.5l389 651l-334 584q-25 39 -25 59t20.5 38t49.5 18q27 0 43 -27l369 -635h249v600q0 35 16.5 48.5t47.5 13.5q29 0 45 -13.5t16 -48.5v-600h261l360 635q16 27 43 27q29 0 46 -15.5t17 -36.5q0 -20 -22 -59l-324 -586l383 -653q16 -31 17 -47 v-315q0 -35 -17.5 -48.5t-46.5 -13.5t-45 13.5t-16 48.5v301l-379 639h-277v-617q0 -35 -16 -48t-45 -13q-31 0 -47.5 13t-16.5 48v617h-276l-371 -631q-16 -29 -29.5 -38t-35.5 -9q-23 0 -45.5 13t-22.5 40z" />
<glyph unicode="&#x497;" horiz-adv-x="1400" d="M35 33q0 16 14 41l277 473l-234 424q-10 20 -14 31.5t-4 21.5q0 18 21.5 31.5t41.5 13.5q29 0 45 -31l250 -456h209v432q0 55 61 55q57 0 58 -55v-432h209l254 456q16 31 45 31q20 0 39.5 -13.5t19.5 -31.5q0 -10 -4 -21.5t-14 -31.5l-234 -420l275 -473q14 -25 14 -41 v-313q0 -35 -16.5 -48.5t-44.5 -13.5q-57 0 -58 68v301l-266 452h-219v-438q0 -59 -60 -59q-59 0 -59 59v438h-225l-266 -454q-14 -23 -26.5 -33t-35.5 -10q-27 0 -40 13t-13 34z" />
<glyph unicode="&#x498;" horiz-adv-x="1189" d="M51 209q0 27 21.5 45t44.5 18q16 0 28.5 -10t32.5 -31q20 -20 53 -47.5t81 -52.5t114 -42t156 -17q193 0 289 80.5t96 224.5q0 80 -32 136t-88 91t-133 51.5t-165 16.5h-203q-25 0 -33 15t-8 40t8.5 40t32.5 15h215q80 0 146.5 21.5t114.5 60.5t76 94.5t28 124.5 q0 53 -16.5 101.5t-55.5 84.5t-105.5 57.5t-164.5 21.5q-74 0 -132.5 -18.5t-103.5 -45.5t-77.5 -57.5t-57.5 -55.5q-16 -16 -29.5 -25t-29.5 -9q-25 0 -45.5 15t-20.5 40q0 23 12.5 41t28.5 35q16 16 53 48t95.5 62.5t140.5 54t190 23.5q125 0 211 -28.5t137.5 -78t74 -114 t22.5 -135.5q0 -137 -74 -231.5t-211 -135.5q154 -16 242 -103t88 -241q0 -207 -131 -315q-121 -98 -346 -107l-21 -73q109 -8 155 -53.5t46 -119.5q0 -78 -53.5 -132t-165.5 -54q-63 0 -105.5 12.5t-62.5 24.5q-33 20 -33 43q0 18 13.5 39.5t29.5 21.5t45 -16 q20 -10 48 -20.5t65 -10.5q45 0 75.5 20.5t30.5 67.5q0 29 -14.5 47.5t-38 28.5t-52 13.5t-57.5 3.5q-33 0 -35 16t5 35l32 106q-74 2 -133 17q-78 16 -135 40.5t-94 51t-60 45.5q-55 49 -55 88z" />
<glyph unicode="&#x499;" horiz-adv-x="907" d="M41 143q0 23 20.5 40.5t42.5 17.5q14 0 26.5 -9.5t25.5 -21.5q18 -18 41.5 -37.5t55.5 -35t74 -26t99 -10.5q129 0 197.5 56.5t68.5 154.5q0 55 -21.5 97.5t-59.5 69t-89 40t-110 13.5h-144q-29 0 -37 14t-8 37q0 20 8.5 34.5t36.5 14.5h152q106 0 174 55t68 154 q0 37 -10.5 69.5t-35 57t-67.5 40t-111 15.5q-51 0 -92 -12.5t-72.5 -29.5t-53 -37.5t-36.5 -35.5q-10 -10 -23.5 -21t-27.5 -11q-23 0 -42 15t-19 36q0 16 11 32.5t21 26.5q12 12 39 35t70 45.5t102.5 38.5t137.5 16q94 0 156.5 -22.5t101.5 -59t55 -86t16 -102.5 q0 -94 -47 -160.5t-135 -101.5q102 -16 158.5 -89t56.5 -177q0 -150 -102 -234q-84 -70 -236 -82l-20 -73q109 -8 154.5 -53.5t45.5 -119.5q0 -78 -53 -132t-166 -54q-63 0 -105 12.5t-63 24.5q-33 20 -32 43q0 18 13 39.5t30 21.5q16 0 45 -16q20 -10 47.5 -20.5 t64.5 -10.5q45 0 76 20.5t31 67.5q0 29 -14.5 47.5t-38 28.5t-52 13.5t-57.5 3.5q-33 0 -35 16t4 35l33 104q-57 4 -100 12q-55 12 -95 30t-67 36t-41 33q-25 23 -33 39t-8 28z" />
<glyph unicode="&#x49a;" horiz-adv-x="1210" d="M170 47v1327q0 35 16.5 48.5t46.5 13.5q29 0 45.5 -13.5t16.5 -48.5v-600h242l460 635q10 14 20.5 20.5t26.5 6.5q25 0 43.5 -16.5t18.5 -37.5q0 -18 -27 -57l-417 -586l479 -653q12 -16 15 -27.5t3 -19.5v-315q0 -35 -17.5 -48.5t-45.5 -13.5q-29 0 -45.5 13.5 t-16.5 48.5v294l-481 646h-258v-617q0 -35 -16.5 -48t-45.5 -13q-31 0 -47 13t-16 48z" />
<glyph unicode="&#x49b;" horiz-adv-x="968" d="M156 45v969q0 55 61 55q57 0 57 -55v-428h189l317 454q23 29 43 29t41 -16.5t21 -32.5q0 -10 -4 -20.5t-17 -28.5l-293 -420l340 -477q10 -14 13.5 -21.5t3.5 -15.5v-313q0 -35 -16.5 -48.5t-45.5 -13.5q-57 0 -57 68v286l-338 471h-197v-442q0 -59 -59 -59t-59 59z" />
<glyph unicode="&#x49c;" horiz-adv-x="1210" d="M170 47v1327q0 35 16.5 48.5t46.5 13.5q29 0 45.5 -13.5t16.5 -48.5v-600h100v289q0 35 17.5 48t46.5 13t45 -13t16 -48v-289h35q29 53 63.5 105.5t71.5 105.5l307 424q10 14 20.5 20.5t26.5 6.5q25 0 43.5 -16.5t18.5 -37.5q0 -18 -27 -57l-417 -586l479 -653 q12 -16 15 -27.5t3 -19.5q0 -27 -20.5 -40t-42.5 -13q-25 0 -37 9t-35 38l-471 631h-33v-295q0 -35 -17.5 -48.5t-45.5 -13.5q-29 0 -45.5 13.5t-16.5 48.5v295h-100v-617q0 -35 -16.5 -48t-45.5 -13q-31 0 -47 13t-16 48z" />
<glyph unicode="&#x49d;" horiz-adv-x="989" d="M156 45v969q0 55 61 55q57 0 57 -55v-428h74v219q0 35 16.5 48t45.5 13q57 0 57 -67v-213h25q45 76 106 164l203 290q23 29 43 29t40.5 -16.5t20.5 -32.5q0 -10 -4 -20.5t-16 -28.5l-293 -420l340 -477q10 -14 13 -21.5t3 -15.5q0 -23 -18.5 -37t-44.5 -14q-20 0 -32.5 9 t-29.5 32l-331 460h-25v-213q0 -35 -16.5 -48t-44.5 -13q-57 0 -58 68v206h-74v-442q0 -59 -59 -59t-59 59z" />
<glyph unicode="&#x49e;" horiz-adv-x="1210" d="M0 1100q0 55 47 55h123v219q0 35 16.5 48.5t46.5 13.5q29 0 45.5 -13.5t16.5 -48.5v-219h178q29 0 39 -14.5t10 -40.5q0 -29 -10 -43.5t-39 -14.5h-178v-268h242l460 635q10 14 20.5 20.5t26.5 6.5q25 0 43.5 -16.5t18.5 -37.5q0 -18 -27 -57l-417 -586l479 -653 q12 -16 15 -27.5t3 -19.5q0 -27 -20.5 -40t-42.5 -13q-25 0 -37 9t-35 38l-471 631h-258v-617q0 -35 -16.5 -48t-45.5 -13q-31 0 -47 13t-16 48v995h-123q-47 0 -47 58z" />
<glyph unicode="&#x49f;" horiz-adv-x="1013" d="M31 829q0 25 8 39.5t33 14.5h129v131q0 55 61 55q57 0 57 -55v-131h152q25 0 33 -14.5t8 -39.5q0 -23 -8 -37t-33 -14h-152v-192h189l317 454q23 29 43 29t41 -16.5t21 -32.5q0 -10 -4 -20.5t-17 -28.5l-293 -420l340 -477q10 -14 13.5 -21.5t3.5 -15.5q0 -23 -18.5 -37 t-45.5 -14q-20 0 -32.5 9t-28.5 32l-332 460h-197v-442q0 -59 -59 -59t-59 59v733h-129q-25 0 -33 14.5t-8 36.5z" />
<glyph unicode="&#x4a0;" horiz-adv-x="1529" d="M20 1366q0 27 10.5 41t39.5 14h479q66 0 65 -65v-582h242l461 635q10 14 20.5 20.5t26.5 6.5q25 0 43 -16.5t18 -37.5q0 -18 -26 -57l-418 -586l479 -653q12 -16 15.5 -27.5t3.5 -19.5q0 -27 -20.5 -40t-43.5 -13q-25 0 -37 9t-35 38l-471 631h-258v-617q0 -35 -16 -48 t-45 -13q-31 0 -47.5 13t-16.5 48v1262h-419q-29 0 -39.5 14t-10.5 43z" />
<glyph unicode="&#x4a1;" horiz-adv-x="1163" d="M20 1008q0 29 11.5 41t46.5 12h338q53 0 53 -60v-415h188l318 454q23 29 43 29t40.5 -16.5t20.5 -32.5q0 -10 -4 -20.5t-16 -28.5l-293 -420l340 -477q10 -14 13 -21.5t3 -15.5q0 -23 -18.5 -37t-44.5 -14q-20 0 -32.5 9t-29.5 32l-331 460h-197v-442q0 -59 -59 -59 t-60 59v909h-272q-35 0 -46.5 12.5t-11.5 41.5z" />
<glyph unicode="&#x4a2;" horiz-adv-x="1523" d="M170 47v1327q0 35 16.5 48.5t46.5 13.5q29 0 45.5 -13.5t16.5 -48.5v-561h864v561q0 35 16.5 48.5t45.5 13.5t46 -13.5t17 -48.5v-1261h125q29 0 46.5 -13.5t17.5 -48.5v-327q0 -35 -17.5 -48.5t-46.5 -13.5t-45 13.5t-16 48.5v276h-127q-29 0 -45.5 13.5t-16.5 47.5v639 h-864v-653q0 -35 -16.5 -48t-45.5 -13q-31 0 -47 13t-16 48z" />
<glyph unicode="&#x4a3;" horiz-adv-x="1230" d="M156 45v965q0 35 14 47t43 12t44 -12.5t15 -46.5v-410h613v410q0 35 14 47t43 12t44 -12.5t15 -46.5v-904h125q29 0 46.5 -10t17.5 -45v-327q0 -35 -16.5 -48.5t-45.5 -13.5q-57 0 -57 68v270h-129q-29 0 -43 12.5t-14 46.5v439h-613v-453q0 -35 -15 -47t-44 -12t-43 12 t-14 47z" />
<glyph unicode="&#x4a4;" horiz-adv-x="1732" d="M170 47v1327q0 35 16.5 48.5t46.5 13.5q29 0 45.5 -13.5t16.5 -48.5v-561h823v543q0 66 66 65h479q29 0 39 -14t10 -41q0 -29 -10 -43t-39 -14h-420v-1262q0 -35 -16.5 -48t-46.5 -13q-29 0 -45.5 13t-16.5 48v653h-823v-653q0 -35 -16.5 -48t-45.5 -13q-31 0 -47 13 t-16 48z" />
<glyph unicode="&#x4a5;" horiz-adv-x="1300" d="M156 45v965q0 35 14 47t43 12t44 -12.5t15 -46.5v-410h570v401q0 59 53 60h338q35 0 46 -12.5t11 -40.5q0 -29 -11 -41.5t-46 -12.5h-272v-909q0 -59 -60 -59q-59 0 -59 59v453h-570v-453q0 -35 -15 -47t-44 -12t-43 12t-14 47z" />
<glyph unicode="&#x4a6;" horiz-adv-x="2109" d="M170 47v1313q0 35 16.5 48t46.5 13h906q29 0 46 -13t17 -48v-553q92 35 168 48t141 13q129 0 222.5 -33.5t155 -107.5t90 -189.5t28.5 -279.5q0 -127 -22.5 -254t-82 -228.5t-164 -166t-268.5 -64.5q-78 0 -137 12.5t-100 30t-65.5 34t-32.5 22.5q-25 20 -25 49 q0 23 16.5 43t38.5 20q23 0 40.5 -12t39.5 -27q35 -23 85 -45t149 -22q92 0 167.5 34.5t130 108.5t85 187.5t30.5 273.5q0 272 -97 393t-277 121q-72 0 -146 -12.5t-170 -57.5v-651q0 -35 -17.5 -48t-45.5 -13q-29 0 -45.5 13t-16.5 48v1262h-782v-1262q0 -35 -16.5 -48 t-45.5 -13q-31 0 -47 13t-16 48z" />
<glyph unicode="&#x4a7;" horiz-adv-x="1755" d="M156 45v961q0 33 17 44t42 11h723q25 0 41 -12.5t16 -42.5v-492q72 35 133.5 49.5t122.5 14.5q115 0 197 -39t135 -106.5t78 -157t25 -189.5q0 -127 -30 -227.5t-84 -170t-131 -107.5t-173 -38q-70 0 -130.5 14.5t-111.5 36.5q-47 20 -75.5 41t-28.5 54q0 25 16 47t39 22 q18 0 38.5 -13t47.5 -28q43 -25 97 -45t110 -20q125 0 208 106.5t83 325.5q0 190 -89.5 287.5t-236.5 97.5q-66 0 -121 -19.5t-119 -54.5v-350q0 -35 -15 -47t-44 -12t-44 12t-15 47v909h-603v-909q0 -35 -15 -47t-44 -12t-44 12t-15 47z" />
<glyph unicode="&#x4a8;" horiz-adv-x="1519" d="M111 672q0 152 30.5 269.5t86 207.5t133 156.5t174.5 115.5q16 8 40.5 18.5t47.5 10.5q29 0 40 -18.5t11 -36.5q0 -10 -5 -21.5t-20 -17.5q-113 -53 -190.5 -126t-126.5 -160t-70.5 -188.5t-21.5 -209.5q0 -121 37.5 -229.5t107.5 -190.5t167 -130t216 -48q-10 14 -20 30 q-68 98 -108 221t-40 275q0 129 35 226.5t95.5 164t141 99t172.5 32.5q70 0 138.5 -27.5t123 -86t88 -147.5t33.5 -210q0 -168 -61 -296t-156.5 -215t-212.5 -130q82 -72 191 -149q10 -8 18 -19.5t8 -21.5q0 -16 -14 -32.5t-31 -16.5q-23 0 -40 6t-31 14q-102 61 -193 139 q-25 20 -47 43q-47 -8 -90 -8q-141 0 -262 56.5t-208 152.5t-137 224t-50 274zM727 606q0 -125 26.5 -224t82.5 -187q33 -49 75 -99q19 7 39 15q96 37 174 109.5t128.5 181t50.5 253.5q0 94 -23 163t-59.5 113t-82.5 64.5t-94 20.5q-139 0 -228 -100.5t-89 -309.5z" />
<glyph unicode="&#x4a9;" horiz-adv-x="1290" d="M88 549q0 100 23.5 178t61.5 137.5t89 103.5t107 76q12 8 32.5 15.5t38.5 7.5q27 0 40.5 -17.5t13.5 -39.5q0 -12 -9.5 -23.5t-23.5 -19.5q-133 -72 -187.5 -167t-54.5 -249q0 -90 33 -175t96.5 -151.5t153.5 -107.5q55 -25 119 -35q-14 27 -27 55q-55 125 -55 299 q0 100 28.5 181t76.5 138.5t112.5 89.5t136.5 32q82 0 142.5 -32t98 -84t56 -120t18.5 -137q0 -109 -34.5 -205t-99 -169t-159.5 -116q-41 -18 -86 -28q74 -80 164 -133q92 -53 185 -91q14 -6 21 -18t7 -25q0 -14 -12 -34.5t-35 -20.5q-18 0 -39.5 7t-34.5 14 q-82 39 -177 95t-177 144q-20 23 -41 47q-129 4 -235 43q-115 45 -197 123t-126 183.5t-44 228.5zM666 434q0 -152 45 -262q20 -49 47 -94q61 8 110 33q72 35 120 93t72.5 136t24.5 164q0 117 -45 190.5t-145 73.5q-41 0 -82 -19.5t-73.5 -60.5t-53 -103.5t-20.5 -150.5z " />
<glyph unicode="&#x4aa;" horiz-adv-x="1404" d="M104 707q0 170 47.5 308t134.5 236.5t209.5 151.5t272.5 53q98 0 174 -21.5t131 -51t91 -61.5t55 -50q35 -41 64.5 -93.5t29.5 -93.5q0 -33 -26.5 -44t-43.5 -11q-31 0 -51 41q-23 45 -57.5 93t-85 86t-119 62.5t-160.5 24.5q-129 0 -227.5 -46t-166 -130t-101 -199.5 t-33.5 -254.5q0 -137 33.5 -252t101 -198t166 -129t227.5 -46q104 0 178 30.5t123 73.5t79 88t44 76q27 55 59 56q18 0 44 -12.5t26 -43.5q0 -41 -29.5 -93t-64.5 -93q-16 -18 -50 -51t-91.5 -66t-137.5 -57q-57 -18 -129 -23q-47 -39 -80 -82q-49 -63 -49 -129t32 -96.5 t85 -30.5q27 0 46 5.5t33.5 12.5t27 12t26.5 5q18 0 29.5 -15.5t11.5 -37.5q0 -27 -27 -51q-23 -20 -65.5 -30.5t-87.5 -10.5q-68 0 -114 18.5t-73.5 48t-39 66.5t-11.5 74q0 45 15.5 88t42 78.5t59.5 64.5l12 12q-115 8 -207 47q-123 53 -207.5 149.5t-130 234t-45.5 307.5 z" />
<glyph unicode="&#x4ab;" horiz-adv-x="1036" d="M90 526q0 121 32 222.5t93 175t149.5 115.5t202.5 42q86 0 150.5 -21.5t110.5 -53t76 -69.5t46 -71q6 -16 11.5 -27.5t5.5 -27.5q0 -27 -20.5 -43t-43.5 -16q-14 0 -25.5 6t-25.5 35q-8 14 -25.5 43.5t-51.5 59.5t-84 51.5t-124 21.5q-88 0 -153.5 -32t-108.5 -89 t-64.5 -139t-21.5 -181q0 -102 21.5 -185t64.5 -142.5t108.5 -92t153.5 -32.5q68 0 116 18.5t80 43t50 50.5l31 48q18 33 29.5 43t27.5 10q23 0 43.5 -16.5t20.5 -39.5q0 -20 -15 -47q-12 -20 -38.5 -57t-72.5 -74t-114 -63q-39 -14 -84 -21q-49 -41 -84 -86 q-49 -63 -49 -129t31.5 -96.5t85.5 -30.5q27 0 46 5.5t33.5 12.5t26.5 12t27 5q18 0 29.5 -15.5t11.5 -37.5q0 -27 -27 -51q-23 -20 -65.5 -30.5t-88.5 -10.5q-68 0 -113.5 18.5t-73.5 48t-39 66.5t-11 74q0 45 15.5 88t42 78.5t59.5 64.5l10 10q-86 8 -154 39 q-90 43 -148.5 118t-87 177t-28.5 225z" />
<glyph unicode="&#x4ac;" horiz-adv-x="1210" d="M20 1366q0 55 48 55h1073q29 0 39 -14t10 -41q0 -29 -10.5 -43t-38.5 -14h-475v-1196h129q29 0 46 -13.5t17 -48.5v-327q0 -35 -17.5 -48.5t-45.5 -13.5q-29 0 -45.5 13.5t-16.5 48.5v276h-129q-29 0 -45 13.5t-16 47.5v1248h-475q-47 0 -48 57z" />
<glyph unicode="&#x4ad;" horiz-adv-x="847" d="M20 1008q0 29 11.5 41t46.5 12h692q35 0 46 -12.5t11 -40.5q0 -29 -11 -41.5t-46 -12.5h-301v-848h125q29 0 46 -10t17 -45v-327q0 -35 -16 -48.5t-45 -13.5q-57 0 -57 68v270h-129q-29 0 -44.5 12.5t-15.5 46.5v895h-272q-35 0 -46.5 12.5t-11.5 41.5z" />
<glyph unicode="&#x4ae;" horiz-adv-x="1220" d="M35 1376q0 27 20.5 43.5t42.5 16.5q27 0 45 -27l473 -641l457 633q23 35 51 35q18 0 40 -12.5t22 -39.5q0 -10 -6 -25.5t-17 -29.5l-489 -676v-606q0 -35 -16.5 -48t-45.5 -13t-46 13t-17 48v610l-492 668q-8 10 -15 24.5t-7 26.5z" />
<glyph unicode="&#x4af;" horiz-adv-x="1030" d="M39 1010q0 27 23.5 40t52.5 13q31 0 47 -43l344 -891l364 891q10 23 23.5 33t28.5 10q25 0 47 -13.5t22 -35.5q0 -18 -18 -62l-410 -960v-373q0 -33 -17.5 -44t-43.5 -11q-27 0 -41.5 11t-14.5 44v373l-385 944q-6 16 -14 35.5t-8 38.5z" />
<glyph unicode="&#x4b0;" horiz-adv-x="1220" d="M35 1376q0 27 20.5 43.5t42.5 16.5q27 0 45 -27l473 -641l457 633q23 35 51 35q18 0 40 -12.5t22 -39.5q0 -10 -6 -25.5t-17 -29.5l-463 -639h314q43 0 43 -55q0 -29 -12.5 -40t-36.5 -11h-334v-537q0 -35 -16.5 -48t-45.5 -13t-46 13t-17 48v537h-344q-23 0 -32 11 t-9 40t9 42t34 13h317l-467 635q-8 10 -15 24.5t-7 26.5z" />
<glyph unicode="&#x4b1;" horiz-adv-x="1030" d="M39 1010q0 27 23.5 40t52.5 13q31 0 47 -43l344 -891l364 891q10 23 23.5 33t28.5 10q25 0 47 -13.5t22 -35.5q0 -18 -18 -62l-363 -846h256q43 0 43 -55q0 -29 -12 -40t-37 -11h-295l-2 -8v-373q0 -33 -17.5 -44t-43.5 -11q-27 0 -41.5 11t-14.5 44v373l-4 8h-303 q-23 0 -32 11.5t-9 39.5q0 29 9.5 42t33.5 13h258l-338 830q-6 16 -14 35.5t-8 38.5z" />
<glyph unicode="&#x4b2;" horiz-adv-x="1263" d="M41 37q0 14 6 25.5t14 21.5l496 651l-451 594q-10 12 -17 27.5t-7 25.5q0 27 22.5 41.5t42.5 14.5q16 0 31 -9.5t25 -23.5l432 -574l440 578q12 16 22.5 22.5t24.5 6.5q18 0 40 -14.5t22 -41.5q0 -23 -25 -53l-450 -588l485 -643q29 -37 29 -57v-317q0 -35 -17.5 -48.5 t-46.5 -13.5t-45 13.5t-16 48.5v301l-467 616l-479 -629q-12 -16 -25.5 -21t-24.5 -5q-23 0 -42 14t-19 37z" />
<glyph unicode="&#x4b3;" horiz-adv-x="1005" d="M41 35q0 20 18 43l367 479l-315 408q-18 25 -19 43q0 23 22.5 39t41.5 16q10 0 20 -5t27 -26l303 -395l307 397q14 16 24.5 22.5t20.5 6.5q18 0 40 -15.5t22 -37.5q0 -14 -5.5 -23.5t-13.5 -19.5l-323 -412l368 -473q18 -23 19 -43v-315q0 -35 -16.5 -48.5t-45.5 -13.5 q-57 0 -57 68v295l-346 444l-353 -457q-10 -12 -20 -19t-27 -7q-18 0 -38.5 13t-20.5 36z" />
<glyph unicode="&#x4b4;" horiz-adv-x="1652" d="M20 1366q0 55 48 55h745q29 0 39 -14t10 -41q0 -29 -10 -43t-39 -14h-311v-1196h782v1261q0 35 16.5 48.5t45.5 13.5t46 -13.5t17 -48.5v-1261h129q29 0 46.5 -13.5t17.5 -48.5v-327q0 -35 -17.5 -48.5t-46.5 -13.5t-45 13.5t-16 48.5v276h-1037q-31 0 -47 13.5t-16 47.5 v1248h-309q-47 0 -48 57z" />
<glyph unicode="&#x4b5;" horiz-adv-x="1361" d="M20 1008q0 29 11.5 41t46.5 12h610q35 0 46 -12.5t11 -40.5q0 -29 -11 -41.5t-46 -12.5h-260v-848h586v904q0 35 15 47t44 12t44.5 -12.5t15.5 -46.5v-904h124q29 0 46.5 -10t17.5 -45v-327q0 -35 -16.5 -48.5t-44.5 -13.5q-57 0 -58 68v270h-835q-25 0 -41.5 12.5 t-16.5 42.5v899h-231q-35 0 -46.5 12.5t-11.5 41.5z" />
<glyph unicode="&#x4b6;" horiz-adv-x="1290" d="M113 950v422q0 37 16 50.5t45 13.5t45.5 -13.5t16.5 -48.5v-391q0 -74 9 -130t43 -94t98.5 -57.5t174.5 -19.5q90 0 188.5 14.5t172.5 30.5v647q0 35 17 48.5t46 13.5t45.5 -13.5t16.5 -48.5v-1261h129q29 0 46 -13.5t17 -48.5v-327q0 -35 -17.5 -48.5t-45.5 -13.5 q-29 0 -45.5 13.5t-16.5 48.5v276h-127q-29 0 -47 13.5t-18 47.5v555q-78 -16 -180.5 -28.5t-188.5 -12.5q-109 0 -191.5 16.5t-138 57.5t-83 114t-27.5 187z" />
<glyph unicode="&#x4b7;" horiz-adv-x="1099" d="M92 719v301q0 49 55 49q63 0 64 -49v-260q0 -70 7 -117t30.5 -76.5t71 -42t126.5 -12.5q66 0 148 12.5t158 30.5v455q0 35 15 47t44 12t44 -12.5t15 -46.5v-904h125q29 0 46.5 -10t17.5 -45v-327q0 -35 -16.5 -48.5t-45.5 -13.5q-57 0 -57 68v270h-127q-27 0 -44 11.5 t-17 43.5v394q-96 -20 -175 -29.5t-163 -9.5q-170 0 -246 67.5t-76 241.5z" />
<glyph unicode="&#x4b8;" horiz-adv-x="1216" d="M113 950v422q0 37 16 50.5t45 13.5t45.5 -13.5t16.5 -48.5v-391q0 -74 9 -130t43 -94t97 -59q53 -14 135 -18v221q0 35 17.5 48.5t46.5 13.5t45 -13.5t16 -48.5v-219q51 4 105 12q98 14 172 31v647q0 35 17 48.5t46 13.5t45.5 -13.5t16.5 -48.5v-1313q0 -35 -15.5 -48 t-44.5 -13t-47 13.5t-18 47.5v555q-78 -16 -181 -28q-51 -6 -96 -10v-240q0 -35 -17.5 -48.5t-45.5 -13.5q-29 0 -45.5 13.5t-16.5 48.5v237q-90 2 -160 17q-82 16 -137 57t-82.5 114t-27.5 187z" />
<glyph unicode="&#x4b9;" horiz-adv-x="1026" d="M92 719v301q0 49 55 49q63 0 64 -49v-260q0 -70 7 -117t30.5 -76.5t70.5 -42.5q35 -10 89 -12v168q0 35 16 48t45 13q57 0 57 -67v-158q33 2 68 8q82 12 158 31v455q0 35 15 47t44 12t44 -12.5t15 -46.5v-969q0 -33 -16 -44t-41 -11q-27 0 -44 11t-17 44v408 q-96 -20 -177 -31l-49 -4v-158q0 -35 -16 -48t-45 -13q-57 0 -57 67v148q-166 0 -240 67q-76 68 -76 242z" />
<glyph unicode="&#x4ba;" horiz-adv-x="1216" d="M170 47v1327q0 35 15.5 48.5t43.5 13.5q29 0 47.5 -13.5t18.5 -48.5v-508q78 16 180.5 28.5t188.5 12.5q109 0 191.5 -16.5t138 -57t83 -113.5t27.5 -188v-483q0 -37 -16.5 -50t-45.5 -13t-45 13t-16 48v453q0 74 -9 130t-43 94t-98.5 57.5t-175.5 19.5q-90 0 -188 -14.5 t-172 -30.5v-709q0 -35 -17.5 -48t-46.5 -13t-45 13t-16 48z" />
<glyph unicode="&#x4bb;" horiz-adv-x="1171" d="M156 45v1335q0 33 17 44.5t42 11.5q27 0 44 -11.5t17 -44.5v-571q12 27 38 70t72 84t114.5 69.5t163.5 28.5q158 0 255 -87t97 -272v-667q0 -49 -55 -49q-63 0 -64 49v622q0 139 -56.5 213t-201.5 74q-96 0 -166 -41t-114 -105.5t-64.5 -145.5t-20.5 -158v-449 q0 -35 -15 -47t-44 -12t-44 12t-15 47z" />
<glyph unicode="&#x4bc;" horiz-adv-x="1835" d="M20 977q0 45 6.5 88t20.5 76q29 68 64 67q25 0 46 -16t21 -33q0 -12 -4 -22.5t-12 -26.5q-14 -27 -24.5 -55.5t-10.5 -71.5q0 -76 41 -122t149 -48h78q10 115 43 211q49 137 137.5 233.5t212 147.5t273.5 51t272.5 -51t210.5 -147.5t137.5 -235.5t49.5 -272 q0 -27 -15.5 -38.5t-40.5 -11.5h-1147q0 -137 33 -247q35 -115 102.5 -198t167 -128t230.5 -45q117 0 190.5 30.5t122.5 73.5t79 88t44 76q27 55 59 56q18 0 44 -12.5t26 -43.5q0 -41 -29.5 -93t-64.5 -93q-16 -18 -50 -51t-91.5 -66t-136 -57.5t-193.5 -24.5 q-150 0 -273.5 51.5t-212 148.5t-137.5 234q-45 133 -47 301h-96q-123 -2 -199 68t-76 209zM532 813h1057q-8 84 -30 156q-33 117 -100.5 198.5t-167 126.5t-230.5 45t-230.5 -45t-167 -127t-102.5 -198q-20 -72 -29 -156z" />
<glyph unicode="&#x4bd;" horiz-adv-x="1382" d="M20 723q0 74 21.5 130t62.5 56q25 0 42.5 -14t17.5 -29q0 -25 -18.5 -57.5t-18.5 -73.5q0 -53 26.5 -92t96.5 -45h108q10 104 48 193.5t100.5 154t147 100t186.5 35.5q113 0 198.5 -41t144 -111.5t88 -167.5t29.5 -210q0 -27 -15 -38t-40 -11h-764q4 -205 97.5 -317.5 t267.5 -112.5q70 0 118 15t81.5 39t56 51.5t39.5 51.5q12 16 20 24.5t25 8.5q20 0 40.5 -12t20.5 -35q0 -27 -20 -53q-18 -29 -48 -62.5t-76 -63.5t-109.5 -50.5t-147.5 -20.5q-117 0 -208 40t-152.5 110.5t-94.5 169t-35 217.5h-104q-63 0 -107.5 18.5t-72 49t-40 70.5 t-12.5 83zM485 598h697q-6 80 -29 148.5t-64.5 120t-104 81t-146.5 29.5t-147.5 -32t-106.5 -85t-67.5 -121.5t-31.5 -140.5z" />
<glyph unicode="&#x4be;" horiz-adv-x="1835" d="M20 977q0 45 6.5 88t20.5 76q29 68 64 67q25 0 46 -16t21 -33q0 -12 -4 -22.5t-12 -26.5q-14 -27 -24.5 -55.5t-10.5 -71.5q0 -76 41 -122t149 -48h78q10 115 43 211q49 137 137.5 233.5t212 147.5t273.5 51t272.5 -51t210.5 -147.5t137.5 -235.5t49.5 -272 q0 -27 -15.5 -38.5t-40.5 -11.5h-1147q0 -137 33 -247q35 -115 102.5 -198t167 -128t230.5 -45q117 0 190.5 30.5t122.5 73.5t79 88t44 76q27 55 59 56q18 0 44 -12.5t26 -43.5q0 -41 -29.5 -93t-64.5 -93q-16 -18 -50 -51t-91.5 -66t-137.5 -57q-55 -16 -129 -23v-243 q0 -35 -17 -48.5t-46 -13.5t-45.5 13.5t-16.5 48.5v243q-115 8 -213 49q-123 51 -211 148.5t-137 234.5q-45 133 -47 301h-96q-123 -2 -199 68t-76 209zM532 813h1057q-8 84 -30 156q-33 117 -100.5 198.5t-167 126.5t-230.5 45t-230.5 -45t-167 -127t-102.5 -198 q-20 -72 -29 -156z" />
<glyph unicode="&#x4bf;" horiz-adv-x="1382" d="M20 723q0 74 21.5 130t62.5 56q25 0 42.5 -14t17.5 -29q0 -25 -18.5 -57.5t-18.5 -73.5q0 -53 26.5 -92t96.5 -45h108q10 104 48 193.5t100.5 154t147 100t186.5 35.5q113 0 198.5 -41t144 -111.5t88 -167.5t29.5 -210q0 -27 -15 -38t-40 -11h-764q4 -205 97.5 -317.5 t267.5 -112.5q70 0 118 15t81.5 39t56 51.5t39.5 51.5q12 16 20 24.5t25 8.5q20 0 40.5 -12t20.5 -35q0 -27 -20 -53q-18 -29 -48 -62.5t-76 -63.5t-110 -50q-43 -12 -94 -19v-243q0 -35 -17.5 -48.5t-45.5 -13.5q-29 0 -45.5 13.5t-16.5 48.5v245q-74 8 -137 35 q-90 41 -151.5 111.5t-94.5 169t-35 217.5h-104q-63 0 -107.5 18.5t-72 49t-40 70.5t-12.5 83zM485 598h697q-6 80 -29 148.5t-64.5 120t-104 81t-146.5 29.5t-147.5 -32t-106.5 -85t-67.5 -121.5t-31.5 -140.5z" />
<glyph unicode="&#x4c0;" horiz-adv-x="462" d="M170 47v1327q0 35 16.5 48.5t44.5 13.5q29 0 45.5 -13.5t16.5 -48.5v-1327q0 -35 -16.5 -48t-45.5 -13t-45 13t-16 48z" />
<glyph unicode="&#x4c1;" horiz-adv-x="1789" d="M51 39q0 8 4 19.5t15 27.5l389 651l-334 584q-25 39 -25 59t20.5 38t49.5 18q27 0 43 -27l369 -635h249v600q0 35 16.5 48.5t47.5 13.5q29 0 45 -13.5t16 -48.5v-600h261l360 635q16 27 43 27q29 0 46 -15.5t17 -36.5q0 -20 -22 -59l-324 -586l383 -653q16 -31 17 -47 q0 -27 -19.5 -40t-46.5 -13q-23 0 -34 8t-29 39l-375 631h-277v-617q0 -35 -16 -48t-45 -13q-31 0 -47.5 13t-16.5 48v617h-276l-371 -631q-16 -29 -29.5 -38t-35.5 -9q-23 0 -45.5 13t-22.5 40zM594 1761q0 59 70 59q14 0 26.5 -7t16.5 -30q6 -31 17 -58.5t32.5 -49 t55.5 -33.5t85 -12q49 0 82 14t52.5 35.5t30.5 48.5t17 51q6 25 18.5 34t35.5 9q33 0 48 -13t15 -48q0 -37 -17.5 -79t-54 -76t-94 -56.5t-137.5 -22.5q-86 0 -143.5 22.5t-92 56.5t-49 76t-14.5 79z" />
<glyph unicode="&#x4c2;" horiz-adv-x="1400" d="M35 33q0 16 14 41l277 473l-234 424q-10 20 -14 31.5t-4 21.5q0 18 21.5 31.5t41.5 13.5q29 0 45 -31l250 -456h209v432q0 55 61 55q57 0 58 -55v-432h209l254 456q16 31 45 31q20 0 39.5 -13.5t19.5 -31.5q0 -10 -4 -21.5t-14 -31.5l-234 -420l275 -473q14 -25 14 -41 q0 -20 -14.5 -35.5t-40.5 -15.5q-23 0 -35 10t-27 33l-268 454h-219v-438q0 -59 -60 -59q-59 0 -59 59v438h-225l-266 -454q-14 -23 -26.5 -33t-35.5 -10q-27 0 -40 13t-13 34zM399 1442q0 59 70 59q14 0 26.5 -7t16.5 -30q6 -31 17 -58.5t32.5 -49t55.5 -33.5t85 -12 q49 0 82 14t52.5 35.5t30.5 48.5t17 51q6 25 18.5 34t35.5 9q33 0 48 -13t15 -48q0 -37 -17.5 -79t-54 -76t-94 -56.5t-137.5 -22.5q-86 0 -143.5 22.5t-92 56.5t-49 76t-14.5 79z" />
<glyph unicode="&#x4c3;" horiz-adv-x="1210" d="M170 47v1327q0 35 16.5 48.5t46.5 13.5q29 0 45.5 -13.5t16.5 -48.5v-600h242l460 635q10 14 20.5 20.5t26.5 6.5q25 0 43.5 -16.5t18.5 -37.5q0 -18 -27 -57l-417 -586l479 -653q12 -16 15 -27.5t3 -19.5v-221q0 -123 -55 -199t-180 -76q-45 0 -78 6.5t-66 20.5 q-68 27 -67 63q0 25 16 46.5t33 21.5q12 0 22.5 -4t26.5 -12q27 -14 45 -24.5t62 -10.5q59 0 91.5 39.5t32.5 150.5v168l-489 656h-258v-617q0 -35 -16.5 -48t-45.5 -13q-31 0 -47 13t-16 48z" />
<glyph unicode="&#x4c4;" horiz-adv-x="968" d="M156 45v969q0 55 61 55q57 0 57 -55v-428h189l317 454q23 29 43 29t41 -16.5t21 -32.5q0 -10 -4 -20.5t-17 -28.5l-293 -420l340 -477q10 -14 13.5 -21.5t3.5 -15.5v-219q0 -123 -55.5 -199t-180.5 -76q-45 0 -77.5 6.5t-65.5 20.5q-68 27 -68 63q0 25 16.5 46.5 t32.5 21.5q12 0 22.5 -4t27.5 -12q27 -14 45 -24.5t61 -10.5q59 0 92 39.5t33 150.5v174l-340 473h-197v-442q0 -59 -59 -59t-59 59z" />
<glyph unicode="&#x4c5;" horiz-adv-x="1359" d="M20 35q0 29 13.5 46t52.5 17q82 0 116 57.5t60 178.5q29 127 47.5 260t30.5 268q12 129 19.5 249t15.5 249q2 35 17.5 48t45.5 13h688q29 0 46.5 -13t17.5 -48v-1247h125q29 0 46 -13.5t17 -48.5l-80 -327q-8 -37 -20 -49.5t-39 -12.5q-63 8 -53 72l65 266h-125 q-29 0 -45 13.5t-16 47.5v1248h-567q-10 -113 -17.5 -217.5t-17.5 -217.5q-6 -74 -17.5 -160.5t-24.5 -174.5t-29.5 -168t-33.5 -142q-35 -123 -95 -183t-175 -60q-68 0 -68 49z" />
<glyph unicode="&#x4c6;" horiz-adv-x="1171" d="M10 33q0 20 10.5 36.5t45.5 16.5q55 0 87.5 41t49.5 125q16 84 26.5 180t14.5 189l20 389q2 51 58 51h542q27 0 42.5 -11.5t15.5 -39.5v-904h125q29 0 46 -10t17 -45l-80 -327q-8 -37 -20.5 -49.5t-38.5 -12.5q-61 4 -51 68l65 270h-121q-29 0 -44 11.5t-15 39.5v903 h-424l-21 -329q-4 -53 -9 -117t-12 -128.5t-17.5 -123.5t-24.5 -102q-27 -78 -83 -123t-144 -45q-35 0 -47.5 10t-12.5 37z" />
<glyph unicode="&#x4c7;" horiz-adv-x="1454" d="M170 47v1327q0 35 16.5 48.5t46.5 13.5q29 0 45.5 -13.5t16.5 -48.5v-561h864v561q0 35 16.5 48.5t45.5 13.5t46 -13.5t17 -48.5v-1556q0 -123 -59.5 -199t-184.5 -76q-45 0 -77.5 6.5t-65.5 20.5q-68 27 -68 63q0 25 16.5 46.5t33.5 21.5q12 0 22 -4t27 -12 q27 -14 45 -24.5t61 -10.5q59 0 92 39.5t33 150.5v860h-864v-653q0 -35 -16.5 -48t-45.5 -13q-31 0 -47 13t-16 48z" />
<glyph unicode="&#x4c8;" horiz-adv-x="1157" d="M156 45v965q0 35 14 47t43 12t44 -12.5t15 -46.5v-410h613v410q0 35 14 47t43 12t44 -12.5t15 -46.5v-1192q0 -123 -55 -199t-180 -76q-45 0 -78 6.5t-65 20.5q-68 27 -68 63q0 25 16.5 46.5t32.5 21.5q12 0 22.5 -4t26.5 -12q27 -14 45.5 -24.5t61.5 -10.5q59 0 92 39.5 t33 150.5v658h-613v-453q0 -35 -15 -47t-44 -12t-43 12t-14 47z" />
<glyph unicode="&#x4c9;" horiz-adv-x="1454" d="M170 47v1327q0 35 16.5 48.5t46.5 13.5q29 0 45.5 -13.5t16.5 -48.5v-561h864v561q0 35 16.5 48.5t45.5 13.5t46 -13.5t17 -48.5v-1261h125q29 0 46.5 -13.5t17.5 -48.5l-80 -327q-8 -37 -20.5 -49.5t-39.5 -12.5q-63 8 -53 72l66 266h-123q-31 0 -47.5 13.5t-16.5 47.5 v639h-864v-653q0 -35 -16.5 -48t-45.5 -13q-31 0 -47 13t-16 48z" />
<glyph unicode="&#x4ca;" horiz-adv-x="1251" d="M156 45v965q0 35 14 47t43 12t44 -12.5t15 -46.5v-410h613v410q0 35 14 47t43 12t44 -12.5t15 -46.5v-904h125q29 0 46.5 -10t17.5 -45l-80 -327q-8 -37 -20.5 -49.5t-38.5 -12.5q-61 4 -52 68l66 270h-123q-29 0 -43 12.5t-14 46.5v439h-613v-453q0 -35 -15 -47t-44 -12 t-43 12t-14 47z" />
<glyph unicode="&#x4cb;" horiz-adv-x="1216" d="M113 950v422q0 37 16 50.5t45 13.5t45.5 -13.5t16.5 -48.5v-391q0 -74 9 -130t43 -94t98.5 -57.5t174.5 -19.5q90 0 188.5 14.5t172.5 30.5v647q0 35 17 48.5t46 13.5t45.5 -13.5t16.5 -48.5v-1313q0 -35 -15.5 -48t-44.5 -13h-133v-276q0 -35 -16.5 -48.5t-44.5 -13.5 q-29 0 -46.5 13.5t-17.5 48.5v327q0 35 17.5 48.5t46.5 13.5h129v503q-78 -16 -180.5 -28.5t-188.5 -12.5q-109 0 -191.5 16.5t-138 57.5t-83 114t-27.5 187z" />
<glyph unicode="&#x4cc;" horiz-adv-x="1026" d="M92 719v301q0 49 55 49q63 0 64 -49v-260q0 -70 7 -117t30.5 -76.5t71 -42t126.5 -12.5q66 0 148 12.5t158 30.5v455q0 35 15 47t44 12t44 -12.5t15 -46.5v-955q0 -33 -16 -44t-41 -11h-131v-270q0 -68 -57 -68q-29 0 -45.5 13.5t-16.5 48.5v327q0 35 17.5 45t46.5 10 h125v343q-96 -20 -175 -29.5t-163 -9.5q-170 0 -246 67.5t-76 241.5z" />
<glyph unicode="&#x4cd;" horiz-adv-x="1769" d="M170 43v1309q0 47 23.5 65.5t66.5 18.5q41 0 63.5 -14.5t38.5 -51.5l527 -1210l512 1198q16 35 39.5 56.5t70.5 21.5q41 0 64.5 -18.5t23.5 -65.5v-1239h125q29 0 46.5 -13.5t17.5 -48.5l-80 -327q-8 -37 -20.5 -49.5t-38.5 -12.5q-63 8 -54 72l66 266h-119 q-29 0 -45 12.5t-16 44.5v1198l-514 -1192q-10 -25 -31 -41t-51 -16q-33 0 -51.5 16.5t-28.5 40.5l-518 1178v-1198q0 -33 -15.5 -45t-44.5 -12t-43 12t-14 45z" />
<glyph unicode="&#x4ce;" horiz-adv-x="1449" d="M156 33v968q0 39 20.5 53.5t59.5 14.5q33 0 55 -14.5t33 -36.5l352 -881l356 871q12 29 32.5 45t59.5 16q37 0 56.5 -14.5t19.5 -53.5v-895h125q29 0 46.5 -10t17.5 -45l-80 -327q-8 -37 -20.5 -49.5t-39.5 -12.5q-61 4 -51 68l66 270h-119q-55 0 -55 47v823l-347 -825 q-8 -18 -24.5 -31.5t-42.5 -13.5q-29 0 -46.5 13.5t-25.5 31.5l-336 815v-827q0 -47 -57 -47q-55 0 -55 47z" />
<glyph unicode="&#x4cf;" horiz-adv-x="462" d="M170 47v1327q0 35 16.5 48.5t44.5 13.5q29 0 45.5 -13.5t16.5 -48.5v-1327q0 -35 -16.5 -48t-45.5 -13t-45 13t-16 48z" />
<glyph unicode="&#x4d0;" horiz-adv-x="1355" d="M41 35q0 4 1 11t7 22l547 1314q23 53 86 54q31 0 48.5 -12.5t25.5 -30.5l549 -1319q10 -27 10 -37q0 -27 -23.5 -39t-46.5 -12t-34 11t-17 26l-168 399h-698l-172 -402q-17 -34 -50 -34q-27 0 -46 11t-19 38zM375 528h604l-301 770zM377 1761q0 59 70 59q14 0 26.5 -7 t16.5 -30q6 -31 17 -58.5t32.5 -49t55.5 -33.5t85 -12q49 0 82 14t52.5 35.5t30.5 48.5t17 51q6 25 18.5 34t35.5 9q33 0 48 -13t15 -48q0 -37 -17.5 -79t-54 -76t-94 -56.5t-137.5 -22.5q-86 0 -143.5 22.5t-92 56.5t-49 76t-14.5 79z" />
<glyph unicode="&#x4d1;" horiz-adv-x="1091" d="M92 268q0 76 27.5 140.5t94.5 112.5t178.5 76t281.5 32l147 2v78q0 135 -70.5 201.5t-226.5 66.5q-66 0 -112.5 -13.5t-78.5 -33t-52.5 -41t-32.5 -35.5q-16 -23 -27.5 -29t-23.5 -6q-23 0 -42.5 13.5t-19.5 35.5q0 18 8.5 34t30.5 40q37 39 84 65.5t95 43t93.5 23.5 t79.5 7q113 0 192 -27.5t127 -75.5t69.5 -111.5t21.5 -133.5v-702q0 -45 -59 -45q-41 0 -49.5 20.5t-8.5 56.5v127q-29 -41 -66.5 -77.5t-87 -64.5t-111.5 -45t-140 -17q-164 0 -243 76.5t-79 205.5zM217 279q0 -96 52.5 -144.5t168.5 -48.5q111 0 203 55.5t139 128.5 q41 63 41 160v100l-153 -2q-137 -2 -224.5 -21.5t-137.5 -52t-69.5 -77.5t-19.5 -98zM244 1442q0 59 70 59q14 0 26.5 -7t16.5 -30q6 -31 17 -58.5t32.5 -49t55.5 -33.5t85 -12q49 0 82 14t52.5 35.5t30.5 48.5t17 51q6 25 18.5 34t35.5 9q33 0 48 -13t15 -48 q0 -37 -17.5 -79t-54 -76t-94 -56.5t-137.5 -22.5q-86 0 -143.5 22.5t-92 56.5t-49 76t-14.5 79z" />
<glyph unicode="&#x4d2;" horiz-adv-x="1355" d="M41 35q0 4 1 11t7 22l547 1314q23 53 86 54q31 0 48.5 -12.5t25.5 -30.5l549 -1319q10 -27 10 -37q0 -27 -23.5 -39t-46.5 -12t-34 11t-17 26l-168 399h-698l-172 -402q-17 -34 -50 -34q-27 0 -46 11t-19 38zM375 528h604l-301 770zM387 1671q0 41 24.5 66.5t65.5 25.5 q35 0 64.5 -22.5t29.5 -69.5q0 -43 -26.5 -67.5t-67.5 -24.5t-65.5 24.5t-24.5 67.5zM784 1671q0 41 25 66.5t66 25.5q35 0 63.5 -22.5t28.5 -69.5q0 -43 -24.5 -67.5t-67.5 -24.5q-41 0 -66 24.5t-25 67.5z" />
<glyph unicode="&#x4d3;" horiz-adv-x="1091" d="M92 268q0 76 27.5 140.5t94.5 112.5t178.5 76t281.5 32l147 2v78q0 135 -70.5 201.5t-226.5 66.5q-66 0 -112.5 -13.5t-78.5 -33t-52.5 -41t-32.5 -35.5q-16 -23 -27.5 -29t-23.5 -6q-23 0 -42.5 13.5t-19.5 35.5q0 18 8.5 34t30.5 40q37 39 84 65.5t95 43t93.5 23.5 t79.5 7q113 0 192 -27.5t127 -75.5t69.5 -111.5t21.5 -133.5v-702q0 -45 -59 -45q-41 0 -49.5 20.5t-8.5 56.5v127q-29 -41 -66.5 -77.5t-87 -64.5t-111.5 -45t-140 -17q-164 0 -243 76.5t-79 205.5zM217 279q0 -96 52.5 -144.5t168.5 -48.5q111 0 203 55.5t139 128.5 q41 63 41 160v100l-153 -2q-137 -2 -224.5 -21.5t-137.5 -52t-69.5 -77.5t-19.5 -98zM256 1352q0 41 24.5 66.5t65.5 25.5q35 0 64.5 -22.5t29.5 -69.5q0 -43 -26.5 -67.5t-67.5 -24.5t-65.5 24.5t-24.5 67.5zM653 1352q0 41 25 66.5t66 25.5q35 0 63.5 -22.5t28.5 -69.5 q0 -43 -24.5 -67.5t-67.5 -24.5q-41 0 -66 24.5t-25 67.5z" />
<glyph unicode="&#x4d4;" horiz-adv-x="1931" d="M41 33q0 4 1 12t7 18l762 1305q14 23 33.5 38t46.5 15h909q47 0 47 -55q0 -57 -47 -57h-780v-527h739q47 0 47 -55q0 -57 -47 -57h-739v-557h780q47 0 47 -56q0 -57 -47 -57h-839q-29 0 -47.5 15.5t-18.5 50.5v356h-498l-239 -402q-10 -16 -21.5 -26t-30.5 -10 q-27 0 -46 12t-19 37zM453 528h442v758z" />
<glyph unicode="&#x4d5;" horiz-adv-x="1888" d="M102 287q0 76 29 137t97.5 105t184 69t289.5 27l148 2v78q0 135 -70.5 203.5t-226.5 68.5q-66 0 -113 -13.5t-78.5 -33t-52 -41t-33.5 -35.5q-16 -23 -27 -29t-24 -6q-23 0 -42 13.5t-19 35.5q0 18 8 34t31 40q37 39 84 65.5t95 43t93 23.5t80 7q166 0 258 -57t127 -150 q61 98 161.5 152.5t231.5 54.5q113 0 199 -37.5t144.5 -104.5t88 -158t29.5 -197q0 -27 -15.5 -38t-39.5 -11h-764q0 -238 95 -350.5t269 -112.5q70 0 118 15t82 39t56.5 51.5t38.5 51.5q12 16 20.5 24.5t24.5 8.5q20 0 41 -12t21 -35q0 -25 -21 -53q-18 -29 -48 -62.5 t-76 -63.5t-109.5 -50.5t-147.5 -20.5q-160 0 -268 66.5t-166 189.5q-172 -240 -463 -239q-176 0 -258 82.5t-82 222.5zM219 297q0 -106 57.5 -162.5t192.5 -56.5q111 0 203 54t139 128q23 35 31 76t8 92v107l-154 -3q-145 -2 -237 -19t-145.5 -47t-74 -73t-20.5 -96z M979 631h696q-6 72 -29.5 134t-65.5 109.5t-103.5 75t-145.5 27.5t-147.5 -26.5t-106.5 -74t-67.5 -111t-30.5 -134.5z" />
<glyph unicode="&#x4d6;" horiz-adv-x="1206" d="M170 66v1290q0 66 66 65h839q47 0 47 -55q0 -57 -47 -57h-780v-527h739q47 0 47 -55q0 -57 -47 -57h-739v-557h780q47 0 47 -56q0 -57 -47 -57h-839q-66 0 -66 66zM354 1761q0 59 70 59q14 0 26.5 -7t16.5 -30q6 -31 17 -58.5t32.5 -49t55.5 -33.5t85 -12q49 0 82 14 t52.5 35.5t30.5 48.5t17 51q6 25 18.5 34t35.5 9q33 0 48 -13t15 -48q0 -37 -17.5 -79t-54 -76t-94 -56.5t-137.5 -22.5q-86 0 -143.5 22.5t-92 56.5t-49 76t-14.5 79z" />
<glyph unicode="&#x4d7;" horiz-adv-x="1116" d="M90 524q0 119 34 221.5t97.5 177t152.5 116.5t199 42q113 0 199 -41t144.5 -111.5t88 -167.5t29.5 -210q0 -27 -15 -38t-40 -11h-764q4 -205 97.5 -317.5t267.5 -112.5q70 0 117.5 15t81.5 39t56.5 51.5t38.5 51.5q12 16 20.5 24.5t25.5 8.5q20 0 40.5 -12t20.5 -35 q0 -25 -20 -53q-18 -29 -48 -62.5t-76 -63.5t-109.5 -50.5t-147.5 -20.5q-121 0 -212.5 42t-152.5 116t-93 176t-32 225zM219 598h696q-6 80 -28.5 148.5t-64.5 120t-104.5 81t-146.5 29.5t-147.5 -32t-106.5 -85t-67.5 -121.5t-30.5 -140.5zM256 1442q0 59 70 59 q14 0 26.5 -7t16.5 -30q6 -31 17 -58.5t32.5 -49t55.5 -33.5t85 -12q49 0 82 14t52.5 35.5t30.5 48.5t17 51q6 25 18.5 34t35.5 9q33 0 48 -13t15 -48q0 -37 -17.5 -79t-54 -76t-94 -56.5t-137.5 -22.5q-86 0 -143.5 22.5t-92 56.5t-49 76t-14.5 79z" />
<glyph unicode="&#x4d8;" horiz-adv-x="1548" d="M104 727q2 27 17.5 38t40.5 11h1143q-6 104 -33 193q-33 117 -100.5 198.5t-167 126.5t-230.5 45q-127 -2 -196.5 -26.5t-123 -62.5t-90 -86t-59.5 -93q-20 -41 -51 -41q-16 0 -44 11.5t-28 43.5q0 35 20.5 77t56.5 83t86 80t110 68q127 63 319 63q150 0 272.5 -51 t211 -147.5t137.5 -233.5t49 -311t-49 -312.5t-137.5 -235.5t-211 -148.5t-272.5 -51.5t-273.5 51.5t-211.5 148.5t-136.5 234.5t-48.5 327.5zM242 664q5 -115 32 -211q35 -115 102.5 -198t167 -128t230.5 -45t230.5 45t167 128t100.5 198q29 96 33 211h-1063z" />
<glyph unicode="&#x4d9;" horiz-adv-x="1116" d="M82 496q0 27 15.5 38t39.5 11h764q-4 205 -97 317.5t-267 112.5q-70 0 -118 -15.5t-82 -39t-56.5 -51t-38.5 -52.5q-12 -16 -20.5 -24.5t-24.5 -8.5q-20 0 -41 12.5t-21 34.5q0 25 21 54q18 29 47.5 62.5t76 63t110 50t147.5 20.5q121 0 212 -42t152.5 -115.5t93 -176 t31.5 -225.5q0 -119 -34 -221t-97.5 -177t-152.5 -117t-199 -42q-113 0 -199 41t-144.5 111.5t-88 168t-29.5 210.5zM201 449q6 -80 28.5 -149t64.5 -120t104.5 -80.5t146.5 -29.5t147.5 31.5t106.5 85t67.5 122t30.5 140.5h-696z" />
<glyph unicode="&#x4da;" horiz-adv-x="1548" d="M104 727q2 27 17.5 38t40.5 11h1143q-6 104 -33 193q-33 117 -100.5 198.5t-167 126.5t-230.5 45q-127 -2 -196.5 -26.5t-123 -62.5t-90 -86t-59.5 -93q-20 -41 -51 -41q-16 0 -44 11.5t-28 43.5q0 35 20.5 77t56.5 83t86 80t110 68q127 63 319 63q150 0 272.5 -51 t211 -147.5t137.5 -233.5t49 -311t-49 -312.5t-137.5 -235.5t-211 -148.5t-272.5 -51.5t-273.5 51.5t-211.5 148.5t-136.5 234.5t-48.5 327.5zM242 664q5 -115 32 -211q35 -115 102.5 -198t167 -128t230.5 -45t230.5 45t167 128t100.5 198q29 96 33 211h-1063zM453 1647 q0 41 24.5 66.5t65.5 25.5q35 0 64.5 -22.5t29.5 -69.5q0 -43 -26.5 -68t-67.5 -25t-65.5 25t-24.5 68zM908 1647q0 41 24.5 66.5t65.5 25.5q35 0 63.5 -22.5t28.5 -69.5q0 -43 -24.5 -68t-67.5 -25q-41 0 -65.5 25t-24.5 68z" />
<glyph unicode="&#x4db;" horiz-adv-x="1116" d="M82 496q0 27 15.5 38t39.5 11h764q-4 205 -97 317.5t-267 112.5q-70 0 -118 -15.5t-82 -39t-56.5 -51t-38.5 -52.5q-12 -16 -20.5 -24.5t-24.5 -8.5q-20 0 -41 12.5t-21 34.5q0 25 21 54q18 29 47.5 62.5t76 63t110 50t147.5 20.5q121 0 212 -42t152.5 -115.5t93 -176 t31.5 -225.5q0 -119 -34 -221t-97.5 -177t-152.5 -117t-199 -42q-113 0 -199 41t-144.5 111.5t-88 168t-29.5 210.5zM201 449q6 -80 28.5 -149t64.5 -120t104.5 -80.5t146.5 -29.5t147.5 31.5t106.5 85t67.5 122t30.5 140.5h-696zM274 1352q0 41 24.5 66.5t65.5 25.5 q35 0 64.5 -22.5t29.5 -69.5q0 -43 -26.5 -67.5t-67.5 -24.5t-65.5 24.5t-24.5 67.5zM671 1352q0 41 25 66.5t66 25.5q35 0 63.5 -22.5t28.5 -69.5q0 -43 -24.5 -67.5t-67.5 -24.5q-41 0 -66 24.5t-25 67.5z" />
<glyph unicode="&#x4dc;" horiz-adv-x="1789" d="M51 39q0 8 4 19.5t15 27.5l389 651l-334 584q-25 39 -25 59t20.5 38t49.5 18q27 0 43 -27l369 -635h249v600q0 35 16.5 48.5t47.5 13.5q29 0 45 -13.5t16 -48.5v-600h261l360 635q16 27 43 27q29 0 46 -15.5t17 -36.5q0 -20 -22 -59l-324 -586l383 -653q16 -31 17 -47 q0 -27 -19.5 -40t-46.5 -13q-23 0 -34 8t-29 39l-375 631h-277v-617q0 -35 -16 -48t-45 -13q-31 0 -47.5 13t-16.5 48v617h-276l-371 -631q-16 -29 -29.5 -38t-35.5 -9q-23 0 -45.5 13t-22.5 40zM574 1647q0 41 24.5 66.5t65.5 25.5q35 0 64.5 -22.5t29.5 -69.5 q0 -43 -26.5 -68t-67.5 -25t-65.5 25t-24.5 68zM1029 1647q0 41 24.5 66.5t65.5 25.5q35 0 63.5 -22.5t28.5 -69.5q0 -43 -24.5 -68t-67.5 -25q-41 0 -65.5 25t-24.5 68z" />
<glyph unicode="&#x4dd;" horiz-adv-x="1400" d="M35 33q0 16 14 41l277 473l-234 424q-10 20 -14 31.5t-4 21.5q0 18 21.5 31.5t41.5 13.5q29 0 45 -31l250 -456h209v432q0 55 61 55q57 0 58 -55v-432h209l254 456q16 31 45 31q20 0 39.5 -13.5t19.5 -31.5q0 -10 -4 -21.5t-14 -31.5l-234 -420l275 -473q14 -25 14 -41 q0 -20 -14.5 -35.5t-40.5 -15.5q-23 0 -35 10t-27 33l-268 454h-219v-438q0 -59 -60 -59q-59 0 -59 59v438h-225l-266 -454q-14 -23 -26.5 -33t-35.5 -10q-27 0 -40 13t-13 34zM410 1352q0 41 24.5 66.5t65.5 25.5q35 0 64.5 -22.5t29.5 -69.5q0 -43 -26.5 -67.5 t-67.5 -24.5t-65.5 24.5t-24.5 67.5zM807 1352q0 41 25 66.5t66 25.5q35 0 63.5 -22.5t28.5 -69.5q0 -43 -24.5 -67.5t-67.5 -24.5q-41 0 -66 24.5t-25 67.5z" />
<glyph unicode="&#x4de;" horiz-adv-x="1189" d="M51 209q0 27 21.5 45t44.5 18q16 0 28.5 -10t32.5 -31q20 -20 53 -47.5t81 -52.5t114 -42t156 -17q193 0 289 80.5t96 224.5q0 80 -32 136t-88 91t-133 51.5t-165 16.5h-203q-25 0 -33 15t-8 40t8.5 40t32.5 15h215q80 0 146.5 21.5t114.5 60.5t76 94.5t28 124.5 q0 53 -16.5 101.5t-55.5 84.5t-105.5 57.5t-164.5 21.5q-74 0 -132.5 -18.5t-103.5 -45.5t-77.5 -57.5t-57.5 -55.5q-16 -16 -29.5 -25t-29.5 -9q-25 0 -45.5 15t-20.5 40q0 23 12.5 41t28.5 35q16 16 53 48t95.5 62.5t140.5 54t190 23.5q125 0 211 -28.5t137.5 -78t74 -114 t22.5 -135.5q0 -137 -74 -231.5t-211 -135.5q154 -16 242 -103t88 -241q0 -207 -131 -315.5t-392 -108.5q-102 0 -180 17.5t-135 42t-94 51.5t-60 45q-55 49 -55 88zM289 1647q0 41 24.5 66.5t65.5 25.5q35 0 64.5 -22.5t29.5 -69.5q0 -43 -26.5 -68t-67.5 -25t-65.5 25 t-24.5 68zM744 1647q0 41 24.5 66.5t65.5 25.5q35 0 63.5 -22.5t28.5 -69.5q0 -43 -24.5 -68t-67.5 -25q-41 0 -65.5 25t-24.5 68z" />
<glyph unicode="&#x4df;" horiz-adv-x="907" d="M41 143q0 23 20.5 40.5t42.5 17.5q14 0 26.5 -9.5t25.5 -21.5q18 -18 41.5 -37.5t55.5 -35t74 -26t99 -10.5q129 0 197.5 56.5t68.5 154.5q0 55 -21.5 97.5t-59.5 69t-89 40t-110 13.5h-144q-29 0 -37 14t-8 37q0 20 8.5 34.5t36.5 14.5h152q106 0 174 55t68 154 q0 37 -10.5 69.5t-35 57t-67.5 40t-111 15.5q-51 0 -92 -12.5t-72.5 -29.5t-53 -37.5t-36.5 -35.5q-10 -10 -23.5 -21t-27.5 -11q-23 0 -42 15t-19 36q0 16 11 32.5t21 26.5q12 12 39 35t70 45.5t102.5 38.5t137.5 16q94 0 156.5 -22.5t101.5 -59t55 -86t16 -102.5 q0 -94 -47 -160.5t-135 -101.5q102 -16 158.5 -89t56.5 -177q0 -150 -101.5 -234t-293.5 -84q-78 0 -134.5 12.5t-96 30t-66.5 36t-41 32.5q-25 23 -33 39t-8 28zM156 1352q0 41 24.5 66.5t65.5 25.5q35 0 64.5 -22.5t29.5 -69.5q0 -43 -26.5 -67.5t-67.5 -24.5t-65.5 24.5 t-24.5 67.5zM553 1352q0 41 25 66.5t66 25.5q35 0 63.5 -22.5t28.5 -69.5q0 -43 -24.5 -67.5t-67.5 -24.5q-41 0 -66 24.5t-25 67.5z" />
<glyph unicode="&#x4e0;" horiz-adv-x="1146" d="M47 207q0 25 22.5 43t49.5 18q23 0 47 -37q12 -18 34.5 -43.5t63.5 -49t103.5 -40t152.5 -16.5q98 0 173 26.5t126 71.5t77 105.5t26 130.5q0 63 -35 118.5t-94.5 95.5t-140.5 62.5t-175 22.5h-90q-55 0 -55 69q0 41 39 78l458 447h-702q-47 0 -47 55q0 57 47 57h809 q66 0 65 -63q0 -23 -10 -45.5t-30 -40.5l-453 -441q109 -2 208 -32.5t174 -85t120 -131t45 -170.5q0 -96 -37 -178t-105.5 -141.5t-165 -93.5t-215.5 -34q-115 0 -195.5 21.5t-133.5 50.5t-83 55.5t-40 38.5q-16 18 -24.5 35.5t-8.5 40.5z" />
<glyph unicode="&#x4e1;" horiz-adv-x="1064" d="M6 -172q0 27 26.5 44t47.5 17q27 0 49 -41q12 -25 34.5 -61.5t64.5 -71t105.5 -59.5t158.5 -25q166 0 251.5 92.5t85.5 247.5q0 78 -27.5 139.5t-76.5 103.5t-117.5 63.5t-150.5 21.5h-92q-31 2 -46 18q-16 18 -16 52q0 20 8 36.5t29 38.5l446 517h-636q-25 0 -34.5 15 t-9.5 38q0 25 9.5 39t34.5 14h710q74 0 74 -70q0 -23 -8 -38t-29 -39l-440 -510q133 0 228 -39t156.5 -101.5t90.5 -141.5t29 -161q0 -102 -37 -184t-100.5 -139.5t-145.5 -88t-172 -30.5q-119 0 -203 27.5t-139 64.5t-84 73t-39 52q-16 25 -25.5 44t-9.5 42z" />
<glyph unicode="&#x4e2;" horiz-adv-x="1409" d="M170 55v1323q0 33 15.5 45.5t43.5 12.5q29 0 44.5 -12.5t15.5 -45.5v-1224l768 1212q27 41 47 55.5t57 14.5q35 0 56.5 -14.5t21.5 -51.5v-1327q0 -33 -15.5 -45t-43.5 -12q-29 0 -44.5 12t-15.5 45v1214l-764 -1202q-20 -33 -43.5 -51t-62.5 -18q-37 0 -58.5 16 t-21.5 53zM432 1634q0 33 9 46.5t34 13.5h477q43 0 43 -60q0 -35 -12.5 -47t-38.5 -12h-471q-23 0 -32 12t-9 47z" />
<glyph unicode="&#x4e3;" horiz-adv-x="1157" d="M156 45v965q0 35 14 47t43 12t44 -12.5t15 -46.5v-836l596 846q20 29 32.5 39t41.5 10t44 -12.5t15 -46.5v-965q0 -35 -15 -47t-44 -12t-43 12t-14 47v823l-588 -831q-20 -27 -37.5 -39t-46.5 -12t-43 12t-14 47zM309 1362q0 33 9.5 46t33.5 13h477q43 0 43 -59 q0 -35 -12 -47t-39 -12h-471q-23 0 -32 12t-9 47z" />
<glyph unicode="&#x4e4;" horiz-adv-x="1409" d="M170 55v1323q0 33 15.5 45.5t43.5 12.5q29 0 44.5 -12.5t15.5 -45.5v-1224l768 1212q27 41 47 55.5t57 14.5q35 0 56.5 -14.5t21.5 -51.5v-1327q0 -33 -15.5 -45t-43.5 -12q-29 0 -44.5 12t-15.5 45v1214l-764 -1202q-20 -33 -43.5 -51t-62.5 -18q-37 0 -58.5 16 t-21.5 53zM391 1647q0 41 24.5 66.5t65.5 25.5q35 0 64.5 -22.5t29.5 -69.5q0 -43 -26.5 -68t-67.5 -25t-65.5 25t-24.5 68zM846 1647q0 41 24.5 66.5t65.5 25.5q35 0 63.5 -22.5t28.5 -69.5q0 -43 -24.5 -68t-67.5 -25q-41 0 -65.5 25t-24.5 68z" />
<glyph unicode="&#x4e5;" horiz-adv-x="1157" d="M156 45v965q0 35 14 47t43 12t44 -12.5t15 -46.5v-836l596 846q20 29 32.5 39t41.5 10t44 -12.5t15 -46.5v-965q0 -35 -15 -47t-44 -12t-43 12t-14 47v823l-588 -831q-20 -27 -37.5 -39t-46.5 -12t-43 12t-14 47zM313 1352q0 41 24.5 66.5t65.5 25.5q35 0 64.5 -22.5 t29.5 -69.5q0 -43 -26.5 -67.5t-67.5 -24.5t-65.5 24.5t-24.5 67.5zM710 1352q0 41 25 66.5t66 25.5q35 0 63.5 -22.5t28.5 -69.5q0 -43 -24.5 -67.5t-67.5 -24.5q-41 0 -66 24.5t-25 67.5z" />
<glyph unicode="&#x4e6;" horiz-adv-x="1548" d="M104 713q0 174 48.5 311t136.5 233.5t212 147.5t273 51q150 0 272.5 -51t211 -147.5t137.5 -233.5t49 -311t-49 -312.5t-137.5 -235.5t-211 -148.5t-272.5 -51.5t-273.5 51.5t-211.5 148.5t-136.5 235.5t-48.5 312.5zM242 713q0 -143 33.5 -259t101 -199t167 -128 t230.5 -45t230.5 45t167 128t101.5 198.5t34 259.5q0 141 -34 256.5t-101.5 197.5t-167 127t-230.5 45t-230.5 -45t-167 -127t-101 -197.5t-33.5 -256.5zM453 1647q0 41 24.5 66.5t65.5 25.5q35 0 64.5 -22.5t29.5 -69.5q0 -43 -26.5 -68t-67.5 -25t-65.5 25t-24.5 68z M908 1647q0 41 24.5 66.5t65.5 25.5q35 0 63.5 -22.5t28.5 -69.5q0 -43 -24.5 -68t-67.5 -25q-41 0 -65.5 25t-24.5 68z" />
<glyph unicode="&#x4e7;" horiz-adv-x="1169" d="M90 524q0 129 36 232.5t100.5 175.5t155.5 110.5t202 38.5t203 -38.5t156.5 -110.5t100 -175.5t35.5 -232.5t-35.5 -232.5t-100 -176t-157 -111.5t-202.5 -39q-111 0 -202 39t-155.5 111.5t-100.5 176t-36 232.5zM219 524q0 -211 94.5 -330.5t270.5 -119.5 q178 0 272 119.5t94 330.5q0 209 -94 330t-272 121q-176 0 -270.5 -121t-94.5 -330zM295 1352q0 41 24.5 66.5t65.5 25.5q35 0 64.5 -22.5t29.5 -69.5q0 -43 -26.5 -67.5t-67.5 -24.5t-65.5 24.5t-24.5 67.5zM692 1352q0 41 25 66.5t66 25.5q35 0 63.5 -22.5t28.5 -69.5 q0 -43 -24.5 -67.5t-67.5 -24.5q-41 0 -66 24.5t-25 67.5z" />
<glyph unicode="&#x4e8;" horiz-adv-x="1548" d="M104 713q0 174 48.5 311t136.5 233.5t212 147.5t273 51q150 0 272.5 -51t211 -147.5t137.5 -233.5t49 -311t-49 -312.5t-137.5 -235.5t-211 -148.5t-272.5 -51.5t-273.5 51.5t-211.5 148.5t-136.5 235.5t-48.5 312.5zM242 664q5 -115 32 -211q35 -115 102.5 -198 t167 -128t230.5 -45t230.5 45t167 128t100.5 198q29 96 33 211h-1063zM242 776h1063q-6 105 -33 193q-33 117 -100.5 198.5t-167 126.5t-230.5 45t-230.5 -45t-167 -127t-102.5 -198q-25 -88 -32 -193z" />
<glyph unicode="&#x4e9;" horiz-adv-x="1169" d="M90 524q0 129 36 232.5t100.5 175.5t155.5 110.5t202 38.5t203 -38.5t156.5 -110.5t100 -175.5t35.5 -232.5t-35.5 -232.5t-100 -176t-157 -111.5t-202.5 -39q-111 0 -202 39t-155.5 111.5t-100.5 176t-36 232.5zM219 492q6 -188 94 -299q94 -119 271 -119q178 0 272 119 q86 111 94 299h-731zM221 590h727q-14 162 -92 264q-94 121 -272 121q-176 0 -271 -121q-80 -102 -92 -264z" />
<glyph unicode="&#x4ea;" horiz-adv-x="1548" d="M104 713q0 174 48.5 311t136.5 233.5t212 147.5t273 51q150 0 272.5 -51t211 -147.5t137.5 -233.5t49 -311t-49 -312.5t-137.5 -235.5t-211 -148.5t-272.5 -51.5t-273.5 51.5t-211.5 148.5t-136.5 235.5t-48.5 312.5zM242 664q5 -115 32 -211q35 -115 102.5 -198 t167 -128t230.5 -45t230.5 45t167 128t100.5 198q29 96 33 211h-1063zM242 776h1063q-6 105 -33 193q-33 117 -100.5 198.5t-167 126.5t-230.5 45t-230.5 -45t-167 -127t-102.5 -198q-25 -88 -32 -193zM453 1647q0 41 24.5 66.5t65.5 25.5q35 0 64.5 -22.5t29.5 -69.5 q0 -43 -26.5 -68t-67.5 -25t-65.5 25t-24.5 68zM908 1647q0 41 24.5 66.5t65.5 25.5q35 0 63.5 -22.5t28.5 -69.5q0 -43 -24.5 -68t-67.5 -25q-41 0 -65.5 25t-24.5 68z" />
<glyph unicode="&#x4eb;" horiz-adv-x="1169" d="M90 524q0 129 36 232.5t100.5 175.5t155.5 110.5t202 38.5t203 -38.5t156.5 -110.5t100 -175.5t35.5 -232.5t-35.5 -232.5t-100 -176t-157 -111.5t-202.5 -39q-111 0 -202 39t-155.5 111.5t-100.5 176t-36 232.5zM219 492q6 -188 94 -299q94 -119 271 -119q178 0 272 119 q86 111 94 299h-731zM221 590h727q-14 162 -92 264q-94 121 -272 121q-176 0 -271 -121q-80 -102 -92 -264zM295 1352q0 41 24.5 66.5t65.5 25.5q35 0 64.5 -22.5t29.5 -69.5q0 -43 -26.5 -67.5t-67.5 -24.5t-65.5 24.5t-24.5 67.5zM692 1352q0 41 25 66.5t66 25.5 q35 0 63.5 -22.5t28.5 -69.5q0 -43 -24.5 -67.5t-67.5 -24.5q-41 0 -66 24.5t-25 67.5z" />
<glyph unicode="&#x4ec;" horiz-adv-x="1415" d="M90 344q0 31 28.5 47.5t47.5 16.5q32 -1 59 -56q14 -31 43 -77t79 -89t125 -73.5t183 -30.5q123 0 217.5 43t159 121t99 185.5t40.5 234.5h-700q-47 0 -47 57q0 55 47 55h700q-10 264 -138 411.5t-374 147.5q-92 0 -162.5 -24.5t-124 -62.5t-90 -86t-59.5 -93 q-20 -41 -51 -41q-16 0 -44 11.5t-28 43.5q0 35 20.5 77t56.5 83t86 80t110 68q127 63 321 63q141 0 255 -48t195 -140t124 -225.5t43 -303.5q0 -176 -43 -318t-126 -243.5t-206 -157t-285 -55.5q-104 0 -182 20.5t-134 50.5t-93 62.5t-58 59.5q-35 41 -64.5 93t-29.5 93z M371 1647q0 41 24.5 66.5t65.5 25.5q35 0 64.5 -22.5t29.5 -69.5q0 -43 -26.5 -68t-67.5 -25t-65.5 25t-24.5 68zM826 1647q0 41 24.5 66.5t65.5 25.5q35 0 63.5 -22.5t28.5 -69.5q0 -43 -24.5 -68t-67.5 -25q-41 0 -65.5 25t-24.5 68z" />
<glyph unicode="&#x4ed;" horiz-adv-x="1036" d="M70 229q0 23 21.5 41.5t43.5 18.5q16 0 27.5 -10.5t30.5 -42.5q12 -18 32.5 -47t54 -54.5t82.5 -45t121 -19.5q78 0 137.5 29.5t100.5 83t64.5 129t29.5 165.5h-481q-27 0 -40 11.5t-13 41.5q0 55 53 56h481q-10 172 -90 278.5t-238 106.5q-74 0 -128 -21.5t-90 -51.5 t-56 -59.5t-29 -43.5q-14 -29 -25.5 -35t-25.5 -6q-23 0 -43 15t-20 42t16 55q16 31 51 69t85 69.5t118 54t152 22.5q117 0 201.5 -37.5t141 -108.5t84 -170t27.5 -222q0 -127 -27.5 -232.5t-85 -182.5t-148.5 -120t-216 -43q-90 0 -157.5 26.5t-113.5 61.5t-74 72t-40 57 q-14 27 -14 47zM217 1352q0 41 24.5 66.5t65.5 25.5q35 0 64.5 -22.5t29.5 -69.5q0 -43 -26.5 -67.5t-67.5 -24.5t-65.5 24.5t-24.5 67.5zM614 1352q0 41 25 66.5t66 25.5q35 0 63.5 -22.5t28.5 -69.5q0 -43 -24.5 -67.5t-67.5 -24.5q-41 0 -66 24.5t-25 67.5z" />
<glyph unicode="&#x4ee;" horiz-adv-x="1126" d="M31 1380q0 27 24.5 41.5t46.5 14.5q14 0 25.5 -5.5t19.5 -21.5l449 -860l393 852q16 35 51 35q18 0 42 -12.5t24 -39.5t-19 -63l-374 -801q-41 -88 -81 -164.5t-89 -162.5q-37 -63 -74 -103.5t-77 -64t-86 -31.5t-101 -8q-68 0 -68 49q0 29 13.5 46t52.5 17q35 0 63.5 2 t53 12.5t48 35t48.5 67.5l110 197l-475 905q-8 16 -14 33.5t-6 29.5zM301 1634q0 33 9 46.5t34 13.5h477q43 0 43 -60q0 -35 -12.5 -47t-38.5 -12h-471q-23 0 -32 12t-9 47z" />
<glyph unicode="&#x4ef;" horiz-adv-x="1024" d="M39 1018q0 27 24.5 40t53.5 13q27 0 45 -45l344 -862l362 864q16 43 45 43q27 0 49.5 -13.5t22.5 -35.5q0 -8 -4 -21.5t-8 -25.5l-588 -1368q-18 -45 -53 -45q-25 0 -42.5 14t-17.5 39q0 16 15 51l153 344l-389 959q-4 10 -8 23.5t-4 25.5zM229 1362q0 33 9.5 46t33.5 13 h477q43 0 43 -59q0 -35 -12 -47t-39 -12h-471q-23 0 -32 12t-9 47z" />
<glyph unicode="&#x4f0;" horiz-adv-x="1126" d="M31 1380q0 27 24.5 41.5t46.5 14.5q14 0 25.5 -5.5t19.5 -21.5l449 -860l393 852q16 35 51 35q18 0 42 -12.5t24 -39.5t-19 -63l-374 -801q-41 -88 -81 -164.5t-89 -162.5q-37 -63 -74 -103.5t-77 -64t-86 -31.5t-101 -8q-68 0 -68 49q0 29 13.5 46t52.5 17q35 0 63.5 2 t53 12.5t48 35t48.5 67.5l110 197l-475 905q-8 16 -14 33.5t-6 29.5zM262 1647q0 41 24.5 66.5t65.5 25.5q35 0 64.5 -22.5t29.5 -69.5q0 -43 -26.5 -68t-67.5 -25t-65.5 25t-24.5 68zM717 1647q0 41 24.5 66.5t65.5 25.5q35 0 63.5 -22.5t28.5 -69.5q0 -43 -24.5 -68 t-67.5 -25q-41 0 -65.5 25t-24.5 68z" />
<glyph unicode="&#x4f1;" horiz-adv-x="1024" d="M39 1018q0 27 24.5 40t53.5 13q27 0 45 -45l344 -862l362 864q16 43 45 43q27 0 49.5 -13.5t22.5 -35.5q0 -8 -4 -21.5t-8 -25.5l-588 -1368q-18 -45 -53 -45q-25 0 -42.5 14t-17.5 39q0 16 15 51l153 344l-389 959q-4 10 -8 23.5t-4 25.5zM233 1352q0 41 24.5 66.5 t65.5 25.5q35 0 64.5 -22.5t29.5 -69.5q0 -43 -26.5 -67.5t-67.5 -24.5t-65.5 24.5t-24.5 67.5zM630 1352q0 41 25 66.5t66 25.5q35 0 63.5 -22.5t28.5 -69.5q0 -43 -24.5 -67.5t-67.5 -24.5q-41 0 -66 24.5t-25 67.5z" />
<glyph unicode="&#x4f2;" horiz-adv-x="1126" d="M31 1380q0 27 24.5 41.5t46.5 14.5q14 0 25.5 -5.5t19.5 -21.5l449 -860l393 852q16 35 51 35q18 0 42 -12.5t24 -39.5t-19 -63l-374 -801q-41 -88 -81 -164.5t-89 -162.5q-37 -63 -74 -103.5t-77 -64t-86 -31.5t-101 -8q-68 0 -68 49q0 29 13.5 46t52.5 17q35 0 63.5 2 t53 12.5t48 35t48.5 67.5l110 197l-475 905q-8 16 -14 33.5t-6 29.5zM267 1573q0 23 30 47l195 152q29 23 48 34t38 11q29 0 50 -21.5t21 -50.5q0 -25 -13 -41t-42 -33l-219 -121q-16 -10 -31.5 -16t-31.5 -6q-18 0 -31.5 14t-13.5 31zM717 1563q0 23 31 47l194 151 q29 23 48.5 34t37.5 11q29 0 50.5 -21.5t21.5 -49.5q0 -25 -13.5 -41.5t-41.5 -32.5l-219 -121q-16 -10 -31.5 -16t-32.5 -6q-18 0 -31.5 14t-13.5 31z" />
<glyph unicode="&#x4f3;" horiz-adv-x="1024" d="M39 1018q0 27 24.5 40t53.5 13q27 0 45 -45l344 -862l362 864q16 43 45 43q27 0 49.5 -13.5t22.5 -35.5q0 -8 -4 -21.5t-8 -25.5l-588 -1368q-18 -45 -53 -45q-25 0 -42.5 14t-17.5 39q0 16 15 51l153 344l-389 959q-4 10 -8 23.5t-4 25.5zM254 1231q0 25 20 47l156 190 q29 35 47 50.5t41 15.5q35 0 54.5 -21.5t19.5 -48.5q0 -18 -11.5 -35.5t-27.5 -33.5l-187 -166q-16 -16 -31.5 -26.5t-37.5 -10.5q-18 0 -30.5 11t-12.5 28zM657 1231q0 25 21 47l155 190q29 35 47.5 50.5t40.5 15.5q35 0 54.5 -21.5t19.5 -48.5q0 -18 -11.5 -35.5 t-27.5 -33.5l-186 -166q-16 -16 -31.5 -26.5t-38.5 -10.5q-18 0 -30.5 11t-12.5 28z" />
<glyph unicode="&#x4f4;" horiz-adv-x="1216" d="M113 950v422q0 37 16 50.5t45 13.5t45.5 -13.5t16.5 -48.5v-391q0 -74 9 -130t43 -94t98.5 -57.5t174.5 -19.5q90 0 188.5 14.5t172.5 30.5v647q0 35 17 48.5t46 13.5t45.5 -13.5t16.5 -48.5v-1327q0 -35 -15.5 -48t-44.5 -13t-47 13t-18 48v569q-78 -16 -180.5 -28.5 t-188.5 -12.5q-109 0 -191.5 16.5t-138 57.5t-83 114t-27.5 187zM289 1647q0 41 24.5 66.5t65.5 25.5q35 0 64.5 -22.5t29.5 -69.5q0 -43 -26.5 -68t-67.5 -25t-65.5 25t-24.5 68zM744 1647q0 41 24.5 66.5t65.5 25.5q35 0 63.5 -22.5t28.5 -69.5q0 -43 -24.5 -68t-67.5 -25 q-41 0 -65.5 25t-24.5 68z" />
<glyph unicode="&#x4f5;" horiz-adv-x="1026" d="M92 719v301q0 49 55 49q63 0 64 -49v-260q0 -70 7 -117t30.5 -76.5t71 -42t126.5 -12.5q66 0 148 12.5t158 30.5v455q0 35 15 47t44 12t44 -12.5t15 -46.5v-969q0 -33 -16 -44t-41 -11q-27 0 -44 11t-17 44v408q-96 -20 -175 -29.5t-163 -9.5q-170 0 -246 67.5t-76 241.5 zM201 1352q0 41 24.5 66.5t65.5 25.5q35 0 64.5 -22.5t29.5 -69.5q0 -43 -26.5 -67.5t-67.5 -24.5t-65.5 24.5t-24.5 67.5zM598 1352q0 41 25 66.5t66 25.5q35 0 63.5 -22.5t28.5 -69.5q0 -43 -24.5 -67.5t-67.5 -24.5q-41 0 -66 24.5t-25 67.5z" />
<glyph unicode="&#x4f6;" horiz-adv-x="1001" d="M170 61v1295q0 66 66 65h696q29 0 39 -14t10 -41q0 -29 -10 -43t-39 -14h-639v-1196h129q29 0 46 -13.5t17 -48.5v-327q0 -35 -17 -48.5t-46 -13.5t-45.5 13.5t-16.5 48.5v276h-129q-29 0 -45 13.5t-16 47.5z" />
<glyph unicode="&#x4f7;" horiz-adv-x="802" d="M156 59v947q0 33 17 44t42 11h520q35 0 46.5 -12.5t11.5 -40.5q0 -29 -11.5 -41.5t-46.5 -12.5h-461v-848h125q29 0 46.5 -10t17.5 -45v-327q0 -35 -16.5 -48.5t-45.5 -13.5q-57 0 -57 68v270h-129q-29 0 -44 12.5t-15 46.5z" />
<glyph unicode="&#x4f8;" horiz-adv-x="1665" d="M170 66v1308q0 35 16.5 48.5t44.5 13.5q27 0 44.5 -12.5t17.5 -49.5v-514h299q106 0 202.5 -20.5t170 -68.5t116.5 -127t43 -198q0 -207 -132 -326.5t-398 -119.5h-358q-29 0 -47.5 15.5t-18.5 50.5zM293 113h293q109 0 184.5 23.5t123.5 64.5t70.5 99t22.5 130 q0 70 -20.5 129t-68.5 100t-128 65t-197 24h-280v-635zM514 1647q0 41 24.5 66.5t65.5 25.5q35 0 64.5 -22.5t29.5 -69.5q0 -43 -26.5 -68t-67.5 -25t-65.5 25t-24.5 68zM969 1647q0 41 24.5 66.5t65.5 25.5q35 0 63.5 -22.5t28.5 -69.5q0 -43 -24.5 -68t-67.5 -25 q-41 0 -65.5 25t-24.5 68zM1372 47v1327q0 35 16.5 48.5t45.5 13.5t45 -13.5t16 -48.5v-1327q0 -35 -16.5 -48t-44.5 -13q-29 0 -45.5 13t-16.5 48z" />
<glyph unicode="&#x4f9;" horiz-adv-x="1370" d="M156 53v957q0 35 14 47t43 12t43 -12.5t14 -46.5v-377h203q78 0 155 -10.5t138 -43t99 -94t38 -161.5q0 -145 -95 -234.5t-292 -89.5h-301q-27 0 -43 12.5t-16 40.5zM270 94h240q147 0 208.5 63.5t61.5 159.5q0 49 -13 89t-47 69t-89.5 44.5t-138.5 15.5h-222v-441z M401 1352q0 41 24.5 66.5t65.5 25.5q35 0 64.5 -22.5t29.5 -69.5q0 -43 -26.5 -67.5t-67.5 -24.5t-65.5 24.5t-24.5 67.5zM798 1352q0 41 25 66.5t66 25.5q35 0 63.5 -22.5t28.5 -69.5q0 -43 -24.5 -67.5t-67.5 -24.5q-41 0 -66 24.5t-25 67.5zM1098 45v965q0 35 14 47 t43 12t44 -12.5t15 -46.5v-965q0 -35 -15 -47t-44 -12t-43 12t-14 47z" />
<glyph unicode="&#x2000;" horiz-adv-x="911" />
<glyph unicode="&#x2001;" horiz-adv-x="1823" />
<glyph unicode="&#x2002;" horiz-adv-x="911" />
<glyph unicode="&#x2003;" horiz-adv-x="1823" />
<glyph unicode="&#x2004;" horiz-adv-x="607" />
<glyph unicode="&#x2005;" horiz-adv-x="455" />
<glyph unicode="&#x2006;" horiz-adv-x="303" />
<glyph unicode="&#x2007;" horiz-adv-x="303" />
<glyph unicode="&#x2008;" horiz-adv-x="227" />
<glyph unicode="&#x2009;" horiz-adv-x="364" />
<glyph unicode="&#x200a;" horiz-adv-x="101" />
<glyph unicode="&#x2010;" horiz-adv-x="542" d="M49 528q0 63 53 64h336q55 0 56 -64q0 -66 -56 -65h-336q-53 0 -53 65z" />
<glyph unicode="&#x2011;" horiz-adv-x="542" d="M49 528q0 63 53 64h336q55 0 56 -64q0 -66 -56 -65h-336q-53 0 -53 65z" />
<glyph unicode="&#x2012;" horiz-adv-x="542" d="M49 528q0 63 53 64h336q55 0 56 -64q0 -66 -56 -65h-336q-53 0 -53 65z" />
<glyph unicode="&#x2013;" horiz-adv-x="1024" d="M0 514q0 55 47 55h930q47 0 47 -55q0 -59 -47 -59h-930q-47 0 -47 59z" />
<glyph unicode="&#x2014;" horiz-adv-x="2048" d="M0 514q0 55 47 55h1954q47 0 47 -55q0 -59 -47 -59h-1954q-47 0 -47 59z" />
<glyph unicode="&#x2018;" horiz-adv-x="425" d="M135 1126q0 78 26.5 151t74.5 128q12 14 22 22.5t27 8.5q16 0 27.5 -9.5t11.5 -21.5q0 -10 -6.5 -19.5t-16.5 -23.5q-27 -35 -46 -75t-28 -95q49 -4 74 -34t25 -64q0 -41 -26 -65.5t-67 -24.5t-69.5 26t-28.5 96z" />
<glyph unicode="&#x2019;" horiz-adv-x="401" d="M104 1346q0 41 26 65.5t67 24.5t69.5 -26.5t28.5 -96.5q0 -78 -26.5 -150.5t-73.5 -128.5q-12 -14 -22.5 -22t-27.5 -8q-16 0 -27.5 9t-11.5 21q0 10 6.5 19.5t16.5 23.5q27 35 46.5 75t27.5 95q-49 4 -74 34t-25 65z" />
<glyph unicode="&#x201a;" horiz-adv-x="366" d="M98 100q0 41 26 65.5t66 24.5q41 0 70 -26t29 -96q0 -78 -26.5 -151t-74.5 -128q-12 -14 -22 -22.5t-27 -8.5q-16 0 -27.5 9.5t-11.5 21.5q0 10 6.5 19.5t16.5 23.5q27 35 46 75t28 95q-49 4 -74 34t-25 64z" />
<glyph unicode="&#x201c;" horiz-adv-x="772" d="M135 1126q0 78 26.5 151t74.5 128q12 14 22 22.5t27 8.5q16 0 27.5 -9.5t11.5 -21.5q0 -10 -6.5 -19.5t-16.5 -23.5q-27 -35 -46 -75t-28 -95q49 -4 74 -34t25 -64q0 -41 -26 -65.5t-67 -24.5t-69.5 26t-28.5 96zM481 1126q0 78 26.5 151t74.5 128q12 14 22 22.5t27 8.5 q16 0 27.5 -9.5t11.5 -21.5q0 -10 -6.5 -19.5t-16.5 -23.5q-27 -35 -46 -75t-28 -95q49 -4 74 -34t25 -64q0 -41 -26 -65.5t-67 -24.5t-69.5 26t-28.5 96z" />
<glyph unicode="&#x201d;" horiz-adv-x="747" d="M104 1346q0 41 26 65.5t67 24.5t69.5 -26.5t28.5 -96.5q0 -78 -26.5 -150.5t-73.5 -128.5q-12 -14 -22.5 -22t-27.5 -8q-16 0 -27.5 9t-11.5 21q0 10 6.5 19.5t16.5 23.5q27 35 46.5 75t27.5 95q-49 4 -74 34t-25 65zM450 1346q0 41 26 65.5t67 24.5t69.5 -26.5 t28.5 -96.5q0 -78 -26.5 -150.5t-73.5 -128.5q-12 -14 -22.5 -22t-27.5 -8q-16 0 -27.5 9t-11.5 21q0 10 6.5 19.5t16.5 23.5q27 35 46.5 75t27.5 95q-49 4 -74 34t-25 65z" />
<glyph unicode="&#x201e;" horiz-adv-x="712" d="M98 100q0 41 26 65.5t66 24.5q41 0 70 -26t29 -96q0 -78 -26.5 -151t-74.5 -128q-12 -14 -22 -22.5t-27 -8.5q-16 0 -27.5 9.5t-11.5 21.5q0 10 6.5 19.5t16.5 23.5q27 35 46 75t28 95q-49 4 -74 34t-25 64zM444 100q0 41 26 65.5t66 24.5q41 0 70 -26t29 -96 q0 -78 -26.5 -151t-74.5 -128q-12 -14 -22 -22.5t-27 -8.5q-16 0 -27.5 9.5t-11.5 21.5q0 10 6.5 19.5t16.5 23.5q27 35 46 75t28 95q-49 4 -74 34t-25 64z" />
<glyph unicode="&#x2026;" horiz-adv-x="1759" d="M231 86q0 41 29 72.5t70 31.5q39 0 68.5 -31.5t29.5 -72.5t-30 -71.5t-68 -30.5q-41 0 -70 30.5t-29 71.5zM782 86q0 41 29 72.5t70 31.5q39 0 68.5 -31.5t29.5 -72.5t-30 -71.5t-68 -30.5q-41 0 -70 30.5t-29 71.5zM1343 86q0 41 29 72.5t70 31.5q39 0 68.5 -31.5 t29.5 -72.5t-30 -71.5t-68 -30.5q-41 0 -70 30.5t-29 71.5z" />
<glyph unicode="&#x202f;" horiz-adv-x="364" />
<glyph unicode="&#x2039;" horiz-adv-x="651" d="M102 543q0 14 6.5 24.5t14.5 20.5l307 348q25 29 45 29q23 0 43.5 -20.5t20.5 -43.5q0 -14 -7.5 -26.5t-25.5 -32.5l-260 -291l256 -289q16 -18 22 -29.5t6 -23.5q0 -25 -20.5 -44.5t-42.5 -19.5q-25 0 -51 33l-289 316q-10 10 -17.5 22t-7.5 27z" />
<glyph unicode="&#x203a;" horiz-adv-x="651" d="M113 901q0 23 20.5 43.5t42.5 20.5q20 0 45 -29l307 -348q8 -10 14.5 -20.5t6.5 -24.5t-7 -26.5t-18 -22.5l-288 -316q-27 -33 -52 -33q-23 0 -43 19.5t-20 44.5q0 12 6 23.5t23 29.5l256 285l-261 295q-18 20 -25 32.5t-7 26.5z" />
<glyph unicode="&#x205f;" horiz-adv-x="455" />
<glyph unicode="&#x20ac;" d="M57 526q0 25 8.5 37t32.5 12h158q-2 27 -3 65t-1 65q0 25 1 59.5t3 56.5h-158q-25 0 -33 14.5t-8 36.5q0 25 8.5 35.5t32.5 10.5h166q35 240 165 371.5t355 131.5q94 0 172 -30.5t136 -79.5q41 -35 70.5 -71t29.5 -81q0 -25 -19.5 -38t-37.5 -13q-23 0 -36.5 14.5 t-37.5 46.5q-72 88 -142.5 114t-152.5 26q-156 0 -255 -103.5t-116 -287.5h457q25 0 33 -10.5t8 -35.5q0 -23 -8 -37t-33 -14h-469q-2 -23 -3 -57.5t-1 -58.5q0 -27 1 -65t3 -65h469q25 0 33 -12t8 -37q0 -23 -8 -35t-33 -12h-457q37 -193 127 -292t256 -99q51 0 92 6 t77 22.5t68 45t66 74.5q31 43 43.5 56t28.5 13q18 0 38.5 -13t20.5 -36q0 -43 -35.5 -88t-76.5 -80q-59 -53 -141 -83t-179 -30q-225 0 -349 129t-165 375h-168q-25 0 -33 12.5t-8 34.5z" />
<glyph unicode="&#x2122;" horiz-adv-x="1761" d="M61 1372q0 20 6.5 34.5t18.5 14.5h576q14 0 20 -14t6 -35q0 -18 -8 -33.5t-29 -15.5h-227v-655q0 -18 -13.5 -31.5t-41.5 -13.5q-53 0 -54 45v655h-219q-18 0 -26.5 15.5t-8.5 33.5zM831 670v696q0 70 95 70q41 0 67.5 -28t40.5 -69l197 -569l211 567q14 37 33.5 68 t72.5 31q92 0 92 -60v-710q0 -23 -15 -35.5t-38 -12.5q-29 0 -39 13.5t-10 36.5v649l-217 -578q-25 -66 -88 -65q-68 0 -88 55l-211 586v-651q0 -18 -9.5 -32t-35.5 -14q-57 0 -58 52z" />
<glyph unicode="&#x25fc;" horiz-adv-x="1044" d="M0 0v1044h1044v-1044h-1044z" />
</font>
</defs>
</svg>
